<?xml version="1.0" encoding="UTF-8"?>
<svg width="11px" height="9px" viewBox="0 0 11 9" version="1.1" xmlns="http://www.w3.org/2000/svg" xmlns:xlink="http://www.w3.org/1999/xlink">
    <title>icon</title>
    <g id="Symbols" stroke="none" stroke-width="1" fill="none" fill-rule="evenodd" >
        <g id="Tables-/-Claims-/-Completed-Step" transform="translate(-9.000000, -10.000000)" >
            <g id="Icons-/-Font-Awesome-/-white-/-fa-check" transform="translate(9.166667, 10.166667)" fill="#000" >
                <path d="M10.8571429,2.01843318 C10.8571429,2.19567529 10.7870968,2.37291741 10.6610138,2.50053173 L4.63705069,8.5976604 C4.51096774,8.72527473 4.33585253,8.79617157 4.16073733,8.79617157 C3.98562212,8.79617157 3.81050691,8.72527473 3.68442396,8.5976604 L0.196129032,5.06699752 C0.0700460829,4.9393832 0,4.76214108 0,4.58489897 C0,4.40765686 0.0700460829,4.23041475 0.196129032,4.10280043 L1.14875576,3.13860333 C1.27483871,3.01098901 1.44995392,2.94009217 1.62506912,2.94009217 C1.80018433,2.94009217 1.97529954,3.01098901 2.10138249,3.13860333 L4.16073733,5.23006026 L8.75576037,0.57213754 C8.88184332,0.444523219 9.05695853,0.373626374 9.23207373,0.373626374 C9.40718894,0.373626374 9.58230415,0.444523219 9.7083871,0.57213754 L10.6610138,1.53633463 C10.7870968,1.66394895 10.8571429,1.84119107 10.8571429,2.01843318 Z" id="icon" ></path>
            </g>
        </g>
    </g>
</svg>
