<?xml version="1.0" encoding="UTF-8"?>
<svg width="25px" height="25px" viewBox="0 0 25 25" version="1.1" xmlns="http://www.w3.org/2000/svg" xmlns:xlink="http://www.w3.org/1999/xlink">
    <!-- Generator: Sketch 64 (93537) - https://sketch.com -->
    <title>Group 4</title>
    <desc>Created with Sketch.</desc>
    <g id="Symbols" stroke="#00F" stroke-width="1" fill="#000" fill-rule="evenodd">
        <g id="Buttons/Add-to-Calendar">
            <g id="Group-4">
                <g id="Group-5">
                    <g id="Group-2" fill="#000">
                        <g id="Group">
                            <g id="Group-3">
                                <circle id="Oval" cx="12.5" cy="12.5" r="12.5"></circle>
                            </g>
                        </g>
                    </g>
                    <g id="Icons-/-Font-Awesome-/-white-/-fa-calendar-o" transform="translate(6.000000, 6.000000)" fill="#FFFFFF">
                        <path d="M1.78526786,12.3778571 L12.2588393,12.3778571 L12.2588393,4.76071429 L1.78526786,4.76071429 L1.78526786,12.3778571 Z M4.64169643,3.3325 L4.64169643,1.19017857 C4.64169643,1.05628348 4.5375558,0.952142857 4.40366071,0.952142857 L3.92758929,0.952142857 C3.7936942,0.952142857 3.68955357,1.05628348 3.68955357,1.19017857 L3.68955357,3.3325 C3.68955357,3.46639509 3.7936942,3.57053571 3.92758929,3.57053571 L4.40366071,3.57053571 C4.5375558,3.57053571 4.64169643,3.46639509 4.64169643,3.3325 Z M10.3545536,3.3325 L10.3545536,1.19017857 C10.3545536,1.05628348 10.2504129,0.952142857 10.1165179,0.952142857 L9.64044643,0.952142857 C9.50655134,0.952142857 9.40241071,1.05628348 9.40241071,1.19017857 L9.40241071,3.3325 C9.40241071,3.46639509 9.50655134,3.57053571 9.64044643,3.57053571 L10.1165179,3.57053571 C10.2504129,3.57053571 10.3545536,3.46639509 10.3545536,3.3325 Z M13.2109821,2.85642857 L13.2109821,12.3778571 C13.2109821,12.8985603 12.7795424,13.33 12.2588393,13.33 L1.78526786,13.33 C1.26456473,13.33 0.833125,12.8985603 0.833125,12.3778571 L0.833125,2.85642857 C0.833125,2.33572545 1.26456473,1.90428571 1.78526786,1.90428571 L2.73741071,1.90428571 L2.73741071,1.19017857 C2.73741071,0.535580357 3.27299107,0 3.92758929,0 L4.40366071,0 C5.05825893,0 5.59383929,0.535580357 5.59383929,1.19017857 L5.59383929,1.90428571 L8.45026786,1.90428571 L8.45026786,1.19017857 C8.45026786,0.535580357 8.98584821,0 9.64044643,0 L10.1165179,0 C10.7711161,0 11.3066964,0.535580357 11.3066964,1.19017857 L11.3066964,1.90428571 L12.2588393,1.90428571 C12.7795424,1.90428571 13.2109821,2.33572545 13.2109821,2.85642857 Z" id="fa-calendar-o"></path>
                    </g>
                </g>
            </g>
        </g>
    </g>
</svg>
