<?xml version="1.0" encoding="UTF-8"?>
<svg width="16px" height="16px" viewBox="0 0 16 16" version="1.1" xmlns="http://www.w3.org/2000/svg" xmlns:xlink="http://www.w3.org/1999/xlink">
    <title>Universal Mode / Icons / Font Awesome / fa-minus duo</title>
    <g id="Symbols---Universal-and-Native-OS" stroke="#00F" stroke-width="1" fill="#000" fill-rule="evenodd">
        <path d="M8,0 C3.58064516,0 0,3.58064516 0,8 C0,12.4193548 3.58064516,16 8,16 C12.4193548,16 16,12.4193548 16,8 C16,3.58064516 12.4193548,0 8,0 Z" id="Path" fill="#F1F1F1"></path>
        <path d="M8,1 C4.13306452,1 1,4.13306452 1,8 C1,11.8669355 4.13306452,15 8,15 C11.8669355,15 15,11.8669355 15,8 C15,4.13306452 11.8669355,1 8,1 Z M4.27419355,9.12903226 C4.08790323,9.12903226 3.93548387,8.9766129 3.93548387,8.79032258 L3.93548387,7.20967742 C3.93548387,7.0233871 4.08790323,6.87096774 4.27419355,6.87096774 L11.7258065,6.87096774 C11.9120968,6.87096774 12.0645161,7.0233871 12.0645161,7.20967742 L12.0645161,8.79032258 C12.0645161,8.9766129 11.9120968,9.12903226 11.7258065,9.12903226 L4.27419355,9.12903226 Z" id="Shape"></path>
    </g>
</svg>