<?xml version="1.0" encoding="UTF-8"?>
<svg width="35px" height="35px" viewBox="0 0 35 35" version="1.1" xmlns="http://www.w3.org/2000/svg" xmlns:xlink="http://www.w3.org/1999/xlink">
    <title>831B59ED-610C-44BB-B56D-8482AC3EE7C2</title>
    <g id="Styles" stroke="none" stroke-width="1" fill="none" fill-rule="evenodd">
        <g id="5-Buttons" transform="translate(-47.000000, -1009.000000)">
            <g id="Buttons-/-Click-For-Action-/-Call-with-TTY" transform="translate(45.000000, 912.000000)">
                <g id="Buttons-/-Click-For-Action-/-Phone" transform="translate(0.000000, 92.000000)">
                    <g id="Group" transform="translate(2.000000, 5.000000)">
                        <circle id="Oval" fill="#0071BC" cx="17.5" cy="17.5" r="17.5"></circle>
                        <g id="Icons-/-Font-Awesome-/-fa-phone" transform="translate(9.000000, 9.000000)" fill="#FFFFFF">
                            <path d="M4.5,14.1428571 L4.5,16.0714286 C4.5,16.1651786 4.46986607,16.2421875 4.40959821,16.3024554 C4.34933036,16.3627232 4.27232143,16.3928571 4.17857143,16.3928571 L2.25,16.3928571 C2.15625,16.3928571 2.07924107,16.3627232 2.01897321,16.3024554 C1.95870536,16.2421875 1.92857143,16.1651786 1.92857143,16.0714286 L1.92857143,14.1428571 C1.92857143,14.0491071 1.95870536,13.9720982 2.01897321,13.9118304 C2.07924107,13.8515625 2.15625,13.8214286 2.25,13.8214286 L4.17857143,13.8214286 C4.27232143,13.8214286 4.34933036,13.8515625 4.40959821,13.9118304 C4.46986607,13.9720982 4.5,14.0491071 4.5,14.1428571 Z M2.57142857,10.2857143 L2.57142857,12.2142857 C2.57142857,12.3080357 2.54129464,12.3850446 2.48102679,12.4453125 C2.42075893,12.5055804 2.34375,12.5357143 2.25,12.5357143 L0.321428571,12.5357143 C0.227678571,12.5357143 0.150669643,12.5055804 0.0904017857,12.4453125 C0.0301339286,12.3850446 0,12.3080357 0,12.2142857 L0,10.2857143 C0,10.1919643 0.0301339286,10.1149554 0.0904017857,10.0546875 C0.150669643,9.99441964 0.227678571,9.96428571 0.321428571,9.96428571 L2.25,9.96428571 C2.34375,9.96428571 2.42075893,9.99441964 2.48102679,10.0546875 C2.54129464,10.1149554 2.57142857,10.1919643 2.57142857,10.2857143 Z M8.35714286,14.1428571 L8.35714286,16.0714286 C8.35714286,16.1651786 8.32700893,16.2421875 8.26674107,16.3024554 C8.20647321,16.3627232 8.12946429,16.3928571 8.03571429,16.3928571 L6.10714286,16.3928571 C6.01339286,16.3928571 5.93638393,16.3627232 5.87611607,16.3024554 C5.81584821,16.2421875 5.78571429,16.1651786 5.78571429,16.0714286 L5.78571429,14.1428571 C5.78571429,14.0491071 5.81584821,13.9720982 5.87611607,13.9118304 C5.93638393,13.8515625 6.01339286,13.8214286 6.10714286,13.8214286 L8.03571429,13.8214286 C8.12946429,13.8214286 8.20647321,13.8515625 8.26674107,13.9118304 C8.32700893,13.9720982 8.35714286,14.0491071 8.35714286,14.1428571 Z M6.42857143,10.2857143 L6.42857143,12.2142857 C6.42857143,12.3080357 6.3984375,12.3850446 6.33816964,12.4453125 C6.27790179,12.5055804 6.20089286,12.5357143 6.10714286,12.5357143 L4.17857143,12.5357143 C4.08482143,12.5357143 4.0078125,12.5055804 3.94754464,12.4453125 C3.88727679,12.3850446 3.85714286,12.3080357 3.85714286,12.2142857 L3.85714286,10.2857143 C3.85714286,10.1919643 3.88727679,10.1149554 3.94754464,10.0546875 C4.0078125,9.99441964 4.08482143,9.96428571 4.17857143,9.96428571 L6.10714286,9.96428571 C6.20089286,9.96428571 6.27790179,9.99441964 6.33816964,10.0546875 C6.3984375,10.1149554 6.42857143,10.1919643 6.42857143,10.2857143 Z M0.662946429,8.67857143 C0.475446429,8.67857143 0.318080357,8.61495536 0.190848214,8.48772321 C0.0636160714,8.36049107 0,8.20647321 0,8.02566964 L0,6.72991071 L5.16294643,6.72991071 L5.16294643,8.02566964 C5.16294643,8.20647321 5.09933036,8.36049107 4.97209821,8.48772321 C4.84486607,8.61495536 4.69084821,8.67857143 4.51004464,8.67857143 L0.662946429,8.67857143 Z M12.2142857,14.1428571 L12.2142857,16.0714286 C12.2142857,16.1651786 12.1841518,16.2421875 12.1238839,16.3024554 C12.0636161,16.3627232 11.9866071,16.3928571 11.8928571,16.3928571 L9.96428571,16.3928571 C9.87053571,16.3928571 9.79352679,16.3627232 9.73325893,16.3024554 C9.67299107,16.2421875 9.64285714,16.1651786 9.64285714,16.0714286 L9.64285714,14.1428571 C9.64285714,14.0491071 9.67299107,13.9720982 9.73325893,13.9118304 C9.79352679,13.8515625 9.87053571,13.8214286 9.96428571,13.8214286 L11.8928571,13.8214286 C11.9866071,13.8214286 12.0636161,13.8515625 12.1238839,13.9118304 C12.1841518,13.9720982 12.2142857,14.0491071 12.2142857,14.1428571 Z M10.2857143,10.2857143 L10.2857143,12.2142857 C10.2857143,12.3080357 10.2555804,12.3850446 10.1953125,12.4453125 C10.1350446,12.5055804 10.0580357,12.5357143 9.96428571,12.5357143 L8.03571429,12.5357143 C7.94196429,12.5357143 7.86495536,12.5055804 7.8046875,12.4453125 C7.74441964,12.3850446 7.71428571,12.3080357 7.71428571,12.2142857 L7.71428571,10.2857143 C7.71428571,10.1919643 7.74441964,10.1149554 7.8046875,10.0546875 C7.86495536,9.99441964 7.94196429,9.96428571 8.03571429,9.96428571 L9.96428571,9.96428571 C10.0580357,9.96428571 10.1350446,9.99441964 10.1953125,10.0546875 C10.2555804,10.1149554 10.2857143,10.1919643 10.2857143,10.2857143 Z M16.0714286,14.1428571 L16.0714286,16.0714286 C16.0714286,16.1651786 16.0412946,16.2421875 15.9810268,16.3024554 C15.9207589,16.3627232 15.84375,16.3928571 15.75,16.3928571 L13.8214286,16.3928571 C13.7276786,16.3928571 13.6506696,16.3627232 13.5904018,16.3024554 C13.5301339,16.2421875 13.5,16.1651786 13.5,16.0714286 L13.5,14.1428571 C13.5,14.0491071 13.5301339,13.9720982 13.5904018,13.9118304 C13.6506696,13.8515625 13.7276786,13.8214286 13.8214286,13.8214286 L15.75,13.8214286 C15.84375,13.8214286 15.9207589,13.8515625 15.9810268,13.9118304 C16.0412946,13.9720982 16.0714286,14.0491071 16.0714286,14.1428571 Z M14.1428571,10.2857143 L14.1428571,12.2142857 C14.1428571,12.3080357 14.1127232,12.3850446 14.0524554,12.4453125 C13.9921875,12.5055804 13.9151786,12.5357143 13.8214286,12.5357143 L11.8928571,12.5357143 C11.7991071,12.5357143 11.7220982,12.5055804 11.6618304,12.4453125 C11.6015625,12.3850446 11.5714286,12.3080357 11.5714286,12.2142857 L11.5714286,10.2857143 C11.5714286,10.1919643 11.6015625,10.1149554 11.6618304,10.0546875 C11.7220982,9.99441964 11.7991071,9.96428571 11.8928571,9.96428571 L13.8214286,9.96428571 C13.9151786,9.96428571 13.9921875,9.99441964 14.0524554,10.0546875 C14.1127232,10.1149554 14.1428571,10.1919643 14.1428571,10.2857143 Z M18,6.1875 L18,6.31808036 L12.8370536,6.31808036 L12.8370536,6.21763393 C12.8370536,5.52120536 11.5580357,5.1796875 9,5.19308036 C6.44196429,5.19977679 5.16294643,5.54129464 5.16294643,6.21763393 L5.16294643,6.31808036 L0,6.31808036 L0,6.1875 C0,6.07366071 0.0284598214,5.9296875 0.0853794643,5.75558036 C0.142299107,5.58147321 0.256138393,5.3671875 0.426897321,5.11272321 C0.59765625,4.85825893 0.816964286,4.60546875 1.08482143,4.35435268 C1.35267857,4.10323661 1.72265625,3.84877232 2.19475446,3.59095982 C2.66685268,3.33314732 3.20256696,3.10714286 3.80189732,2.91294643 C4.40122768,2.71875 5.15122768,2.55970982 6.05189732,2.43582589 C6.95256696,2.31194196 7.93526786,2.25 9,2.25 C10.0647321,2.25 11.0457589,2.31194196 11.9430804,2.43582589 C12.8404018,2.55970982 13.5904018,2.71875 14.1930804,2.91294643 C14.7957589,3.10714286 15.3331473,3.33314732 15.8052455,3.59095982 C16.2773438,3.84877232 16.6473214,4.10323661 16.9151786,4.35435268 C17.1830357,4.60546875 17.4023438,4.85825893 17.5731027,5.11272321 C17.7438616,5.3671875 17.8577009,5.58147321 17.9146205,5.75558036 C17.9715402,5.9296875 18,6.07366071 18,6.1875 Z M18,10.2857143 L18,12.2142857 C18,12.3080357 17.9698661,12.3850446 17.9095982,12.4453125 C17.8493304,12.5055804 17.7723214,12.5357143 17.6785714,12.5357143 L15.75,12.5357143 C15.65625,12.5357143 15.5792411,12.5055804 15.5189732,12.4453125 C15.4587054,12.3850446 15.4285714,12.3080357 15.4285714,12.2142857 L15.4285714,10.2857143 C15.4285714,10.1919643 15.4587054,10.1149554 15.5189732,10.0546875 C15.5792411,9.99441964 15.65625,9.96428571 15.75,9.96428571 L17.6785714,9.96428571 C17.7723214,9.96428571 17.8493304,9.99441964 17.9095982,10.0546875 C17.9698661,10.1149554 18,10.1919643 18,10.2857143 Z M18,6.72991071 L18,8.02566964 C18,8.20647321 17.9363839,8.36049107 17.8091518,8.48772321 C17.6819196,8.61495536 17.5279018,8.67857143 17.3470982,8.67857143 L13.4899554,8.67857143 C13.3091518,8.67857143 13.1551339,8.61495536 13.0279018,8.48772321 C12.9006696,8.36049107 12.8370536,8.20647321 12.8370536,8.02566964 L12.8370536,6.72991071 L18,6.72991071 Z" id="Shape"></path>
                        </g>
                    </g>
                </g>
            </g>
        </g>
    </g>
</svg>