<svg width="24px" height="24px" viewBox="0 0 24 24" xmlns="http://www.w3.org/2000/svg"><path d="M23.028 10.706L12.88 1.833a1.33 1.33 0 00-1.76 0L.973 10.706a.392.392 0 00-.05.525l.44.58c.121.158.339.183.488.055l1.781-1.559v11.348c0 .413.312.747.698.747h5.579c.385 0 .697-.334.697-.747v-5.978l2.79.014v5.982c0 .412.312.747.697.747l5.58-.015c.384 0 .696-.335.696-.748v-11.35l1.781 1.559c.15.13.37.106.49-.054l.441-.58a.392.392 0 00-.053-.526zM18.97 20.914h.004l-4.184.014v-5.986c-.001-.41-.311-.744-.695-.747l-4.185-.012a.674.674 0 00-.494.218.775.775 0 00-.205.529v5.984H5.027V9.088l6.974-6.098 6.974 6.098-.005 11.826z" fill="#0071BC" fill-rule="nonzero"/>
</svg>