<?xml version="1.0" encoding="UTF-8"?>
<svg width="25px" height="25px" viewBox="0 0 25 25" version="1.1" xmlns="http://www.w3.org/2000/svg" xmlns:xlink="http://www.w3.org/1999/xlink">
    <title>Group 4</title>
    <g id="Symbols" stroke="#00F" stroke-width="1" fill="#000" fill-rule="evenodd">
        <g id="Buttons-/-Click-For-Action-/-Visit-VA.gov" transform="translate(0.000000, -10.000000)">
            <g id="Group-4" transform="translate(0.000000, 10.000000)">
                <g id="Group-3" fill="#000">
                    <circle id="Oval" cx="12.5" cy="12.5" r="12.5"></circle>
                </g>
                <g id="Group" transform="translate(3.000000, 7.000000)" fill="#FFFFFF" fill-rule="nonzero">
                    <g id="arrow-right-solid-(1)" transform="translate(4.000000, 0.000000)">
                        <path d="M5.21917808,0.819178082 L5.82739726,0.210958904 C6.08493151,-0.0465753425 6.50136986,-0.0465753425 6.75616438,0.210958904 L12.0821918,5.53424658 C12.339726,5.79178082 12.339726,6.20821918 12.0821918,6.4630137 L6.75616438,11.7890411 C6.49863014,12.0465753 6.08219178,12.0465753 5.82739726,11.7890411 L5.21917808,11.1808219 C4.95890411,10.9205479 4.96438356,10.4958904 5.23013699,10.2410959 L8.53150685,7.09589041 L0.657534247,7.09589041 C0.293150685,7.09589041 0,6.80273973 0,6.43835616 L0,5.56164384 C0,5.19726027 0.293150685,4.90410959 0.657534247,4.90410959 L8.53150685,4.90410959 L5.23013699,1.75890411 C4.96164384,1.50410959 4.95616438,1.07945205 5.21917808,0.819178082 Z" id="Path"></path>
                    </g>
                </g>
            </g>
        </g>
    </g>
</svg>
