<?xml version="1.0" encoding="UTF-8"?>
<svg width="16px" height="16px" viewBox="0 0 16 16" version="1.1" xmlns="http://www.w3.org/2000/svg" xmlns:xlink="http://www.w3.org/1999/xlink">
    <title>Universal Mode / Icons / Font Awesome / Add</title>
    <g id="Symbols---Universal-and-Native-OS" stroke="#00F" stroke-width="1" fill="#000" fill-rule="evenodd">
        <path d="M8,0 C3.58064516,0 0,3.58064516 0,8 C0,12.4193548 3.58064516,16 8,16 C12.4193548,16 16,12.4193548 16,8 C16,3.58064516 12.4193548,0 8,0 Z M12.6451613,8.90322581 C12.6451613,9.11612903 12.4709677,9.29032258 12.2580645,9.29032258 L9.29032258,9.29032258 L9.29032258,12.2580645 C9.29032258,12.4709677 9.11612903,12.6451613 8.90322581,12.6451613 L7.09677419,12.6451613 C6.88387097,12.6451613 6.70967742,12.4709677 6.70967742,12.2580645 L6.70967742,9.29032258 L3.74193548,9.29032258 C3.52903226,9.29032258 3.35483871,9.11612903 3.35483871,8.90322581 L3.35483871,7.09677419 C3.35483871,6.88387097 3.52903226,6.70967742 3.74193548,6.70967742 L6.70967742,6.70967742 L6.70967742,3.74193548 C6.70967742,3.52903226 6.88387097,3.35483871 7.09677419,3.35483871 L8.90322581,3.35483871 C9.11612903,3.35483871 9.29032258,3.52903226 9.29032258,3.74193548 L9.29032258,6.70967742 L12.2580645,6.70967742 C12.4709677,6.70967742 12.6451613,6.88387097 12.6451613,7.09677419 L12.6451613,8.90322581 Z" id="Shape"></path>
    </g>
</svg>