<svg width="24px" height="24px" viewBox="0 0 24 24" xmlns="http://www.w3.org/2000/svg"><path d="M19.11 5.503l-3.427-3.427A1.96 1.96 0 0014.3 1.5H5.96A1.967 1.967 0 004 3.465v16.994c0 1.083.878 1.961 1.96 1.961h11.766c1.083 0 1.96-.878 1.96-1.96V6.891a1.97 1.97 0 00-.575-1.389zm-.922.928a.643.643 0 01.171.302h-3.901V2.832a.643.643 0 01.302.171l3.428 3.428zm-.462 14.682H5.961a.656.656 0 01-.654-.654V3.465c0-.36.294-.654.654-.654h7.19V7.06c0 .543.437.98.98.98h4.249v12.42c0 .359-.294.653-.654.653zm-1.96-9.968v.327c0 .27-.221.49-.491.49H8.412c-.27 0-.49-.22-.49-.49v-.327c0-.27.22-.49.49-.49h6.863c.27 0 .49.22.49.49zm0 2.615v.326c0 .27-.221.49-.491.49H8.412c-.27 0-.49-.22-.49-.49v-.326c0-.27.22-.49.49-.49h6.863c.27 0 .49.22.49.49zm0 2.614v.327c0 .27-.221.49-.491.49H8.412c-.27 0-.49-.22-.49-.49v-.327c0-.27.22-.49.49-.49h6.863c.27 0 .49.22.49.49z" fill="#000" fill-rule="nonzero"/></svg>