<svg width="18" height="24" viewBox="0 0 18 24" fill="none" xmlns="http://www.w3.org/2000/svg">
    <path
        d="M3.75 12C3.75 11.3097 4.30957 10.75 5 10.75H12.5C13.1904 10.75 13.75 11.3097 13.75 12C13.75 12.6903 13.1904 13.25 12.5 13.25H5C4.30957 13.25 3.75 12.6903 3.75 12Z"
        fill="#000" />
    <path
        d="M3.75 16C3.75 15.3097 4.30957 14.75 5 14.75H12.5C13.1904 14.75 13.75 15.3097 13.75 16C13.75 16.6903 13.1904 17.25 12.5 17.25H5C4.30957 17.25 3.75 16.6903 3.75 16Z"
        fill="#000" />
    <path fill-rule="evenodd" clip-rule="evenodd"
        d="M13.4033 0.660767L17.3359 4.5929C17.5908 4.8479 17.7793 5.15942 17.8877 5.49744C17.959 5.71851 17.9961 5.95093 17.9961 6.18628V21.7505C17.9961 22.9924 16.9893 24 15.7471 24H2.25C1.00781 24 0 22.9924 0 21.7505V2.25427C0 1.01233 1.00781 0.00463867 2.25 0H11.8145C12.4102 0 12.9814 0.239014 13.4033 0.660767ZM11.998 6.00354H15.5645L11.998 2.43701V6.00354ZM2.25 2.25427V21.7505H15.7471V8.25305H10.873C10.499 8.25305 10.168 8.07202 9.96387 7.79248C9.82812 7.60669 9.74805 7.3772 9.74805 7.1283V2.25427H2.25Z"
        fill="#000" />
</svg>