<svg width="18" height="24" viewBox="0 0 18 24" fill="none" xmlns="http://www.w3.org/2000/svg">
    <path fill-rule="evenodd" clip-rule="evenodd"
        d="M10.5 6.375V0H1.125C0.686523 0 0.307617 0.248413 0.12207 0.612915C0.0439453 0.766357 0 0.940308 0 1.125V22.875C0 23.4984 0.501953 24 1.125 24H16.875C17.498 24 18 23.4984 18 22.875V7.5H11.625C11.0059 7.5 10.5 6.99377 10.5 6.375ZM3.75 16C3.75 15.3097 4.30957 14.75 5 14.75H12.5C13.1904 14.75 13.75 15.3097 13.75 16C13.75 16.6903 13.1904 17.25 12.5 17.25H5C4.30957 17.25 3.75 16.6903 3.75 16ZM5 10.75C4.30957 10.75 3.75 11.3097 3.75 12C3.75 12.6903 4.30957 13.25 5 13.25H12.5C13.1904 13.25 13.75 12.6903 13.75 12C13.75 11.3097 13.1904 10.75 12.5 10.75H5Z"
        fill="#000" />
    <path
        d="M18 5.71411V6H12V0H12.2861C12.5859 0 12.8721 0.117188 13.083 0.328125L17.6719 4.92188C17.8828 5.13281 18 5.4187 18 5.71411Z"
        fill="#000" />
</svg>