<svg width="24px" height="24px" viewBox="0 0 24 24" xmlns="http://www.w3.org/2000/svg"><path d="M13.152 7.057V1.5H4.982A.978.978 0 004 2.48v18.96c0 .543.437.98.98.98h13.73c.543 0 .98-.437.98-.98V8.036h-5.557a.984.984 0 01-.98-.98zm2.616 9.643c0 .27-.221.49-.49.49H8.412c-.27 0-.49-.22-.49-.49v-.327c0-.27.22-.49.49-.49h6.864c.27 0 .49.22.49.49v.327zm0-2.615c0 .27-.221.49-.49.49H8.412c-.27 0-.49-.22-.49-.49v-.327c0-.27.22-.49.49-.49h6.864c.27 0 .49.22.49.49v.327zm0-2.942v.327c0 .27-.221.49-.49.49H8.412c-.27 0-.49-.22-.49-.49v-.327c0-.27.22-.49.49-.49h6.864c.27 0 .49.22.49.49zM19.69 6.48v.249h-5.23V1.5h.25a.98.98 0 01.694.286l4 4.004a.977.977 0 01.286.69z" fill="#003E73" fill-rule="nonzero"/></svg>