<svg xmlns="http://www.w3.org/2000/svg"
     width="24px"
     height="24px"
     viewBox="0 0 384 512">
    <path d="M434.828 99.88l-83.884-83.883C341.946 7 329.748 1.9 317.051 1.9H112.99C86.496 2 65 23.496 65 49.99v415.92c0 26.494 21.496 47.99 47.99 47.99h287.944c26.495 0 47.991-21.496 47.991-47.99V133.873c0-12.697-5.099-24.995-14.097-33.993zm-22.596 22.696c2.1 2.1 3.5 4.6 4.2 7.399H320.95V34.494c2.8.7 5.299 2.1 7.399 4.199l83.883 83.883zm-11.298 359.33H112.991c-8.799 0-15.997-7.198-15.997-15.997V49.991c0-8.799 7.198-15.997 15.997-15.997h175.965v103.98a23.938 23.938 0 0023.996 23.995h103.98v303.94c0 8.799-7.2 15.997-15.998 15.997zm-47.99-243.952v7.998c0 6.599-5.4 11.998-11.998 11.998H172.98c-6.599 0-11.998-5.399-11.998-11.998v-7.998c0-6.599 5.4-11.998 11.998-11.998h167.967c6.599 0 11.998 5.4 11.998 11.998zm0 63.987v7.999c0 6.599-5.4 11.997-11.998 11.997H172.98c-6.599 0-11.998-5.398-11.998-11.997v-7.999c0-6.598 5.4-11.997 11.998-11.997h167.967c6.599 0 11.998 5.399 11.998 11.997zm0 63.988v7.998c0 6.599-5.4 11.998-11.998 11.998H172.98c-6.599 0-11.998-5.399-11.998-11.998v-7.998c0-6.599 5.4-11.998 11.998-11.998h167.967c6.599 0 11.998 5.4 11.998 11.998z"
          fill="#0071BC" fill-rule="nonzero"/>
</svg>