<svg xmlns="http://www.w3.org/2000/svg"
     width="24px"
     height="24px"
     viewBox="0 0 512 512">
    <path d="M465.813 96.25H353.375V56.094c0-13.307-10.787-24.094-24.094-24.094H184.72c-13.307 0-24.094 10.787-24.094 24.094V96.25H48.187C21.575 96.25 0 117.824 0 144.438v289.125c0 26.613 21.574 48.187 48.188 48.187h417.625c26.613 0 48.187-21.574 48.187-48.188V144.438c0-26.613-21.574-48.187-48.188-48.187zM192.75 64.125h128.5V96.25h-128.5V64.125zm192.75 64.25v321.25h-257v-321.25h257zM32.125 433.563V144.438c0-8.857 7.206-16.063 16.063-16.063h48.187v321.25H48.187c-8.856 0-16.062-7.206-16.062-16.063zm449.75 0c0 8.856-7.206 16.062-16.063 16.062h-48.187v-321.25h48.188c8.856 0 16.062 7.206 16.062 16.063v289.125zm-128.5-160.625v32.125c0 6.652-5.394 12.046-12.047 12.046H285.11v56.22c0 6.652-5.394 12.046-12.046 12.046h-32.125c-6.653 0-12.047-5.394-12.047-12.047V317.11h-56.22c-6.652 0-12.046-5.394-12.046-12.046v-32.125c0-6.653 5.394-12.047 12.047-12.047h56.219v-56.22c0-6.652 5.394-12.046 12.047-12.046h32.125c6.652 0 12.046 5.394 12.046 12.047v56.219h56.22c6.652 0 12.046 5.394 12.046 12.046z"
          fill="#0071BC" fill-rule="nonzero"/>
</svg>

