<svg width="24px" height="24px" viewBox="0 0 24 24" xmlns="http://www.w3.org/2000/svg"><path d="M21.667 4.489h-5.23V2.62a1.12 1.12 0 00-1.12-1.121H8.591a1.12 1.12 0 00-1.12 1.12V4.49h-5.23A2.241 2.241 0 000 6.73v13.449a2.241 2.241 0 002.241 2.241h19.426a2.241 2.241 0 002.242-2.241V6.73a2.241 2.241 0 00-2.242-2.241zM8.966 2.994h5.977V4.49H8.966V2.994zm8.965 2.989v14.943H5.977V5.983h11.954zM1.494 20.179V6.73c0-.412.335-.747.747-.747h2.242v14.943H2.24a.748.748 0 01-.747-.747zm20.92 0a.748.748 0 01-.747.747h-2.241V5.983h2.241c.412 0 .747.335.747.747v13.449zm-5.977-7.472v1.494c0 .31-.25.56-.56.56h-2.615v2.616c0 .31-.251.56-.56.56h-1.495a.56.56 0 01-.56-.56v-2.615H8.032a.56.56 0 01-.56-.56v-1.495c0-.31.25-.56.56-.56h2.615V9.532c0-.31.25-.56.56-.56h1.494c.31 0 .56.25.56.56v2.615h2.616c.31 0 .56.25.56.56z" fill="#000" stroke="#00F" fill-rule="nonzero"/></svg>