<svg width="24" height="23" viewBox="0 0 24 23" fill="none" xmlns="http://www.w3.org/2000/svg">
    <path
        d="M16.125 12H13.5V9.375C13.5 9.16875 13.3313 9 13.125 9H10.875C10.6687 9 10.5 9.16875 10.5 9.375V12H7.875C7.66875 12 7.5 12.1687 7.5 12.375V14.625C7.5 14.8313 7.66875 15 7.875 15H10.5V17.625C10.5 17.8313 10.6687 18 10.875 18H13.125C13.3313 18 13.5 17.8313 13.5 17.625V15H16.125C16.3313 15 16.5 14.8313 16.5 14.625V12.375C16.5 12.1687 16.3313 12 16.125 12ZM21.75 4.5H16.5V2.25C16.5 1.00781 15.4922 0 14.25 0H9.75C8.50781 0 7.5 1.00781 7.5 2.25V4.5H2.25C1.00781 4.5 0 5.50781 0 6.75V20.25C0 21.4922 1.00781 22.5 2.25 22.5H21.75C22.9922 22.5 24 21.4922 24 20.25V6.75C24 5.50781 22.9922 4.5 21.75 4.5ZM9.75 2.25H14.25V4.5H9.75V2.25ZM21.75 19.9688C21.75 20.1234 21.6234 20.25 21.4688 20.25H2.53125C2.37656 20.25 2.25 20.1234 2.25 19.9688V7.03125C2.25 6.87656 2.37656 6.75 2.53125 6.75H21.4688C21.6234 6.75 21.75 6.87656 21.75 7.03125V19.9688Z"
        fill="#000" />
</svg>