<svg width="24" height="23" viewBox="0 0 24 23" fill="none" xmlns="http://www.w3.org/2000/svg">
    <path
        d="M21.75 4.5H18V2.25C18 1.00781 16.9922 0 15.75 0H8.25C7.00781 0 6 1.00781 6 2.25V4.5H2.25C1.00781 4.5 0 5.50781 0 6.75V20.25C0 21.4922 1.00781 22.5 2.25 22.5H21.75C22.9922 22.5 24 21.4922 24 20.25V6.75C24 5.50781 22.9922 4.5 21.75 4.5ZM9 3H15V4.5H9V3ZM16.5 14.625C16.5 14.8313 16.3313 15 16.125 15H13.5V17.625C13.5 17.8313 13.3313 18 13.125 18H10.875C10.6687 18 10.5 17.8313 10.5 17.625V15H7.875C7.66875 15 7.5 14.8313 7.5 14.625V12.375C7.5 12.1687 7.66875 12 7.875 12H10.5V9.375C10.5 9.16875 10.6687 9 10.875 9H13.125C13.3313 9 13.5 9.16875 13.5 9.375V12H16.125C16.3313 12 16.5 12.1687 16.5 12.375V14.625Z"
        fill="#000" />
</svg>