<svg width="24px"
     height="24px"
     viewBox="0 0 512 512"
     xmlns="http://www.w3.org/2000/svg">
    <path d="M96.375 481h321.25V129H385.5V81c0-26.51-21.574-48-48.188-48H176.688C150.075 33 128.5 54.49 128.5 81v48H96.375v352zM192.75 97h128.5v32h-128.5V97zM514 177v256c0 26.51-21.574 48-48.188 48H449.75V129h16.063C492.425 129 514 150.49 514 177zM64.25 481H48.187C21.575 481 0 459.51 0 433V177c0-26.51 21.574-48 48.188-48H64.25v352zm289.125-208v32c0 8.837-7.191 16-16.063 16h-48.187v48c0 8.837-7.191 16-16.063 16h-32.125c-8.871 0-16.062-7.163-16.062-16v-48h-48.188c-8.871 0-16.062-7.163-16.062-16v-32c0-8.837 7.191-16 16.063-16h48.187v-48c0-8.837 7.191-16 16.063-16h32.125c8.871 0 16.062 7.163 16.062 16v48h48.188c8.871 0 16.062 7.163 16.062 16z"
          fill="#003E73" fill-rule="nonzero"/>
</svg>