<svg width="24px" height="24px" viewBox="0 0 24 24" xmlns="http://www.w3.org/2000/svg"><path d="M4.5 22.418h15V5.982H18v-2.24A2.246 2.246 0 0015.75 1.5h-7.5A2.246 2.246 0 006 3.741v2.241H4.5v16.436zM9 4.488h6v1.494H9V4.488zm15 3.736v11.953a2.246 2.246 0 01-2.25 2.241H21V5.982h.75A2.246 2.246 0 0124 8.224zM3 22.418h-.75A2.246 2.246 0 010 20.177V8.224a2.246 2.246 0 012.25-2.242H3v16.436zm13.5-9.712V14.2a.749.749 0 01-.75.747H13.5v2.242a.749.749 0 01-.75.747h-1.5a.749.749 0 01-.75-.747v-2.242H8.25a.749.749 0 01-.75-.747v-1.494c0-.412.336-.747.75-.747h2.25V9.718c0-.413.336-.747.75-.747h1.5c.414 0 .75.334.75.747v2.241h2.25c.414 0 .75.335.75.747z" fill="#000" fill-rule="nonzero"/></svg>