<svg width="24" height="22" viewBox="0 0 24 22" fill="none" xmlns="http://www.w3.org/2000/svg">
    <path
        d="M12.6479 0.237495C12.2729 -0.0791652 11.7271 -0.0791652 11.3521 0.237495L0.352307 9.57065C-0.0685186 9.92898 -0.118518 10.5581 0.235642 10.979C0.589802 11.3998 1.22312 11.4498 1.64395 11.0956L2.66893 10.229V17.9997C2.66893 19.8413 4.16057 21.3329 6.0022 21.3329H18.002C19.8436 21.3329 21.3352 19.8413 21.3352 17.9997V10.229L22.3561 11.0956C22.7769 11.4539 23.4102 11.3998 23.7644 10.979C24.1185 10.5581 24.0685 9.92481 23.6477 9.57065L12.6479 0.237495ZM19.3353 8.53317V17.9997C19.3353 18.7371 18.7395 19.333 18.002 19.333H6.0022C5.26471 19.333 4.66889 18.7371 4.66889 17.9997V8.53317L12.0021 2.31246L19.3353 8.53317Z"
        fill="#000" />
</svg>