<svg width="24" height="22" viewBox="0 0 24 22" fill="none" xmlns="http://www.w3.org/2000/svg">
    <path
        d="M23.9917 10.6458C23.9917 11.3958 23.3667 11.9833 22.6583 11.9833H21.325L21.3542 18.6583C21.3625 20.1375 20.1667 21.3375 18.6875 21.3375H5.3375C3.86667 21.3375 2.67083 20.1417 2.67083 18.6708V11.9833H1.33333C0.583333 11.9833 0 11.4 0 10.6458C0 10.2708 0.125 9.9375 0.416667 9.64583L11.1 0.333333C11.3917 0.0416667 11.725 0 12.0167 0C12.3083 0 12.6417 0.0833333 12.8917 0.291667L23.5333 9.64583C23.8667 9.9375 24.0333 10.2708 23.9917 10.6458Z"
        fill="#000" />
</svg>