<svg width="24px" height="24px"
     viewBox="0 0 576 512"
     xmlns="http://www.w3.org/2000/svg">
    <path d="M510.997 228.058L277.209 23.668c-11.83-10.224-28.713-10.224-40.543 0L2.958 228.057c-3.433 2.998-3.954 8.406-1.164 12.092l10.14 13.35c2.786 3.66 7.804 4.231 11.245 1.28l41.025-35.909v261.406c0 9.506 7.192 17.212 16.064 17.212h128.516c8.872 0 16.065-7.706 16.065-17.212V342.582l64.258.322v137.781c0 9.506 7.192 17.212 16.064 17.212l128.516-.355c8.872 0 16.064-7.706 16.064-17.212V218.871l41.025 35.909c3.441 2.995 8.497 2.437 11.295-1.248l10.14-13.35c1.344-1.779 1.971-4.057 1.743-6.332-.228-2.275-1.292-4.36-2.957-5.792zm-93.485 235.147h.1l-96.387.322V325.65c-.027-9.473-7.173-17.153-16.014-17.212l-96.387-.29c-4.269-.015-8.368 1.792-11.391 5.021-3.024 3.23-4.723 7.616-4.723 12.19v137.846H96.333V190.784l160.645-140.46 160.644 140.46-.11 272.42z"
          fill="#0071BC" fill-rule="nonzero"/>
</svg>