<!--<?xml version="1.0" encoding="UTF-8"?>-->
<!--<svg width="24px" height="24px" viewBox="0 0 18 18" version="1.1" xmlns="http://www.w3.org/2000/svg" xmlns:xlink="http://www.w3.org/1999/xlink">-->
<!--    &lt;!&ndash; Generator: Sketch 64 (93537) - https://sketch.com &ndash;&gt;-->
<!--    <title>icons8-home (1)</title>-->
<!--    <desc>Created with Sketch.</desc>-->
<!--    <?xml version="1.0" encoding="UTF-8"?>-->

<!--	<g transform="scale(1.125)">-->
<!--	    <g id="Symbols" stroke="none" stroke-width="1" fill="none" fill-rule="evenodd">-->
<!--	        <g id="nav-icons/home-active" transform="translate(0.000000, -4.000000)" fill="#000" fill-rule="nonzero">-->
<!--	            <g id="icons8-home-(1)" transform="translate(0.000000, 4.000000)">-->
<!--	                <path d="M15.93,6.54 C15.8633333,6.62333333 15.7666667,6.66666667 15.6666667,6.66666667 C15.5933333,6.66666667 15.5233333,6.64333333 15.46,6.59666667 L15,6.23666667 L15,15 C15,15.1833333 14.85,15.3333333 14.6666667,15.3333333 L10,15.3333333 L10,9.33333333 L6,9.33333333 L6,15.3333333 L1.33333333,15.3333333 C1.15,15.3333333 1,15.1833333 1,15 L1,6.23666667 L0.54,6.59666667 C0.393333333,6.71 0.183333333,6.68333333 0.07,6.54 C-0.0433333333,6.39333333 -0.0166666667,6.18333333 0.126666667,6.07 L7.79333333,0.0866666667 C7.91666667,-0.00666666667 8.08333333,-0.00666666667 8.20666667,0.0866666667 L15.8733333,6.07 C16.0166667,6.18333333 16.0433333,6.39333333 15.93,6.54 Z" id="Shape"></path>-->
<!--	            </g>-->
<!--	        </g>-->
<!--	    </g>-->
<!--    </g>-->

<!--     <g id="Symbols" stroke="none" stroke-width="1" fill="none" fill-rule="evenodd" stroke-linecap="round">-->
<!--        <g id="nav-icons/home" transform="translate(1.000000, -2.000000)" stroke="#00F" stroke-width="1.5">-->
<!--            <g id="icons8-home" transform="translate(0.000000, 3.000000)">-->
<!--                <polyline id="Path" stroke-linejoin="round" points="14.9565217 5.56521739 14.9565217 15.3043478 1.04347826 15.3043478 1.04347826 5.56521739"></polyline>-->
<!--                <polyline id="Path" points="5.91304348 15.3043478 5.91304348 8.69565217 10.0869565 8.69565217 10.0869565 15.3043478"></polyline>-->
<!--                <polyline id="Path" stroke-linejoin="round" points="0 6.26086957 8 0.0184347826 16 6.26086957"></polyline>-->
<!--            </g>-->
<!--        </g>-->
<!--    </g>-->


<!--</svg>-->
<svg xmlns="http://www.w3.org/2000/svg"
     viewBox="0 0 576 512" width="24px" height="24px"><!-- Font Awesome Pro 5.15.3 by @fontawesome - https://fontawesome.com License - https://fontawesome.com/license (Commercial License) -->
    <path d="M280.37 148.26L96 300.11V464a16 16 0 0 0 16 16l112.06-.29a16 16 0 0 0 15.92-16V368a16 16 0 0 1 16-16h64a16 16 0 0 1 16 16v95.64a16 16 0 0 0 16 16.05L464 480a16 16 0 0 0 16-16V300L295.67 148.26a12.19 12.19 0 0 0-15.3 0zM571.6 251.47L318.47 43a48 48 0 0 0-61 0L4.34 251.47a12 12 0 0 0-1.6 16.9l25.5 31A12 12 0 0 0 45.15 301l235.22-193.74a12.19 12.19 0 0 1 15.3 0L530.9 301a12 12 0 0 0 16.9-1.6l25.5-31a12 12 0 0 0-1.7-16.93z"
          fill="#003E73"/>
</svg>
