<svg width="24px"
     height="24px"
     viewBox="0 0 576 512"
     xmlns="http://www.w3.org/2000/svg">
    <path d="M250.008 94.11L64.71 256.964v224.774c0 11.035 7.581 15.803 15.466 15.803l130.53.409c.397 0 14.074-.409 14.074-16.212v-123.67c0-11.036-1.353-14.59 6.532-14.59H280.8c9.477 0 8.55 4.95 8.55 15.258v123.002c0 16.216 15.735 16.212 19.987 16.216h122.822c7.885 0 17.14-5.181 17.14-16.216V256.964L263.19 94.11c-3.984-4.495-9.198-4.495-13.182 0zm260.906 133.996L283.012 29.128c-16.72-18.47-37-16.51-52.514 0L4.604 226.603c-2.19 2.182-4.306 3.882-4.574 7.292-.268 3.41 1.299 6.054 3.11 8.693l7.668 9.437c1.807 2.648 3.895 4.62 6.725 4.949 2.831.329 4.912-1.211 7.105-3.394l227.67-199.204c.695-.609 2.28-2.635 4.604-2.637.718 0 2.122.879 4.21 2.637.069 0 76.369 66.567 228.9 199.701 2.545 1.811 2.995 2.887 5.787 2.897 2.792.01 4.108-.797 6.179-3.394l9.744-12.495c1.81-2.654 2.49-3.77 2.206-7.188-.285-3.418-.813-3.624-3.024-5.791z"
          fill="#003E73" fill-rule="nonzero"/>
</svg>
