<svg width="24px" height="24px" viewBox="0 0 24 24" xmlns="http://www.w3.org/2000/svg"><path d="M11.697 4.89l-8.043 7.07v9.756c0 .48.329.686.671.686l5.666.018c.017 0 .61-.018.61-.704v-5.368c0-.479-.058-.633.284-.633h2.149c.41 0 .37.215.37.662v5.34c0 .703.684.703.868.703h5.331c.343 0 .744-.225.744-.704V11.96L12.27 4.89c-.173-.195-.4-.195-.572 0zm11.325 5.817L13.13 2.07c-.726-.802-1.606-.717-2.28 0l-9.805 8.572c-.095.094-.187.168-.199.316-.011.148.057.263.135.377l.333.41c.079.115.17.2.292.215.123.014.213-.053.308-.147l9.883-8.647c.03-.027.099-.115.2-.115.03 0 .092.038.182.115.003 0 3.315 2.89 9.936 8.668.11.079.13.125.251.126.122 0 .179-.035.269-.147l.423-.543c.078-.115.108-.163.095-.312-.012-.148-.035-.157-.131-.251z" fill="#003E73" fill-rule="nonzero"/></svg>