<svg width="24" height="24" viewBox="0 0 24 24" fill="#000" xmlns="http://www.w3.org/2000/svg">
<path d="M12.75 6.70312C13.3828 6.75 13.9969 6.92344 14.6063 7.09219C14.6813 7.11094 14.7516 7.12969 14.8219 7.15313C15.225 7.26094 15.4594 7.67813 15.3469 8.07656C15.2391 8.475 14.8219 8.70937 14.4234 8.59687C14.3109 8.56875 14.1984 8.53594 14.0859 8.50312C13.6922 8.4 13.3781 8.25469 13.0172 8.24063C12.1172 8.10938 11.2969 8.22656 10.7062 8.47969C10.1016 8.74219 9.83438 9.09375 9.77813 9.39375C9.69375 9.84844 9.87656 10.1672 10.2563 10.4109C10.7578 10.7297 11.4984 10.9406 12.4078 11.1984L12.4172 11.1609C13.2516 11.4375 14.2406 11.7188 14.9672 12.2156C15.8578 12.8297 16.2656 13.8047 16.0734 14.8688C15.8859 15.8813 15.1828 16.5562 14.2969 16.9125C13.8328 17.1 13.3078 17.2078 12.75 17.2406V18.375C12.75 18.7875 12.4125 19.125 12 19.125C11.5875 19.125 11.25 18.7875 11.25 18.375V17.1609C10.8703 17.1047 10.2281 16.9172 9.73125 16.7672C9.40781 16.6688 9.08438 16.5656 8.72344 16.4625C8.37188 16.3313 8.15625 15.9094 8.2875 15.4734C8.41875 15.1219 8.84062 14.9062 9.23438 15.0375C9.54375 15.0984 9.85781 15.2391 10.1672 15.3328C10.6969 15.4922 11.2312 15.6422 11.4844 15.6797C12.4125 15.8203 13.1953 15.7406 13.7391 15.525C14.2594 15.3141 14.5219 14.9953 14.5969 14.5969C14.6859 14.1047 14.5266 13.7344 14.1188 13.4531C13.5563 13.0688 12.8625 12.8812 12.1969 12.6984C12.0891 12.6656 11.9812 12.6375 11.8734 12.5672C11.0719 12.3797 10.1391 12.1172 9.45 11.6719C9.07031 11.4328 8.71406 11.1047 8.48906 10.6594C8.25938 10.2 8.19844 9.68438 8.30156 9.12188C8.47969 8.15156 9.24375 7.47656 10.1109 7.10156C10.4625 6.95156 10.8422 6.83906 11.2078 6.77344V5.625C11.2078 5.2125 11.5875 4.875 11.9578 4.875C12.4125 4.875 12.75 5.2125 12.75 5.625V6.70312ZM24 12C24 18.6281 18.6281 24 12 24C5.37188 24 0 18.6281 0 12C0 5.37188 5.37188 0 12 0C18.6281 0 24 5.37188 24 12ZM12 1.5C6.20156 1.5 1.5 6.20156 1.5 12C1.5 17.7984 6.20156 22.5 12 22.5C17.7984 22.5 22.5 17.7984 22.5 12C22.5 6.20156 17.7984 1.5 12 1.5Z" fill="#000" fill-rule="nonzero"/>
</svg>
