<svg width="24" height="24" viewBox="0 0 24 24" fill="none" xmlns="http://www.w3.org/2000/svg">
    <path
        d="M14.0806 11.4194L10.5968 10.3597C10.1613 10.2242 9.86129 9.77419 9.86129 9.26129C9.86129 8.6371 10.3065 8.12903 10.8532 8.12903H13.0306C13.3694 8.12903 13.6984 8.22097 13.9935 8.39032C14.3032 8.56935 14.6855 8.55484 14.9468 8.3129L15.5274 7.76613C15.8952 7.41774 15.8323 6.82742 15.4161 6.54677C14.7484 6.09677 13.9694 5.84516 13.171 5.81613V5.03226C13.171 4.60645 12.8226 4.25806 12.3968 4.25806H11.6226C11.1968 4.25806 10.8484 4.60645 10.8484 5.03226V5.80645C9.02903 5.81129 7.54839 7.35968 7.54839 9.26129C7.54839 10.7855 8.52581 12.15 9.92903 12.5806L13.4129 13.6403C13.8484 13.7758 14.1484 14.2258 14.1484 14.7387C14.1484 15.3629 13.7032 15.871 13.1565 15.871H10.979C10.6403 15.871 10.3113 15.779 10.0161 15.6097C9.70645 15.4306 9.32419 15.4452 9.0629 15.6871L8.48226 16.2339C8.11452 16.5823 8.17742 17.1726 8.59355 17.4532C9.26129 17.9032 10.0403 18.1548 10.8387 18.1839V18.9677C10.8387 19.3935 11.1871 19.7419 11.6129 19.7419H12.3871C12.8129 19.7419 13.1613 19.3935 13.1613 18.9677V18.1935C14.9806 18.1887 16.4613 16.6403 16.4613 14.7387C16.4613 13.2145 15.4839 11.85 14.0806 11.4194ZM12 0C5.37097 0 0 5.37097 0 12C0 18.629 5.37097 24 12 24C18.629 24 24 18.629 24 12C24 5.37097 18.629 0 12 0ZM12 21.6774C6.6629 21.6774 2.32258 17.3371 2.32258 12C2.32258 6.6629 6.6629 2.32258 12 2.32258C17.3371 2.32258 21.6774 6.6629 21.6774 12C21.6774 17.3371 17.3371 21.6774 12 21.6774Z"
        fill="#000" />
</svg>