<svg width="24" height="24" viewBox="0 0 24 24" fill="none" xmlns="http://www.w3.org/2000/svg">
    <path
        d="M12 0C5.37097 0 0 5.37097 0 12C0 18.629 5.37097 24 12 24C18.629 24 24 18.629 24 12C24 5.37097 18.629 0 12 0ZM13.1613 18.1935V18.9677C13.1613 19.3935 12.8129 19.7419 12.3871 19.7419H11.6129C11.1871 19.7419 10.8387 19.3935 10.8387 18.9677V18.1839C10.0403 18.1548 9.26129 17.9032 8.59355 17.4532C8.17258 17.1677 8.10968 16.5774 8.48226 16.2339L9.0629 15.6871C9.32419 15.4403 9.70645 15.4258 10.0161 15.6097C10.3113 15.7839 10.6403 15.871 10.979 15.871H13.1565C13.7032 15.871 14.1484 15.3629 14.1484 14.7387C14.1484 14.2258 13.8435 13.7758 13.4129 13.6403L9.91935 12.5806C8.51613 12.1548 7.53871 10.7903 7.53871 9.26129C7.53871 7.35968 9.01935 5.81129 10.8387 5.80645V5.03226C10.8387 4.60645 11.1871 4.25806 11.6129 4.25806H12.3871C12.8129 4.25806 13.1613 4.60645 13.1613 5.03226V5.81613C13.9597 5.84516 14.7387 6.09677 15.4065 6.54677C15.8274 6.83226 15.8903 7.42258 15.5177 7.76613L14.9371 8.3129C14.6758 8.55968 14.2935 8.57419 13.9839 8.39032C13.6887 8.21613 13.3597 8.12903 13.021 8.12903H10.8435C10.2968 8.12903 9.85161 8.6371 9.85161 9.26129C9.85161 9.77419 10.1565 10.2242 10.5871 10.3597L14.071 11.4194C15.4742 11.8452 16.4516 13.2097 16.4516 14.7387C16.4613 16.6403 14.9806 18.1839 13.1613 18.1935Z"
        fill="#000" />
</svg>