<svg width="24px" height="24px"
     viewBox="0 0 496 530"
     xmlns="http://www.w3.org/2000/svg">
    <path d="M257 1C115.58 1 1 115.58 1 257c0 141.42 114.58 256 256 256 141.42 0 256-114.58 256-256C513 115.58 398.42 1 257 1zm0 99.097c50.168 0 90.839 40.67 90.839 90.838 0 50.168-40.671 90.84-90.839 90.84s-90.839-40.672-90.839-90.84c0-50.167 40.671-90.838 90.839-90.838zm0 355.097c-60.594 0-114.89-27.459-151.226-70.4 19.407-36.542 57.394-61.73 101.678-61.73 2.477 0 4.954.413 7.329 1.136 13.419 4.335 27.458 7.123 42.219 7.123 14.761 0 28.903-2.788 42.22-7.123 2.374-.723 4.851-1.135 7.328-1.135 44.284 0 82.271 25.187 101.678 61.729-36.336 42.941-90.632 70.4-151.226 70.4z"
          fill="#003E73" fill-rule="nonzero"/>
</svg>