<svg width="24px" height="24px" viewBox="0 0 24 24" xmlns="http://www.w3.org/2000/svg"><path d="M11.96 1.5C6.182 1.5 1.5 6.182 1.5 11.96c0 5.778 4.682 10.46 10.46 10.46 5.778 0 10.46-4.682 10.46-10.46 0-5.778-4.682-10.46-10.46-10.46zm5.399 17.782a9.062 9.062 0 01-5.399 1.788c-2.02 0-3.885-.67-5.399-1.788v-.574c0-1.488 1.21-2.699 2.7-2.699.468 0 1.16.48 2.699.48 1.544 0 2.227-.48 2.7-.48 1.488 0 2.699 1.21 2.699 2.7v.573zm1.29-1.16c-.286-1.957-1.952-3.463-3.99-3.463-.864 0-1.282.481-2.699.481-1.417 0-1.83-.48-2.7-.48-2.037 0-3.703 1.505-3.99 3.462a9.061 9.061 0 01-2.42-6.162c0-5.023 4.087-9.11 9.11-9.11s9.11 4.087 9.11 9.11a9.061 9.061 0 01-2.42 6.162zM11.96 6.224a3.712 3.712 0 100 7.423 3.712 3.712 0 000-7.423zm0 6.073a2.363 2.363 0 01-2.362-2.362 2.363 2.363 0 012.362-2.361 2.363 2.363 0 012.362 2.361 2.363 2.363 0 01-2.362 2.362z" fill="#000" stroke="#00F" fill-rule="nonzero"/></svg>