<svg width="24px" height="24px" viewBox="0 0 24 24" xmlns="http://www.w3.org/2000/svg"><path d="M11.96 1.5C6.182 1.5 1.5 6.182 1.5 11.96c0 5.778 4.682 10.46 10.46 10.46 5.778 0 10.46-4.682 10.46-10.46 0-5.778-4.682-10.46-10.46-10.46zm0 4.049a3.712 3.712 0 110 7.423 3.712 3.712 0 010-7.423zm0 14.51a8.082 8.082 0 01-6.179-2.877c.793-1.494 2.345-2.523 4.154-2.523.102 0 .203.017.3.047a5.584 5.584 0 001.725.29c.603 0 1.181-.113 1.725-.29.097-.03.198-.047.3-.047 1.809 0 3.361 1.03 4.154 2.523a8.082 8.082 0 01-6.179 2.876z" fill="#003E73" fill-rule="nonzero"/></svg>