<svg width="24px" height="24px"
     viewBox="0 0 496 530"
     xmlns="http://www.w3.org/2000/svg">
    <path d="M257 1C115.58 1 1 115.58 1 257c0 141.42 114.58 256 256 256 141.42 0 256-114.58 256-256C513 115.58 398.42 1 257 1zm132.129 435.2c-37.058 27.355-82.684 43.768-132.129 43.768-49.445 0-95.071-16.413-132.129-43.768v-14.039c0-36.438 29.626-66.064 66.064-66.064 11.459 0 28.388 11.768 66.065 11.768 37.78 0 54.503-11.768 66.065-11.768 36.438 0 66.064 29.626 66.064 66.064V436.2zm31.587-28.387c-7.02-47.897-47.793-84.748-97.651-84.748-21.162 0-31.381 11.767-66.065 11.767s-44.8-11.767-66.065-11.767c-49.858 0-90.632 36.851-97.651 84.748C56.639 368.07 34.032 315.219 34.032 257 34.032 134.058 134.058 34.032 257 34.032S479.968 134.058 479.968 257c0 58.22-22.607 111.071-59.252 150.813zM257 116.613c-50.168 0-90.839 40.67-90.839 90.839 0 50.167 40.671 90.838 90.839 90.838s90.839-40.67 90.839-90.838c0-50.168-40.671-90.84-90.839-90.84zm0 148.645c-31.897 0-57.806-25.91-57.806-57.806 0-31.897 25.91-57.807 57.806-57.807 31.897 0 57.806 25.91 57.806 57.807 0 31.896-25.91 57.806-57.806 57.806z"
          fill="#0071BC" fill-rule="nonzero"/>
</svg>