<svg width="24" height="24" viewBox="0 0 24 24" fill="none" color="#fff" xmlns="http://www.w3.org/2000/svg">
    <path
        d="M21.4286 0H2.57143C1.88944 0 1.23539 0.270918 0.753154 0.753154C0.270918 1.23539 0 1.88944 0 2.57143L0 21.4286C0 22.1106 0.270918 22.7646 0.753154 23.2468C1.23539 23.7291 1.88944 24 2.57143 24H21.4286C22.1106 24 22.7646 23.7291 23.2468 23.2468C23.7291 22.7646 24 22.1106 24 21.4286V2.57143C24 1.88944 23.7291 1.23539 23.2468 0.753154C22.7646 0.270918 22.1106 0 21.4286 0ZM19.7143 13.5C19.7143 13.6705 19.6466 13.834 19.526 13.9546C19.4054 14.0751 19.2419 14.1429 19.0714 14.1429H4.92857C4.75808 14.1429 4.59456 14.0751 4.474 13.9546C4.35344 13.834 4.28571 13.6705 4.28571 13.5V10.5C4.28571 10.3295 4.35344 10.166 4.474 10.0454C4.59456 9.92487 4.75808 9.85714 4.92857 9.85714H19.0714C19.2419 9.85714 19.4054 9.92487 19.526 10.0454C19.6466 10.166 19.7143 10.3295 19.7143 10.5V13.5Z"
        fill="#000" />
    <path
        d="M19.7143 10.5V13.5C19.7143 13.6705 19.6465 13.834 19.526 13.9546C19.4054 14.0751 19.2419 14.1429 19.0714 14.1429H4.92856C4.75807 14.1429 4.59455 14.0751 4.47399 13.9546C4.35343 13.834 4.28571 13.6705 4.28571 13.5V10.5C4.28571 10.3295 4.35343 10.166 4.47399 10.0454C4.59455 9.92487 4.75807 9.85714 4.92856 9.85714H19.0714C19.2419 9.85714 19.4054 9.92487 19.526 10.0454C19.6465 10.166 19.7143 10.3295 19.7143 10.5Z"
        fill="currentColor" />
</svg>