<svg width="24" height="24" viewBox="0 0 24 24" fill="none" color="#fff" xmlns="http://www.w3.org/2000/svg">
    <path fill-rule="evenodd" clip-rule="evenodd"
        d="M3.42857 0H20.5714C22.465 0 24 1.53502 24 3.42857V20.5714C24 22.465 22.465 24 20.5714 24H3.42857C1.53502 24 0 22.465 0 20.5714V3.42857C0 1.53502 1.53502 0 3.42857 0ZM5.01087 13.0473L9.69087 17.7273C9.97204 18.0085 10.4279 18.0085 10.7091 17.7274L18.9891 9.44735C19.2703 9.16615 19.2703 8.71028 18.9891 8.42911L17.9709 7.41087C17.6897 7.12971 17.2338 7.12971 16.9527 7.41087L10.2 14.1635L7.04732 11.0109C6.76616 10.7297 6.31025 10.7297 6.02908 11.0109L5.01087 12.0291C4.72971 12.3103 4.72971 12.7662 5.01087 13.0473Z"
        fill="#000" />
    <path
        d="M9.69092 17.7273L5.01092 13.0473C4.72976 12.7661 4.72976 12.3103 5.01092 12.0291L6.02913 11.0108C6.3103 10.7296 6.7662 10.7296 7.04737 11.0108L10.2 14.1635L16.9527 7.41083C17.2339 7.12966 17.6898 7.12966 17.971 7.41083L18.9892 8.42906C19.2703 8.71023 19.2703 9.16611 18.9892 9.4473L10.7092 17.7273C10.428 18.0085 9.97209 18.0085 9.69092 17.7273Z"
        fill="currentColor" />
</svg>