<?xml version="1.0" encoding="UTF-8"?>
<svg width="22px" height="22px" viewBox="0 0 22 22" version="1.1" xmlns="http://www.w3.org/2000/svg" xmlns:xlink="http://www.w3.org/1999/xlink">
    <!-- Generator: Sketch 64 (93537) - https://sketch.com -->
    <title>Checkbox</title>
    <desc>Created with Sketch.</desc>
    <g id="Symbols" stroke="#00F" stroke-width="1" fill="#000" fill-rule="evenodd">
        <g id="Form-elements-/-checkbox-/-selected">
            <g id="Checkbox">
                <rect id="Container" fill="#000" x="0" y="0" width="22" height="22" rx="3"></rect>
                <path d="M17.0547031,8.42186597 C17.0547031,8.22655323 16.976578,8.0312405 16.8359528,7.89061533 L15.7734515,6.82811407 C15.6328264,6.6874889 15.4375136,6.60936381 15.2422009,6.60936381 C15.0468882,6.60936381 14.8515754,6.6874889 14.7109503,6.82811407 L9.58594416,11.9609327 L7.28906642,9.65624244 C7.14844125,9.51561727 6.95312852,9.43749218 6.75781579,9.43749218 C6.56250305,9.43749218 6.36719032,9.51561727 6.22656515,9.65624244 L5.16406389,10.7187437 C5.02343872,10.8593689 4.94531363,11.0546816 4.94531363,11.2499943 C4.94531363,11.4453071 5.02343872,11.6406198 5.16406389,11.781245 L9.05469353,15.6718746 C9.19531869,15.8124998 9.39063143,15.8906249 9.58594416,15.8906249 C9.78125689,15.8906249 9.97656962,15.8124998 10.1171948,15.6718746 L16.8359528,8.9531166 C16.976578,8.81249143 17.0547031,8.6171787 17.0547031,8.42186597 Z" id="Check" fill="#FFFFFF"></path>
            </g>
        </g>
    </g>
</svg>
