<svg width="24" height="24" viewBox="0 0 24 24" fill="none" color="#fff" xmlns="http://www.w3.org/2000/svg">
    <path
        d="M12 0C5.37097 0 0 5.37097 0 12C0 18.629 5.37097 24 12 24C18.629 24 24 18.629 24 12C24 5.37097 18.629 0 12 0ZM18.9677 13.3548C18.9677 13.5088 18.9066 13.6565 18.7977 13.7654C18.6888 13.8743 18.5411 13.9355 18.3871 13.9355H13.9355V18.3871C13.9355 18.5411 13.8743 18.6888 13.7654 18.7977C13.6565 18.9066 13.5088 18.9677 13.3548 18.9677H10.6452C10.4912 18.9677 10.3435 18.9066 10.2346 18.7977C10.1257 18.6888 10.0645 18.5411 10.0645 18.3871V13.9355H5.6129C5.45891 13.9355 5.31122 13.8743 5.20232 13.7654C5.09343 13.6565 5.03226 13.5088 5.03226 13.3548V10.6452C5.03226 10.4912 5.09343 10.3435 5.20232 10.2346C5.31122 10.1257 5.45891 10.0645 5.6129 10.0645H10.0645V5.6129C10.0645 5.45891 10.1257 5.31122 10.2346 5.20232C10.3435 5.09343 10.4912 5.03226 10.6452 5.03226H13.3548C13.5088 5.03226 13.6565 5.09343 13.7654 5.20232C13.8743 5.31122 13.9355 5.45891 13.9355 5.6129V10.0645H18.3871C18.5411 10.0645 18.6888 10.1257 18.7977 10.2346C18.9066 10.3435 18.9677 10.4912 18.9677 10.6452V13.3548Z"
        fill="#000" />
    <path
        d="M18.9677 13.3548C18.9677 13.5088 18.9065 13.6565 18.7976 13.7654C18.6888 13.8743 18.5411 13.9355 18.3871 13.9355H13.9355V18.3871C13.9355 18.5411 13.8743 18.6888 13.7654 18.7976C13.6565 18.9065 13.5088 18.9677 13.3548 18.9677H10.6451C10.4911 18.9677 10.3434 18.9065 10.2346 18.7976C10.1257 18.6888 10.0645 18.5411 10.0645 18.3871V13.9355H5.61287C5.45888 13.9355 5.31119 13.8743 5.20229 13.7654C5.0934 13.6565 5.03223 13.5088 5.03223 13.3548V10.6451C5.03223 10.4911 5.0934 10.3434 5.20229 10.2346C5.31119 10.1257 5.45888 10.0645 5.61287 10.0645H10.0645V5.61287C10.0645 5.45888 10.1257 5.31119 10.2346 5.20229C10.3434 5.0934 10.4911 5.03223 10.6451 5.03223H13.3548C13.5088 5.03223 13.6565 5.0934 13.7654 5.20229C13.8743 5.31119 13.9355 5.45888 13.9355 5.61287V10.0645H18.3871C18.5411 10.0645 18.6888 10.1257 18.7976 10.2346C18.9065 10.3434 18.9677 10.4911 18.9677 10.6451V13.3548Z"
        fill="currentColor" />
</svg>