<svg width="21" height="24" viewBox="0 0 21 24" fill="none" xmlns="http://www.w3.org/2000/svg">
    <path
        d="M20.4375 22.5H19.5V1.125C19.5 0.503672 18.9963 0 18.375 0H2.625C2.00367 0 1.5 0.503672 1.5 1.125V22.5H0.5625C0.251859 22.5 0 22.7519 0 23.0625V24H21V23.0625C21 22.7519 20.7481 22.5 20.4375 22.5ZM6 3.5625C6 3.25186 6.25186 3 6.5625 3H8.4375C8.74814 3 9 3.25186 9 3.5625V5.4375C9 5.74814 8.74814 6 8.4375 6H6.5625C6.25186 6 6 5.74814 6 5.4375V3.5625ZM6 8.0625C6 7.75186 6.25186 7.5 6.5625 7.5H8.4375C8.74814 7.5 9 7.75186 9 8.0625V9.9375C9 10.2481 8.74814 10.5 8.4375 10.5H6.5625C6.25186 10.5 6 10.2481 6 9.9375V8.0625ZM8.4375 15H6.5625C6.25186 15 6 14.7481 6 14.4375V12.5625C6 12.2519 6.25186 12 6.5625 12H8.4375C8.74814 12 9 12.2519 9 12.5625V14.4375C9 14.7481 8.74814 15 8.4375 15ZM12 22.5H9V18.5625C9 18.2519 9.25186 18 9.5625 18H11.4375C11.7481 18 12 18.2519 12 18.5625V22.5ZM15 14.4375C15 14.7481 14.7481 15 14.4375 15H12.5625C12.2519 15 12 14.7481 12 14.4375V12.5625C12 12.2519 12.2519 12 12.5625 12H14.4375C14.7481 12 15 12.2519 15 12.5625V14.4375ZM15 9.9375C15 10.2481 14.7481 10.5 14.4375 10.5H12.5625C12.2519 10.5 12 10.2481 12 9.9375V8.0625C12 7.75186 12.2519 7.5 12.5625 7.5H14.4375C14.7481 7.5 15 7.75186 15 8.0625V9.9375ZM15 5.4375C15 5.74814 14.7481 6 14.4375 6H12.5625C12.2519 6 12 5.74814 12 5.4375V3.5625C12 3.25186 12.2519 3 12.5625 3H14.4375C14.7481 3 15 3.25186 15 3.5625V5.4375Z"
        fill="#000" />
</svg>