<?xml version="1.0" encoding="UTF-8"?>
<svg width="16px" height="16px" viewBox="0 0 16 16" version="1.1" xmlns="http://www.w3.org/2000/svg" xmlns:xlink="http://www.w3.org/1999/xlink">
    <title>Icons / Font Awesome / fa-check-circle</title>
    <g id="Icons-/-Font-Awesome-/-fa-check-circle" stroke="#00F" stroke-width="1" fill="#000" fill-rule="evenodd">
        <path d="M13.375,6.3125 C13.375,6.13541667 13.3125,5.95833333 13.1875,5.83333333 L12.2395833,4.89583333 C12.1145833,4.77083333 11.9479167,4.69791667 11.7708333,4.69791667 C11.59375,4.69791667 11.4270833,4.77083333 11.3020833,4.89583333 L7.05208333,9.13541667 L4.69791667,6.78125 C4.57291667,6.65625 4.40625,6.58333333 4.22916667,6.58333333 C4.05208333,6.58333333 3.88541667,6.65625 3.76041667,6.78125 L2.8125,7.71875 C2.6875,7.84375 2.625,8.02083333 2.625,8.19791667 C2.625,8.375 2.6875,8.54166667 2.8125,8.66666667 L6.58333333,12.4375 C6.70833333,12.5625 6.88541667,12.6354167 7.05208333,12.6354167 C7.22916667,12.6354167 7.40625,12.5625 7.53125,12.4375 L13.1875,6.78125 C13.3125,6.65625 13.375,6.48958333 13.375,6.3125 Z M16,8 C16,12.4166667 12.4166667,16 8,16 C3.58333333,16 0,12.4166667 0,8 C0,3.58333333 3.58333333,0 8,0 C12.4166667,0 16,3.58333333 16,8 Z" id="fa-check-circle" fill="#000"></path>
    </g>
</svg>
