<svg width="24" height="22" viewBox="0 0 24 22" fill="none" xmlns="http://www.w3.org/2000/svg">
      <path d="M16.775 3.79795L20.5333 7.55628C20.6917 7.71462 20.6917 7.97295 20.5333 8.13128L11.4333 17.2313L7.56667 17.6604C7.05 17.7188 6.6125 17.2813 6.67083 16.7646L7.1 12.8979L16.2 3.79795C16.3583 3.63962 16.6167 3.63962 16.775 3.79795ZM23.525 2.84378L21.4917 0.810449C20.8583 0.177116 19.8292 0.177116 19.1917 0.810449L17.7167 2.28545C17.5583 2.44378 17.5583 2.70212 17.7167 2.86045L21.475 6.61878C21.6333 6.77712 21.8917 6.77712 22.05 6.61878L23.525 5.14378C24.1583 4.50628 24.1583 3.47712 23.525 2.84378ZM16 14.7563V18.9979H2.66667V5.66462H12.2417C12.375 5.66462 12.5 5.61045 12.5958 5.51878L14.2625 3.85212C14.5792 3.53545 14.3542 2.99795 13.9083 2.99795H2C0.895833 2.99795 0 3.89378 0 4.99795V19.6646C0 20.7688 0.895833 21.6646 2 21.6646H16.6667C17.7708 21.6646 18.6667 20.7688 18.6667 19.6646V13.0896C18.6667 12.6438 18.1292 12.4229 17.8125 12.7354L16.1458 14.4021C16.0542 14.498 16 14.6229 16 14.7563Z"
            fill="#000" />
</svg>