<?xml version="1.0" encoding="UTF-8"?>
<svg width="11px" height="13px" viewBox="0 0 11 13" version="1.1" xmlns="http://www.w3.org/2000/svg" xmlns:xlink="http://www.w3.org/1999/xlink">
    <title>Icon</title>
    <g id="Symbols" stroke="none" stroke-width="1" fill="#000" fill-rule="evenodd">
        <g id="Form-elements-/-dropdown-/-default" transform="translate(-170.000000, -67.000000)" fill="#000">
            <g id="Icon" transform="translate(169.000000, 67.000000)">
                <path d="M11.0795455,8.27272727 C11.0795455,8.4296875 11.0149148,8.57741477 10.9041193,8.68821023 L6.76775568,12.8245739 C6.65696023,12.9353693 6.50923295,13 6.35227273,13 C6.1953125,13 6.04758523,12.9353693 5.93678977,12.8245739 L1.80042614,8.68821023 C1.68963068,8.57741477 1.625,8.4296875 1.625,8.27272727 C1.625,7.94957386 1.89275568,7.68181818 2.21590909,7.68181818 L10.4886364,7.68181818 C10.8117898,7.68181818 11.0795455,7.94957386 11.0795455,8.27272727 Z M11.0795455,4.72727273 C11.0795455,5.05042614 10.8117898,5.31818182 10.4886364,5.31818182 L2.21590909,5.31818182 C1.89275568,5.31818182 1.625,5.05042614 1.625,4.72727273 C1.625,4.5703125 1.68963068,4.42258523 1.80042614,4.31178977 L5.93678977,0.175426136 C6.04758523,0.0646306818 6.1953125,0 6.35227273,0 C6.50923295,0 6.65696023,0.0646306818 6.76775568,0.175426136 L10.9041193,4.31178977 C11.0149148,4.42258523 11.0795455,4.5703125 11.0795455,4.72727273 Z" id="sort-icon"></path>
            </g>
        </g>
    </g>
</svg>
