<?xml version="1.0" encoding="UTF-8"?>
<svg width="16px" height="16px" viewBox="0 0 16 16" version="1.1" xmlns="http://www.w3.org/2000/svg" xmlns:xlink="http://www.w3.org/1999/xlink">
    <title>Universal Mode / Icons / Font Awesome / Delete</title>
    <g id="Symbols---Universal-and-Native-OS" stroke="#00F" stroke-width="1" fill="#000" fill-rule="evenodd">
            <path d="M8,0 C3.58064516,0 0,3.58064516 0,8 C0,12.4193548 3.58064516,16 8,16 C12.4193548,16 16,12.4193548 16,8 C16,3.58064516 12.4193548,0 8,0 Z" id="Path" fill="#F1F1F1"></path>
            <path d="M8,1 C11.8669355,1 15,4.13306452 15,8 C15,11.8669355 11.8669355,15 8,15 C4.13306452,15 1,11.8669355 1,8 C1,4.13306452 4.13306452,1 8,1 Z M6.16532258,4.56491935 C6.03266129,4.43225806 5.81814516,4.43225806 5.68548387,4.56491935 L5.68548387,4.56491935 L4.56774194,5.68266129 C4.43508065,5.81532258 4.43508065,6.02983871 4.56774194,6.1625 L4.56774194,6.1625 L6.41935484,8 L4.56774194,9.83467742 C4.43508065,9.96733871 4.43508065,10.1818548 4.56774194,10.3145161 L4.56774194,10.3145161 L5.68266129,11.4322581 C5.81532258,11.5649194 6.02983871,11.5649194 6.1625,11.4322581 L6.1625,11.4322581 L8,9.58064516 L9.83467742,11.4322581 C9.96733871,11.5649194 10.1818548,11.5649194 10.3145161,11.4322581 L10.3145161,11.4322581 L11.4322581,10.3173387 C11.5649194,10.1846774 11.5649194,9.97016129 11.4322581,9.8375 L11.4322581,9.8375 L9.58064516,8 L11.4350806,6.16532258 C11.5677419,6.03266129 11.5677419,5.81814516 11.4350806,5.68548387 L11.4350806,5.68548387 L10.3173387,4.56774194 C10.1846774,4.43508065 9.97016129,4.43508065 9.8375,4.56774194 L9.8375,4.56774194 L8,6.41935484 Z" id="Shape" fill="#212121"></path>
    </g>
</svg>