<svg width="24" height="8" viewBox="0 0 24 8" fill="none" xmlns="http://www.w3.org/2000/svg">
    <path
        d="M15.4839 3.99998C15.4839 5.92579 13.9258 7.48386 12 7.48386C10.0742 7.48386 8.51613 5.92579 8.51613 3.99998C8.51613 2.07418 10.0742 0.516113 12 0.516113C13.9258 0.516113 15.4839 2.07418 15.4839 3.99998ZM20.5161 0.516113C18.5903 0.516113 17.0323 2.07418 17.0323 3.99998C17.0323 5.92579 18.5903 7.48386 20.5161 7.48386C22.4419 7.48386 24 5.92579 24 3.99998C24 2.07418 22.4419 0.516113 20.5161 0.516113ZM3.48387 0.516113C1.55806 0.516113 0 2.07418 0 3.99998C0 5.92579 1.55806 7.48386 3.48387 7.48386C5.40968 7.48386 6.96774 5.92579 6.96774 3.99998C6.96774 2.07418 5.40968 0.516113 3.48387 0.516113Z"
        fill="#000" />
</svg>