<svg width="24" height="22" viewBox="0 0 24 22" fill="none" color="#fff" xmlns="http://www.w3.org/2000/svg">
    <path
        d="M23.7295 18.3331L13.7321 0.999985C12.9638 -0.333328 11.0368 -0.333328 10.2672 0.999985L0.269852 18.3331C-0.497636 19.6639 0.463183 21.333 2.00191 21.333H21.997C23.5333 21.333 24.4995 19.6664 23.7295 18.3331ZM11.9997 18.6664C11.736 18.6664 11.4782 18.5882 11.2589 18.4417C11.0397 18.2952 10.8688 18.0869 10.7679 17.8433C10.6669 17.5997 10.6405 17.3316 10.692 17.073C10.7434 16.8143 10.8704 16.5767 11.0569 16.3903C11.2433 16.2038 11.4809 16.0768 11.7396 16.0254C11.9982 15.9739 12.2663 16.0003 12.5099 16.1012C12.7535 16.2022 12.9618 16.3731 13.1083 16.5923C13.2548 16.8116 13.333 17.0694 13.333 17.3331C13.333 17.6867 13.1925 18.0258 12.9425 18.2759C12.6924 18.5259 12.3533 18.6664 11.9997 18.6664ZM13.593 8.73278L13.0597 14.066C13.0432 14.2306 12.9663 14.3831 12.8437 14.494C12.7211 14.605 12.5617 14.6664 12.3963 14.6664H11.6047C11.4393 14.6664 11.2799 14.605 11.1573 14.494C11.0348 14.3831 10.9578 14.2306 10.9414 14.066L10.408 8.73278C10.3988 8.64025 10.409 8.54681 10.438 8.45847C10.4671 8.37012 10.5142 8.28883 10.5766 8.2198C10.6389 8.15078 10.7149 8.09556 10.7999 8.05768C10.8848 8.0198 10.9767 8.00012 11.0697 7.99988H12.9297C13.0228 7.99988 13.1149 8.0194 13.2 8.05717C13.2851 8.09495 13.3614 8.15014 13.4239 8.21919C13.4864 8.28824 13.5337 8.36961 13.5629 8.45807C13.592 8.54653 13.6022 8.64011 13.593 8.73278Z"
        fill="#000" />
    <path
        d="M12.9297 7.99988H11.0697C10.9766 7.99988 10.8845 8.0194 10.7993 8.05717C10.7142 8.09495 10.638 8.15014 10.5755 8.21918C10.513 8.28823 10.4656 8.36961 10.4365 8.45807C10.4074 8.54653 10.3971 8.64011 10.4064 8.73278L10.9397 14.066C10.9561 14.2306 11.0331 14.3831 11.1557 14.494C11.2783 14.605 11.4377 14.6664 11.603 14.6664H12.3947C12.56 14.6664 12.7194 14.605 12.842 14.494C12.9646 14.3831 13.0416 14.2306 13.058 14.066L13.5913 8.73278C13.6006 8.64025 13.5904 8.54681 13.5613 8.45847C13.5323 8.37012 13.4851 8.28883 13.4228 8.2198C13.3605 8.15078 13.2844 8.09555 13.1995 8.05768C13.1146 8.0198 13.0227 8.00012 12.9297 7.99988ZM11.9997 15.9998C11.736 15.9998 11.4782 16.078 11.2589 16.2245C11.0397 16.371 10.8688 16.5792 10.7679 16.8228C10.6669 17.0665 10.6405 17.3345 10.692 17.5932C10.7434 17.8518 10.8704 18.0894 11.0569 18.2759C11.2434 18.4623 11.4809 18.5893 11.7396 18.6408C11.9982 18.6922 12.2663 18.6658 12.5099 18.5649C12.7536 18.464 12.9618 18.2931 13.1083 18.0738C13.2548 17.8546 13.333 17.5968 13.333 17.3331C13.333 16.9795 13.1925 16.6403 12.9425 16.3903C12.6924 16.1402 12.3533 15.9998 11.9997 15.9998Z"
        fill="currentColor" />
</svg>