<svg width="24" height="24" viewBox="0 0 24 24" fill="none" xmlns="http://www.w3.org/2000/svg">
    <path
        d="M20.25 15H18.75C18.5511 15 18.3603 15.079 18.2197 15.2197C18.079 15.3603 18 15.5511 18 15.75V21H3V6H9.75C9.94891 6 10.1397 5.92098 10.2803 5.78033C10.421 5.63968 10.5 5.44891 10.5 5.25V3.75C10.5 3.55109 10.421 3.36032 10.2803 3.21967C10.1397 3.07902 9.94891 3 9.75 3H2.25C1.65326 3 1.08097 3.23705 0.65901 3.65901C0.237053 4.08097 0 4.65326 0 5.25L0 21.75C0 22.3467 0.237053 22.919 0.65901 23.341C1.08097 23.7629 1.65326 24 2.25 24H18.75C19.3467 24 19.919 23.7629 20.341 23.341C20.7629 22.919 21 22.3467 21 21.75V15.75C21 15.5511 20.921 15.3603 20.7803 15.2197C20.6397 15.079 20.4489 15 20.25 15ZM22.875 0H16.875C15.8733 0 15.3727 1.21453 16.0781 1.92188L17.753 3.59672L6.32812 15.0173C6.22325 15.1219 6.14003 15.2461 6.08325 15.3828C6.02647 15.5195 5.99724 15.6662 5.99724 15.8142C5.99724 15.9623 6.02647 16.1089 6.08325 16.2456C6.14003 16.3824 6.22325 16.5066 6.32812 16.6111L7.39078 17.6719C7.4953 17.7768 7.61949 17.86 7.75624 17.9168C7.89298 17.9735 8.03959 18.0028 8.18766 18.0028C8.33572 18.0028 8.48233 17.9735 8.61908 17.9168C8.75582 17.86 8.88001 17.7768 8.98453 17.6719L20.4037 6.24938L22.0781 7.92188C22.7812 8.625 24 8.13281 24 7.125V1.125C24 0.826631 23.8815 0.540483 23.6705 0.329505C23.4595 0.118526 23.1734 0 22.875 0Z"
        fill="#000" />
</svg>