<svg width="24" height="16" viewBox="0 0 24 16" fill="none" xmlns="http://www.w3.org/2000/svg">
    <path
        d="M23.6641 7.49617L19.2604 0.890583C19.0778 0.616633 18.8303 0.392011 18.54 0.236653C18.2497 0.0812944 17.9255 5.2077e-06 17.5963 0H6.40371C6.07446 1.05455e-06 5.7503 0.0812886 5.46 0.236648C5.16971 0.392007 4.92226 0.616631 4.73963 0.890583L0.335917 7.49617C0.116878 7.82469 -4.82218e-06 8.2107 1.49213e-10 8.60554L1.49213e-10 14C1.49213e-10 15.1046 0.895417 16 2 16H22C23.1046 16 24 15.1046 24 14V8.60554C24 8.2107 23.8831 7.82469 23.6641 7.49617ZM6.7605 2.66667H17.2395L20.7951 8H15.6667L14.3333 10.6667H9.66667L8.33333 8H3.20492L6.7605 2.66667Z"
        fill="#000" />
</svg>