<?xml version="1.0" encoding="UTF-8"?>
<svg width="16px" height="16px" viewBox="0 0 16 16" version="1.1" xmlns="http://www.w3.org/2000/svg" xmlns:xlink="http://www.w3.org/1999/xlink">
    <g id="Symbols---Universal-and-Native-OS" stroke="none" stroke-width="1" fill="none" fill-rule="evenodd">
        <g id="Icon---Names" transform="translate(-326.000000, -804.000000)"></g>
        <g id="Universal-Mode-/-Icons-/-Font-Awesome-/-fa-info-circle" fill="#212121">
            <path fill="#000" d="M10.6666667,13 L10.6666667,11.3333333 C10.6666667,11.1458333 10.5208333,11 10.3333333,11 L9.33333333,11 L9.33333333,5.66666667 C9.33333333,5.47916667 9.1875,5.33333333 9,5.33333333 L5.66666667,5.33333333 C5.47916667,5.33333333 5.33333333,5.47916667 5.33333333,5.66666667 L5.33333333,7.33333333 C5.33333333,7.52083333 5.47916667,7.66666667 5.66666667,7.66666667 L6.66666667,7.66666667 L6.66666667,11 L5.66666667,11 C5.47916667,11 5.33333333,11.1458333 5.33333333,11.3333333 L5.33333333,13 C5.33333333,13.1875 5.47916667,13.3333333 5.66666667,13.3333333 L10.3333333,13.3333333 C10.5208333,13.3333333 10.6666667,13.1875 10.6666667,13 Z M9.33333333,3.66666667 L9.33333333,2 C9.33333333,1.8125 9.1875,1.66666667 9,1.66666667 L7,1.66666667 C6.8125,1.66666667 6.66666667,1.8125 6.66666667,2 L6.66666667,3.66666667 C6.66666667,3.85416667 6.8125,4 7,4 L9,4 C9.1875,4 9.33333333,3.85416667 9.33333333,3.66666667 Z M16,8 C16,12.4166667 12.4166667,16 8,16 C3.58333333,16 0,12.4166667 0,8 C0,3.58333333 3.58333333,0 8,0 C12.4166667,0 16,3.58333333 16,8 Z" id="icon"></path>
        </g>
    </g>
</svg>