<svg width="24" height="24" viewBox="0 0 24 24" fill="none" color="#fff" xmlns="http://www.w3.org/2000/svg">
    <path
        d="M12 0C5.37097 0 0 5.37484 0 12C0 18.6252 5.37097 24 12 24C18.629 24 24 18.629 24 12C24 5.37097 18.629 0 12 0ZM12 5.32258C12.4019 5.32258 12.7949 5.44177 13.1291 5.66508C13.4633 5.88839 13.7237 6.20578 13.8776 6.57713C14.0314 6.94847 14.0716 7.35709 13.9932 7.75131C13.9148 8.14553 13.7212 8.50765 13.437 8.79186C13.1528 9.07608 12.7907 9.26963 12.3965 9.34805C12.0023 9.42646 11.5936 9.38622 11.2223 9.2324C10.8509 9.07858 10.5335 8.8181 10.3102 8.4839C10.0869 8.1497 9.96774 7.75678 9.96774 7.35484C9.96774 6.81585 10.1819 6.29894 10.563 5.91782C10.9441 5.53669 11.461 5.32258 12 5.32258ZM14.7097 17.6129C14.7097 17.7669 14.6485 17.9146 14.5396 18.0235C14.4307 18.1324 14.283 18.1935 14.129 18.1935H9.87097C9.71697 18.1935 9.56928 18.1324 9.46039 18.0235C9.3515 17.9146 9.29032 17.7669 9.29032 17.6129V16.4516C9.29032 16.2976 9.3515 16.1499 9.46039 16.041C9.56928 15.9321 9.71697 15.871 9.87097 15.871H10.4516V12.7742H9.87097C9.71697 12.7742 9.56928 12.713 9.46039 12.6041C9.3515 12.4952 9.29032 12.3475 9.29032 12.1935V11.0323C9.29032 10.8783 9.3515 10.7306 9.46039 10.6217C9.56928 10.5128 9.71697 10.4516 9.87097 10.4516H12.9677C13.1217 10.4516 13.2694 10.5128 13.3783 10.6217C13.4872 10.7306 13.5484 10.8783 13.5484 11.0323V15.871H14.129C14.283 15.871 14.4307 15.9321 14.5396 16.041C14.6485 16.1499 14.7097 16.2976 14.7097 16.4516V17.6129Z"
        fill="#000" />
    <path
        d="M12 9.3871C12.4019 9.3871 12.7949 9.26791 13.1291 9.04461C13.4633 8.8213 13.7237 8.5039 13.8776 8.13256C14.0314 7.76121 14.0716 7.35259 13.9932 6.95837C13.9148 6.56415 13.7212 6.20204 13.437 5.91782C13.1528 5.63361 12.7907 5.44005 12.3965 5.36164C12.0022 5.28322 11.5936 5.32347 11.2223 5.47728C10.8509 5.6311 10.5335 5.89158 10.3102 6.22578C10.0869 6.55999 9.96773 6.9529 9.96773 7.35485C9.96773 7.89383 10.1818 8.41075 10.563 8.79187C10.9441 9.17299 11.461 9.3871 12 9.3871ZM14.129 15.871H13.5484V11.0323C13.5484 10.8783 13.4872 10.7306 13.3783 10.6217C13.2694 10.5128 13.1217 10.4516 12.9677 10.4516H9.87096C9.71696 10.4516 9.56927 10.5128 9.46038 10.6217C9.35149 10.7306 9.29031 10.8783 9.29031 11.0323V12.1936C9.29031 12.3476 9.35149 12.4952 9.46038 12.6041C9.56927 12.713 9.71696 12.7742 9.87096 12.7742H10.4516V15.871H9.87096C9.71696 15.871 9.56927 15.9321 9.46038 16.041C9.35149 16.1499 9.29031 16.2976 9.29031 16.4516V17.6129C9.29031 17.7669 9.35149 17.9146 9.46038 18.0235C9.56927 18.1324 9.71696 18.1936 9.87096 18.1936H14.129C14.283 18.1936 14.4307 18.1324 14.5396 18.0235C14.6485 17.9146 14.7097 17.7669 14.7097 17.6129V16.4516C14.7097 16.2976 14.6485 16.1499 14.5396 16.041C14.4307 15.9321 14.283 15.871 14.129 15.871Z"
        fill="currentColor" />
</svg>