<svg width="21" height="24" viewBox="0 0 21 24" fill="none" xmlns="http://www.w3.org/2000/svg">
    <path
        d="M18.75 10.5H17.625V7.125C17.625 3.19687 14.4281 0 10.5 0C6.57187 0 3.375 3.19687 3.375 7.125V10.5H2.25C1.00781 10.5 0 11.5078 0 12.75V21.75C0 22.9922 1.00781 24 2.25 24H18.75C19.9922 24 21 22.9922 21 21.75V12.75C21 11.5078 19.9922 10.5 18.75 10.5ZM13.875 10.5H7.125V7.125C7.125 5.26406 8.63906 3.75 10.5 3.75C12.3609 3.75 13.875 5.26406 13.875 7.125V10.5Z"
        fill="#000" />
</svg>