<svg width="22" height="24" viewBox="0 0 22 24" fill="none" xmlns="http://www.w3.org/2000/svg">
    <path
        d="M2.03943 21.9594C-0.679553 19.24 -0.680068 14.8381 2.03943 12.1183L12.5868 1.56955C14.6795 -0.523183 18.0843 -0.523183 20.1768 1.56955C22.2741 3.66716 22.2746 7.06264 20.1768 9.16067L11.2956 18.043C9.8233 19.5155 7.42762 19.5154 5.95537 18.0431C4.47979 16.5673 4.47927 14.1781 5.95537 12.7019L13.477 5.17925C13.6967 4.95955 14.0529 4.95955 14.2726 5.17925L15.0679 5.97477C15.2875 6.19442 15.2875 6.55053 15.0679 6.77019L7.54607 14.293C6.94963 14.8894 6.94935 15.8552 7.54607 16.4519C8.14119 17.0471 9.10963 17.0472 9.70485 16.4519L18.586 7.56959C19.8042 6.35136 19.8045 4.37928 18.5861 3.16072C17.3705 1.94507 15.393 1.94516 14.1775 3.16072L3.63018 13.7094C1.79038 15.5494 1.78996 18.5279 3.63013 20.3683C5.47162 22.2101 8.45287 22.2099 10.294 20.367C13.3542 17.3038 16.415 14.2412 19.4764 11.1792C19.6961 10.9595 20.0521 10.9596 20.2718 11.1794L21.0672 11.9749C21.2868 12.1946 21.287 12.5505 21.0673 12.7701C18.0061 15.832 14.9455 18.8944 11.8854 21.9574C9.16508 24.6805 4.76024 24.6806 2.03943 21.9594Z"
        fill="#000" />
</svg>