<svg width="24" height="24" viewBox="0 0 24 24" fill="none" xmlns="http://www.w3.org/2000/svg">
    <path
        d="M23.3156 16.9592L18.0655 14.7092C17.8412 14.6136 17.5919 14.5935 17.3552 14.6518C17.1185 14.7101 16.9071 14.8438 16.7529 15.0326L14.4279 17.8733C10.779 16.1529 7.84242 13.2163 6.12198 9.5674L8.96266 7.24236C9.15188 7.08845 9.28581 6.87709 9.34418 6.64026C9.40254 6.40343 9.38215 6.15404 9.2861 5.92983L7.03606 0.679743C6.93064 0.438055 6.7442 0.240725 6.50887 0.12178C6.27355 0.00283371 6.00409 -0.0302726 5.74697 0.0281692L0.87189 1.15319C0.623996 1.21043 0.402825 1.35001 0.244474 1.54914C0.0861227 1.74827 -5.71046e-05 1.9952 2.8389e-08 2.24961C2.8389e-08 14.2733 9.74548 24 21.7504 24C22.0049 24.0002 22.2519 23.914 22.4511 23.7557C22.6504 23.5973 22.79 23.3761 22.8473 23.1281L23.9723 18.253C24.0304 17.9946 23.9965 17.7241 23.8767 17.488C23.7568 17.2518 23.5584 17.0649 23.3156 16.9592Z"
        fill="#000" />
</svg>