<svg width="24" height="24" viewBox="0 0 24 24" fill="none" color="#fff" xmlns="http://www.w3.org/2000/svg">
    <path
        d="M12 0C5.37097 0 0 5.37484 0 12C0 18.6252 5.37097 24 12 24C18.629 24 24 18.629 24 12C24 5.37097 18.629 0 12 0ZM12 20.4194C11.5598 20.4194 11.1294 20.2888 10.7634 20.0442C10.3974 19.7997 10.1121 19.452 9.94362 19.0453C9.77516 18.6386 9.73108 18.1911 9.81696 17.7593C9.90284 17.3276 10.1148 16.9309 10.4261 16.6197C10.7374 16.3084 11.134 16.0964 11.5658 16.0105C11.9975 15.9246 12.4451 15.9687 12.8518 16.1372C13.2585 16.3056 13.6061 16.5909 13.8507 16.957C14.0953 17.323 14.2258 17.7533 14.2258 18.1935C14.2252 18.7837 13.9905 19.3494 13.5732 19.7667C13.1559 20.184 12.5901 20.4187 12 20.4194ZM13.9355 14.0647V14.129C13.9355 14.283 13.8743 14.4307 13.7654 14.5396C13.6565 14.6485 13.5088 14.7097 13.3548 14.7097H10.6452C10.4912 14.7097 10.3435 14.6485 10.2346 14.5396C10.1257 14.4307 10.0645 14.283 10.0645 14.129V13.9355C10.0645 11.9487 11.5708 11.1547 12.7089 10.5165C13.6848 9.96919 14.2834 9.5971 14.2834 8.87129C14.2834 7.91226 13.0606 7.27452 12.0721 7.27452C10.7565 7.27452 10.1637 7.91032 9.29952 9.00629C9.20533 9.12566 9.06809 9.20332 8.91726 9.2226C8.76644 9.24187 8.61407 9.20121 8.4929 9.10935L6.81387 7.83871C6.69566 7.74913 6.61622 7.6177 6.59183 7.4714C6.56745 7.3251 6.59998 7.17502 6.68274 7.05194C8.00323 5.08065 9.68516 3.96774 12.3223 3.96774C15.0484 3.96774 17.9608 6.09677 17.9608 8.90323C17.9608 12.629 13.9355 12.6876 13.9355 14.0647Z"
        fill="#000" />
    <path
        d="M12.0001 15.9678C11.5599 15.9678 11.1295 16.0983 10.7635 16.3429C10.3975 16.5875 10.1122 16.9351 9.94373 17.3418C9.77527 17.7485 9.73119 18.196 9.81707 18.6278C9.90295 19.0596 10.1149 19.4562 10.4262 19.7675C10.7375 20.0787 11.1341 20.2907 11.5659 20.3766C11.9976 20.4625 12.4452 20.4184 12.8519 20.25C13.2586 20.0815 13.6062 19.7962 13.8508 19.4302C14.0954 19.0641 14.2259 18.6338 14.2259 18.1936C14.2259 17.6033 13.9914 17.0371 13.574 16.6197C13.1566 16.2023 12.5904 15.9678 12.0001 15.9678ZM12.3224 3.96777C9.68527 3.96777 8.00334 5.08068 6.68285 7.05293C6.60038 7.17594 6.56802 7.3258 6.59239 7.47187C6.61677 7.61795 6.69604 7.74918 6.81398 7.83874L8.49301 9.11181C8.61418 9.20366 8.76655 9.24432 8.91737 9.22505C9.0682 9.20578 9.20544 9.12811 9.29963 9.00874C10.1638 7.91277 10.7566 7.27697 12.0722 7.27697C13.0608 7.27697 14.2835 7.91277 14.2835 8.87374C14.2835 9.59955 13.6849 9.97019 12.709 10.5189C11.5709 11.1547 10.0646 11.9487 10.0646 13.9355V14.1291C10.0646 14.2831 10.1258 14.4307 10.2347 14.5396C10.3436 14.6485 10.4913 14.7097 10.6453 14.7097H13.3549C13.5089 14.7097 13.6566 14.6485 13.7655 14.5396C13.8744 14.4307 13.9356 14.2831 13.9356 14.1291V14.0647C13.9356 12.6876 17.9609 12.6291 17.9609 8.90326C17.9609 6.09681 15.0485 3.96777 12.3224 3.96777Z"
        fill="currentColor" />
</svg>