<svg width="24" height="24" viewBox="0 0 24 24" fill="none" xmlns="http://www.w3.org/2000/svg">
    <path
        d="M23.4289 3.63848e-07H21.1728C21.0955 -8.69258e-05 21.0189 0.0155327 20.9478 0.0459121C20.8767 0.0762915 20.8125 0.120798 20.7591 0.176732C20.7057 0.232666 20.6642 0.298863 20.6372 0.371308C20.6101 0.443753 20.5981 0.520937 20.6017 0.59818L20.7921 4.53655C19.6854 3.2324 18.3078 2.18504 16.7552 1.46733C15.2026 0.749629 13.5123 0.37882 11.8018 0.380703C5.29844 0.380703 -0.00475559 5.68818 3.2002e-06 12.1915C0.00476199 18.7054 5.28702 23.9843 11.8018 23.9843C14.7242 23.9884 17.5434 22.9042 19.71 20.943C19.7678 20.8912 19.8145 20.8281 19.8472 20.7576C19.8799 20.6872 19.8978 20.6108 19.9 20.5331C19.9021 20.4555 19.8884 20.3782 19.8596 20.3061C19.8309 20.2339 19.7877 20.1684 19.7328 20.1135L18.1148 18.4955C18.0124 18.3931 17.8749 18.3335 17.7302 18.3286C17.5855 18.3238 17.4444 18.3741 17.3353 18.4693C16.0569 19.5941 14.4659 20.3025 12.7746 20.5001C11.0832 20.6976 9.37184 20.3749 7.86857 19.575C6.3653 18.7751 5.14156 17.536 4.3605 16.0229C3.57943 14.5097 3.27814 12.7944 3.49679 11.1057C3.71545 9.41696 4.44366 7.83498 5.58435 6.57066C6.72503 5.30635 8.224 4.41976 9.88142 4.02909C11.5388 3.63842 13.276 3.76224 14.8612 4.38403C16.4465 5.00582 17.8046 6.09605 18.7544 7.50937L13.9228 7.27762C13.8455 7.27394 13.7684 7.286 13.6959 7.31304C13.6235 7.34009 13.5573 7.38157 13.5013 7.43497C13.4454 7.48837 13.4009 7.55257 13.3705 7.62368C13.3401 7.6948 13.3245 7.77134 13.3246 7.84867V10.1048C13.3246 10.2563 13.3848 10.4015 13.4919 10.5086C13.599 10.6157 13.7442 10.6759 13.8957 10.6759H23.4289C23.5804 10.6759 23.7256 10.6157 23.8327 10.5086C23.9398 10.4015 24 10.2563 24 10.1048V0.571055C24 0.419602 23.9398 0.274352 23.8327 0.167258C23.7256 0.0601649 23.5804 3.63848e-07 23.4289 3.63848e-07Z"
        fill="#000" />
</svg>