<svg width="24" height="24" viewBox="0 0 24 24" fill="none" color="#fff" xmlns="http://www.w3.org/2000/svg">
    <path
        d="M12 0C5.37097 0 0 5.37097 0 12C0 18.629 5.37097 24 12 24C18.629 24 24 18.629 24 12C24 5.37097 18.629 0 12 0ZM17.8839 15.15C17.938 15.2039 17.981 15.268 18.0103 15.3386C18.0396 15.4092 18.0547 15.4849 18.0547 15.5613C18.0547 15.6377 18.0396 15.7134 18.0103 15.784C17.981 15.8545 17.938 15.9186 17.8839 15.9726L15.9677 17.8839C15.9138 17.938 15.8497 17.981 15.7791 18.0103C15.7085 18.0396 15.6329 18.0547 15.5565 18.0547C15.48 18.0547 15.4044 18.0396 15.3338 18.0103C15.2632 17.981 15.1991 17.938 15.1452 17.8839L12 14.7097L8.85 17.8839C8.79606 17.938 8.73196 17.981 8.66138 18.0103C8.5908 18.0396 8.51513 18.0547 8.43871 18.0547C8.36229 18.0547 8.28662 18.0396 8.21604 18.0103C8.14546 17.981 8.08136 17.938 8.02742 17.8839L6.11613 15.9677C6.062 15.9138 6.01905 15.8497 5.98974 15.7791C5.96043 15.7085 5.94535 15.6329 5.94535 15.5565C5.94535 15.48 5.96043 15.4044 5.98974 15.3338C6.01905 15.2632 6.062 15.1991 6.11613 15.1452L9.29032 12L6.11613 8.85C6.062 8.79606 6.01905 8.73196 5.98974 8.66138C5.96043 8.5908 5.94535 8.51513 5.94535 8.43871C5.94535 8.36229 5.96043 8.28662 5.98974 8.21604C6.01905 8.14546 6.062 8.08136 6.11613 8.02742L8.03226 6.11129C8.0862 6.05716 8.1503 6.01421 8.22088 5.9849C8.29146 5.9556 8.36713 5.94051 8.44355 5.94051C8.51997 5.94051 8.59564 5.9556 8.66622 5.9849C8.7368 6.01421 8.80089 6.05716 8.85484 6.11129L12 9.29032L15.15 6.11613C15.2039 6.062 15.268 6.01905 15.3386 5.98974C15.4092 5.96043 15.4849 5.94535 15.5613 5.94535C15.6377 5.94535 15.7134 5.96043 15.784 5.98974C15.8545 6.01905 15.9186 6.062 15.9726 6.11613L17.8887 8.03226C17.9428 8.0862 17.9858 8.1503 18.0151 8.22088C18.0444 8.29146 18.0595 8.36713 18.0595 8.44355C18.0595 8.51997 18.0444 8.59564 18.0151 8.66622C17.9858 8.7368 17.9428 8.80089 17.8887 8.85484L14.7097 12L17.8839 15.15Z"
        fill="#000" />
    <path
        d="M17.8716 15.1471C17.9256 15.201 17.9685 15.265 17.9977 15.3354C18.027 15.4059 18.042 15.4814 18.042 15.5577C18.042 15.634 18.027 15.7095 17.9977 15.78C17.9685 15.8505 17.9256 15.9145 17.8716 15.9683L15.9586 17.8764C15.9048 17.9304 15.8408 17.9733 15.7703 18.0026C15.6999 18.0318 15.6243 18.0469 15.548 18.0469C15.4718 18.0469 15.3962 18.0318 15.3258 18.0026C15.2553 17.9733 15.1913 17.9304 15.1375 17.8764L11.9976 14.7075L8.85289 17.8764C8.79903 17.9304 8.73504 17.9733 8.66458 18.0026C8.59412 18.0318 8.51858 18.0469 8.44229 18.0469C8.366 18.0469 8.29045 18.0318 8.21999 18.0026C8.14953 17.9733 8.08554 17.9304 8.03169 17.8764L6.12362 15.9635C6.06958 15.9096 6.0267 15.8456 5.99744 15.7752C5.96819 15.7047 5.95312 15.6292 5.95312 15.5529C5.95312 15.4766 5.96819 15.401 5.99744 15.3306C6.0267 15.2601 6.06958 15.1961 6.12362 15.1423L9.29247 12.0024L6.12362 8.85772C6.06958 8.80386 6.0267 8.73987 5.99744 8.66941C5.96819 8.59895 5.95312 8.52341 5.95312 8.44712C5.95312 8.37083 5.96819 8.29528 5.99744 8.22483C6.0267 8.15437 6.06958 8.09037 6.12362 8.03652L8.03652 6.12362C8.09037 6.06958 8.15437 6.0267 8.22483 5.99744C8.29528 5.96819 8.37083 5.95312 8.44712 5.95312C8.52341 5.95312 8.59895 5.96819 8.66941 5.99744C8.73987 6.0267 8.80386 6.06958 8.85772 6.12362L11.9976 9.2973L15.1423 6.12845C15.1961 6.07441 15.2601 6.03153 15.3306 6.00227C15.401 5.97302 15.4766 5.95796 15.5529 5.95796C15.6292 5.95796 15.7047 5.97302 15.7752 6.00227C15.8456 6.03153 15.9096 6.07441 15.9635 6.12845L17.8764 8.04135C17.9304 8.09521 17.9733 8.1592 18.0026 8.22966C18.0318 8.30012 18.0469 8.37566 18.0469 8.45195C18.0469 8.52824 18.0318 8.60378 18.0026 8.67424C17.9733 8.7447 17.9304 8.8087 17.8764 8.86255L14.7027 12.0024L17.8716 15.1471Z"
        fill="currentColor" />
</svg>