<svg width="21" height="24" viewBox="0 0 21 24" fill="none" xmlns="http://www.w3.org/2000/svg">
    <path
        d="M1.5 21.75C1.5 22.3467 1.73705 22.919 2.15901 23.341C2.58097 23.7629 3.15326 24 3.75 24H17.25C17.8467 24 18.419 23.7629 18.841 23.341C19.2629 22.919 19.5 22.3467 19.5 21.75V6.00001H1.5V21.75ZM14.25 9.75C14.25 9.55109 14.329 9.36033 14.4697 9.21967C14.6103 9.07902 14.8011 9.00001 15 9.00001C15.1989 9.00001 15.3897 9.07902 15.5303 9.21967C15.671 9.36033 15.75 9.55109 15.75 9.75V20.25C15.75 20.4489 15.671 20.6397 15.5303 20.7803C15.3897 20.921 15.1989 21 15 21C14.8011 21 14.6103 20.921 14.4697 20.7803C14.329 20.6397 14.25 20.4489 14.25 20.25V9.75ZM9.75 9.75C9.75 9.55109 9.82901 9.36033 9.96967 9.21967C10.1103 9.07902 10.3011 9.00001 10.5 9.00001C10.6989 9.00001 10.8897 9.07902 11.0303 9.21967C11.171 9.36033 11.25 9.55109 11.25 9.75V20.25C11.25 20.4489 11.171 20.6397 11.0303 20.7803C10.8897 20.921 10.6989 21 10.5 21C10.3011 21 10.1103 20.921 9.96967 20.7803C9.82901 20.6397 9.75 20.4489 9.75 20.25V9.75ZM5.25 9.75C5.25 9.55109 5.32902 9.36033 5.46967 9.21967C5.61032 9.07902 5.80109 9.00001 6 9.00001C6.19891 9.00001 6.38968 9.07902 6.53033 9.21967C6.67098 9.36033 6.75 9.55109 6.75 9.75V20.25C6.75 20.4489 6.67098 20.6397 6.53033 20.7803C6.38968 20.921 6.19891 21 6 21C5.80109 21 5.61032 20.921 5.46967 20.7803C5.32902 20.6397 5.25 20.4489 5.25 20.25V9.75ZM20.25 1.50001H14.625L14.1844 0.623446C14.091 0.436046 13.9473 0.278409 13.7692 0.16827C13.5912 0.0581305 13.3859 -0.000141936 13.1766 8.21846e-06H7.81875C7.60986 -0.000794775 7.40498 0.0572604 7.22756 0.167522C7.05015 0.277784 6.90738 0.435793 6.81562 0.623446L6.375 1.50001H0.75C0.551087 1.50001 0.360322 1.57903 0.21967 1.71968C0.0790176 1.86033 0 2.0511 0 2.25001L0 3.75001C0 3.94892 0.0790176 4.13968 0.21967 4.28034C0.360322 4.42099 0.551087 4.50001 0.75 4.50001H20.25C20.4489 4.50001 20.6397 4.42099 20.7803 4.28034C20.921 4.13968 21 3.94892 21 3.75001V2.25001C21 2.0511 20.921 1.86033 20.7803 1.71968C20.6397 1.57903 20.4489 1.50001 20.25 1.50001Z"
        fill="#000" />
</svg>