<svg width="24" height="20" viewBox="0 0 24 20" fill="none" xmlns="http://www.w3.org/2000/svg">
    <path
        d="M23.4 13.6H22.8V9.54627C22.8 9.07002 22.6088 8.61252 22.2713 8.27502L18.525 4.52877C18.1875 4.19127 17.73 4.00002 17.2538 4.00002H15.6V2.20002C15.6 1.20627 14.7938 0.400024 13.8 0.400024H1.8C0.80625 0.400024 0 1.20627 0 2.20002V14.2C0 15.1938 0.80625 16 1.8 16H2.4C2.4 17.9875 4.0125 19.6 6 19.6C7.9875 19.6 9.6 17.9875 9.6 16H14.4C14.4 17.9875 16.0125 19.6 18 19.6C19.9875 19.6 21.6 17.9875 21.6 16H23.4C23.73 16 24 15.73 24 15.4V14.2C24 13.87 23.73 13.6 23.4 13.6ZM6 17.8C5.00625 17.8 4.2 16.9938 4.2 16C4.2 15.0063 5.00625 14.2 6 14.2C6.99375 14.2 7.8 15.0063 7.8 16C7.8 16.9938 6.99375 17.8 6 17.8ZM18 17.8C17.0063 17.8 16.2 16.9938 16.2 16C16.2 15.0063 17.0063 14.2 18 14.2C18.9938 14.2 19.8 15.0063 19.8 16C19.8 16.9938 18.9938 17.8 18 17.8ZM21 10H15.6V5.80002H17.2538L21 9.54627V10Z"
        fill="#000" />
</svg>