<?xml version="1.0" encoding="UTF-8"?>
<svg width="16px" height="16px" viewBox="0 0 16 16" version="1.1" xmlns="http://www.w3.org/2000/svg" xmlns:xlink="http://www.w3.org/1999/xlink">
    <g id="Symbols---Universal-and-Native-OS" stroke="none" stroke-width="1" fill="none" fill-rule="evenodd">
        <g id="Icon---Names" transform="translate(-602.000000, -838.000000)"></g>
        <g id="Universal-Mode-/-Icons-/-Font-Awesome-/-truck" fill="#000">
            <path d="M15.6,10.8 L15.2,10.8 L15.2,8.0975 C15.2,7.78 15.0725,7.475 14.8475,7.25 L12.35,4.7525 C12.125,4.5275 11.82,4.4 11.5025,4.4 L10.4,4.4 L10.4,3.2 C10.4,2.5375 9.8625,2 9.2,2 L1.2,2 C0.5375,2 0,2.5375 0,3.2 L0,11.2 C0,11.8625 0.5375,12.4 1.2,12.4 L1.6,12.4 C1.6,13.725 2.675,14.8 4,14.8 C5.325,14.8 6.4,13.725 6.4,12.4 L9.6,12.4 C9.6,13.725 10.675,14.8 12,14.8 C13.325,14.8 14.4,13.725 14.4,12.4 L15.6,12.4 C15.82,12.4 16,12.22 16,12 L16,11.2 C16,10.98 15.82,10.8 15.6,10.8 Z M4,13.6 C3.3375,13.6 2.8,13.0625 2.8,12.4 C2.8,11.7375 3.3375,11.2 4,11.2 C4.6625,11.2 5.2,11.7375 5.2,12.4 C5.2,13.0625 4.6625,13.6 4,13.6 Z M12,13.6 C11.3375,13.6 10.8,13.0625 10.8,12.4 C10.8,11.7375 11.3375,11.2 12,11.2 C12.6625,11.2 13.2,11.7375 13.2,12.4 C13.2,13.0625 12.6625,13.6 12,13.6 Z M14,8.4 L10.4,8.4 L10.4,5.6 L11.5025,5.6 L14,8.0975 L14,8.4 Z" id="Shape"></path>
        </g>
    </g>
</svg>