<svg xmlns="http://www.w3.org/2000/svg" xml:space="preserve" viewBox="0 0 216.2 216.2">
    <circle cx="108.1" cy="108.1" r="107.7" fill="#FEBD11" stroke="#231F20" stroke-width=".75" />
    <circle cx="108.1" cy="108.1" r="103.8" fill="none" stroke="#231F20" stroke-width=".5" />
    <circle cx="108.1" cy="108.1" r="101.2" fill="#FFF" stroke="#231F20" />
    <circle cx="108.1" cy="108.1" r="81.3" fill="#FEBD11" stroke="#231F20" />
    <path fill="#231F20"
        d="m65 181 1.2.7-1.9 10.8c-.1.5-.1.9 0 1.2.1.2.3.4.5.6l.2.1-.4.6-3.8-2.2.4-.6c.1.1.3.1.4.2.2.1.4.2.5.2.2 0 .3-.1.4-.2.1-.1.1-.4.2-.9l.5-2.5-3.8-2.2-2.2 1.8c-.2.2-.4.3-.4.4-.1.1-.1.2-.1.3 0 .1 0 .2.1.3.1.1.2.2.4.3.1.1.2.1.3.2l-.4.6-3.2-1.8.4-.6c.3.2.5.3.7.3.2 0 .3 0 .5-.1s.5-.3.9-.6L65 181zm-4.8 5.1 3.3 1.9 1-5.5-4.3 3.6zM71.6 184.5l4.3 1.9-.3.7-.3-.1c-.3-.1-.6-.2-.7-.2-.2 0-.3.1-.5.2s-.3.4-.5.9l-3.2 7.3c-.2.4-.2.6-.2.8 0 .2.1.3.1.5.1.1.3.3.6.4l.3.1-.3.7-4.3-1.9.3-.7.4.2c.3.1.6.2.7.2.2 0 .3-.1.4-.2.1-.1.3-.4.4-.8l3.3-7.4c.2-.4.3-.7.3-.9 0-.2 0-.3-.1-.4-.1-.1-.3-.3-.6-.4l-.4-.2.3-.7zM77.2 187.1l6 1.9c1.1.4 2 .8 2.5 1.2.5.4.9.9 1 1.5.2.5.2 1.1 0 1.7-.2.6-.5 1.1-1 1.5-.5.4-1 .6-1.7.7-.7.1-1.5 0-2.4-.3l1.9 4.8c.2.4.3.6.3.7.1.2.3.4.5.6.2.2.4.3.7.4l.2.1-.2.7-2.7-.8-2.5-7-1.5-.5-1.1 3.6c-.1.4-.2.7-.2.8 0 .2.1.4.2.5.1.1.4.2.8.4l.3.1-.2.7-4.5-1.4.2-.7.4.1c.3.1.5.1.6.1.1 0 .2 0 .3-.1l.3-.3c0-.1.1-.3.3-.8l2.4-7.7c.1-.3.2-.6.1-.8 0-.2-.1-.3-.2-.4-.1-.1-.3-.2-.6-.3l-.5-.2.3-.8zm2.7 1.9-1.4 4.4 2.4.8c.8.3 1.4.4 1.8.4.5 0 1-.1 1.3-.4.4-.3.7-.7.8-1.2.1-.5.2-.9.1-1.3s-.3-.7-.6-1-.8-.5-1.4-.7l-3-1zM95.1 191.8l9.4.8.8 3.3-.8.2c-.3-.8-.5-1.4-.8-1.7-.3-.4-.6-.6-1-.8s-1-.3-1.9-.4l-2.7-.2-.4 4.7 1.2.1c.6.1 1.1 0 1.4-.1.3-.1.5-.3.7-.5.2-.3.3-.6.3-1.1v-.3l.9.1-.5 5.4-.9-.1v-.5c0-.5 0-.8-.1-1.1-.1-.3-.3-.5-.5-.6-.2-.1-.7-.2-1.3-.3l-1.3-.1-.3 3.8v.7c.1.1.2.3.3.3.1.1.4.1.8.2h.3l-.1.7-4.7-.4.1-.7h1.1c.1-.1.3-.2.3-.3.1-.1.1-.4.2-.8l.8-8.4v-.8c-.1-.2-.1-.3-.3-.4-.1-.1-.4-.1-.7-.2H95l.1-.5zM113 192.4c1.1-.1 2.2.2 3.1.7 1 .5 1.8 1.3 2.4 2.2s.9 2 1 3.2c.1 1.9-.4 3.5-1.5 4.7-1.1 1.3-2.6 1.9-4.4 2-2 .1-3.7-.5-5-1.9-1-1.1-1.6-2.5-1.7-4.1-.1-1.2.2-2.3.7-3.3.5-1 1.2-1.8 2.2-2.4.9-.7 2-1.1 3.2-1.1zm.1.9c-.9 0-1.7.3-2.3.8-.6.5-1.1 1.1-1.5 1.9-.4.8-.5 1.9-.4 3.1.1 1.1.3 2.1.7 2.9.4.8 1 1.4 1.7 1.8.7.4 1.4.6 2.3.5.8 0 1.5-.3 2.1-.7.6-.4 1.1-1.1 1.5-2 .4-.9.5-1.9.5-3-.1-1.1-.3-2.1-.8-3-.4-.8-.9-1.3-1.5-1.7-.7-.5-1.5-.6-2.3-.6zM120.7 192l6.2-1.4c1.2-.3 2.1-.3 2.8-.2.7.1 1.2.4 1.6.8.4.4.7.9.8 1.5.1.6.1 1.2-.1 1.8-.2.6-.6 1-1.1 1.4-.5.4-1.3.7-2.3 1l4 3.2c.3.3.5.4.6.5.2.1.5.2.7.3h1l.2.7-2.7.6-5.7-4.8-1.5.3.8 3.7c.1.4.2.7.2.8.1.2.2.3.4.3s.4 0 .9-.1l.3-.1.2.7-4.6 1-.2-.7.4-.1c.3-.1.5-.1.6-.2.1-.1.2-.2.2-.3.1-.1.1-.3.1-.4 0-.1-.1-.4-.2-.9l-1.7-7.9c-.1-.3-.2-.6-.3-.7-.1-.1-.2-.2-.4-.3h-.7l-.5.1v-.6zm3.3.2 1 4.5 2.5-.5c.8-.2 1.4-.4 1.7-.5.5-.2.8-.6 1-1 .2-.4.2-.9.1-1.5-.1-.5-.3-.9-.6-1.2-.3-.3-.6-.5-1-.6-.4-.1-.9-.1-1.6.1l-3.1.7zM142.4 185.6l.6-.2 2.5 3.4-.7.5c-.8-.7-1.3-1.2-1.6-1.4-.5-.4-1.1-.6-1.8-.7-.6-.1-1.3 0-1.9.2-.7.3-1.3.8-1.8 1.4s-.7 1.4-.8 2.3c-.1.9.1 1.9.4 2.8.4 1 .9 1.8 1.6 2.4.7.6 1.5 1 2.3 1.2.8.2 1.6.1 2.4-.2.7-.3 1.4-.8 2-1.5.6-.7 1-1.6 1.3-2.5l.8.2c-.1.6-.3 1.2-.6 1.7-.4.8-.9 1.5-1.5 2s-1.3 1-2.1 1.3c-1.8.7-3.5.6-5.1-.3-1.3-.7-2.3-1.9-2.9-3.4-.4-1.1-.6-2.2-.4-3.3.2-1.1.6-2.1 1.3-3 .7-.9 1.6-1.5 2.6-1.9.6-.2 1.1-.3 1.6-.4s1.1 0 1.7.2l.1-.8zM145.5 184.2l8.7-5 2.6 2.2-.5.6c-.4-.4-.8-.6-1.2-.8-.4-.1-.7-.2-1.1-.3-.4 0-.7 0-1.1.1-.3.1-.9.4-1.6.8l-2.6 1.5 2.3 3.9 1.3-.7c.5-.3.8-.6.9-.9.2-.3.2-.6.2-.9 0-.2-.2-.6-.4-1l-.1-.2.8-.4 2.7 4.7-.8.4-.2-.4c-.2-.4-.4-.6-.5-.7-.1-.1-.3-.2-.6-.3-.2-.1-.4-.1-.6 0-.2 0-.5.2-.9.4l-1.3.7 2 3.5c.2.4.4.6.4.6.1.1.2.1.3.1.1 0 .3-.1.7-.3l1.6-.9c.9-.5 1.5-1 1.9-1.5.4-.5.6-1.1.8-1.8.1-.5.1-1.2 0-2l.8-.2.7 4-9 5.2-.4-.6.3-.2c.4-.2.6-.4.6-.5.1-.1.1-.3.1-.5 0-.1-.1-.4-.3-.7l-4.2-7.4c-.2-.3-.4-.5-.5-.6-.1-.1-.3-.1-.5-.1-.1 0-.4.2-.9.5l-.4-.3zM33.9 44.8l3.4-3.5.5.5-.1.2c-.3.3-.5.5-.5.7v.4c.1.2.2.4.6.7l4.1 4c.7.7 1.4 1.2 1.9 1.3.5.2 1.1.2 1.8 0 .6-.2 1.2-.5 1.7-1s.8-1.1 1-1.8c.2-.7.2-1.3 0-1.8s-.6-1.2-1.4-1.9l-4-3.9c-.3-.3-.5-.5-.7-.5-.2-.1-.4-.1-.5 0-.2.1-.4.2-.6.4l-.2.3-.5-.5 3-3.1.5.5-.2.2c-.6.4-.7.7-.7 1 0 .3.2.6.6.9l4.2 4.1c.8.8 1.3 1.5 1.5 2.3.2.8.2 1.6 0 2.4-.2.8-.7 1.6-1.4 2.4-.7.7-1.4 1.2-2.3 1.4-.9.3-1.7.3-2.4.1-.7-.2-1.4-.6-2.1-1.3l-4.5-4.4c-.3-.3-.5-.5-.7-.5-.2-.1-.3-.1-.5 0-.2 0-.3.2-.6.4l-.3.3-.6-.3zM45.5 33.3l3.1-2.3L59 35.3l-4.3-5.9c-.3-.4-.5-.6-.7-.7-.2-.1-.4-.1-.6-.1s-.4.1-.7.3l-.3.2-.4-.6 3.4-2.5.5.6-.2.1c-.3.2-.5.4-.6.5-.1.2-.1.4-.1.6.1.2.2.5.5.9l6.2 8.4-.9.7-12.5-5.1 5.4 7.3c.3.4.5.6.6.7.1.1.3.1.4.2h.5c.1-.1.4-.2.8-.5l.5.6-3.5 2.6-.4-.6.2-.1c.4-.3.6-.5.6-.6.1-.2.1-.4 0-.6-.1-.2-.2-.5-.5-.9l-4.8-6.5c-.3-.4-.5-.7-.6-.7-.2-.1-.3-.2-.5-.2s-.5.2-.8.4l-.3.2-.4-.7zM57.6 24.8l4.2-2.4.4.7-.3.2c-.3.2-.5.3-.6.5-.1.2-.1.3-.1.5s.2.5.4 1l4.1 7.2c.2.4.4.6.5.7.2.1.3.2.5.2s.4-.1.7-.3l.3-.2.4.7-4.1 2.3-.4-.7.4-.2c.3-.2.5-.3.6-.5.1-.1.1-.3.1-.5s-.1-.4-.4-.8l-4.2-7.3c-.2-.4-.4-.7-.6-.8s-.3-.2-.5-.1c-.2 0-.4.1-.7.3l-.3.1-.4-.6zM64.2 20.6l.6-.3.3.4 7.1-3.2-.2-.4.6-.3 2.8 2.9-.6.6c-.8-.7-1.5-1.2-2.1-1.3-.7-.1-1.4 0-2.1.3-.3.1-.5.2-.6.3 0 .1-.1.1-.1.2s.1.3.2.6l3.6 8.1c.2.4.3.6.4.7.1.1.2.2.3.2h.4c.1 0 .5-.1.9-.4l.3.7-4.5 2-.2-.7c.5-.2.8-.4.9-.5.2-.1.3-.3.3-.5s-.1-.5-.3-.9l-3.7-8.2c-.1-.3-.2-.4-.2-.4s-.1-.1-.2-.1-.2.1-.4.1c-.6.3-1.1.6-1.3.9s-.5.7-.7 1.3c-.2.5-.2 1.1-.2 1.8l-.9.1-.4-4zM76.1 16l10-2.8 2.1 2.9-.7.5c-.3-.5-.7-.8-1-1.1-.3-.2-.7-.4-1-.5-.4-.1-.7-.2-1.1-.2-.3 0-.9.2-1.8.4l-3 .8 1.3 4.5 1.5-.4c.5-.2.9-.4 1.2-.6.2-.3.4-.5.4-.9 0-.2 0-.6-.2-1.1l-.1-.2.9-.2 1.5 5.4-.9.2-.2-.4c-.1-.4-.2-.7-.3-.9-.1-.2-.3-.3-.5-.4-.2-.1-.4-.2-.6-.2-.2 0-.5.1-1 .2l-1.5.4 1.1 4c.1.4.2.7.3.7.1.1.1.1.2.1s.3 0 .7-.1l1.8-.5c1-.3 1.8-.6 2.3-1 .5-.4.9-.9 1.2-1.6.2-.5.4-1.1.5-2l.9.1-.3 4.2-10.4 2.9-.2-.7.4-.1c.4-.1.7-.2.7-.3.1-.1.2-.3.2-.5 0-.1 0-.4-.1-.8L78 17.3c-.1-.4-.2-.6-.3-.7-.1-.1-.3-.2-.5-.2-.1 0-.5.1-1.1.2V16zM90.8 12.9l-.1-.8 4.5-.5c2.1-.2 3.5-.3 4.4-.1 1.2.2 2.3.9 3.2 1.8 1 1.1 1.5 2.3 1.7 3.8.1 1 0 2-.3 2.9-.3.9-.8 1.7-1.4 2.3-.5.5-1.1.9-1.9 1.2-.8.3-1.5.5-2.3.5l-6.5.7-.1-.7.5-.1h.2c.2 0 .4-.1.5-.2.1-.1.2-.2.3-.4v-.8l-.9-8.5c-.1-.5-.1-.8-.2-.9-.1-.2-.3-.3-.5-.3-.1 0-.5 0-1.1.1zm4.5 10.5 2.7-.3c.3 0 .7-.1 1.3-.3s1.1-.3 1.3-.5c.4-.3.7-.6 1.1-1.1s.6-1.1.7-1.7c.1-.7.2-1.4.1-2.2-.1-.8-.3-1.5-.5-2.1-.3-.6-.6-1.1-1.1-1.5-.5-.4-1-.7-1.5-.9-.5-.2-1.1-.3-1.7-.3-.3 0-.9.1-1.7.1l-1.9.2 1.2 10.6zM122.2 11.7l.7.1.5 4-.9.2c-.4-1.2-1-2.1-1.8-2.8-.7-.6-1.4-1-2.3-1.1-.5-.1-1 0-1.5.1-.4.1-.8.4-1 .6-.2.3-.4.6-.4.9 0 .3 0 .6.2.9.1.3.4.5.7.8s.8.5 1.6.8l2.3 1c.3.1.7.3 1.2.6s.9.6 1.2.9c.3.3.5.7.6 1.1.1.4.2.8.1 1.3-.1 1-.7 1.8-1.6 2.5-1 .7-2.1.9-3.5.8-.7-.1-1.4-.3-1.9-.5-.5-.3-1.1-.7-1.7-1.3l-.6 1.2-.6-.1-.3-4.6.9-.1c.2.9.5 1.6 1 2.3.4.6 1 1.2 1.6 1.5.6.4 1.2.6 1.8.7.9.1 1.7-.1 2.4-.5.6-.4.9-.9 1-1.5.1-.6-.1-1-.4-1.4-.4-.4-1-.8-2-1.2l-2.2-.9c-1.2-.5-2.1-1.1-2.5-1.7s-.6-1.3-.6-2.1c.1-.6.3-1.1.7-1.6.4-.5 1-.8 1.7-1.1.7-.3 1.5-.3 2.4-.2.7.1 1.4.3 2 .6.4.2.8.5 1.2.9v-1.1zM127.7 12.2l.6.2v.4l7.6 1.9.2-.4.6.2.4 4-.9.1c-.1-1.1-.4-1.9-.8-2.4s-1-.9-1.9-1.1c-.3-.1-.6-.1-.6-.1-.1 0-.1 0-.2.1 0 .1-.1.3-.2.6l-2.2 8.6c-.1.4-.2.7-.1.8 0 .2 0 .3.1.4l.3.3c.1.1.5.2 1 .3l-.2.7-4.8-1.2.2-.7c.5.1.9.2 1 .2.2 0 .4-.1.5-.2.1-.1.3-.4.4-.9l2.2-8.8c.1-.3.1-.4.1-.5 0-.1-.1-.1-.1-.2-.1-.1-.2-.1-.4-.2-.6-.2-1.2-.2-1.6-.1-.4.1-.9.3-1.3.6s-.9.7-1.3 1.3l-.7-.5 2.1-3.4zM144.2 17.7l1.4.6-.4 11.4c0 .6 0 1 .1 1.2.1.2.3.4.6.5l.2.1-.3.7-4.2-1.7.3-.7c.1 0 .3.1.4.1.3.1.5.2.6.1.2 0 .3-.1.4-.3 0-.1.1-.4.1-1l.2-2.6-4.3-1.7-2 2.2c-.2.2-.3.4-.4.5 0 .1-.1.2 0 .3s.1.2.2.3c.1.1.2.2.5.3.2.1.3.1.4.2l-.3.7-3.5-1.4.3-.7c.3.1.6.2.7.2.2 0 .3-.1.5-.2s.4-.3.8-.7l7.7-8.4zm-4.2 6 3.6 1.5.3-5.8-3.9 4.3zM153.1 21.2l.5.3-.1.4 6.7 3.9.3-.3.6.3-.7 3.9-.9-.2c.2-1.1.1-1.9-.2-2.5-.3-.6-.8-1.1-1.5-1.6-.3-.2-.5-.3-.6-.3-.1 0-.1 0-.2.1-.1 0-.2.2-.4.5l-4.4 7.6-.4.8v.4c0 .1.1.2.2.3.1.1.4.3.8.6l-.4.7-4.2-2.5.4-.7c.5.3.8.4.9.5.2.1.4 0 .6-.1.2-.1.4-.4.6-.7l4.5-7.8c.1-.2.2-.4.2-.5 0-.1 0-.1-.1-.2 0-.1-.2-.2-.4-.3-.6-.3-1.1-.5-1.5-.6-.4-.1-.9 0-1.4.2s-1 .5-1.6.9l-.6-.7 3.3-2.4zM163.9 28.2l8.1 6.4-1.1 3.4-.8-.3c.2-.6.3-1 .3-1.4 0-.4 0-.8-.2-1.2s-.3-.7-.5-1c-.2-.3-.7-.7-1.4-1.2l-2.4-1.9-2.9 3.6 1.2 1c.4.4.8.5 1.2.6.3 0 .7 0 .9-.2.2-.1.5-.4.8-.8l.1-.2.7.6-3.5 4.4-.7-.6.3-.4c.3-.3.4-.6.5-.8.1-.2.1-.4.1-.6 0-.2-.1-.4-.2-.6-.1-.2-.4-.4-.7-.7l-1.2-1-2.6 3.2c-.3.3-.4.6-.4.7v.3c0 .1.2.3.5.5l1.5 1.2c.8.7 1.6 1.1 2.2 1.3.6.2 1.3.2 2 .1.5-.1 1.2-.3 1.9-.7l.5.7-3.6 2.2-8.4-6.7.5-.6.3.2c.3.3.6.4.7.4.2 0 .3 0 .5-.1.1-.1.3-.2.6-.6l5.4-6.9c.2-.3.4-.5.4-.7 0-.2 0-.3-.1-.5-.1-.1-.3-.3-.8-.7l.3-.4zM181.3 43.8l.5.5-2.2 3.4-.8-.4c.4-1.1.6-2.3.4-3.3-.1-.9-.5-1.7-1.1-2.3-.4-.4-.8-.7-1.2-.9-.4-.2-.8-.2-1.2-.2-.4.1-.7.2-.9.4-.2.2-.4.4-.4.8-.1.3-.1.6 0 1s.3.9.7 1.6l1.1 2.2c.1.3.3.7.5 1.3.2.6.3 1.1.3 1.5 0 .4-.1.8-.2 1.2-.2.4-.4.8-.7 1.1-.7.7-1.7 1-2.8.9-1.2-.1-2.2-.7-3.2-1.7-.5-.5-.9-1.1-1.1-1.6-.2-.6-.4-1.3-.5-2.1l-1.2.5-.4-.5 2.8-3.8.7.5c-.4.8-.6 1.6-.7 2.4-.1.8 0 1.5.2 2.2.2.7.5 1.2 1 1.7.6.6 1.3 1 2.2 1.1.7.1 1.3-.1 1.7-.5.4-.4.6-.8.6-1.4 0-.5-.3-1.3-.8-2.2l-1.1-2.1c-.6-1.2-.9-2.2-.8-2.9.1-.8.4-1.4.9-1.9.4-.4.9-.6 1.5-.7.6-.1 1.3 0 2 .3s1.4.7 2 1.3c.5.5.9 1.1 1.1 1.7.2.5.3.9.3 1.4l.8-.5z" />
    <circle cx="108.1" cy="108.1" r="78.8" fill="#004B85" stroke="#231F20" stroke-width=".5" />
    <g fill="#FFF" stroke="#FFF" stroke-width=".5">
        <path
            d="m107.9 36.8 1.4-3.8 1.3 3.8h3.8l-3 2.2 1.4 4-3.5-2.5-3.6 2.6 1.5-4.1-2.9-2.2zM79.7 42.8l-.3-4.1 2.7 3 3.5-1.5-1.9 3.2 2.9 3.1-4.2-1-2.2 3.5-.4-4-3.4-.8zM56.3 59.1l-1.8-3.6 3.7 1.7 2.6-2.7-.5 3.6 3.8 1.8-4.2.8-.6 4.3-2-3.8-3.8.8zM41.8 82l-3.1-2.7 4.1.2 1.4-3.8.9 3.9 4.2.2-3.6 2.3 1.1 4.2-3-2.7-3.5 2.1zM36.8 108.6l-3.8-1.3 3.8-1.4v-3.8l2.2 3 4-1.3-2.5 3.4 2.6 3.6-3.8-1.5-2.5 3.3zM42.2 135.1l-4.1.2 3-2.6-1.4-3.5 3.2 1.9 3.1-2.7-1 4.1 3.8 2.3-4.1.1-1 4.3zM135.1 42.1l2.7-3-.2 4.1 3.5 1.4-3.6.9-.3 4.2L135 46l-4.3 1.1 2.9-3.3-1.8-3zM158.2 57.4l3.7-1.7-1.8 3.6 2.7 2.7-3.7-.6-1.8 3.8-.7-4.2-4.3-.7 3.9-1.9-.5-3.5zM173.8 80.3l4-.2-3 2.7 1.7 3.8-3.4-2.2-3.2 2.8 1-4.2-3.4-2.2 4-.3.9-3.7zM179.4 108.1l3.8 1.4-3.8 1.3.1 4.1-2.3-3.3-4 1.3 2.6-3.4-2.4-3.4 3.9 1.3 2.3-3.3zM173.7 136.2l2.9 2.8-4-.3-1.6 3.7-.7-3.9-3.7-.3 3.2-2.2-.9-4 3.1 2.7 3.1-2.1zM157.7 159.4l1.6 3.7-3.6-1.9-2.9 2.9.8-3.9-3.3-1.8 3.8-.7.8-4 1.8 3.6 3.6-.4zM58.5 159.3l-3.7 1.8 1.7-3.7-2.7-2.6 3.7.5 1.8-3.8.7 4.2 4.1.8-3.4 1.5.6 4.1z" />
    </g>
    <path fill="#FFF" stroke="#231F20" stroke-width=".5"
        d="M88.9 74.8c-4-8.7 3.5-9.3 3.5-9.3-3.4-6 1.9-8 1.9-8 .1-.6.4-1.1.8-1.4.5-.3 1.1-.5 1.7-.5 0-3.4 3.2-4.5 4.3-4.7.6-.1 1.2 0 1.6.4.6-.3 1.2.3 1.2.3.5-.9 1.7-2.2 4.9-2.2 2.7 0 3.6.9 4.5 2.3 1-.6 2.9-.3 3.2.4 0 0 .9-.6 1.3.8.7-.4 1.6-.2 2 .6 0 0 0 .1.1.1.4.7.7 1.5.8 2.3.4-.2.8-.3 1.2-.3.7 0 1.2 0 1.6 1.2v2c1.1.2 2.1.9 2.7 1.9 2.5 3.6 0 8.7 0 8.7 1.3.6 2 1.9 2.1 4.2s-2.1 4.4-2.1 4.4c.2.8-.1 1.6-.9 1.9 3 8.5-16.7 9.7-16.7 9.7-4.6.5-9.2-.3-13.3-2.3-6.3-3.2-5-7.1-5-7.1-3.6-2.1-1.7-6.2-1.7-6.2" />
    <path fill="#FFF" stroke="#231F20" stroke-linecap="round" stroke-width=".37"
        d="M90 90.8c.5.5 1.2.8 1.9.8.7.1 1.4-.5 1.5-1.2V90c-.1-.9-1.8-4.2-4.8-2.9l-.3-.2c-.5-.4-1.1-.6-1.7-.7-.8-.1-1.4.5-1.5 1.2v.4c.1.9 1.9 4.3 4.9 3zM105.3 90.8c.5.5 1.2.8 1.9.8.8.1 1.4-.5 1.5-1.2V90c-.1-.9-1.8-4.2-4.8-2.9l-.3-.2c-.5-.4-1.1-.6-1.7-.7-.8-.1-1.4.5-1.5 1.2v.4c.2.9 1.9 4.3 4.9 3zM120.6 90.8c.5.5 1.2.8 1.9.8.8.1 1.4-.5 1.5-1.2V90c-.1-.9-1.8-4.2-4.8-2.9l-.3-.2c-.5-.4-1.1-.6-1.7-.7-.7-.1-1.4.4-1.5 1.2v.4c.1.9 1.9 4.3 4.9 3z" />
    <path fill="#6ACFF6" stroke="#231F20" stroke-linecap="round" stroke-width=".37"
        d="M97.6 90.8c.5.5 1.2.8 1.9.8.8.1 1.4-.5 1.5-1.2V90c-.1-.9-1.8-4.2-4.8-2.9l-.2-.2c-.5-.4-1.1-.6-1.7-.7-.8-.1-1.4.5-1.5 1.2v.4c.1.9 1.9 4.3 4.8 3zM112.9 90.8c.5.5 1.2.8 1.9.8.8.1 1.4-.5 1.5-1.2V90c-.1-.9-1.8-4.2-4.8-2.9l-.3-.2c-.5-.4-1.1-.6-1.7-.7-.8-.1-1.4.5-1.5 1.2v.4c.2.9 2 4.3 4.9 3zM128.2 90.8c.5.5 1.2.8 1.9.8.8.1 1.4-.5 1.5-1.2V90c-.1-.9-1.8-4.2-4.8-2.9l-.3-.2c-.5-.4-1.1-.6-1.7-.7-.8-.1-1.4.5-1.5 1.2v.4c.2.9 2 4.3 4.9 3z" />
    <path fill="#FFF" stroke="#231F20" stroke-linecap="round" stroke-width=".37"
        d="M89.9 87.7c-.8 0-.5.1-1.2-.5M88.5 89.9c.5.1 1 .3 1.3.7M97.6 87.7c-.8 0-.5.1-1.2-.5M96.2 89.9c.5.1 1 .3 1.3.7M105.2 87.7c-.8 0-.5.1-1.2-.5M103.9 89.9c.5.1 1 .3 1.3.7M112.8 87.7c-.8 0-.5.1-1.2-.5M111.5 89.9c.5.1 1 .3 1.3.7M120.5 87.7c-.8 0-.5.1-1.2-.5M119.2 89.9c.5.1 1 .3 1.3.7M128.1 87.7c-.8 0-.5.1-1.2-.5M126.8 89.9c.5.1 1 .3 1.3.7" />
    <path fill="#B0720D"
        d="M128.6 68.6c.3-.4.4-.8.3-1.3.4.3.9.3 1.3 0 .8-.5.6-1.1.6-1.1s.3.3 1.5.1c1.2-.3.9-1.1.9-1.1.9.2 1.8-.2 2.1-1 3.9 1 3.8-1 3.8-1 1 .4 2.2.5 3.3.2 1.9-.6 1.2-1.3 1.2-1.3 1.8.3 3.6-1.2 3.5-1.9s-2.4-.2-2.4-.2c4.4-1.5 5.6-3.3 4.8-3.4-.9 0-1.3.4-2.1.4-1.1 0-2.6-.2-2.6-.2 1.6-.6 2.8-1 4-1.5 2.6-1 3.2-2.3 2.7-2.4s-.9.6-1.5.6-1.4-.1-1.4-.1c4.2-2 4.8-3.9 4.2-3.9-.6 0-.7 1-1.5 1.2-.8.2-3.7.6-3.7.6.4-.9-.1-1.9-.7-1.6s-.5 1.7-3.5 1.8c-2.2.2-4.4.9-6.3 2.1.3-.7-.6-1.5-.8-.8-.1.7-1.9 1.4-1.9 1.4-.8.7-10.3 1.3-12.3 4.2-2.6 3.6-5.6 5.1-10.1 3.3l-5.4.7c-4.6 1.6-7.5.1-10-3.6-2-2.9-11.4-3.8-12.2-4.6 0 0-1.7-.7-1.9-1.4s-1.1 0-.8.8c-1.9-1.2-4-2-6.2-2.3-3-.3-2.9-1.6-3.5-1.9-.6-.3-1.1.7-.8 1.6 0 0-2.9-.6-3.7-.8s-.9-1.2-1.6-1.2-.1 1.9 4 4c0 0-.9.1-1.4.1s-1-.6-1.5-.6 0 1.3 2.6 2.4c1.2.5 2.3.9 3.9 1.6 0 0-1.5.1-2.6.1-.7 0-1.2-.5-2-.5s.4 1.9 4.7 3.5c0 0-2.2-.6-2.4.1s1.6 2.3 3.4 2c0 0-.7.7 1.1 1.4 1.1.3 2.2.3 3.3-.1 0 0-.2 2 3.7 1.1 0 0 .4 1.2 2.1 1.1 0 0-.3.8.9 1.1s1.5 0 1.5 0-.2.6.6 1.1c.4.3.9.3 1.3.1-.1.4-.1.8.1 1.2l39.4-.1z" />
    <path fill="#B0720D"
        d="M89.1 68.6c0 .1.1.1.1.2.2.4.7.5 1.1.3 0 0-.3.4.3 1.2s1 .4 1 .4c0 .3.1.7.3.9.2.2.5.4.8.4 0 .3.1.6.2.8.2.2.5.4.8.5 0 .3.1.5.3.8.3.3.6.4 1 .5 0 0-.1.6.3.9s1.6-.1 1.6-.1-.1.3.5.6c.4.2.9.2 1.4.2l4.5-3-8.5 6.4s-.9.2.5 2.4c-.1.8.3 1.6.9 2 1.1.8 1.8.2 1.8.2s.1.9 1.5 1.2l.6.1h.3c-.3.1-.5.2-.7.4-.3.3-.4.7-.4 1.1.2.8 1 1.2 1.8 1 .3-.1.6-.3.8-.6l.7-.4c.3.6.9 1 1.5 1.1.6.1 1.2-.3 1.5-.9h.8l.9.4s1.7-.1 1.6-.4l.4-1.1c.1 1.8 1.6 1.4 1.6 1.4l1.4-.9.3-.1c.2.6.8 1 1.5.9.6-.1 1.2-.5 1.5-1.1l.6.3 1.2.5c.6.1 1-.7 1-.7 0-.4-.2-.8-.4-1.1-.5-.5-.7-.5-.7-.5l1.3-.1c1.4-.2 1.5-1.1 1.5-1.1s.6.6 1.8-.1c.7-.4 1.1-1.2 1-2 1.4-2.2.6-2.4.6-2.4l-8.4-6.7 4.4 3.2c.5.1 1 .1 1.4-.1.6-.3.6-.6.6-.6s1.2.4 1.6.1.3-.9.3-.9c.4-.1.7-.2 1-.5.2-.2.3-.5.3-.7.3-.1.5-.3.8-.5.1-.3.2-.5.2-.8.3 0 .6-.2.8-.4.2-.2.3-.6.3-.9 0 0 .4.4 1-.4s.3-1.2.3-1.2c.3.2.8.1 1-.2l-40 .1z" />
    <path fill="none" stroke="#231F20" stroke-linecap="round" stroke-linejoin="round" stroke-width=".5"
        d="M108.9 86.2c.1 1.8 1.6 1.4 1.6 1.4l1.4-.9.3-.1c.2.6.8 1 1.5.9.6-.1 1.2-.5 1.5-1.1l.6.3 1.2.5c.6.1 1-.7 1-.7 0-.4-.2-.8-.4-1.1-.5-.5-.7-.5-.7-.5h0l1.3-.1c1.4-.2 1.5-1.1 1.5-1.1s.6.6 1.8-.1c.7-.4 1.1-1.2 1-2 1.4-2.2.6-2.4.6-2.4l-8.4-6.7 4.4 3.2c.5.1 1 .1 1.4-.1.6-.3.6-.6.6-.6s1.2.4 1.6.1.3-.9.3-.9c.4-.1.7-.2 1-.5.2-.2.3-.5.3-.7.3-.1.5-.3.8-.5.1-.3.2-.5.2-.8.3 0 .6-.2.8-.4.2-.2.3-.6.3-.9 0 0 .4.4 1-.4s.3-1.2.3-1.2c.4.2.9.1 1.1-.3.3-.4.4-.8.3-1.3.4.3.9.3 1.3 0 .8-.5.6-1.1.6-1.1s.3.3 1.5.1.9-1.1.9-1.1c.9.2 1.8-.2 2.1-1 3.9 1 3.8-1 3.8-1 1 .4 2.2.5 3.3.2 1.9-.6 1.2-1.3 1.2-1.3 1.8.3 3.6-1.2 3.5-1.9s-2.4-.2-2.4-.2c4.4-1.5 5.6-3.3 4.8-3.4s-1.3.4-2.1.4c-1.1 0-2.6-.2-2.6-.2 1.6-.6 2.8-1 4-1.5 2.6-1 3.2-2.3 2.7-2.4s-.9.6-1.5.6-1.4-.1-1.4-.1c4.2-2 4.8-3.9 4.2-3.9s-.7 1-1.5 1.2-3.7.6-3.7.6c.4-.9-.1-1.9-.7-1.6s-.5 1.7-3.5 1.8c-2.2.2-4.4.9-6.3 2.1.3-.7-.6-1.5-.8-.8s-1.9 1.4-1.9 1.4c-.8.7-10.3 1.3-12.3 4.2-2.6 3.6-5.6 5.1-10.1 3.3l-5.4.7c-4.6 1.6-7.5.1-10-3.6-2-2.9-11.4-3.8-12.2-4.5 0 0-1.7-.7-1.9-1.4s-1.1 0-.8.8c-1.9-1.2-4-2-6.2-2.3-3-.3-2.9-1.6-3.5-1.9s-1.1.7-.8 1.6c0 0-2.9-.6-3.7-.8s-1.4-1.2-2-1.2-.1 1.9 4 4c0 0-.9.1-1.4.1s-1-.6-1.5-.6 0 1.3 2.6 2.4c1.2.5 2.3.9 3.9 1.6 0 0-1.5.1-2.6.1-.7 0-1.2-.5-2-.5s.4 1.9 4.7 3.5c0 0-2.2-.6-2.4.1s1.6 2.3 3.4 2c0 0-.7.7 1.1 1.4 1.1.3 2.2.3 3.3-.1 0 0-.2 2 3.7 1.1 0 0 .4 1.2 2.1 1.1 0 0-.3.8.9 1.1s1.5 0 1.5 0-.2.6.6 1.1c.4.3.9.3 1.3.1-.1.5 0 .9.3 1.3.2.4.7.5 1.1.3 0 0-.3.4.3 1.2s1 .4 1 .4c0 .3.1.7.3.9.2.2.5.4.8.4 0 .3.1.6.2.8.2.2.5.4.8.5 0 .3.1.5.3.8.3.3.6.4 1 .5 0 0-.1.6.3.9s1.6-.1 1.6-.1-.1.3.5.6c.4.2.9.2 1.4.2l4.5-3-8.5 6.5s-.9.2.5 2.4c-.1.8.3 1.6.9 2 1.1.8 1.8.2 1.8.2s.1.9 1.5 1.2l.6.1h.3c-.3.1-.5.2-.7.4-.3.3-.4.7-.4 1.1.2.8 1 1.2 1.8 1 .3-.1.6-.3.8-.6h0l.7-.4c.3.6.9 1 1.5 1.1.6.1 1.2-.3 1.5-.9h.8l.9.4s1.7-.1 1.6-.4" />
    <path fill="none" stroke="#231F20" stroke-width=".37" d="m103.9 51.8-.2.3" />
    <path fill="none" stroke="#231F20" stroke-width=".5"
        d="M102.7 51.3c-.2.1-.3.3-.4.5M113.4 51.8c.1.2.3.5.4.7M96.8 55.9c0 1.4.6 1.2.6 1.2" />
    <path fill="none" stroke="#231F20" stroke-width=".25" d="M96.3 56.5c0 .3.1.6.3.8" />
    <path fill="none" stroke="#231F20" stroke-width=".37" d="m114 52.9.2.2M120.8 56.2l.1.2" />
    <path fill="none" stroke="#231F20" stroke-linecap="round" stroke-width=".37" d="m89.4 75.3.3.5" />
    <path fill="none" stroke="#231F20" stroke-linecap="round" stroke-width=".5"
        d="m90.8 80.4.5.3M91.1 81.5l.6.3M125.2 78.6c-.2.3-.5.5-.9.7M125.3 79.8c-.2.3-.5.5-.9.7" />
    <path fill="none" stroke="#231F20" stroke-linecap="round" stroke-width=".37"
        d="M81.5 53.9c.7 1.3 3 2.7 8.5 4l1.9.9" />
    <path fill="none" stroke="#231F20" stroke-linecap="round" stroke-width=".37"
        d="M82.6 55.1c0 .9.5 1.6 1.2 2 1.3.5 5.6 1.3 6 .9M84.3 57.5s.4 1.7 4.8 1.5c.3 0 .6-.1.9-.3" />
    <path fill="none" stroke="#231F20" stroke-linecap="round" stroke-width=".37"
        d="M90.3 59.5c-1.1.6-2.4.9-3.6.9-.8-.1-1.3-.9-1.2-1.7M90 58.1c-.2.4-.1.8.2 1 0 0 0 0 0 0 .5.2 1 .3 1.5.3" />
    <path fill="none" stroke="#231F20" stroke-linecap="round" stroke-width=".37"
        d="M90.3 59.2c-.1.2 0 1 .4 1.1.4.1.9.1 1.3-.1M78.7 63c2.6-.6 5.2-1.5 7.5-2.7M82.4 64s3.4-.5 4.7-2.4M74.6 61.8c.9-.1 7.3-1.3 10.8-3.2M73.6 59.6s3.8.6 11.1-1.5M86.7 60.4c-.1.7.5 1.4 1.2 1.5h.2c.8-.1 1.5-.3 2.2-.6" />
    <path fill="none" stroke="#231F20" stroke-linecap="round" stroke-width=".37"
        d="M90.5 60.2c-.1.4-.4 1.1.1 1.3.5.2 1 .1 1.5-.1M88.5 62c.6.6 1.4.8 2.2.6" />
    <path fill="none" stroke="#231F20" stroke-linecap="round" stroke-width=".37"
        d="M90.8 61.5c-.1.4-.3 1.3.3 1.5s1.3-.5 1.3-.5" />
    <path fill="none" stroke="#231F20" stroke-linecap="round" stroke-width=".37"
        d="M91.2 63c.1.7 0 1.1.4 1.3.6.2 1.3.1 1.9-.2M84.6 65.1c1.1-.3 3.2-.6 4.7-2.6M86.9 66.3c.8-.3 3.4-1.7 4-3.3M88.9 67.4c1.2-.6 2.2-1.6 2.9-2.8M73.4 56.6l1 1.1s8.2 0 9.6-.2M70 53c2.4 1.9 2.9 0 5.7 3 2.4.2 4.7.2 7.1.1" />
    <path fill="none" stroke="#231F20" stroke-linecap="round" stroke-width=".37"
        d="M70.9 51c1.9 2.3 5.4 1.1 7.5 4.4l3.9.1M92.3 64.7c.1.6.2 1.1.7 1.2s1.6-.8 1.6-.8M93.4 65.9c.1.5.3 1.1.9 1.1.6-.1 1.1-.4 1.5-.7M90.5 68.9c1.2-.6 2.2-1.4 3-2.4M91.5 70.6c1-.4 3.1-1.8 3.6-2.7M92.6 71.9c.6-.3 2.7-1.5 3.3-2.8M93.5 73.3c1.5-.7 2.7-1.9 3.5-3.3" />
    <path fill="none" stroke="#231F20" stroke-linecap="round" stroke-width=".37"
        d="M94.7 67.1c.1.7.1 1.2.6 1.4s1.5-.8 1.5-1.1" />
    <path fill="none" stroke="#231F20" stroke-linecap="round" stroke-width=".37"
        d="M95.7 68.5c.1.4.3 1.1 1.1 1.1s1.4-1.4 1.4-1.4" />
    <path fill="none" stroke="#231F20" stroke-linecap="round" stroke-width=".37"
        d="M97.2 69.5c.1.5.5.8.9.9.7.1 1.3-1.6 1.3-1.6M98.1 70.5c-.5 1.7-1.6 3.1-3.1 3.9M96.7 75.4s2.6-1.7 2.5-4.2M98.3 76s2.4-1.7 2-4.2" />
    <path fill="none" stroke="#231F20" stroke-linecap="round" stroke-width=".37"
        d="M98.6 70.5c.1.4.6 1.1 1.4.8s1.1-1.9 1.1-1.9M100.2 71.3c.4.5.8.8 1.2.7s.9-1 1-1.8M101.9 72.2c0 .6 0 1.2-.1 1.8" />
    <path fill="none" stroke="#231F20" stroke-linecap="round" stroke-width=".37"
        d="M101.7 71.8c.2.5.8.7 1.3.6M136.8 53.9c-.7 1.3-3.1 2.7-8.6 3.8l-1.9.8" />
    <path fill="none" stroke="#231F20" stroke-linecap="round" stroke-width=".37"
        d="M135.7 55.1c0 .9-.5 1.6-1.3 2-1.3.5-5.6 1.1-6.1.8M133.9 57.4s-.5 1.7-4.8 1.4c-.3 0-.6-.1-.9-.3" />
    <path fill="none" stroke="#231F20" stroke-linecap="round" stroke-width=".37"
        d="M127.8 59.3c1.1.6 2.3.9 3.6 1 .8-.1 1.3-.9 1.2-1.7M128.1 57.9c.2.4 0 .8-.3 1-.5.2-1 .3-1.5.2" />
    <path fill="none" stroke="#231F20" stroke-linecap="round" stroke-width=".37"
        d="M127.8 58.9c.1.2-.1 1-.5 1-.4.1-.9 0-1.3-.1M139.3 63.1c-2.6-.7-5.1-1.7-7.5-3M135.6 64s-3.4-.6-4.7-2.6M143.5 62c-3.7-.7-7.3-1.8-10.7-3.5M144.5 59.8s-3.8.5-11.1-1.8" />
    <path fill="none" stroke="#231F20" stroke-linecap="round" stroke-width=".37"
        d="M131.4 60.3c.1.7-.5 1.4-1.3 1.5h-.2c-.8-.1-1.5-.3-2.2-.7M127.6 59.9c.1.4.3 1.1-.1 1.3-.5.2-1 .1-1.5-.1M129.5 61.8c-.6.6-1.4.8-2.2.5" />
    <path fill="none" stroke="#231F20" stroke-linecap="round" stroke-width=".37"
        d="M127.2 61.2c.1.4.3 1.3-.3 1.5s-1.3-.5-1.3-.5M126.9 62.8c-.1.7 0 1.1-.4 1.3-.6.2-1.3.1-1.9-.2M133.4 65c-1-.3-3.2-.7-4.6-2.7M131 66.1c-.8-.3-3.4-1.8-4-3.4M129 67.2c-1.2-.7-2.2-1.6-2.8-2.8M144.8 56.8l-1 1s-8.2-.2-9.6-.5M148.3 53.3c-2.5 1.9-2.9-.1-5.8 2.9-2.4.1-4.7.1-7.1-.1" />
    <path fill="none" stroke="#231F20" stroke-linecap="round" stroke-width=".37"
        d="M147.5 51.3c-2 2.3-5.4.9-7.7 4.2h-3.9M125.7 64.4c-.1.6-.2 1.1-.7 1.2s-1.6-.8-1.6-.8M124.6 65.6c-.1.5-.3 1.1-1 1.1-.6-.1-1.1-.4-1.5-.8M127.4 68.7c-1.2-.6-2.2-1.5-2.9-2.5M126.3 70.3c-1-.4-3.1-1.9-3.5-2.8M125.2 71.6c-.6-.4-2.6-1.6-3.2-2.9M124.2 73c-1.4-.7-2.6-1.9-3.3-3.4" />
    <path fill="none" stroke="#231F20" stroke-linecap="round" stroke-width=".37"
        d="M123.2 66.7c-.1.7-.2 1.2-.7 1.4s-1.5-.8-1.5-1.2" />
    <path fill="none" stroke="#231F20" stroke-linecap="round" stroke-width=".37"
        d="M122.2 68.1c-.1.4-.3 1.1-1.1 1s-1.3-1.5-1.3-1.5M120.7 69.1c-.1.5-.5.8-1 .9-.7.1-1.2-1.6-1.2-1.6M119.7 70c.5 1.7 1.6 3.1 3.1 4M121 74.9s-2.6-1.7-2.3-4.3M119.4 75.6s-2.3-1.8-1.9-4.2" />
    <path fill="none" stroke="#231F20" stroke-linecap="round" stroke-width=".37"
        d="M119.2 70c-.1.4-.7 1.1-1.4.8s-1-1.9-1-1.9M117.6 70.8c-.4.5-.8.7-1.2.7s-.9-1-.9-1.8M115.9 71.7c0 .6 0 1.2.1 1.8" />
    <path fill="none" stroke="#231F20" stroke-linecap="round" stroke-width=".37"
        d="M116.1 71.3c-.3.5-.8.7-1.3.6M95.3 82.2c.4.6 1.1 1.1 2 .1s5-4.6 5.6-5.3M97.9 84s4-3.8 4.8-4.9M99.3 85.3c1.4-.8 2.5-2.1 3.2-3.5M122.2 81.8c-.3.6-1 .8-1.6.5-.2-.1-.3-.2-.4-.4-.8-1-4.9-4.7-5.5-5.4M119.6 83.6s-3.9-3.9-4.7-5M118.2 84.8c-1.3-.9-2.4-2.1-3.1-3.6" />
    <path fill="#231F20" stroke="#231F20" stroke-linecap="round" stroke-width=".25"
        d="M115.5 85.2c-.3-.3-.6-5.6-1.1-10.9 0-1.5-.3-3-.7-4.4-.2-.3-.3-.6-.5-.8-.2-.4-.4-.9-.5-.9s-.8 1.8-3.9 1.8-3.9-1.8-3.9-1.8c-.2 0-.3.6-.5.9-.3.3-.6.8-.7 1.2-.3 1.3-.5 2.7-.5 4-.1 5.3-.8 10.6-1.1 10.9h13.4z" />
    <path fill="none" stroke="#231F20" stroke-width=".25" d="M101.1 86c.2.4.3.9.1 1.4M115.7 85.6c-.1.3-.1.7 0 1" />
    <path fill="#FEBD11" stroke="#231F20" stroke-width=".12"
        d="M99.8 87.4c.1.5.5.8 1.1.9 0 0-.6-.4-.4-.8.2-.2-.4-.5-.7-.1zM103.9 87.8c.3.6.9.9 1.5.6-.4-.1-.7-.4-.8-.8-.2-.1-.5-.1-.7.2zM106.9 87.3c.4.3-.1.8-.6 1 0 0 1.4-.1 1.5-.6s.1-.7-.1-.8c-.3.1-.6.2-.8.4z" />
    <path fill="#FEBD11" stroke="#231F20" stroke-linecap="round" stroke-width=".12"
        d="M109.8 87.4c0 .5.3.9.8 1.1-.2-.2-.1-.5.1-.8.3-.4-.3-.6-.3-.6s-.5 0-.6.3zM114 87c-.2.6-.7 1.1-1.3 1.3 0 0 .6-.8.4-1.2s.7-.2.9-.1zM117.4 86.6c-.1.7-.6 1.2-1.3 1.3.3-.3.5-.7.5-1.2-.2-.7.8-.4.8-.1z" />
    <path fill="#B0720D" stroke="#231F20" stroke-linecap="round" stroke-width=".32"
        d="M113.6 76.7c-.2.2-.2.5-.2.7.4.5.8.9 1.4 1.2.1-.5.1-1-.1-1.5-.3-.2-.7-.4-1.1-.4zM104 76.8c.2.2.2.5.2.7-.4.5-.8.9-1.4 1.2-.1-.5-.1-1 .1-1.5.3-.2.7-.4 1.1-.4zM113.1 74.5c.5-.1 1 .1 1.4.5.3.6.3 1.2 0 1.8-.6-.1-1.1-.3-1.5-.6 0-.5.1-1.7.1-1.7z" />
    <path fill="#B0720D" stroke="#231F20" stroke-linecap="round" stroke-width=".32"
        d="M110.2 74.3c-.2.5-.2 1.1-.1 1.7l2.8.2c.3-.5.3-1.2 0-1.8" />
    <path fill="#B0720D" stroke="#231F20" stroke-linecap="round" stroke-width=".32"
        d="M114.5 74.8c-1.4-.5-2.9-.7-4.3-.4-.1-.5-.2-1.1-.1-1.6.2-.4.6-.7 1.1-.6.9 0 1.8 0 2.6.2.4.1.7 0 .7 2.4zM104.5 74.6c-.5-.1-1 .1-1.4.5-.3.6-.3 1.2 0 1.8.6 0 1.1-.3 1.5-.6 0-.5-.1-1.7-.1-1.7z" />
    <path fill="#B0720D" stroke="#231F20" stroke-linecap="round" stroke-width=".32"
        d="M107.4 74.4c.2.5.2 1.1.1 1.7l-2.8.2c-.3-.5-.3-1.2 0-1.8" />
    <path fill="#B0720D" stroke="#231F20" stroke-linecap="round" stroke-width=".32"
        d="M103.1 74.9c1.4-.5 2.9-.7 4.3-.4.1-.5.2-1.1.1-1.6-.2-.4-.6-.7-1.1-.6-.9 0-1.8 0-2.6.2-.4.1-.7 0-.7 2.4zM113 79.9c.7.2 1.8.6 1.9 1.1s.6 2.1.2 2.5c-.1.2-.6-.6-1.2-1.5-.4-.6-.7-1.3-.9-2.1z" />
    <path fill="#B0720D" stroke="#231F20" stroke-linecap="round" stroke-width=".32"
        d="M114.6 80.4c-.6 0-1.1-.3-1.5-.7-.2-.7-.1-1.4.2-2.1.5.2 1.1 1 1.3 1.2M111.7 79.1c-.8.9-1.6 1.9-2.2 3-.3.4-.4 1-.1 1.5.3.3 2.4-2.3 2.6-3.3-.1-.4-.1-.8-.3-1.2zM111.2 76.2c-.4 0-.8-.2-1.1.2-.2.6-.3 1.2-.3 1.8.1.2 1.5 0 1.6-.4 0-.2-.2-1.6-.2-1.6z" />
    <path fill="#B0720D" stroke="#231F20" stroke-linecap="round" stroke-width=".32"
        d="M111.4 78.1c-.5 0-1.1.1-1.5.4-.4.9-.6 1.8-.6 2.8.2.6 1.2-1.3 1.8-1.9s.5-.5.5-.6c0-.3-.1-.5-.2-.7zM104.6 80.1c-.7.2-1.8.6-1.9 1.1s-.6 2.1-.2 2.5c.1.1.6-.7 1.2-1.5l.9-2.1z" />
    <path fill="#B0720D" stroke="#231F20" stroke-linecap="round" stroke-width=".32"
        d="M104.3 77.7c-.5.2-1.1 1-1.3 1.2s-.8 1.7 0 1.7c.6 0 1.1-.3 1.5-.8.2-.7.1-1.5-.2-2.1zM105.1 82.2c.6 1.1 1.2 2.1 2 3.1 0 0-1.2-.1-1.5.4-.2.3-1.2-.7-2.1-.4.6-1 1.2-2 1.6-3.1zM106.4 76.3c.4 0 .8-.2 1.1.2.2.6.3 1.2.3 1.8-.1.2-1.5-.1-1.6-.4.1-.6.1-1.1.2-1.6z" />
    <path fill="#B0720D" stroke="#231F20" stroke-linecap="round" stroke-width=".32"
        d="M101.7 85c.1.4.5.6.9.6.6-.1.7-.1.7-.1 2.2-2.5 3.2-9.2 3.2-9.5s0-.9-1.4.1-.7 1.3-.4 2.7-1.3 4.2-2.3 5.5l-.7.7z" />
    <path fill="#B0720D" stroke="#231F20" stroke-linecap="round" stroke-width=".32"
        d="M105.2 77.2c0 .2-.6 2.8-.6 2.8M105.9 79.2c.8.9 1.6 1.9 2.2 3 .3.4.4 1 .1 1.5-.3.3-2.4-2.3-2.6-3.3.1-.4.1-.8.3-1.2zM106.2 78.2c.5 0 1.1.2 1.5.4.4.9.6 1.8.6 2.8-.2.6-1.2-1.3-1.8-1.9s-.5-.5-.5-.6c0-.2.1-.5.2-.7z" />
    <path fill="#B0720D" stroke="#231F20" stroke-linecap="round" stroke-width=".32"
        d="M105.2 82.1c.5 1.1 1.1 2.2 1.9 3.2.4-.1.9 0 1.2.4.3-.4.3-1 0-1.4-.4-.7-2.6-2.9-2.6-3.6s-.5 1.4-.5 1.4zM112.5 82.1c-.6 1.1-1.2 2.1-2 3.1 0 0 1.2-.1 1.5.4.2.3 1.2-.7 2.1-.4-.6-1-1.2-2.1-1.6-3.1z" />
    <path fill="#B0720D" stroke="#231F20" stroke-linecap="round" stroke-width=".32"
        d="M112.4 82c-.5 1.1-1.1 2.2-1.9 3.1-.4-.1-.9.1-1.2.4-.2-.4-.2-1 0-1.4.4-.7 2.6-2.9 2.6-3.6s.5 1.5.5 1.5z" />
    <path fill="#B0720D" stroke="#231F20" stroke-linecap="round" stroke-width=".32"
        d="M115.9 84.7c-.1.4-.5.6-.9.6-.6-.1-.7-.1-.7-.1-2.2-2.5-3.2-9.2-3.2-9.5s0-.9 1.4.1.8 1.3.4 2.7 1.3 4.2 2.3 5.5l.7.7z" />
    <path fill="#B0720D" stroke="#231F20" stroke-linecap="round" stroke-width=".32" d="M112.4 77c0 .2.6 2.7.6 2.7" />
    <path fill="#231F20" stroke="#231F20" stroke-width=".37"
        d="M109.3 85.6c-.4.1-.4.7-.4.7-.1.2-.2.5-.3.8 0-.4-.1-.8-.2-1.2-.2-.3.1.4.2-.7h.6c-.1-.1.2.3.1.4z" />
    <path fill="#C69130" stroke="#231F20" stroke-width=".37" d="M105.3 85.8c-.5-.3-2.1-1.1-3 .1" />
    <path fill="#C69130" stroke="#231F20" stroke-linecap="round" stroke-width=".37"
        d="M112 86.1c.1-.5.4-.9 1.8-.9 1.2 0 1.1.2 1.2.3" />
    <path fill="#C69130" stroke="#231F20" stroke-linecap="round" stroke-width=".37"
        d="M116.5 84.8c-.3-.1-1.8-.4-1.4 1.4M100.7 85.2c.3-.1 1.3-.7 1.6.7" />
    <path fill="#FFF" stroke="#231F20" stroke-linecap="round" stroke-linejoin="round" stroke-width=".37"
        d="M104.2 57.4c-.5-1.3-.1-2.1 1.1-2.2h1.6s-.1-.6.4-.7c1-.2 2-.2 2.9 0 .2.1.3.2.5.3l.1.1s1.2 1.8 2.2 7l-.8-.2.3 1-1-.1.1.6-.4-.1c-.3.4-.4.9-.3 1.4 0 0-1.7-.4-2-1.4l-.4.9-.6-1.2s-.8.4-.8 1c0 .3-.6-.9-.5-1.3s-1.3.2-1.3.2c.1-.5.3-1 .8-1.3.7-.3 1.4-4 .4-4.1-1.3-.1-1.4-.4-1.4-.4l-.1.1c0-.1-.4-.3-.8.4z" />
    <path fill="#231F20" d="M108.1 55.6c0-.1.8-.4 1.1 0s-.5.4-.5.4v-.3l-.3.3c-.1-.1-.3-.2-.3-.4z" />
    <path fill="none" stroke="#231F20" stroke-linecap="round" stroke-linejoin="round" stroke-width=".17"
        d="M107.5 55.1c-.1.1-.1.2-.1.3 0 0 .1.1 1.2 0 .3 0 .7 0 1 .2" />
    <path fill="none" stroke="#231F20" stroke-width=".25" d="M105.4 86c.2.4.3.9.1 1.4M114.9 85.1c.2.4.3.9.1 1.4" />
    <path fill="#FEBD11" stroke="#231F20" stroke-linecap="round" stroke-linejoin="round" stroke-width=".25"
        d="M107.6 57.2c-.8 0-1.6-.1-2.4-.3l-.2.1s-.5-.2-.8.5c-.5-1.3-.1-2.1 1.1-2.2h1.6c-.4 0-.5.5-.1.9.3.2.6.6.8 1z" />
    <path fill="#FDB913" stroke="#231F20" stroke-linecap="round" stroke-linejoin="round" stroke-width=".12"
        d="M105.1 56.8s.1.3 1.4.4c.3 0 .7 0 1-.1l-1.2-.2c-.5.1-1.2-.1-1.2-.1z" />
    <g stroke="#231F20">
        <path fill="#FFF" stroke-linecap="round" stroke-linejoin="round" stroke-width=".62"
            d="M108.4 171c6-5.2 15.5-9.4 21.2-11.2 9.6-3.1 12.2-10.7 12.5-15.2.3-4.2-1-7.2-3.2-16.4s4.2-24.5 4.2-24.5l-9.2-8.5h-51l-9.2 8.5s6.5 15.2 4.2 24.4-3.5 12.2-3.2 16.4c.3 4.5 2.9 12.1 12.5 15.2 5.7 1.9 15.2 6 21.2 11.3z" />
        <path fill="#6ACFF6" stroke-width=".5"
            d="M108.2 142.1c3.6 0 4.2.5 4.2 1.5s-1 .5-1 1.3c0 1.6 3.3 1.5 3.3 1.5 3.3 0 3.4-1.5 3.4-1.5 0-1.1-.8-.4-.8-1.6s2.5-1.3 3.2-1.3 3.6.1 3.6 1.3-.8.4-.8 1.6c0 1.6 3.7 1.5 3.7 1.5 1.1 0 3.5 0 3.5-1.4s-.8-.5-.8-1.6c0-1.4 2.8-1.3 3.5-1.3s3.5-.2 3.5 1.3c0 1.1-.9.3-.9 1.5 0 1.4 3.4 1.4 3.4 1.4 1-7.4-3.6-14.9-3.6-22.1.1-6.8 1.5-13.5 3.9-19.8l-7.2-7H84.1l-7.2 7c2.5 6.3 3.8 13 3.9 19.8 0 8.3-4.8 15.1-3.3 21.9 0 0 3.1.1 3.1-1.2 0-1.2-.9-.4-.9-1.5 0-1.5 2.7-1.3 3.5-1.3s3.5-.1 3.5 1.3c0 1.1-.8.3-.8 1.6s2.4 1.4 3.5 1.4c0 0 3.7.1 3.7-1.5 0-1.2-.8-.4-.8-1.6s2.8-1.3 3.6-1.3 3.2 0 3.2 1.3-.8.4-.8 1.6c0 0 .2 1.5 3.4 1.5 0 0 3.3.1 3.3-1.5 0-.8-1-.5-1-1.3s.7-1.5 4.2-1.5z" />
        <path fill="#FEBD11" stroke-width=".5"
            d="m106.6 117.5-9.6-8.8 1.1-.2-2.9-3.1-.5.7-4.2-5.8 6.2 3.9-.9.6 5.8 4.4-1.3.3 7.1 5.6zM102.2 119.1l-11.4-6.2.9-.5-3.5-2.3-.3.8-5.5-4.7 7 2.4-.7.7 6.6 3-1.1.6 8.2 3.7zM103.2 120.5l-10.8 7.1v-1.1l-3.7 2.1.5.6-6.6 2.6 5.3-5 .3 1 5.8-4.5-.1 1.3 7.2-5.5zM107.9 121.9l-8.9 9.5-.2-1.1-3.1 2.9.6.5-5.8 4.1 4-6.1.5.8 4.6-5.7.2 1.3 5.7-7zM109.6 117.5l9.6-8.8-1-.2 2.8-3.1.5.7 4.2-5.8-6.2 3.9.9.6-5.7 4.4 1.2.3-7.1 5.6zM114.1 119.1l11.4-6.2-1-.5 3.5-2.3.3.8 5.5-4.7-7 2.4.8.7-6.7 3 1.2.6-8.3 3.7zM113 120.5l10.8 7.1v-1.1l3.7 2.1-.5.6 6.7 2.6-5.4-5-.3 1-5.7-4.5v1.3l-7.2-5.5zM108.4 121.9l8.8 9.5.2-1.1 3.1 2.9-.6.5 5.9 4.1-4-6.1-.6.8-4.5-5.7-.3 1.3-5.7-7z" />
        <path fill="#FEBD11" stroke-width=".5"
            d="M108.1 117.2s-4 .6-4.7.1-.9-.7-.9-.9c-.1-.8.6-1 .3-1.5s-1.1-.9-5.6-.9c-.5-.1-1-.2-1.5-.5-.5-.4-1.6-.2-1.3.7-1.9.3-3.9.3-5.8-.1-2.2-.3-3.1-.5-3.3-.1s.9 1.5 2.8 1.9c0 0-.3 1.2 2.4 1.4 0 0 .1 1.7 3.2 1 .4.8 1.2 1.2 2.1 1 0 0 0 .9 1.3 1.3 0 0 .1 1.3 1.2 1.4.5.6 1.3.8 2 .7.5.3 1.1.4 1.6.2.5.4 1.1.4 1.6.1.5.3 1.1.4 1.6.1.6.3 1.3.3 1.8-.2.9-.9 1.2-5.7 1.2-5.7zM108.1 117.2s4 .6 4.7.1.9-.7.9-.9c.1-.8-.6-1-.3-1.5s1.1-.9 5.6-.9c.5-.1 1-.2 1.5-.5.5-.4 1.6-.2 1.3.7 1.9.3 3.9.3 5.8-.1 2.2-.3 3.1-.5 3.3-.1s-.9 1.5-2.8 1.9c0 0 .3 1.2-2.4 1.4 0 0-.1 1.7-3.2 1-.4.8-1.2 1.2-2.1 1 0 0 0 .9-1.3 1.3 0 0-.1 1.3-1.3 1.4-.5.6-1.3.8-2 .7-.5.3-1.1.4-1.6.2-.5.4-1.1.4-1.6.1-.5.3-1.1.4-1.6.1-.6.3-1.3.3-1.8-.2-.9-.9-1.1-5.7-1.1-5.7z" />
        <path fill="none" stroke-linecap="round" stroke-width=".37"
            d="M94.7 114.2c.2.7.8 1.1 4.6 1.1.4 0 .7.3.7.7 0 0 0 0 0 0" />
        <path fill="none" stroke-linecap="round" stroke-width=".37"
            d="M95.9 115.1c0 1.2 1.2 1.7 3.2 1M100.4 117.2s-1.2 1.4-2.1 1.1c-.4-.1-.6-.5-.6-.8" />
        <path fill="none" stroke-linecap="round" stroke-width=".37"
            d="M99.8 116.6s-1.8 1.3-2.5.7-.1-.8-.1-.8M98.8 118.3c.3.5.4.9 1.1.7.5-.2 1-.5 1.3-.9" />
        <path fill="none" stroke-width=".37"
            d="M94.9 114.8c-2.1.8-4.4 1.2-6.6 1.1M95.8 115.1s-.8 1.4-5.2 2.2M96.4 116.2s-.4.9-2.4 2M94.1 118.2c1.6-.1 3-.9 2.9-1.7M96 119.2s1.5-.3 1.5-1.6M97.2 120.5s1.2 0 1.5-2" />
        <path fill="none" stroke-linecap="round" stroke-width=".37"
            d="M99.7 119.2c.2.6.9 1 1.5.8.7-.2 1.1-1.1 1.1-1.1" />
        <path fill="none" stroke-width=".37" d="M98.5 121.9c.8-.4 1.4-1.2 1.5-2.2M100.2 122.6c.9-.5 1.3-1.4 1.1-2.4" />
        <path fill="none" stroke-linecap="round" stroke-width=".37"
            d="M101.2 119.9c.4.8.8.9 1.3.9s1.1-1.5 1.1-1.5M102.9 120.6c.3.3.8.4 1.3.3.5-.3.9-.8.9-1.4" />
        <path fill="none" stroke-width=".37"
            d="M104.1 120.9c.1.7 0 1.3-.3 1.9M102.7 120.8c.1.7-.1 1.3-.5 1.9M105.2 122.9c.3-.6.5-1.4.4-2.1" />
        <path fill="none" stroke-linecap="round" stroke-width=".37"
            d="M104.6 120.7c.6.4 1.4.3 1.8-.3 0 0 0-.1.1-.1M121.5 114.2c-.2.7-.8 1.1-4.6 1.1-.4 0-.7.3-.7.7 0 0 0 0 0 0" />
        <path fill="none" stroke-linecap="round" stroke-width=".37"
            d="M120.2 115.1c0 1.2-1.2 1.7-3.2 1M115.7 117.2s1.2 1.4 2.1 1.1c.4-.1.6-.5.6-.8" />
        <path fill="none" stroke-linecap="round" stroke-width=".37"
            d="M116.3 116.6s1.8 1.3 2.5.7.1-.8.1-.8M117.3 118.3c-.3.5-.4.9-1.1.7-.5-.2-1-.5-1.3-.9" />
        <path fill="none" stroke-width=".37"
            d="M121.2 114.8c2.1.8 4.3 1.2 6.6 1.1M120.3 115.1s.8 1.4 5.2 2.2M119.7 116.2s.4.9 2.4 2" />
        <path fill="none" stroke-width=".37"
            d="M122.1 118.2c-1.6-.1-3-.9-2.9-1.7M120.1 119.2s-1.5-.3-1.5-1.6M118.9 120.5s-1.3 0-1.5-2" />
        <path fill="none" stroke-linecap="round" stroke-width=".37"
            d="M116.4 119.2c-.2.6-.9 1-1.5.8-.7-.2-1.1-1.1-1.1-1.1" />
        <path fill="none" stroke-width=".37"
            d="M117.6 121.9c-.8-.4-1.4-1.2-1.5-2.2M115.9 122.6c-.9-.5-1.3-1.4-1.1-2.4" />
        <path fill="none" stroke-linecap="round" stroke-width=".37"
            d="M114.9 119.9c-.4.8-.8.9-1.3.9s-1.1-1.5-1.1-1.5M113.2 120.6c-.3.3-.8.4-1.3.3-.5-.3-.9-.8-.9-1.4" />
        <path fill="none" stroke-width=".37"
            d="M112 120.9c-.1.7 0 1.3.3 1.9M113.4 120.8c-.1.7.1 1.3.5 1.9M110.9 122.9c-.3-.6-.5-1.4-.4-2.1" />
        <path fill="none" stroke-linecap="round" stroke-width=".37"
            d="M111.5 120.7c-.6.4-1.4.3-1.8-.3 0 0 0-.1-.1-.1" />
        <path fill="#FEBD11" stroke-width=".5"
            d="M108.6 104.5c.3-.8.4-1.7.3-2.6-.1-1.5-1.5-2.1-.4-3.5 0-.1-.1-.3-.2-.3h-.1c-.8.9-1.4 2-1.6 3.2-.1 3.3 2 1.8 2 3.2z" />
        <path fill="#FEBD11" stroke-width=".5"
            d="M108.2 106.7c-.5-1.4.2-2.9 1.5-3.4h.1c2.4-.8 2.9.8 4.2.1.7-.3.1-1.2.1-1.2s.1-.4.4-.1 1.1 3.1-1.8 3.3-4 .6-4.5 1.3z" />
        <path fill="#FEBD11" stroke-width=".5"
            d="M108.8 106.5c.5-1.4-.2-2.9-1.5-3.4h-.1c-2.4-.8-2.9.8-4.2.1-.7-.3-.1-1.2-.1-1.2s-.1-.4-.4-.1-1.1 3.1 1.8 3.3 4 .6 4.5 1.3z" />
        <path fill="#FEBD11" stroke-width=".5" d="M106.5 105.6c-1.3 3 2.7 5 2.7 5 .9-4.2-1.5-4.5-2.2-4.9l-.5-.1z" />
        <path fill="#FEBD11" stroke-width=".5"
            d="M106.5 108.4c-1.6 2.9 2.7 5.1 2.7 5.1.9-4.3-1.9-4.8-2.6-5.2l-.1.1zM108.2 131.5c.5 1.4-.2 2.9-1.6 3.4h-.1c-2.4.8-2.9-.8-4.2-.1-.7.3-.1 1.2-.1 1.2s-.1.4-.4.1-1.1-3.1 1.8-3.3 4.1-.6 4.6-1.3z" />
        <path fill="#FEBD11" stroke-width=".5"
            d="M107.5 131.6c-.5 1.4.2 2.9 1.6 3.4h.1c2.4.8 2.9-.8 4.2-.1.7.3.1 1.2.1 1.2s.1.4.4.1 1.1-3.1-1.8-3.3-4.1-.5-4.6-1.3z" />
        <path fill="#FEBD11" stroke-width=".5" d="M109.4 132.6c1.7-3-2.7-5-2.7-5-.9 4.2 1.5 4.5 2.2 4.9l.5.1z" />
        <path fill="#FEBD11" stroke-width=".5"
            d="M109.4 129.8c1.7-2.9-2.7-5.1-2.7-5.1-1.1 4 1.9 4.8 2.6 5.2l.1-.1zM107.4 132c-.4 1.4-.5 3-.3 4.5.4 1.4 1.5 2.1.8 3.3 0 .1.1.3.2.3h.1c.8-.9 1.4-2 1.6-3.2 0-3.3-2.4-3.5-2.4-4.9zM106.6 111.4c-2.2 4.4 2.7 6.1 2.7 6.1.9-4.5-1.8-5.5-2.6-5.9l-.1-.2z" />
        <path fill="#FEBD11" stroke-width=".5" d="M109.6 126.1c1.8-3.2-3.2-5.7-3.2-5.7-1.6 3.8 2 5.8 2.8 6.2l.4-.5z" />
        <path fill="#FEBD11" stroke-width=".5"
            d="M106.6 114.9c.6 1.2 1.6 2.1 2.8 2.7.6 1.3.9 2.8.8 4.3-.1.5-.3 1-.6 1.5-.8-1.1-1.9-2.1-3-2.9-1-.6-1.1-2.9-1.1-3.3.1-.9.5-1.7 1.1-2.3z" />
    </g>
</svg>