<svg xmlns="http://www.w3.org/2000/svg" width="589.84" height="556.85" viewBox="0 0 589.84 556.855">
    <path fill="#0072af"
        d="M587.85 335.603s-35.386-61.805-94.946-62.254c17.684 56.21-11.872 116.67-11.872 116.67l31.35-15.969c-.575 3.465-2.853 12.999-11.34 21.48a42.452 42.452 0 0 1-7.03 5.684c-9.026 4.775-11.188 2.242-11.188 2.242l-27.639-27.785c21.828-31.901 33.573-69.583 33.573-109.08 0-29.927-6.748-58.814-19.492-84.937l49.72 42.506 5.343 4.566 4.975-4.968 28.212-28.218 5.46-5.454-5.542-5.379-62.196-60.365c11.111-1.295 21.865-6.18 30.381-14.686 20.062-20.063 20.062-52.718 0-72.771-20.07-20.076-52.726-20.065-72.787 0-8.885 8.883-13.829 20.246-14.844 31.879L374.483 7.127l-5.292-5.126-5.296 5.126-29.789 28.885-5.352 5.198 5.095 5.453 39.955 42.772c-24.504-10.93-51.24-16.662-78.864-16.662-27.589 0-54.308 5.731-78.79 16.625l39.932-42.735 5.088-5.453-5.355-5.198-29.79-28.885-5.289-5.138-5.288 5.138-63.504 61.637c-1.022-11.633-5.957-22.997-14.84-31.879-20.066-20.076-52.715-20.076-72.787 0-20.06 20.054-20.06 52.709 0 72.771 8.507 8.506 19.258 13.391 30.37 14.686l-62.2 60.365-5.537 5.379 5.465 5.454 28.207 28.218 4.974 4.968 5.34-4.566 49.658-42.422c-12.734 26.099-19.47 54.949-19.47 84.853 0 39.501 11.75 77.183 33.567 109.1l-27.649 27.772s-2.169 2.533-11.203-2.242a43.511 43.511 0 0 1-7.027-5.684c-8.48-8.481-10.766-18.016-11.329-21.48l31.345 15.969s-29.564-60.461-11.874-116.67c-59.553.45-94.945 62.254-94.945 62.254l27.638 14.081c-2.878 7.063-10.93 34.083 14.916 71.016C74.786 463.925 64.5 497.961 64.5 497.961s30.783-8.833 76.794 15.015c37.483 20.196 74.92 13.459 79.262 12.586l18.164 29.286s53.513-35.004 56.201-92.933c-44.484 11.646-117.57-6.046-117.57-6.046l15.306 24.669c-4.778-1.139-20.399-5.32-27.018-11.936a13.85 13.85 0 0 1-1.496-1.758c-6.27-8.965.896-13.884.896-13.884l23.99-23.99c31.22 20.451 67.714 31.44 105.91 31.44 38.183 0 74.678-10.989 105.9-31.431l23.983 23.98s7.17 4.919.901 13.884c-.428.605-.938 1.175-1.49 1.758-6.628 6.615-22.249 10.797-27.03 11.936l15.302-24.669s-73.074 17.691-117.56 6.046c2.683 57.929 56.201 92.933 56.201 92.933l18.158-29.286c4.354.873 41.774 7.61 79.26-12.586 46.018-23.848 76.807-15.015 76.807-15.015s-10.294-34.036 19.937-77.254c25.841-36.933 17.79-63.953 14.904-71.016l27.642-14.08z" />
    <path fill="#fff"
        d="m220.75 12.595-68.985 66.943-10.312 10.01c1.74-4.35 2.74-8.92 3.03-13.523.752-12.127-3.484-24.499-12.748-33.77-17.132-17.119-44.904-17.119-62.037 0-17.127 17.133-17.127 44.903 0 62.025 8.932 8.943 20.759 13.206 32.455 12.818a44.212 44.212 0 0 0 10.432-1.6c1.072-.316 2.15-.643 3.199-1.03l-1.412 1.37-8.918 8.653-67.66 65.672 28.217 28.219 65.338-55.846c7.538-11.788 16.413-22.85 26.549-32.992 11.588-11.583 24.384-21.52 38.1-29.688l54.53-58.373-29.78-28.885zm148.45 0L339.415 41.48l54.594 58.439c13.671 8.155 26.433 18.077 37.988 29.625a195.48 195.48 0 0 1 26.492 32.906l65.453 55.932 28.21-28.219-67.669-65.672-8.916-8.652-1.406-1.371c1.056.388 2.128.73 3.203 1.03a43.495 43.495 0 0 0 10.424 1.6c11.702.388 23.516-3.876 32.46-12.809 17.133-17.134 17.133-44.902 0-62.035-17.134-17.119-44.913-17.119-62.038 0-9.26 9.27-13.505 21.643-12.752 33.77a43.823 43.823 0 0 0 3.035 13.521l-10.312-9.996L369.2 12.594zm-74.25 67.779c-34.456 0-66.752 9.413-94.462 25.793a187.796 187.796 0 0 0-63.014 61.143c-18.192 28.766-28.74 62.8-28.74 99.283 0 102.68 83.532 186.22 186.21 186.22s186.22-83.544 186.22-186.22c0-36.507-10.567-70.592-28.803-99.367-15.804-24.974-37.395-45.921-62.859-60.996-27.737-16.418-60.06-25.855-94.557-25.855zm208.08 201.32c5.941 27.214 2.407 54.125-1.96 72.811a221.09 221.09 0 0 1-5.584 19.664l23.932-12.191.698 12.191c-.456 3.44-2.785 15.896-13.63 26.754a51.67 51.67 0 0 1-8.244 6.664l-.283.193-.32.17c-12.051 6.374-17.79 3.392-20.248.766l-26.736-26.658a196.102 196.102 0 0 1-18.668 21.592 196.78 196.78 0 0 1-24.162 20.539l22.549 22.605c1.588 1.286 5.28 4.945 6.228 10.168.585 3.248 1.837 10.881-6.935 17.012-8.767 6.131-22.243 17.062-49.516 18.672 4.985-8.228 15.293-24.414 15.293-24.414-7 1.282-59.386 10.103-89.592 4.58 4.15 29.19 31.255 59.611 43.719 69.645l16.078-26.293s33.405 10.868 79.379-9.875l.037-.035.07-.023c32.171-16.686 57.527-18.185 71.225-17.24-1.073-14.433-2.68-33.007 22.785-72.641 13.994-21.785 15.423-37.548 15.207-48.117-.15-7.33-3.652-22.416-3.652-22.416l26.221-13.133c-4.008-5.696-10.69-14.286-19.688-22.805-8.888-8.42-18.285-15.122-27.918-19.906-8.577-4.278-17.386-7.043-26.285-8.278zm-415.81.002c-8.906 1.235-17.713 3.997-26.28 8.275-9.637 4.784-19.035 11.486-27.924 19.906-8.996 8.52-15.679 17.11-19.682 22.805l26.22 13.133s-3.501 15.087-3.653 22.416c-.218 10.568 1.219 26.332 15.207 48.117 25.47 39.634 23.853 58.208 22.785 72.641 13.692-.946 39.059.554 71.234 17.24l.055.024.049.035c45.964 20.743 79.38 9.875 79.38 9.875l16.073 26.293c12.464-10.034 39.555-40.456 43.717-69.645-30.207 5.524-82.586-3.298-89.602-4.58 0 0 10.318 16.185 15.297 24.414-27.268-1.61-40.735-12.541-49.506-18.672-8.767-6.131-7.529-13.764-6.94-17.012.95-5.223 4.648-8.882 6.235-10.168l22.492-22.375a196.222 196.222 0 0 1-43.106-42.276l-26.42 26.572c-2.453 2.626-8.202 5.608-20.245-.766l-.305-.17-.297-.193a51.802 51.802 0 0 1-8.238-6.664c-10.844-10.858-13.177-23.312-13.62-26.752l.686-12.191 23.93 12.19a219.35 219.35 0 0 1-5.574-19.665c-4.379-18.686-7.905-45.595-1.969-72.81z" />
    <path fill="#dc3832"
        d="M232.15 253.333v71.963a33.988 33.988 0 0 0 3.865 4.143c2.32 2.07 4.846 3.768 7.543 5.22v-81.326H232.15zm22.821 0v86.004c2.447.8 4.954 1.562 7.487 2.314 1.314.388 2.616.775 3.933 1.176v-89.494h-11.42zm22.826 0v93.518c3.993 1.673 7.846 3.708 11.426 6.361v-99.879h-11.426zm22.875 0v99.879c3.582-2.653 7.436-4.702 11.416-6.373v-93.506h-11.416zm45.66 0v81.326c2.693-1.452 5.23-3.149 7.54-5.22a34.025 34.025 0 0 0 3.878-4.143v-71.963h-11.418zm-22.832.002v89.492c1.322-.4 2.626-.786 3.926-1.174a273.34 273.34 0 0 0 7.49-2.314v-86.004H323.5z" />
    <path fill="#0072af"
        d="M100.71 49.999c-5.964 0-11.927 2.27-16.466 6.807-9.06 9.09-9.06 23.847 0 32.934a23.354 23.354 0 0 0 10.482 6.021c2.55.666 5.203.91 7.828.692-.6-2.498-.565-5.127.084-7.622a15.681 15.681 0 0 1 4.078-7.087 15.599 15.599 0 0 1 9.141-4.471 15.87 15.87 0 0 1 7.588.931c.563-2.582.678-5.245.344-7.863a23.265 23.265 0 0 0-6.617-13.535C112.635 52.27 106.672 50 100.709 50zm388.51 0c-5.96 0-11.919 2.27-16.454 6.807a23.177 23.177 0 0 0-6.623 13.547 23.408 23.408 0 0 0 .34 7.853 15.855 15.855 0 0 1 7.58-.933c3.343.41 6.585 1.9 9.147 4.47a15.393 15.393 0 0 1 4.072 7.088c.654 2.495.696 5.123.098 7.621a23.296 23.296 0 0 0 7.82-.69 23.227 23.227 0 0 0 10.48-6.023c9.076-9.087 9.076-23.844 0-32.934C501.14 52.268 495.18 50 489.219 50zm-388.51 7.598c4.01 0 8.021 1.53 11.081 4.59a15.682 15.682 0 0 1 4.166 7.449c-5.329.427-10.54 2.656-14.617 6.727a23.169 23.169 0 0 0-6.277 11.535 15.594 15.594 0 0 1-5.44-3.54c-6.113-6.13-6.113-16.055 0-22.172a15.637 15.637 0 0 1 11.086-4.59zm388.51 0c4.012 0 8.023 1.53 11.081 4.59 6.125 6.117 6.125 16.043 0 22.174a15.615 15.615 0 0 1-5.437 3.539 23.2 23.2 0 0 0-6.276-11.537c-4.069-4.072-9.293-6.299-14.61-6.725a15.637 15.637 0 0 1 4.15-7.45 15.652 15.652 0 0 1 11.092-4.59zm-213.6 40.686c-1.335.012-2.836.129-4.526.37-10.342 1.466-13.935 6.458-13.268 11.173.879 6.07 7.244 6.553 9.717 6.748l8.748.629c2.376.207 3.182 1.033 3.363 2.414.468 3.283-3.845 3.9-4.658 4.022-5.7.813-6.272-2.507-6.489-3.67l-9.62 1.367c.232 1.235.687 4.084 3.552 6.057 3.586 2.533 9.45 2.183 13.05 1.675 8.667-1.227 14.858-5.077 13.94-11.549-.885-6.169-6.516-6.592-11.26-6.943l-6.656-.498c-1.436-.11-3.626-.337-3.934-2.47-.237-1.732 1.345-3.306 4.12-3.694 4.597-.67 4.993 2.483 5.126 3.367l9.725-1.395c-.43-2.703-1.592-7.688-10.932-7.603zm43.194.854c-2.954.067-5.743.757-8.308 2.484-3.768 2.545-5.536 6.327-6.21 10.287-.522 3.007-.63 7.732 2.567 11.73 3.242 4.023 9.064 5.513 12.41 6.082 4.477.763 15.571 1.866 17.166-7.186l-9.916-1.683c-.39 1.092-1.435 4.084-6.496 3.223-7.395-1.261-6.196-8.565-5.893-10.322.903-5.293 3.429-9.438 9.196-8.456 2.725.46 4.968 1.95 4.896 4.954l9.826 1.67c.135-1.088.534-3.693-1.818-6.651-2.307-2.871-6.352-4.714-11.934-5.672-1.881-.318-3.714-.501-5.486-.46zm-69.512 4.402-24.604 9.062 10.137 27.48 24.967-9.209-1.974-5.341-15.977 5.886-2.162-5.875 14.703-5.416-1.946-5.273-14.703 5.416-2.107-5.705 15.61-5.768-1.944-5.258zm105.22 5.822c-1.4-.02-2.83.127-4.217.527-5.548 1.611-8.298 6.798-9.107 8.579-4.482 9.97 1.65 17.46 10.12 21.262 7.598 3.417 18.07 4.192 22.864-6.483 2.936-6.53 2.95-15.762-9.768-21.457-1.753-.79-5.692-2.365-9.892-2.428zm-135.55 5.627-26.557 16.576 3.08 4.93 9.032-5.645 12.449 19.98 8.302-5.173-12.47-19.982 9.245-5.753-3.082-4.932zm138.77 1.143c1.178-.033 2.487.24 3.942.894 1.945.87 3.811 2.25 4.43 4.313.44 1.61.67 3.948-1.018 7.693-1.664 3.708-4.924 8.118-11.246 5.281-5.858-2.628-5.455-7.546-3.541-11.8 1.55-3.444 3.9-6.283 7.433-6.382zm39.63 16.123-29.278 13.922 7.477 6.142 5.572-3.052 10.807 8.869-1.877 6.096 8.451 6.94 7.961-31.442-9.113-7.475zm.517 7.826.103.096-4.332 12.373-7.335-6.01 11.564-6.46zm-217.74 2.629-8.36 8.338 10.98 30.52 6.852-6.831-2.49-5.854 9.898-9.875 5.881 2.46 7.736-7.72-30.498-11.039zm114.79 3.855c-66.183 0-120.02 53.833-120.02 120.03 0 66.18 53.838 120.03 120.02 120.03 66.186 0 120.03-53.846 120.03-120.03 0-66.192-53.846-120.03-120.03-120.03zm-115.19 4.639 11.88 5.537-6.704 6.715-5.28-12.143.104-.11zm115.19 3.588c61.643 0 111.79 50.162 111.79 111.8 0 61.639-50.15 111.79-111.79 111.79-61.643 0-111.79-50.148-111.79-111.79 0-61.637 50.152-111.8 111.79-111.8zm125.18 4.092a7.394 7.394 0 0 0-4.203 1.431c-4.988 3.587-2.45 9.464-1.457 11.73l3.504 8.032c.927 2.195.575 3.296-.563 4.095-2.697 1.953-5.247-1.573-5.726-2.24-3.374-4.666-.691-6.724.234-7.451l-5.695-7.88c-.985.779-3.3 2.51-3.715 5.962-.567 4.349 2.465 9.378 4.596 12.322 5.126 7.102 11.4 10.795 16.717 6.967 5.039-3.647 2.801-8.832.9-13.193l-2.664-6.131c-.56-1.321-1.388-3.356.365-4.617 1.421-1.016 3.56-.35 5.2 1.916 2.717 3.768.123 5.585-.606 6.119l5.75 7.947c2.51-1.864 7.21-5.985-.781-17.047-4.202-5.822-8.393-8.05-11.855-7.963zm-259.36 4.256-16.65 26.498 4.933 3.09 5.653-9.014 19.93 12.527 5.207-8.276-19.928-12.529 5.781-9.207-4.926-3.09zm282.22 21.059-5.332 2.326 4.271 9.752-21.566 9.43 3.914 8.964 21.566-9.44 4.358 9.976 5.336-2.327-12.547-28.682zm-295.34 10.086c-3.06-.01-6.967 1.909-10.38 10.646-3.796 9.73-1.208 15.316 3.22 17.047 5.712 2.228 9.273-3.09 10.643-5.149l4.86-7.295c1.338-1.977 2.453-2.266 3.74-1.757 3.112 1.21 1.517 5.271 1.222 6.021-2.097 5.381-5.273 4.242-6.393 3.854l-3.525 9.066c1.184.41 3.89 1.415 7.016-.121 3.968-1.878 6.555-7.162 7.877-10.531 3.178-8.168 2.87-15.447-3.217-17.822-5.8-2.266-8.944 2.425-11.58 6.385l-3.69 5.572c-.82 1.19-2.083 2.97-4.095 2.195-1.623-.644-2.222-2.8-1.211-5.404 1.696-4.337 4.635-3.14 5.465-2.813l3.568-9.146c-.914-.342-2.129-.744-3.52-.748zm64.945 4.695s10.146 21.375 10.146 50.139c0 1.467-.035 2.86-.11 4.217-.791 15.789-5.76 24.766-4.427 41.414 1.45 18.37 6.692 29.35 13.953 36.473 3.409 3.37 7.275 5.864 11.408 7.877 3.647 1.77 7.488 3.163 11.414 4.408 3.774 1.213 7.609 2.294 11.42 3.467 3.888 1.213 7.741 2.545 11.406 4.205 4.072 1.84 7.932 4.093 11.426 7.111a39.498 39.498 0 0 1 5.695 6.096l.026.049.023-.05a39.02 39.02 0 0 1 5.705-6.095c3.49-3.019 7.35-5.271 11.416-7.111 3.681-1.66 7.52-2.992 11.412-4.205 3.794-1.173 7.645-2.254 11.416-3.467 3.931-1.245 7.774-2.64 11.416-4.408 4.127-2.013 8-4.52 11.418-7.877 7.252-7.123 12.49-18.102 13.949-36.473 1.326-16.647-3.647-25.625-4.44-41.414a94.777 94.777 0 0 1-.097-4.217c0-28.764 10.146-50.14 10.146-50.14h-164.72zm234.98 28.217a16.492 16.492 0 0 0-2.877.137c-4.635.619-8.942 3.271-11.13 8.058-1.986 4.373-1.756 9.622-1.241 13.352.704 5.138 2.008 10.178 3.71 15.074l15.546-2.123-2.239-16.354-5.525.76 1.015 7.332-5.648.775c-.524-1.732-.97-3.488-1.21-5.257-.796-5.804 1.465-10.653 8.263-11.586 4.872-.667 10.035 1.08 10.936 7.648.363 2.628-.099 5.573-3.049 6.504l1.332 9.744c1.406-.244 3.81-.62 5.682-3.418 2.048-3.116 2.394-7.694 1.662-13.12-.571-4.17-2.008-10.12-5.832-13.802-2.789-2.629-6.32-3.605-9.395-3.724zm-306.6 10.832c-3.899.082-8.02 1.464-10.904 5.82-2.31 3.478-3.036 8.966-3.295 13.11l-.959 14.731 29.287 1.905.97-14.83c.156-2.413.427-6.655-.474-10.312-1.856-7.185-6.483-9.972-12.973-10.385a18.821 18.821 0 0 0-1.652-.04zm-.649 10.014a13.125 13.125 0 0 1 1.57.012c6.81.448 8.862 4.702 8.481 11.123l-.265 4.154-18.098-1.174.293-3.806c.18-2.77.64-9.908 8.02-10.31zm86.275 5.295H363.295c.335 6.883 1.414 12.479 2.459 17.906 1.407 7.196 2.724 13.983 1.988 23.193-1.085 13.703-4.299 23.687-9.994 30.86a34.081 34.081 0 0 1-3.879 4.141c-2.31 2.071-4.846 3.77-7.539 5.221-3.56 1.905-7.407 3.359-11.416 4.68-2.435.8-4.951 1.562-7.49 2.314-1.3.388-2.604.775-3.926 1.176-3.839 1.175-7.683 2.435-11.412 4.012-3.98 1.67-7.834 3.72-11.416 6.373a43.261 43.261 0 0 0-5.728 5.062 43.331 43.331 0 0 0-5.721-5.062c-3.58-2.653-7.433-4.689-11.426-6.362-3.72-1.588-7.564-2.849-11.406-4.023a500.51 500.51 0 0 0-3.934-1.174 295.132 295.132 0 0 1-7.486-2.314c-4.011-1.32-7.86-2.774-11.416-4.68-2.696-1.452-5.22-3.149-7.541-5.22a33.915 33.915 0 0 1-3.865-4.143c-5.701-7.175-8.92-17.158-10.014-30.861-.73-9.21.596-15.995 1.992-23.193 1.059-5.427 2.142-11.023 2.465-17.906zm217.4 14.529c-4.732-.05-10.679 1.823-12.205 15.143-.497 4.374-.52 10.648 2.563 14.406 1.9 2.42 5.345 3.355 8.592 3.719l16.879 1.937 1.07-9.377-17.047-1.951c-2.901-.328-6.966-1.636-6.273-7.729.27-2.349 1.288-4.533 3.058-5.648 1.32-.813 2.953-.776 4.524-.594l17.338 1.975 1.109-9.701-16.594-1.953c-.894-.1-1.921-.215-3.014-.227zm-288.46 7.789-5.619.943 2.85 16.795-6.174 1.043-2.615-15.45-5.531.945 2.617 15.439-6.01 1.027-2.787-16.404-5.533.932 4.396 25.857 28.852-4.895-4.445-26.232zm275.71 24.676-3.664 8.957 4.557 4.436-5.297 12.93-6.377.011-4.14 10.117 32.394-1.646 4.479-10.92-21.951-23.885zm-294.14 7.7-5.459 2.02 10.875 29.358 5.463-2.022-3.709-9.984 22.074-8.178-3.396-9.174-22.068 8.19-3.78-10.211zm299.17 9.839 9.579 9.135-.06.144-13.101-.51 3.582-8.769zm-265.15 11.7-25.656 14.263 4.848 8.701 25.656-14.25-4.848-8.713zm242.06 11.187-6 7.654 9.028 7.069-2.5 3.209c-2.696 3.417-3.798 2.734-6.856.894-2.26-1.345-4.161-2.53-5.931-3.172l-6.483 8.262c2.151.632 4.945 2.205 6.713 3.178 4.042 2.168 6.253 3.411 10.572-1.819l.12.1c-.505.845-1.661 2.638-2.102 5.123-.341 1.817-.209 3.888 2.318 5.861 2.501 1.964 4.612 1.891 5.98 1.611 2.684-.53 4.41-2.2 8.288-7.158l9.974-12.713-23.12-18.1zm-236.12 1.006-22.656 18.658 5.377 6.53 16.83-13.98-9.382 23.008 8.486 10.311 22.658-18.66-5.41-6.566-17.543 14.562 9.941-23.785-8.3-10.078zm243.31 16.975 5.674 4.445-2.234 2.85c-1.734 2.215-4.067 5.186-6.908 2.943-.74-.57-1.921-2.037-1.05-4.072.309-.798.965-1.634 2.284-3.307l2.234-2.86zm-30.412 10.359-12.055 8.701c-1.95 1.416-5.412 3.913-7.646 6.932-4.367 6.009-3.567 11.338.25 16.607 2.548 3.53 6.505 6.628 12.449 6.011 4.154-.447 8.839-3.38 12.213-5.814l11.967-8.639-17.178-23.799zm-187.68 4.424a9.629 9.629 0 0 0-1.82.148c-3.028.484-5.52 3.047-7.418 5.691l-9.916 13.801 7.666 5.502 10.008-13.934c1.695-2.388 4.81-5.31 9.813-1.722 1.916 1.382 3.32 3.332 3.423 5.418.08 1.549-.75 2.953-1.677 4.252l-10.17 14.164 7.931 5.707 9.79-13.55c2.8-3.897 7.78-10.926-5.62-20.548-3.123-2.247-7.71-4.884-12.01-4.93zm182.95 5.97 10.615 14.7-3.136 2.204c-2.386 1.732-8.82 6.363-14.037-.845-3.996-5.538-2.009-9.828 3.177-13.621l3.381-2.438zm-139.68 17.025c-2.756.786-4.803 1.106-6.923 1.153l-2.26 6.154c1.677-.061 3.5-.23 5.027-.63l-7.638 20.802 9.355 3.442 10.303-28.021-7.863-2.899zm92.318 2.399c-1.684-.03-3.72.211-6.183.896-3.137.861-7.392 2.716-9.567 6.63-2.59 4.555-1.736 9.763-.988 12.503.795 2.86 2.778 7.851 7.557 10.408 3.276 1.77 7.536 1.658 11.516.545 11.046-3.065 13.01-11.024 10.717-19.279-1.58-5.717-4.281-8.49-7.21-10.139-1.203-.72-3.033-1.516-5.841-1.564zm-80.389 2.449-.994 5.996 18.041 2.969-18.465 20.939 11.354 1.865 17.145-21.205.983-5.936-28.062-4.628zm45.312 3.162a28.355 28.355 0 0 0-1.705.035c-9.02.423-14.686 5.003-14.396 11.062.121 2.702 1.439 5.053 3.577 6.723 1.98 1.49 4.466 2.485 9.25 2.256 4.334-.192 6.54-1.684 8.21-3.442.152 5.33-.327 9.149-5.804 9.403-2.883.148-4.751-1.054-4.883-2.737l-9.488.46c.164 1.244.417 3.257 2.459 4.88 3.11 2.423 7.325 3.004 11.912 2.787 4.434-.217 9.042-1.163 12.225-4.845 2.988-3.456 3.502-8.01 3.32-11.438-.141-3.102-.809-6.172-2.381-8.944-1.325-2.317-4.128-6.115-12.295-6.201zm32.717.45c1.745.138 2.61 1.26 3.082 1.96 1.285 1.938 2.37 5.246 2.77 6.701.182.628 1.5 5.39.623 8.043-.441 1.272-1.809 2.327-3.354 2.764-4.077 1.128-6.005-1.95-7.703-8.094-2.415-8.699-.263-10.372 2.528-11.133.794-.225 1.473-.288 2.054-.242zm-33.43 5.023c3.763.146 4.937 2.622 5.016 4.474.129 2.666-1.572 4.725-5.445 4.918-4.071.182-5.587-2.24-5.696-4.468-.126-2.583 1.533-4.725 5.336-4.922.275-.012.539-.012.79-.002z" />
</svg>