<svg xmlns="http://www.w3.org/2000/svg" xmlns:xlink="http://www.w3.org/1999/xlink" xml:space="preserve" width="720"
    height="720.002" version="1.0" viewBox="0 0 217.254 217.356">
    <circle cx="108.627" cy="108.678" r="102.037"
        style="opacity:1;fill:#002f6c;fill-opacity:1;fill-rule:evenodd;stroke:none;stroke-width:.2264125;stroke-linecap:square;stroke-linejoin:miter;stroke-miterlimit:4;stroke-dasharray:none;stroke-dashoffset:0;stroke-opacity:1;paint-order:normal" />
    <g style="fill:#ffb81c;fill-opacity:1">
        <path
            d="M-234.78-349.425c-1.645-1.544-6.144-2.37-8.087-2.028-2.116.373-2.2 1.83-.756 2.925 1.446 1.096 6.18 5.678 6.927 6.275.747.597 3.981 1.12 6.627 1.081 2.392-.035 2.44-.96 1.345-2.107-1.095-1.146-6.057-6.146-6.057-6.146z"
            style="fill:#ffb81c;fill-opacity:1;fill-rule:evenodd;stroke:#715c37;stroke-width:.59773993;stroke-miterlimit:3.86369991"
            transform="translate(339.87 352.404)" />
        <path
            d="M-243.819-348.725c-1.745-1.428-6.117-1.959-8.032-1.485-2.084.516-2.184 2.146-.668 3.14 1.516.995 6.663 5.07 7.449 5.616.786.545 4.047.845 6.683.627 2.383-.197 2.369-1.125 1.198-2.193-1.171-1.067-6.63-5.705-6.63-5.705z"
            style="fill:#ffb81c;fill-opacity:1;fill-rule:evenodd;stroke:#715c37;stroke-width:.59773993;stroke-miterlimit:3.86369991"
            transform="translate(339.87 352.404)" />
        <path
            d="M-252.58-347.382c-1.848-1.287-6.243-1.478-8.114-.858-2.036.675-1.965 2.298-.379 3.171 1.586.873 6.984 4.542 7.81 5.024.825.482 4.097.53 6.704.108 2.357-.38 2.272-1.304 1.023-2.276-1.25-.972-7.044-5.169-7.044-5.169z"
            style="fill:#ffb81c;fill-opacity:1;fill-rule:evenodd;stroke:#715c37;stroke-width:.59773993;stroke-miterlimit:3.86369991"
            transform="translate(339.87 352.404)" />
        <path
            d="M-261.068-345.146c-1.933-1.155-6.329-1.038-8.15-.29-1.983.815-1.984 2.482-.34 3.242 1.642.76 7.465 3.988 8.321 4.412.856.424 4.122.242 6.692-.36 2.324-.543 2.175-1.458.863-2.34-1.315-.884-7.386-4.664-7.386-4.664z"
            style="fill:#ffb81c;fill-opacity:1;fill-rule:evenodd;stroke:#715c37;stroke-width:.59773993;stroke-miterlimit:3.86369991"
            transform="translate(339.87 352.404)" />
        <path
            d="M-269.785-342.318c-2.034-.963-6.396-.427-8.136.493-1.895 1.001-1.817 2.696-.109 3.294 1.707.6 7.89 3.216 8.782 3.556.893.34 4.123-.154 6.623-.999 2.26-.764 2.024-1.659.633-2.412-1.392-.752-7.793-3.932-7.793-3.932z"
            style="fill:#ffb81c;fill-opacity:1;fill-rule:evenodd;stroke:#715c37;stroke-width:.59773993;stroke-miterlimit:3.86369991"
            transform="translate(339.87 352.404)" />
        <path
            d="M-278.02-338.615c-2.096-.819-6.408.02-8.079 1.058-1.82 1.13-1.623 2.814.121 3.292 1.744.48 8.091 2.657 9.006 2.933.913.276 4.1-.44 6.534-1.458 2.2-.919 1.903-1.795.463-2.449-1.44-.654-8.046-3.376-8.046-3.376z"
            style="fill:#ffb81c;fill-opacity:1;fill-rule:evenodd;stroke:#715c37;stroke-width:.59773993;stroke-miterlimit:3.86369991"
            transform="translate(339.87 352.404)" />
        <path
            d="M-285.959-334.356c-2.152-.652-6.268.465-7.851 1.63-1.725 1.27-1.397 2.932.378 3.271 1.775.34 8.272 2.013 9.203 2.216.932.204 4.051-.76 6.397-1.964 2.121-1.088 1.755-1.938.27-2.477-1.486-.537-8.397-2.676-8.397-2.676z"
            style="fill:#ffb81c;fill-opacity:1;fill-rule:evenodd;stroke:#715c37;stroke-width:.59773993;stroke-miterlimit:3.86369991"
            transform="translate(339.87 352.404)" />
        <path
            d="M-293.465-329.4c-2.21-.405-6.17 1.17-7.61 2.506-1.57 1.455-1.055 3.07.746 3.205 1.8.137 8.44 1.063 9.388 1.16.948.096 3.937-1.214 6.128-2.674 1.982-1.32 1.523-2.123-.013-2.489-1.536-.367-8.64-1.709-8.64-1.709z"
            style="fill:#ffb81c;fill-opacity:1;fill-rule:evenodd;stroke:#715c37;stroke-width:.59773993;stroke-miterlimit:3.86369991"
            transform="translate(339.87 352.404)" />
        <path
            d="M-300.38-323.897c-2.228-.288-6.1 1.492-7.467 2.9-1.49 1.535-.892 3.12.914 3.161 1.805.042 8.481.62 9.433.667.951.047 3.866-1.418 5.978-2.99 1.91-1.422 1.41-2.199-.143-2.484-1.553-.285-8.715-1.254-8.715-1.254z"
            style="fill:#ffb81c;fill-opacity:1;fill-rule:evenodd;stroke:#715c37;stroke-width:.59773993;stroke-miterlimit:3.86369991"
            transform="translate(339.87 352.404)" />
        <path
            d="M-306.867-317.757c-2.244-.092-5.942 2.016-7.182 3.538-1.35 1.657-.616 3.183 1.185 3.068 1.8-.115 8.499-.12 9.45-.158.952-.036 3.726-1.749 5.692-3.498 1.778-1.582 1.211-2.312-.36-2.46-1.57-.149-8.785-.49-8.785-.49z"
            style="fill:#ffb81c;fill-opacity:1;fill-rule:evenodd;stroke:#715c37;stroke-width:.59773993;stroke-miterlimit:3.86369991"
            transform="translate(339.87 352.404)" />
        <path
            d="M-312.738-311.16c-2.242.084-5.763 2.475-6.878 4.09-1.215 1.756-.365 3.22 1.42 2.963 1.786-.256 8.46-.787 9.405-.898.945-.11 3.575-2.034 5.396-3.932 1.647-1.716 1.026-2.398-.551-2.424-1.577-.025-8.792.201-8.792.201z"
            style="fill:#ffb81c;fill-opacity:1;fill-rule:evenodd;stroke:#715c37;stroke-width:.59773993;stroke-miterlimit:3.86369991"
            transform="translate(339.87 352.404)" />
        <path
            d="M-317.972-304.138c-2.232.22-5.598 2.821-6.613 4.5-1.104 1.826-.167 3.234 1.599 2.87 1.766-.365 8.392-1.3 9.328-1.47.937-.169 3.444-2.248 5.145-4.252 1.538-1.813.877-2.456-.698-2.385-1.574.07-8.76.737-8.76.737z"
            style="fill:#ffb81c;fill-opacity:1;fill-rule:evenodd;stroke:#715c37;stroke-width:.59773993;stroke-miterlimit:3.86369991"
            transform="translate(339.87 352.404)" />
        <path
            d="M-322.969-296.719c-2.2.433-5.241 3.514-6.09 5.281-.923 1.924.086 3.292 1.809 2.76 1.723-.532 8.224-2.328 9.14-2.585.915-.257 3.209-2.566 4.71-4.723 1.356-1.95.637-2.527-.923-2.306-1.562.221-8.646 1.573-8.646 1.573z"
            style="fill:#ffb81c;fill-opacity:1;fill-rule:evenodd;stroke:#715c37;stroke-width:.59773993;stroke-miterlimit:3.86369991"
            transform="translate(339.87 352.404)" />
        <path
            d="M-327.091-288.71c-2.141.66-4.842 4.04-5.5 5.884-.718 2.01.43 3.263 2.085 2.555 1.656-.708 7.93-3.173 8.814-3.524.882-.35 2.921-2.885 4.188-5.186 1.145-2.08.369-2.578-1.159-2.195-1.527.383-8.428 2.465-8.428 2.465z"
            style="fill:#ffb81c;fill-opacity:1;fill-rule:evenodd;stroke:#715c37;stroke-width:.59773993;stroke-miterlimit:3.86369991"
            transform="translate(339.87 352.404)" />
        <path
            d="M-330.72-280.215c-2.074.843-4.469 4.444-4.963 6.338-.54 2.062.712 3.211 2.3 2.361 1.586-.849 7.619-3.849 8.467-4.276.848-.427 2.657-3.127 3.718-5.528.958-2.17.143-2.599-1.345-2.085-1.488.516-8.177 3.19-8.177 3.19z"
            style="fill:#ffb81c;fill-opacity:1;fill-rule:evenodd;stroke:#715c37;stroke-width:.59773993;stroke-miterlimit:3.86369991"
            transform="translate(339.87 352.404)" />
        <path
            d="M-333.433-271.65c-2.009.986-4.146 4.743-4.507 6.666-.394 2.094.934 3.152 2.458 2.195 1.523-.958 7.329-4.37 8.145-4.854.816-.485 2.432-3.304 3.321-5.77.805-2.232-.039-2.603-1.485-1.986-1.449.616-7.932 3.75-7.932 3.75z"
            style="fill:#ffb81c;fill-opacity:1;fill-rule:evenodd;stroke:#715c37;stroke-width:.59773993;stroke-miterlimit:3.86369991"
            transform="translate(339.87 352.404)" />
        <path
            d="M-335.282-263.029c-1.862 1.274-3.598 5.321-3.682 7.292-.089 2.146 1.315 2.541 2.697 1.365 1.38-1.176 6.874-4.813 7.618-5.414.745-.602 1.948-3.647 2.48-6.238.479-2.342-.416-2.59-1.77-1.766-1.355.824-7.343 4.761-7.343 4.761z"
            style="fill:#ffb81c;fill-opacity:1;fill-rule:evenodd;stroke:#715c37;stroke-width:.59773993;stroke-miterlimit:3.86369991"
            transform="translate(339.87 352.404)" />
        <path
            d="M-336.445-254.212c-1.77 1.397-3.228 5.551-3.176 7.521.056 2.146 1.628 2.593 2.925 1.327 1.296-1.266 6.385-5.416 7.086-6.066.701-.65 1.695-3.77 2.048-6.389.319-2.368-.59-2.555-1.885-1.64-1.295.913-6.998 5.247-6.998 5.247z"
            style="fill:#ffb81c;fill-opacity:1;fill-rule:evenodd;stroke:#715c37;stroke-width:.59773993;stroke-miterlimit:3.86369991"
            transform="translate(339.87 352.404)" />
        <path
            d="M-336.902-245.346c-1.654 1.528-2.784 5.778-2.58 7.737.222 2.133 1.823 2.412 3.018 1.051 1.194-1.36 5.937-5.844 6.586-6.545.648-.702 1.396-3.886 1.544-6.52.135-2.384-.785-2.5-2.003-1.489-1.22 1.01-6.565 5.766-6.565 5.766z"
            style="fill:#ffb81c;fill-opacity:1;fill-rule:evenodd;stroke:#715c37;stroke-width:.59773993;stroke-miterlimit:3.86369991"
            transform="translate(339.87 352.404)" />
        <path
            d="M-336.54-236.58c-1.543 1.64-2.374 5.955-2.033 7.894.37 2.111 1.999 2.47 3.094 1.03 1.096-1.44 5.5-6.433 6.098-7.178.597-.745 1.122-3.972 1.084-6.609-.032-2.387-.957-2.437-2.103-1.345-1.142 1.093-6.14 6.208-6.14 6.208z"
            style="fill:#ffb81c;fill-opacity:1;fill-rule:evenodd;stroke:#715c37;stroke-width:.59773993;stroke-miterlimit:3.86369991"
            transform="translate(339.87 352.404)" />
        <path
            d="M-335.648-227.463c-1.378 1.778-1.79 6.151-1.266 8.048.572 2.064 2.244 2.353 3.196.813.951-1.537 4.836-7.01 5.36-7.81.523-.798.734-4.059.446-6.68-.261-2.37-1.187-2.332-2.22-1.136-1.035 1.2-5.516 6.765-5.516 6.765z"
            style="fill:#ffb81c;fill-opacity:1;fill-rule:evenodd;stroke:#715c37;stroke-width:.59773993;stroke-miterlimit:3.86369991"
            transform="translate(339.87 352.404)" />
        <path
            d="M-333.798-218.629c-1.25 1.87-1.356 6.26-.7 8.113.713 2.02 2.4 2.189 3.243.59.841-1.6 4.334-7.329 4.8-8.16.465-.834.449-4.1-.022-6.693-.425-2.345-1.345-2.242-2.293-.978-.948 1.266-5.028 7.128-5.028 7.128z"
            style="fill:#ffb81c;fill-opacity:1;fill-rule:evenodd;stroke:#715c37;stroke-width:.59773993;stroke-miterlimit:3.86369991"
            transform="translate(339.87 352.404)" />
        <path
            d="M-331.341-209.965c-1.1 1.961-.891 6.219-.093 8.015.87 1.955 2.564 1.992 3.278.333.713-1.661 3.742-7.643 4.142-8.509.399-.866.126-4.119-.547-6.666-.608-2.304-1.516-2.129-2.362-.795-.844 1.335-4.418 7.622-4.418 7.622z"
            style="fill:#ffb81c;fill-opacity:1;fill-rule:evenodd;stroke:#715c37;stroke-width:.59773993;stroke-miterlimit:3.86369991"
            transform="translate(339.87 352.404)" />
        <path
            d="M-328.11-201.574c-.87 2.071-.182 6.275.814 7.969 1.084 1.844 2.772 1.688 3.293-.04.52-1.729 2.85-8.012 3.148-8.917.298-.904-.341-4.104-1.297-6.557-.864-2.219-1.746-1.942-2.435-.52-.688 1.42-3.523 8.065-3.523 8.065z"
            style="fill:#ffb81c;fill-opacity:1;fill-rule:evenodd;stroke:#715c37;stroke-width:.59773993;stroke-miterlimit:3.86369991"
            transform="translate(339.87 352.404)" />
        <path
            d="M-324.218-193.641c-.759 2.113.148 6.274 1.231 7.912 1.18 1.784 2.855 1.54 3.285-.213.428-1.753 2.427-8.146 2.677-9.065.25-.92-.555-4.079-1.639-6.479-.98-2.17-1.846-1.848-2.458-.393-.611 1.454-3.096 8.238-3.096 8.238z"
            style="fill:#ffb81c;fill-opacity:1;fill-rule:evenodd;stroke:#715c37;stroke-width:.59773993;stroke-miterlimit:3.86369991"
            transform="translate(339.87 352.404)" />
        <path
            d="M-319.61-185.99c-.573 2.17.694 6.233 1.915 7.77 1.33 1.674 2.979 1.286 3.252-.497.274-1.782 1.707-8.323 1.876-9.26.168-.937-.909-4.013-2.196-6.308-1.165-2.074-2-1.679-2.481-.177-.485 1.501-2.366 8.472-2.366 8.472z"
            style="fill:#ffb81c;fill-opacity:1;fill-rule:evenodd;stroke:#715c37;stroke-width:.59773993;stroke-miterlimit:3.86369991"
            transform="translate(339.87 352.404)" />
        <path
            d="M-314.425-178.842c-.4 2.207 1.18 6.157 2.518 7.593 1.457 1.563 3.069 1.047 3.202-.751.133-1.799 1.046-8.428 1.141-9.374.095-.947-1.22-3.927-2.683-6.112-1.323-1.976-2.124-1.517-2.486.018-.363 1.533-1.692 8.626-1.692 8.626z"
            style="fill:#ffb81c;fill-opacity:1;fill-rule:evenodd;stroke:#715c37;stroke-width:.59773993;stroke-miterlimit:3.86369991"
            transform="translate(339.87 352.404)" />
        <path
            d="M-308.687-172.226c-.264 2.227 1.553 6.07 2.976 7.422 1.549 1.471 3.126.857 3.149-.944.023-1.803.53-8.473.566-9.423.037-.951-1.458-3.844-3.05-5.936-1.44-1.891-2.212-1.384-2.48.17-.27 1.553-1.161 8.711-1.161 8.711z"
            style="fill:#ffb81c;fill-opacity:1;fill-rule:evenodd;stroke:#715c37;stroke-width:.59773993;stroke-miterlimit:3.86369991"
            transform="translate(339.87 352.404)" />
        <path
            d="M-302.511-165.755c-.05 2.24 2.308 5.872 3.852 7.079 1.682 1.314 3.236.622 3.086-1.173-.15-1.795-.51-8.528-.563-9.477-.055-.949-1.818-3.685-3.604-5.612-1.614-1.744-2.333-1.164-2.451.405-.12 1.571-.32 8.778-.32 8.778z"
            style="fill:#ffb81c;fill-opacity:1;fill-rule:evenodd;stroke:#715c37;stroke-width:.59773993;stroke-miterlimit:3.86369991"
            transform="translate(339.87 352.404)" />
        <path
            d="M-295.57-160.011c.185 2.231 2.908 5.595 4.569 6.633 1.809 1.132 3.28.281 2.943-1.487-.337-1.768-1.396-8.423-1.55-9.36-.153-.938-2.192-3.472-4.168-5.201-1.787-1.564-2.44-.914-2.394.659.046 1.572.6 8.756.6 8.756z"
            style="fill:#ffb81c;fill-opacity:1;fill-rule:evenodd;stroke:#715c37;stroke-width:.59773993;stroke-miterlimit:3.86369991"
            transform="translate(339.87 352.404)" />
        <path
            d="M-288.049-154.645c.38 2.205 3.383 5.316 5.128 6.206 1.899.969 3.29-.006 2.801-1.737-.49-1.731-2.126-8.265-2.36-9.185-.234-.92-2.485-3.266-4.603-4.815-1.916-1.402-2.51-.697-2.326.865.183 1.562 1.36 8.666 1.36 8.666z"
            style="fill:#ffb81c;fill-opacity:1;fill-rule:evenodd;stroke:#715c37;stroke-width:.59773993;stroke-miterlimit:3.86369991"
            transform="translate(339.87 352.404)" />
        <path
            d="M-280.262-150.158c.531 2.174 3.745 5.066 5.546 5.832 1.962.834 3.28-.235 2.672-1.928-.608-1.693-2.696-8.094-2.995-8.994-.298-.901-2.706-3.084-4.926-4.481-2.007-1.265-2.55-.521-2.259 1.025.292 1.544 1.962 8.546 1.962 8.546z"
            style="fill:#ffb81c;fill-opacity:1;fill-rule:evenodd;stroke:#715c37;stroke-width:.59773993;stroke-miterlimit:3.86369991"
            transform="translate(339.87 352.404)" />
        <path
            d="M-272.035-146.017c.86 2.085 4.459 4.625 6.37 5.115 2.082.533 2.76-.758 1.897-2.352-.864-1.595-3.28-7.723-3.715-8.575-.433-.853-3.164-2.663-5.589-3.72-2.192-.956-2.62-.133-2.096 1.363.525 1.496 3.133 8.169 3.133 8.169z"
            style="fill:#ffb81c;fill-opacity:1;fill-rule:evenodd;stroke:#715c37;stroke-width:.59773993;stroke-miterlimit:3.86369991"
            transform="translate(339.87 352.404)" />
        <path
            d="M-263.648-143.046c1 2.02 4.761 4.309 6.7 4.668 2.112.39 2.876-1.053 1.907-2.584-.97-1.531-3.972-7.368-4.463-8.189-.49-.821-3.337-2.44-5.827-3.33-2.251-.805-2.623.046-1.998 1.502.625 1.456 3.68 7.933 3.68 7.933z"
            style="fill:#ffb81c;fill-opacity:1;fill-rule:evenodd;stroke:#715c37;stroke-width:.59773993;stroke-miterlimit:3.86369991"
            transform="translate(339.87 352.404)" />
        <path
            d="M-255.067-140.757c1.15 1.935 5.075 3.924 7.034 4.131 2.133.227 2.74-1.281 1.656-2.731-1.084-1.45-4.483-7.021-5.035-7.8-.553-.779-3.512-2.173-6.061-2.866-2.304-.627-2.608.249-1.873 1.65.735 1.403 4.279 7.616 4.279 7.616z"
            style="fill:#ffb81c;fill-opacity:1;fill-rule:evenodd;stroke:#715c37;stroke-width:.59773993;stroke-miterlimit:3.86369991"
            transform="translate(339.87 352.404)" />
        <path
            d="M-246.413-139.288c1.283 1.849 5.334 3.559 7.302 3.628 2.143.077 2.833-1.44 1.651-2.811-1.182-1.371-5.15-6.716-5.756-7.454-.604-.739-3.653-1.922-6.242-2.436-2.343-.464-2.585.43-1.752 1.776.83 1.348 4.797 7.297 4.797 7.297z"
            style="fill:#ffb81c;fill-opacity:1;fill-rule:evenodd;stroke:#715c37;stroke-width:.59773993;stroke-miterlimit:3.86369991"
            transform="translate(339.87 352.404)" />
        <path
            d="M-237.305-138.265c1.454 1.717 5.649 3.029 7.613 2.91 2.14-.128 2.768-1.705 1.461-2.955-1.307-1.25-5.856-6.186-6.529-6.863-.672-.677-3.818-1.563-6.444-1.825-2.374-.237-2.529.675-1.573 1.935s5.472 6.798 5.472 6.798z"
            style="fill:#ffb81c;fill-opacity:1;fill-rule:evenodd;stroke:#715c37;stroke-width:.59773993;stroke-miterlimit:3.86369991"
            transform="translate(339.87 352.404)" />
        <path
            d="M-228.275-138.237c1.57 1.61 5.843 2.628 7.794 2.372 2.125-.277 2.642-1.893 1.25-3.049-1.39-1.155-6.27-5.761-6.988-6.389-.717-.629-3.916-1.292-6.553-1.371-2.384-.071-2.475.85-1.433 2.039 1.041 1.189 5.93 6.398 5.93 6.398z"
            style="fill:#ffb81c;fill-opacity:1;fill-rule:evenodd;stroke:#715c37;stroke-width:.59773993;stroke-miterlimit:3.86369991"
            transform="translate(339.87 352.404)" />
        <path
            d="M-219.285-138.838c1.688 1.482 5.898 2.164 7.823 1.757 2.095-.443 2.483-2.094 1.008-3.136-1.478-1.043-6.701-5.249-7.467-5.819-.764-.569-4.004-.979-6.637-.851-2.38.115-2.398 1.04-1.268 2.144 1.131 1.105 6.54 5.905 6.54 5.905z"
            style="fill:#ffb81c;fill-opacity:1;fill-rule:evenodd;stroke:#715c37;stroke-width:.59773993;stroke-miterlimit:3.86369991"
            transform="translate(339.87 352.404)" />
        <path
            d="M-210.402-140.252c1.847 1.281 6.104 1.481 7.967.86 2.03-.678 2.23-2.36.646-3.229-1.584-.867-7.247-4.452-8.07-4.933-.825-.479-4.088-.52-6.688-.095-2.351.385-2.264 1.305-1.017 2.272 1.247.97 7.162 5.125 7.162 5.125z"
            style="fill:#ffb81c;fill-opacity:1;fill-rule:evenodd;stroke:#715c37;stroke-width:.59773993;stroke-miterlimit:3.86369991"
            transform="translate(339.87 352.404)" />
        <path
            d="M-201.83-142.409c1.91 1.182 6.17 1.159 7.998.44 1.99-.781 2.102-2.472.476-3.255-1.627-.784-7.469-4.067-8.317-4.503-.847-.435-4.106-.305-6.68.256-2.326.506-2.191 1.421-.896 2.321 1.297.902 7.419 4.741 7.419 4.741z"
            style="fill:#ffb81c;fill-opacity:1;fill-rule:evenodd;stroke:#715c37;stroke-width:.59773993;stroke-miterlimit:3.86369991"
            transform="translate(339.87 352.404)" />
        <path
            d="M-193.384-145.323c2.004 1.011 6.244.617 8.003-.257 1.913-.952 1.875-2.645.188-3.283-1.688-.638-7.79-3.398-8.672-3.758-.883-.36-4.115.054-6.628.835-2.273.707-2.06 1.605-.69 2.39 1.369.784 7.799 4.073 7.799 4.073z"
            style="fill:#ffb81c;fill-opacity:1;fill-rule:evenodd;stroke:#715c37;stroke-width:.59773993;stroke-miterlimit:3.86369991"
            transform="translate(339.87 352.404)" />
        <path
            d="M-185.311-148.907c2.076.85 6.27.126 7.953-.883 1.832-1.099 1.662-2.782-.07-3.286-1.73-.504-8.028-2.775-8.935-3.065-.907-.289-4.098.377-6.54 1.353-2.209.882-1.926 1.761-.5 2.436 1.427.673 8.092 3.445 8.092 3.445z"
            style="fill:#ffb81c;fill-opacity:1;fill-rule:evenodd;stroke:#715c37;stroke-width:.59773993;stroke-miterlimit:3.86369991"
            transform="translate(339.87 352.404)" />
        <path
            d="M-177.645-153.14c2.124.721 6.265-.258 7.883-1.367 1.76-1.208 1.488-2.877-.271-3.274-1.759-.397-8.18-2.279-9.103-2.513-.923-.233-4.065.625-6.442 1.748-2.15 1.015-1.814 1.875-.35 2.46s8.283 2.946 8.283 2.946z"
            style="fill:#ffb81c;fill-opacity:1;fill-rule:evenodd;stroke:#715c37;stroke-width:.59773993;stroke-miterlimit:3.86369991"
            transform="translate(339.87 352.404)" />
        <path
            d="M-170.027-157.834c2.183.514 6.226-1.036 7.728-2.295 1.637-1.37 1.282-3.033-.506-3.26-1.788-.228-8.45-1.275-9.391-1.42-.94-.144-3.984 1.012-6.241 2.356-2.042 1.216-1.625 2.038-.112 2.481 1.513.444 8.522 2.138 8.522 2.138z"
            style="fill:#ffb81c;fill-opacity:1;fill-rule:evenodd;stroke:#715c37;stroke-width:.59773993;stroke-miterlimit:3.86369991"
            transform="translate(339.87 352.404)" />
        <path
            d="M-162.963-163.425c2.222.282 6.079-1.681 7.442-3.088 1.482-1.533.956-3.149-.845-3.188-1.8-.039-8.533-.386-9.482-.43-.95-.045-3.855 1.421-5.957 2.993-1.902 1.422-1.402 2.195.147 2.478 1.55.281 8.695 1.235 8.695 1.235z"
            style="fill:#ffb81c;fill-opacity:1;fill-rule:evenodd;stroke:#715c37;stroke-width:.59773993;stroke-miterlimit:3.86369991"
            transform="translate(339.87 352.404)" />
        <path
            d="M-156.148-169.664c2.237.088 5.907-2.203 7.14-3.724 1.344-1.655.679-3.218-1.118-3.1-1.796.118-8.529.359-9.478.397-.95.038-3.713 1.751-5.67 3.499-1.77 1.581-1.205 2.309.362 2.454 1.567.145 8.764.474 8.764.474z"
            style="fill:#ffb81c;fill-opacity:1;fill-rule:evenodd;stroke:#715c37;stroke-width:.59773993;stroke-miterlimit:3.86369991"
            transform="translate(339.87 352.404)" />
        <path
            d="M-150.138-176.344c2.237-.068 5.736-2.608 6.86-4.21 1.224-1.744.45-3.257-1.331-3.014-1.783.244-8.481.954-9.425 1.059-.943.104-3.58 2.004-5.408 3.885-1.655 1.699-1.04 2.385.532 2.421 1.573.036 8.772-.141 8.772-.141z"
            style="fill:#ffb81c;fill-opacity:1;fill-rule:evenodd;stroke:#715c37;stroke-width:.59773993;stroke-miterlimit:3.86369991"
            transform="translate(339.87 352.404)" />
        <path
            d="M-144.5-183.283c2.222-.396 5.47-3.369 6.357-5.131.965-1.919-.152-2.855-1.895-2.353-1.742.504-8.246 1.559-9.171 1.801-.927.241-3.277 2.522-4.827 4.664-1.4 1.938-.688 2.531.887 2.337 1.573-.193 8.65-1.318 8.65-1.318z"
            style="fill:#ffb81c;fill-opacity:1;fill-rule:evenodd;stroke:#715c37;stroke-width:.59773993;stroke-miterlimit:3.86369991"
            transform="translate(339.87 352.404)" />
        <path
            d="M-139.809-190.84c2.188-.545 5.226-3.73 5.989-5.548.832-1.979-.415-3.032-2.118-2.412-1.704.62-8.048 2.309-8.954 2.613-.908.304-3.097 2.737-4.496 4.979-1.266 2.027-.515 2.57 1.042 2.271 1.556-.3 8.537-1.903 8.537-1.903z"
            style="fill:#ffb81c;fill-opacity:1;fill-rule:evenodd;stroke:#715c37;stroke-width:.59773993;stroke-miterlimit:3.86369991"
            transform="translate(339.87 352.404)" />
        <path
            d="M-135.744-198.731c2.137-.712 4.915-4.12 5.535-5.989.676-2.035-.669-2.947-2.316-2.197-1.647.748-7.816 2.882-8.695 3.255-.88.373-2.871 2.966-4.093 5.308-1.103 2.116-.313 2.6 1.215 2.18 1.526-.421 8.354-2.557 8.354-2.557z"
            style="fill:#ffb81c;fill-opacity:1;fill-rule:evenodd;stroke:#715c37;stroke-width:.59773993;stroke-miterlimit:3.86369991"
            transform="translate(339.87 352.404)" />
        <path
            d="M-132.466-206.868c2.08-.858 4.614-4.45 5.103-6.357.53-2.076-.805-3.073-2.397-2.21-1.592.861-7.66 3.6-8.511 4.032-.852.433-2.656 3.158-3.71 5.577-.952 2.188-.131 2.613 1.362 2.089 1.492-.524 8.153-3.131 8.153-3.131z"
            style="fill:#ffb81c;fill-opacity:1;fill-rule:evenodd;stroke:#715c37;stroke-width:.59773993;stroke-miterlimit:3.86369991"
            transform="translate(339.87 352.404)" />
        <path
            d="M-129.526-215.543c1.988-1.055 4.164-4.87 4.466-6.813.33-2.117-1.077-3.066-2.576-2.056-1.5 1.01-7.294 4.4-8.1 4.912-.804.513-2.34 3.396-3.155 5.903-.738 2.268.122 2.613 1.556 1.948 1.435-.664 7.809-3.894 7.809-3.894z"
            style="fill:#ffb81c;fill-opacity:1;fill-rule:evenodd;stroke:#715c37;stroke-width:.59773993;stroke-miterlimit:3.86369991"
            transform="translate(339.87 352.404)" />
        <path
            d="M-127.575-224.354c1.909-1.189 3.813-5.146 3.979-7.104.18-2.134-1.288-2.982-2.714-1.87-1.425 1.11-6.965 4.895-7.732 5.463-.767.566-2.096 3.55-2.735 6.106-.577 2.313.304 2.597 1.688 1.834 1.383-.764 7.514-4.429 7.514-4.429z"
            style="fill:#ffb81c;fill-opacity:1;fill-rule:evenodd;stroke:#715c37;stroke-width:.59773993;stroke-miterlimit:3.86369991"
            transform="translate(339.87 352.404)" />
        <path
            d="M-126.248-233.259c1.81-1.335 3.372-5.3 3.384-7.265.013-2.14-1.518-2.87-2.851-1.65-1.333 1.218-6.556 5.423-7.276 6.05-.72.624-1.81 3.7-2.246 6.3-.395 2.348.506 2.562 1.825 1.694 1.32-.87 7.164-5.129 7.164-5.129z"
            style="fill:#ffb81c;fill-opacity:1;fill-rule:evenodd;stroke:#715c37;stroke-width:.59773993;stroke-miterlimit:3.86369991"
            transform="translate(339.87 352.404)" />
        <path
            d="M-125.737-242.234c1.644-1.53 2.748-5.644 2.537-7.596-.23-2.126-1.832-2.679-3.018-1.317-1.186 1.362-5.895 6.128-6.54 6.83-.643.702-1.377 3.88-1.516 6.508-.126 2.377.792 2.49 2.004 1.477 1.213-1.012 6.533-5.902 6.533-5.902z"
            style="fill:#ffb81c;fill-opacity:1;fill-rule:evenodd;stroke:#715c37;stroke-width:.59773993;stroke-miterlimit:3.86369991"
            transform="translate(339.87 352.404)" />
        <path
            d="M-126.02-251.064c1.562-1.613 2.448-5.778 2.136-7.716-.342-2.11-1.97-2.579-3.08-1.157-1.112 1.422-5.567 6.426-6.172 7.161-.606.734-1.173 3.945-1.174 6.577-.001 2.38.922 2.443 2.078 1.37 1.156-1.075 6.213-6.235 6.213-6.235z"
            style="fill:#ffb81c;fill-opacity:1;fill-rule:evenodd;stroke:#715c37;stroke-width:.59773993;stroke-miterlimit:3.86369991"
            transform="translate(339.87 352.404)" />
        <path
            d="M-127.069-259.93c1.415-1.742 1.934-5.966 1.453-7.869-.522-2.072-2.185-2.396-3.168-.884-.983 1.512-4.981 6.883-5.52 7.667-.54.784-.825 4.03-.597 6.65.207 2.37 1.13 2.352 2.19 1.183 1.059-1.17 5.642-6.747 5.642-6.747z"
            style="fill:#ffb81c;fill-opacity:1;fill-rule:evenodd;stroke:#715c37;stroke-width:.59773993;stroke-miterlimit:3.86369991"
            transform="translate(339.87 352.404)" />
        <path
            d="M-128.85-268.576c1.27-1.847 1.458-6.096.83-7.954-.685-2.023-2.366-2.216-3.228-.632-.86 1.584-4.423 7.25-4.898 8.072-.475.824-.504 4.081-.07 6.673.392 2.345 1.31 2.255 2.272 1.007.961-1.248 5.093-7.166 5.093-7.166z"
            style="fill:#ffb81c;fill-opacity:1;fill-rule:evenodd;stroke:#715c37;stroke-width:.59773993;stroke-miterlimit:3.86369991"
            transform="translate(339.87 352.404)" />
        <path
            d="M-131.356-276.965c1.157-1.92 1.083-6.17.342-7.987-.805-1.977-2.494-2.067-3.256-.434-.764 1.633-3.972 7.502-4.396 8.353-.425.851-.255 4.102.336 6.663.534 2.316 1.445 2.17 2.33.866.884-1.304 4.644-7.46 4.644-7.46z"
            style="fill:#ffb81c;fill-opacity:1;fill-rule:evenodd;stroke:#715c37;stroke-width:.59773993;stroke-miterlimit:3.86369991"
            transform="translate(339.87 352.404)" />
        <path
            d="M-134.32-285.402c.967-2.02.313-6.3-.598-8.035-.99-1.89-2.69-1.897-3.293-.2-.604 1.698-3.048 7.98-3.388 8.868-.342.887.14 4.105.973 6.596.754 2.252 1.646 2.021 2.4.638.755-1.383 3.906-7.867 3.906-7.867z"
            style="fill:#ffb81c;fill-opacity:1;fill-rule:evenodd;stroke:#715c37;stroke-width:.59773993;stroke-miterlimit:3.86369991"
            transform="translate(339.87 352.404)" />
        <path
            d="M-138.281-293.489c.75-2.11-.348-6.294-1.434-7.924-1.183-1.774-2.873-1.604-3.295.145-.42 1.75-2.194 8.25-2.44 9.167-.245.917.57 4.065 1.658 6.454.984 2.16 1.847 1.836 2.452.384.606-1.452 3.059-8.226 3.059-8.226z"
            style="fill:#ffb81c;fill-opacity:1;fill-rule:evenodd;stroke:#715c37;stroke-width:.59773993;stroke-miterlimit:3.86369991"
            transform="translate(339.87 352.404)" />
        <path
            d="M-142.927-301.473c.563-2.166-.895-6.236-2.117-7.765-1.333-1.664-3.002-1.348-3.269.432-.267 1.78-1.466 8.405-1.63 9.34-.165.935.92 3.998 2.212 6.282 1.168 2.065 2 1.667 2.476.168.477-1.499 2.328-8.457 2.328-8.457z"
            style="fill:#ffb81c;fill-opacity:1;fill-rule:evenodd;stroke:#715c37;stroke-width:.59773993;stroke-miterlimit:3.86369991"
            transform="translate(339.87 352.404)" />
        <path
            d="M-148.175-308.764c.41-2.199-1.328-6.156-2.653-7.595-1.444-1.566-3.088-1.134-3.229.658-.143 1.792-.874 8.483-.974 9.427-.1.943 1.196 3.922 2.644 6.11 1.31 1.977 2.11 1.522 2.48-.006.371-1.527 1.732-8.594 1.732-8.594z"
            style="fill:#ffb81c;fill-opacity:1;fill-rule:evenodd;stroke:#715c37;stroke-width:.59773993;stroke-miterlimit:3.86369991"
            transform="translate(339.87 352.404)" />
        <path
            d="M-154.045-315.757c.18-2.24-1.87-6.124-3.348-7.423-1.608-1.415-3.165-.74-3.119 1.067.046 1.807-.206 8.511-.206 9.464 0 .954 1.608 3.796 3.285 5.831 1.516 1.84 2.27 1.301 2.479-.265.21-1.566.91-8.674.91-8.674z"
            style="fill:#ffb81c;fill-opacity:1;fill-rule:evenodd;stroke:#715c37;stroke-width:.59773993;stroke-miterlimit:3.86369991"
            transform="translate(339.87 352.404)" />
        <path
            d="M-160.418-322.12c.002-2.248-2.257-5.863-3.83-7.042-1.714-1.283-3.212-.489-3.024 1.308.188 1.797.462 8.496.537 9.447.074.95 1.9 3.657 3.731 5.552 1.655 1.715 2.363 1.12 2.45-.458.085-1.577.136-8.808.136-8.808z"
            style="fill:#ffb81c;fill-opacity:1;fill-rule:evenodd;stroke:#715c37;stroke-width:.59773993;stroke-miterlimit:3.86369991"
            transform="translate(339.87 352.404)" />
        <path
            d="M-167.333-327.87c-.252-2.23-2.904-5.565-4.601-6.558-1.847-1.08-3.244-.122-2.854 1.641.39 1.763 1.42 8.383 1.603 9.32.182.934 2.3 3.415 4.332 5.09 1.838 1.515 2.475.844 2.38-.732-.092-1.576-.86-8.76-.86-8.76z"
            style="fill:#ffb81c;fill-opacity:1;fill-rule:evenodd;stroke:#715c37;stroke-width:.59773993;stroke-miterlimit:3.86369991"
            transform="translate(339.87 352.404)" />
        <path
            d="M-174.603-332.896c-.368-2.215-3.192-5.404-4.937-6.306-1.9-.982-3.245.048-2.764 1.787.481 1.74 1.857 8.295 2.088 9.22.23.923 2.476 3.29 4.592 4.855 1.914 1.416 2.513.713 2.338-.855-.175-1.568-1.317-8.7-1.317-8.7z"
            style="fill:#ffb81c;fill-opacity:1;fill-rule:evenodd;stroke:#715c37;stroke-width:.59773993;stroke-miterlimit:3.86369991"
            transform="translate(339.87 352.404)" />
        <path
            d="M-182.36-337.328c-.56-2.173-3.648-5.103-5.465-5.849-1.976-.813-3.226.33-2.595 2.02.632 1.69 2.572 8.097 2.883 8.997.31.9 2.75 3.06 4.994 4.435 2.029 1.244 2.565.491 2.254-1.055-.311-1.546-2.071-8.548-2.071-8.548z"
            style="fill:#ffb81c;fill-opacity:1;fill-rule:evenodd;stroke:#715c37;stroke-width:.59773993;stroke-miterlimit:3.86369991"
            transform="translate(339.87 352.404)" />
        <path
            d="M-190.374-341.039c-.728-2.12-4.036-4.799-5.903-5.399-2.034-.654-3.19.582-2.428 2.216.762 1.634 3.198 7.867 3.578 8.74.38.872 2.981 2.832 5.326 4.026 2.119 1.08 2.594.29 2.16-1.228-.43-1.516-2.733-8.355-2.733-8.355z"
            style="fill:#ffb81c;fill-opacity:1;fill-rule:evenodd;stroke:#715c37;stroke-width:.59773993;stroke-miterlimit:3.86369991"
            transform="translate(339.87 352.404)" />
        <path
            d="M-198.612-344.017c-.855-2.072-4.319-4.542-6.22-5.027-2.07-.529-3.148.775-2.287 2.36.859 1.583 3.672 7.653 4.104 8.5.433.847 3.148 2.645 5.56 3.693 2.181.95 2.605.13 2.082-1.357-.523-1.485-3.239-8.169-3.239-8.169z"
            style="fill:#ffb81c;fill-opacity:1;fill-rule:evenodd;stroke:#715c37;stroke-width:.59773993;stroke-miterlimit:3.86369991"
            transform="translate(339.87 352.404)" />
        <path
            d="M-207.162-346.654c-1.051-1.979-4.88-4-6.818-4.3-2.109-.329-3.127 1.033-2.12 2.527 1.008 1.494 4.606 7.196 5.117 7.998.51.802 3.386 2.33 5.884 3.142 2.26.735 2.606-.12 1.942-1.55-.663-1.429-4.005-7.817-4.005-7.817z"
            style="fill:#ffb81c;fill-opacity:1;fill-rule:evenodd;stroke:#715c37;stroke-width:.59773993;stroke-miterlimit:3.86369991"
            transform="translate(339.87 352.404)" />
        <path
            d="M-216.023-348.283c-1.25-1.857-5.27-3.465-7.227-3.563-2.13-.105-3 1.354-1.843 2.734s5.33 6.671 5.922 7.415c.592.744 3.607 1.962 6.177 2.508 2.323.494 2.576-.392 1.768-1.743-.809-1.35-4.797-7.35-4.797-7.35zM-225.21-349.185c-1.406-1.74-5.547-2.992-7.504-2.917-2.13.08-3.098 1.61-1.826 2.883 1.271 1.272 6.117 6.177 6.773 6.866.653.688 3.763 1.64 6.368 1.96 2.355.29 2.53-.616 1.607-1.89-.922-1.274-5.417-6.902-5.417-6.902z"
            style="fill:#ffb81c;fill-opacity:1;fill-rule:evenodd;stroke:#715c37;stroke-width:.59773993;stroke-miterlimit:3.86369991"
            transform="translate(339.87 352.404)" />
    </g>
    <ellipse cx="108.627" cy="108.678" rx="77.778" ry="77.138"
        style="opacity:1;fill:#fff;fill-opacity:1;fill-rule:evenodd;stroke:#0b1728;stroke-width:1.05659166;stroke-linecap:square;stroke-linejoin:miter;stroke-miterlimit:4;stroke-dasharray:none;stroke-dashoffset:0;stroke-opacity:1;paint-order:normal" />
    <g style="stroke:#999">
        <path
            d="M582.531 102.468c1.337-2.315.944-5.376-1.338-6.693-2.282-1.317-5.13-.126-6.468 2.188l-3.19 5.523c-1.337 2.314-.944 5.376 1.339 6.692 2.28 1.316 5.13.127 6.467-2.188zm-1.728-.996-3.19 5.522c-.945 1.637-2.67 2.079-3.745 1.46-1.074-.621-1.554-2.335-.607-3.972l3.19-5.523c.945-1.637 2.67-2.08 3.744-1.46 1.077.622 1.555 2.336.608 3.973zM441.44 66.099c0-2.673 1.87-5.127 4.506-5.127 2.635 0 4.506 2.455 4.506 5.127v6.377c0 2.673-1.87 5.127-4.506 5.127-2.635 0-4.506-2.454-4.506-5.127zm1.993 0v6.377c0 1.891 1.272 3.135 2.513 3.135 1.242 0 2.513-1.244 2.513-3.135v-6.377c0-1.891-1.271-3.135-2.513-3.135s-2.513 1.245-2.513 3.135zM444.066 86.907c-.826-2.542.194-5.454 2.701-6.268 2.507-.814 5.045.942 5.871 3.484l1.972 6.064c.827 2.543-.194 5.454-2.7 6.269-2.506.813-5.044-.942-5.872-3.484zm1.896-.616 1.972 6.066c.584 1.797 2.179 2.588 3.36 2.205 1.18-.384 2.005-1.96 1.42-3.76l-1.972-6.063c-.584-1.798-2.179-2.59-3.36-2.206-1.179.384-2.004 1.96-1.42 3.758z"
            style="fill:#ccc;stroke:#999;stroke-width:.39849332;stroke-miterlimit:3.86369991"
            transform="matrix(1.01146 0 0 1.00114 -413.633 41.467)" />
        <g style="fill:#ccc;stroke:#999">
            <path
                d="m39.045 127.313-2.194-13.845a.882.882 0 0 1 .719-1.021.884.884 0 0 1 .999.749l2.194 13.846c.077.488-.245.946-.719 1.021a.885.885 0 0 1-.999-.75z"
                style="fill:#ccc;stroke:#999;stroke-width:.39840001;stroke-miterlimit:3.86369991"
                transform="matrix(1.01193 0 0 1.00113 -.891 .072)" />
        </g>
        <path
            d="M452.04 105.742c-1.457-2.241-1.225-5.318.985-6.754 2.21-1.435 5.118-.394 6.573 1.848l3.476 5.349c1.457 2.24 1.225 5.318-.985 6.753-2.21 1.436-5.118.395-6.573-1.847zm1.672-1.085 3.475 5.349c1.03 1.585 2.775 1.938 3.816 1.262 1.042-.677 1.43-2.412.4-3.998l-3.476-5.35c-1.03-1.584-2.775-1.936-3.816-1.26-1.042.676-1.43 2.412-.4 3.997z"
            style="fill:#ccc;stroke:#999;stroke-width:.39849332;stroke-miterlimit:3.86369991"
            transform="matrix(1.01146 0 0 1.00114 -413.633 41.467)" />
        <g style="fill:#ccc;stroke:#999">
            <path
                d="m46.984 145.902-5.703-12.805a.883.883 0 0 1 .43-1.173c.438-.195.958.014 1.159.466l5.703 12.805a.883.883 0 0 1-.429 1.173.885.885 0 0 1-1.16-.466z"
                style="fill:#ccc;stroke:#999;stroke-width:.39840001;stroke-miterlimit:3.86369991"
                transform="matrix(1.01193 0 0 1.00113 -.891 .072)" />
        </g>
        <path
            d="M466.129 122.904c-2.05-1.718-2.728-4.73-1.034-6.746 1.694-2.018 4.777-1.873 6.826-.155l4.888 4.1c2.049 1.718 2.727 4.729 1.033 6.746-1.694 2.019-4.778 1.873-6.826.155zm1.281-1.526 4.887 4.1c1.45 1.216 3.221 1.042 4.02.09.797-.95.66-2.724-.788-3.938l-4.888-4.1c-1.449-1.215-3.22-1.041-4.02-.09-.797.949-.66 2.723.79 3.938z"
            style="fill:#ccc;stroke:#999;stroke-width:.39849332;stroke-miterlimit:3.86369991"
            transform="matrix(1.01146 0 0 1.00114 -413.633 41.467)" />
        <g style="fill:#ccc;stroke:#999">
            <path
                d="m60.145 161.424-9.382-10.415a.885.885 0 0 1 .046-1.249.884.884 0 0 1 1.246.084l9.382 10.416c.331.368.311.927-.046 1.248a.883.883 0 0 1-1.246-.084z"
                style="fill:#ccc;stroke:#999;stroke-width:.39840001;stroke-miterlimit:3.86369991"
                transform="matrix(1.01193 0 0 1.00113 -.891 .072)" />
        </g>
        <path
            d="M484.134 134.892c-2.443-1.088-3.926-3.794-2.854-6.201 1.072-2.406 4.077-3.117 6.52-2.03l5.828 2.595c2.444 1.087 3.926 3.794 2.855 6.2-1.072 2.407-4.076 3.117-6.52 2.03zm.811-1.82 5.83 2.593c1.727.77 3.382.114 3.887-1.02.505-1.134-.115-2.801-1.843-3.57l-5.83-2.593c-1.727-.77-3.382-.114-3.887 1.02-.506 1.134.116 2.8 1.843 3.57z"
            style="fill:#ccc;stroke:#999;stroke-width:.39849332;stroke-miterlimit:3.86369991"
            transform="matrix(1.01146 0 0 1.00114 -413.633 41.467)" />
        <g style="fill:#ccc;stroke:#999">
            <path
                d="m77.891 173.096-12.019-7.217c-.424-.256-.568-.795-.32-1.207a.883.883 0 0 1 1.216-.284l12.018 7.217a.885.885 0 0 1 .321 1.208c-.247.411-.792.538-1.216.283z"
                style="fill:#ccc;stroke:#999;stroke-width:.39840001;stroke-miterlimit:3.86369991"
                transform="matrix(1.01193 0 0 1.00113 -.891 .072)" />
        </g>
        <path
            d="M504.706 141.29c-2.66-.278-4.907-2.396-4.631-5.016.275-2.62 2.913-4.223 5.572-3.943l6.345.666c2.66.279 4.906 2.396 4.631 5.016-.275 2.62-2.913 4.224-5.572 3.944zm.208-1.982 6.346.667c1.88.197 3.252-.937 3.382-2.171.13-1.234-.976-2.63-2.857-2.826l-6.346-.666c-1.88-.197-3.252.937-3.382 2.17-.13 1.234.976 2.629 2.857 2.826z"
            style="fill:#ccc;stroke:#999;stroke-width:.39849332;stroke-miterlimit:3.86369991"
            transform="matrix(1.01146 0 0 1.00114 -413.633 41.467)" />
        <g style="fill:#ccc;stroke:#999">
            <path
                d="m97.319 179.186-13.604-3.387a.883.883 0 0 1-.66-1.061c.116-.466.6-.746 1.081-.627l13.604 3.386c.48.12.776.596.66 1.062-.116.466-.601.746-1.081.627z"
                style="fill:#ccc;stroke:#999;stroke-width:.39840001;stroke-miterlimit:3.86369991"
                transform="matrix(1.01193 0 0 1.00113 -.891 .072)" />
        </g>
        <path
            d="M444.93 44.221c.69-2.582 3.134-4.468 5.68-3.787s3.717 3.537 3.025 6.118l-1.651 6.16c-.692 2.582-3.135 4.469-5.68 3.787-2.546-.682-3.717-3.537-3.026-6.119zm1.925.516-1.652 6.16c-.49 1.826.417 3.357 1.615 3.679 1.2.321 2.75-.552 3.24-2.378l1.65-6.16c.49-1.826-.415-3.357-1.615-3.679-1.2-.322-2.75.552-3.238 2.378z"
            style="fill:#ccc;stroke:#999;stroke-width:.39849332;stroke-miterlimit:3.86369991"
            transform="matrix(1.01146 0 0 1.00114 -413.633 41.467)" />
        <g style="fill:#ccc;stroke:#999">
            <path
                d="m36.707 106.938 1.706-13.913a.883.883 0 0 1 .972-.784c.477.058.814.504.754.996l-1.706 13.913a.884.884 0 0 1-.972.784.883.883 0 0 1-.754-.996z"
                style="fill:#ccc;stroke:#999;stroke-width:.39840001;stroke-miterlimit:3.86369991"
                transform="matrix(1.01193 0 0 1.00113 -.891 .072)" />
        </g>
        <path
            d="M454.555 24.954c1.457-2.241 4.363-3.281 6.573-1.847 2.21 1.435 2.442 4.512.986 6.753l-3.475 5.348c-1.457 2.242-4.363 3.282-6.573 1.847s-2.441-4.512-.985-6.753zm1.672 1.086-3.476 5.348c-1.03 1.585-.642 3.322.4 3.998 1.041.676 2.785.324 3.815-1.261l3.476-5.348c1.03-1.586.641-3.322-.4-3.998-1.04-.676-2.786-.325-3.815 1.261z"
            style="fill:#ccc;stroke:#999;stroke-width:.39849332;stroke-miterlimit:3.86369991"
            transform="matrix(1.01146 0 0 1.00114 -413.633 41.467)" />
        <g style="fill:#ccc;stroke:#999">
            <path
                d="m40.229 86.156 5.922-12.704a.883.883 0 0 1 1.167-.445.884.884 0 0 1 .409 1.18l-5.922 12.704a.883.883 0 0 1-1.167.445.884.884 0 0 1-.409-1.18z"
                style="fill:#ccc;stroke:#999;stroke-width:.39840001;stroke-miterlimit:3.86369991"
                transform="matrix(1.01193 0 0 1.00113 -.891 .072)" />
        </g>
        <path
            d="M468.914 8.741c1.956-1.823 5.027-2.129 6.825-.203s1.277 4.968-.678 6.791l-4.666 4.349c-1.956 1.823-5.028 2.129-6.826.202-1.796-1.926-1.277-4.968.679-6.79zm1.36 1.457-4.667 4.35c-1.382 1.288-1.426 3.067-.58 3.974.846.908 2.625.988 4.008-.3l4.666-4.35c1.384-1.29 1.427-3.068.58-3.976-.846-.907-2.624-.988-4.007.302z"
            style="fill:#ccc;stroke:#999;stroke-width:.39849332;stroke-miterlimit:3.86369991"
            transform="matrix(1.01146 0 0 1.00114 -413.633 41.467)" />
        <g style="fill:#ccc;stroke:#999">
            <path
                d="m49.433 68.421 8.819-10.894c.312-.385.867-.452 1.24-.149.374.302.423.859.112 1.244l-8.82 10.894c-.312.385-.867.452-1.24.149a.884.884 0 0 1-.111-1.244z"
                style="fill:#ccc;stroke:#999;stroke-width:.39840001;stroke-miterlimit:3.86369991"
                transform="matrix(1.01193 0 0 1.00113 -.891 .072)" />
        </g>
        <path
            d="M487.764-2.268c2.443-1.087 5.447-.377 6.519 2.03 1.071 2.405-.41 5.112-2.854 6.2l-5.828 2.593c-2.442 1.087-5.447.377-6.52-2.029-1.072-2.407.41-5.113 2.854-6.2zm.81 1.82-5.829 2.593c-1.727.77-2.348 2.437-1.842 3.57.505 1.134 2.16 1.79 3.887 1.02l5.83-2.593c1.727-.769 2.347-2.437 1.842-3.57-.505-1.134-2.16-1.79-3.888-1.02z"
            style="fill:#ccc;stroke:#999;stroke-width:.39849332;stroke-miterlimit:3.86369991"
            transform="matrix(1.01146 0 0 1.00114 -413.633 41.467)" />
        <g style="fill:#ccc;stroke:#999">
            <path
                d="m63.467 52.506 11.753-7.634a.884.884 0 0 1 1.226.241.882.882 0 0 1-.278 1.217l-11.754 7.634a.882.882 0 0 1-1.225-.241.882.882 0 0 1 .278-1.217z"
                style="fill:#ccc;stroke:#999;stroke-width:.39840001;stroke-miterlimit:3.86369991"
                transform="matrix(1.01193 0 0 1.00113 -.891 .072)" />
        </g>
        <path
            d="M509.02-7.648c2.641-.418 5.36 1.045 5.771 3.647.413 2.602-1.72 4.833-4.362 5.25l-6.302.998c-2.64.418-5.358-1.045-5.771-3.647-.412-2.602 1.72-4.833 4.36-5.25zm.31 1.967-6.3.998c-1.868.295-2.9 1.746-2.705 2.971.194 1.226 1.622 2.287 3.49 1.991l6.302-.998c1.868-.295 2.899-1.746 2.706-2.97-.195-1.226-1.624-2.287-3.492-1.992z"
            style="fill:#ccc;stroke:#999;stroke-width:.39849332;stroke-miterlimit:3.86369991"
            transform="matrix(1.01146 0 0 1.00114 -413.633 41.467)" />
        <g style="fill:#ccc;stroke:#999">
            <path
                d="m81.385 42.287 13.403-4.097a.884.884 0 0 1 1.112.569.882.882 0 0 1-.603 1.093L81.894 43.95a.883.883 0 0 1-1.111-.569.883.883 0 0 1 .602-1.094z"
                style="fill:#ccc;stroke:#999;stroke-width:.39840001;stroke-miterlimit:3.86369991"
                transform="matrix(1.01193 0 0 1.00113 -.891 .072)" />
        </g>
        <path
            d="M591.135 63.642c-.046-2.672-1.96-5.094-4.595-5.048-2.635.046-4.463 2.533-4.416 5.206l.111 6.375c.047 2.673 1.96 5.094 4.596 5.048 2.635-.046 4.462-2.532 4.416-5.204zm-1.993.035.112 6.376c.033 1.891-1.217 3.157-2.458 3.179-1.24.022-2.534-1.2-2.567-3.091l-.111-6.376c-.033-1.89 1.218-3.157 2.458-3.178 1.24-.021 2.534 1.2 2.566 3.09zM589.614 83.35c.69-2.581-.48-5.437-3.026-6.118s-4.988 1.205-5.68 3.787l-1.651 6.159c-.693 2.583.479 5.438 3.024 6.119 2.545.68 4.988-1.205 5.68-3.787zm-1.926-.515-1.651 6.16c-.49 1.826-2.04 2.699-3.24 2.379-1.198-.321-2.105-1.854-1.615-3.68l1.65-6.159c.49-1.826 2.04-2.699 3.24-2.378 1.2.32 2.105 1.852 1.616 3.678z"
            style="fill:#ccc;stroke:#999;stroke-width:.39849332;stroke-miterlimit:3.86369991"
            transform="matrix(1.01146 0 0 1.00114 -413.633 41.467)" />
        <g style="fill:#ccc;stroke:#999">
            <path
                d="m177.92 124.061 1.707-13.913a.883.883 0 0 0-.753-.996.883.883 0 0 0-.973.784l-1.708 13.912a.882.882 0 0 0 .754.996.884.884 0 0 0 .973-.783z"
                style="fill:#ccc;stroke:#999;stroke-width:.39840001;stroke-miterlimit:3.86369991"
                transform="matrix(1.01193 0 0 1.00113 -.891 .072)" />
        </g>
        <g style="fill:#ccc;stroke:#999">
            <path
                d="m171.289 142.447 5.478-12.902c.193-.457-.009-.978-.45-1.165a.882.882 0 0 0-1.15.485l-5.478 12.902a.884.884 0 0 0 .45 1.165c.441.188.957-.03 1.15-.485z"
                style="fill:#ccc;stroke:#999;stroke-width:.39840001;stroke-miterlimit:3.86369991"
                transform="matrix(1.01193 0 0 1.00113 -.891 .072)" />
        </g>
        <path
            d="M570.335 119.624c1.956-1.823 2.477-4.864.679-6.791-1.797-1.927-4.87-1.621-6.824.203l-4.668 4.349c-1.955 1.822-2.476 4.864-.678 6.79 1.797 1.928 4.87 1.622 6.825-.201zm-1.36-1.457-4.665 4.35c-1.384 1.289-3.162 1.208-4.01.3-.846-.906-.802-2.685.582-3.975l4.666-4.35c1.384-1.29 3.16-1.208 4.008-.301.847.907.804 2.687-.58 3.976z"
            style="fill:#ccc;stroke:#999;stroke-width:.39849332;stroke-miterlimit:3.86369991"
            transform="matrix(1.01146 0 0 1.00114 -413.633 41.467)" />
        <g style="fill:#ccc;stroke:#999">
            <path
                d="m159.029 158.568 9.196-10.577c.325-.374.295-.932-.067-1.247a.883.883 0 0 0-1.244.106l-9.197 10.577a.883.883 0 0 0 .068 1.247.883.883 0 0 0 1.244-.106z"
                style="fill:#ccc;stroke:#999;stroke-width:.39840001;stroke-miterlimit:3.86369991"
                transform="matrix(1.01193 0 0 1.00113 -.891 .072)" />
        </g>
        <path
            d="M552.985 133.139c2.425-1.13 3.86-3.862 2.745-6.25-1.114-2.387-4.13-3.045-6.554-1.916l-5.783 2.695c-2.423 1.13-3.858 3.862-2.744 6.25 1.113 2.388 4.13 3.045 6.554 1.915zm-.843-1.806-5.782 2.695c-1.715.799-3.38.173-3.905-.951-.524-1.125.066-2.804 1.78-3.603l5.783-2.695c1.715-.798 3.38-.172 3.905.953.525 1.124-.066 2.803-1.781 3.6z"
            style="fill:#ccc;stroke:#999;stroke-width:.39849332;stroke-miterlimit:3.86369991"
            transform="matrix(1.01146 0 0 1.00114 -413.633 41.467)" />
        <g style="fill:#ccc;stroke:#999">
            <path
                d="m143.062 171.256 11.622-7.836a.884.884 0 0 0 .257-1.222c-.268-.399-.819-.497-1.229-.22l-11.623 7.835c-.409.276-.525.824-.256 1.222.267.399.817.497 1.229.221z"
                style="fill:#ccc;stroke:#999;stroke-width:.39840001;stroke-miterlimit:3.86369991"
                transform="matrix(1.01193 0 0 1.00113 -.891 .072)" />
        </g>
        <path
            d="M532.529 140.805c2.654-.325 4.863-2.481 4.543-5.096-.321-2.614-2.988-4.172-5.642-3.847l-6.334.777c-2.653.325-4.862 2.48-4.542 5.096.32 2.616 2.987 4.172 5.642 3.847zm-.243-1.977-6.333.777c-1.878.23-3.269-.88-3.42-2.111-.151-1.232.93-2.646 2.807-2.876l6.334-.777c1.877-.23 3.269.88 3.419 2.112.151 1.23-.93 2.645-2.807 2.875z"
            style="fill:#ccc;stroke:#999;stroke-width:.39849332;stroke-miterlimit:3.86369991"
            transform="matrix(1.01146 0 0 1.00114 -413.633 41.467)" />
        <g style="fill:#ccc;stroke:#999">
            <path
                d="m123.332 178.158 13.542-3.624a.884.884 0 0 0 .642-1.071.884.884 0 0 0-1.092-.608l-13.542 3.623c-.478.128-.766.608-.641 1.072.124.464.613.735 1.091.608z"
                style="fill:#ccc;stroke:#999;stroke-width:.39840001;stroke-miterlimit:3.86369991"
                transform="matrix(1.01193 0 0 1.00113 -.891 .072)" />
        </g>
        <path
            d="M587.61 43.148c-.737-2.569-3.213-4.413-5.746-3.687-2.533.726-3.655 3.601-2.917 6.17l1.758 6.13c.737 2.569 3.213 4.414 5.745 3.688 2.534-.726 3.656-3.601 2.918-6.17zm-1.916.549 1.759 6.13c.52 1.817-.359 3.364-1.551 3.706-1.194.342-2.76-.504-3.28-2.321l-1.76-6.13c-.52-1.817.358-3.364 1.552-3.706 1.193-.342 2.758.504 3.28 2.321z"
            style="fill:#ccc;stroke:#999;stroke-width:.39849332;stroke-miterlimit:3.86369991"
            transform="matrix(1.01146 0 0 1.00114 -413.633 41.467)" />
        <g style="fill:#ccc;stroke:#999">
            <path
                d="m179.718 105.791-1.95-13.88a.884.884 0 0 0-.986-.767.881.881 0 0 0-.735 1.008l1.95 13.881c.068.49.51.833.985.767.475-.066.805-.519.736-1.009z"
                style="fill:#ccc;stroke:#999;stroke-width:.39840001;stroke-miterlimit:3.86369991"
                transform="matrix(1.01193 0 0 1.00113 -.891 .072)" />
        </g>
        <path
            d="M578.058 24.238c-1.418-2.267-4.306-3.357-6.54-1.961-2.235 1.396-2.521 4.468-1.104 6.735l3.381 5.408c1.417 2.267 4.305 3.357 6.54 1.961 2.234-1.396 2.521-4.468 1.104-6.735zm-1.69 1.057 3.38 5.408c1.003 1.603.585 3.332-.468 3.99-1.054.657-2.792.275-3.794-1.328l-3.38-5.408c-1.003-1.603-.585-3.333.468-3.99 1.052-.658 2.792-.276 3.794 1.328z"
            style="fill:#ccc;stroke:#999;stroke-width:.39849332;stroke-miterlimit:3.86369991"
            transform="matrix(1.01146 0 0 1.00114 -413.633 41.467)" />
        <g style="fill:#ccc;stroke:#999">
            <path
                d="m175.719 85.257-5.701-12.805a.883.883 0 0 0-1.159-.466c-.438.195-.631.72-.43 1.173l5.701 12.805c.202.452.721.661 1.159.465a.881.881 0 0 0 .43-1.172z"
                style="fill:#ccc;stroke:#999;stroke-width:.39840001;stroke-miterlimit:3.86369991"
                transform="matrix(1.01193 0 0 1.00113 -.891 .072)" />
        </g>
        <path
            d="M563.927 8.895c-1.987-1.789-5.065-2.04-6.828-.083-1.763 1.958-1.19 4.99.798 6.778l4.74 4.267c1.989 1.79 5.066 2.041 6.828.083 1.764-1.958 1.19-4.99-.796-6.778zm-1.334 1.481 4.741 4.267c1.406 1.265 1.48 3.042.65 3.964-.831.922-2.607 1.034-4.013-.23l-4.742-4.268c-1.405-1.265-1.48-3.042-.649-3.964.831-.923 2.608-1.034 4.013.231z"
            style="fill:#ccc;stroke:#999;stroke-width:.39849332;stroke-miterlimit:3.86369991"
            transform="matrix(1.01146 0 0 1.00114 -413.633 41.467)" />
        <g style="fill:#ccc;stroke:#999">
            <path
                d="m166.875 67.426-9.01-10.738c-.318-.379-.874-.437-1.242-.128a.884.884 0 0 0-.09 1.246l9.01 10.738c.318.379.874.437 1.242.128a.884.884 0 0 0 .09-1.246z"
                style="fill:#ccc;stroke:#999;stroke-width:.39840001;stroke-miterlimit:3.86369991"
                transform="matrix(1.01193 0 0 1.00113 -.891 .072)" />
        </g>
        <path
            d="M545.327-2.09c-2.443-1.087-5.447-.377-6.52 2.03-1.072 2.406.41 5.112 2.854 6.2l5.829 2.593c2.442 1.087 5.447.377 6.52-2.029 1.07-2.406-.411-5.113-2.855-6.2zm-.81 1.82 5.828 2.594c1.729.77 2.348 2.437 1.843 3.57-.504 1.134-2.159 1.79-3.888 1.02l-5.828-2.594c-1.727-.769-2.348-2.437-1.843-3.57.505-1.134 2.16-1.789 3.887-1.02z"
            style="fill:#ccc;stroke:#999;stroke-width:.39849332;stroke-miterlimit:3.86369991"
            transform="matrix(1.01146 0 0 1.00114 -413.633 41.467)" />
        <g style="fill:#ccc;stroke:#999">
            <path
                d="m152.525 51.781-11.887-7.428a.884.884 0 0 0-1.221.262c-.255.407-.12.95.3 1.212l11.887 7.427a.884.884 0 0 0 1.221-.262.882.882 0 0 0-.3-1.211z"
                style="fill:#ccc;stroke:#999;stroke-width:.39840001;stroke-miterlimit:3.86369991"
                transform="matrix(1.01193 0 0 1.00113 -.891 .072)" />
        </g>
        <path
            d="M523.829-7.595c-2.648-.372-5.34 1.14-5.707 3.747-.366 2.608 1.805 4.802 4.452 5.174l6.318.887c2.648.372 5.34-1.138 5.707-3.747.367-2.608-1.805-4.802-4.452-5.174zm-.277 1.973 6.318.887c1.871.263 2.929 1.695 2.756 2.924-.173 1.23-1.583 2.314-3.456 2.051l-6.318-.887c-1.873-.263-2.93-1.695-2.756-2.924.172-1.229 1.583-2.314 3.456-2.05z"
            style="fill:#ccc;stroke:#999;stroke-width:.39849332;stroke-miterlimit:3.86369991"
            transform="matrix(1.01146 0 0 1.00114 -413.633 41.467)" />
        <g style="fill:#ccc;stroke:#999">
            <path
                d="m134.496 41.846-13.474-3.863a.884.884 0 0 0-1.102.589c-.133.461.146.946.622 1.083l13.474 3.863c.476.136.969-.127 1.102-.588a.883.883 0 0 0-.622-1.084z"
                style="fill:#ccc;stroke:#999;stroke-width:.39840001;stroke-miterlimit:3.86369991"
                transform="matrix(1.01193 0 0 1.00113 -.891 .072)" />
        </g>
        <g style="fill:#ccc;stroke:#999">
            <path
                d="m117.143 179.903-14.02.002a.883.883 0 0 1-.896-.869c0-.48.401-.869.896-.87l14.02-.002c.495 0 .896.389.896.87 0 .48-.401.869-.896.869z"
                style="fill:#ccc;stroke:#999;stroke-width:.39840001;stroke-miterlimit:3.86369991"
                transform="matrix(1.01193 0 0 1.00113 -.891 .072)" />
        </g>
        <g style="fill:#ccc;stroke:#999">
            <path
                d="m114.957 38.799-14.02.002a.883.883 0 0 1-.897-.869c0-.48.402-.87.897-.87l14.02-.002c.495 0 .896.389.896.87.001.48-.401.869-.896.869z"
                style="fill:#ccc;stroke:#999;stroke-width:.39840001;stroke-miterlimit:3.86369991"
                transform="matrix(1.01193 0 0 1.00113 -.891 .072)" />
        </g>
    </g>
    <path
        d="M95.133 108.302s-5.69-.718-6.002-5.001c-.312-4.284 2.689-6.175 2.689-8.45 0-2.276-.859-3.45-4.327-6.823-3.468-3.374-6.198-5.684-9.938-8.298-3.739-2.615-13.286-8.83-13.91-6.974-.624 1.856 2.142 7.844 2.142 7.844s-1.638.8.156 2.124c1.795 1.324 2.923 2.007 2.923 2.007s-2.178.111-1.128 1.629c1.05 1.517 3.504 2.807 3.504 2.807s-1.79.49-.348 1.704c1.44 1.213 1.128 1.366 1.128 1.366s-2.023.11-1.206 1.325c.816 1.214 1.362 1.669 1.362 1.669s-2.142-.193-1.908 1.097c.234 1.29 2.299 2.083 2.299 2.083s-2.3.303-2.22 1.518c.077 1.213 2.064 1.627 2.064 1.627s-2.1 1.139-1.44 1.822c.66.682 2.844 1.324 2.844 1.324s-2.263.91-1.404 1.669 2.22 1.476 2.22 1.476-.468 2.614.312 2.766c.78.153 1.638 0 1.638 0s-1.014 1.862-.702 2.58c.312.718 2.61.414 2.61.414s-1.092 1.972-.077 2.2c1.014.228 1.83-.076 1.83-.076s-.39 2.16.39 2.69c.78.53 1.56-.53 1.56-.53s-.66 2.462.47 2.462c1.127 0 2.61-.454 2.61-.454s-.348 1.861.545 2.124c.894.263 2.533-.607 2.533-.607s-.193 2.235.858 2.083c1.05-.152 2.61-.91 2.61-.91s.505 2.806 1.52 2.2c1.013-.607 2.688-2.766 2.688-2.766z"
        style="fill:#73391d;fill-rule:evenodd;stroke:#000;stroke-width:.37944448;stroke-miterlimit:3.86369991;fill-opacity:1"
        transform="matrix(1.04772 0 0 1.09634 -3.82 -6.812)" />
    <path
        d="M95.621 111.477s-3.848.494-7.253-2.976c-2.606-3.474-4.2-8.281-4.2-10.557s.444-4.263-1.234-8.858c-3.956-2.885-3.432-2.891-6.032-3.877-4.186-2.655-6.145-3.636-9.813-6.917-3.025-1.989-1.302 2.308-1.302 2.308s-1.638.8.156 2.124c1.795 1.324 2.923 2.007 2.923 2.007s-2.178.111-1.128 1.629c1.05 1.517 3.504 2.807 3.504 2.807s-1.79.49-.348 1.704c1.44 1.213 1.128 1.366 1.128 1.366s-2.023.11-1.206 1.325c.816 1.214 1.362 1.669 1.362 1.669s-2.142-.193-1.908 1.097c.234 1.29 2.299 2.083 2.299 2.083s-2.3.303-2.22 1.518c.077 1.213 2.064 1.627 2.064 1.627s-2.1 1.139-1.44 1.822c.66.682 2.844 1.324 2.844 1.324s-2.263.91-1.404 1.669 2.22 1.476 2.22 1.476-.468 2.614.312 2.766c.78.153 1.638 0 1.638 0s-1.014 1.862-.702 2.58c.312.718 2.61.414 2.61.414s-1.092 1.972-.077 2.2c1.014.228 1.83-.076 1.83-.076s-.39 2.16.39 2.69c.78.53 1.56-.53 1.56-.53s-.66 2.462.47 2.462c1.127 0 2.61-.454 2.61-.454s-.348 1.861.545 2.124c.894.263 2.533-.607 2.533-.607s-.192 2.235.858 2.083c1.05-.152 2.61-.91 2.61-.91s.505 2.806 1.52 2.2c1.013-.607 2.688-2.766 2.688-2.766z"
        style="fill:#f2f2f2;fill-rule:evenodd;stroke:#000;stroke-width:.37944448;stroke-miterlimit:3.86369991"
        transform="matrix(1.04772 0 0 1.09634 -3.82 -6.812)" />
    <path
        d="M80.698 82.13c-.532-.28-2.758-1.292-1.91.437.29.591.858 1.284 1.386 2.066 1.872 2.768 4.036 5.28 4.207 8.716.141 2.816.026 6.04.696 8.811.718 2.977 2.125 5.473 5.674 7.636a8.41 8.41 0 0 0 6.764.886c.391-.115.614.216.614.216l.16.34s-.24.108-.664.233a8.807 8.807 0 0 1-7.08-.928c-4.98-3.035-6.34-7.54-6.594-12.788-.07-1.434-.062-2.783-.12-3.958-.167-3.347-2.153-6.258-3.98-8.96-.538-.799-1.172-1.507-1.467-2.11-.652-1.33.148-1.659.97-1.5.522.1.948.487 1.415.734zM67.089 78.292c.006.007 5.71 4.633 9.954 6.246 0 0 .948.929-.14.671-3.169-1.204-7.527-4.547-10.078-6.859z"
        style="stroke-width:.95242083" transform="matrix(1.04772 0 0 1.09634 -3.82 -6.812)" />
    <path
        d="M67.546 81.505s5.425 3.933 11.006 6.08c0 0 1.246.93.024.619-3.687-1.42-8.153-4.158-11.272-6.624zM70.212 85.784c.026.015 7.147 4.07 9.546 4.293 0 0 1.2.497-.037.427-2.663-.095-7.64-3.489-9.704-4.667zM72.524 89.332c.005.002 4.857 3.255 9.468 3.48.659-.011.489.591.037.59-3.14-.154-6.551-1.674-9.729-4.036zM73.478 92.562s.637.432 1.97.881c1.348.455 3.466 1.037 6.53 1.32 0 0 .504.453-.06.537-2.088-.192-5.763-.686-8.6-2.59zM72.177 94.893s.023.029.077.08c.468.458 1.296.728 1.88.951 1.566.595 4.279 1.317 8.842 1.354 0 0 .608.438-.003.482-2.948.338-8.847-.643-10.992-2.739-.08-.079-.114.091-.114.091zM73.233 101.104c.034-.025 3.321-2.722 10.551-1.728.647.127.057.586.057.586-3.073-.423-7.117-.24-10.045 1.087-1.047.476-.563.055-.563.055zM74.356 104.397c.01-.007 4.384-2.874 10.129-3.103l.181.643c-3.093.124-7.33.84-9.923 2.604zM75.506 107.87c.007-.007 1.005-1.042 2.748-2.095 1.743-1.052 3.965-2.129 6.97-2.206l.287.644a15.357 15.357 0 0 0-9.032 3.178c-.964.735-.973.48-.973.48zM77.332 110.152c2.1-2.336 5.312-4.542 8.43-5.125l.405.529c-2.979.557-6.884 2.673-8.934 4.95zM79.106 113.023c1.594-2.64 4.72-5.532 7.881-6.152l.297.528c-2.891.568-5.498 2.834-7.296 5.007-.754.911-.882.617-.882.617zM80.458 115.577c.004-.008.675-1.426 2.015-3.015 1.338-1.588 3.192-3.365 5.895-4.06l.487.468c-3.178.82-5.79 3.3-7.56 5.883-.677.991-.837.724-.837.724zM82.797 117.135s.178-.405.512-1.029c1.367-2.545 3.464-5.674 6.474-6.36l.586.365c-3.046.694-5.204 3.757-7.217 6.793zM85.4 119.694s.462-1.53 1.429-3.445c.964-1.91 2.274-4.223 4.316-5.782l.68.402c-2.68 1.49-6.425 8.825-6.425 8.825zM88.083 121.534s.324-1.719 1.114-3.854c.786-2.125 1.88-4.797 3.766-6.478l.592.33c-2.518 2.244-4.24 6.921-5.26 10.07z"
        style="stroke:#6c3a00;stroke-width:0;stroke-miterlimit:4;stroke-dasharray:none;stroke-opacity:1"
        transform="matrix(1.04772 0 0 1.09634 -3.82 -6.812)" />
    <path
        d="M79.06 99.638s-.285.671-.252 1.518c.197 5.053 2.97 9.411 7.35 12.22 8.372 5.368 9.13 5.12 9.13 5.12v.483s-.86-.207-9.558-5.44c-4.886-2.94-6.995-7.194-7.196-12.369-.034-.883.255-1.577.255-1.577z"
        style="stroke:#6c3a00;stroke-width:0;stroke-miterlimit:4;stroke-dasharray:none;stroke-opacity:1"
        transform="matrix(1.04772 0 0 1.09634 -3.82 -6.812)" />
    <path
        d="M121.724 108.302s5.689-.718 6-5.001c.313-4.284-2.688-6.175-2.688-8.45 0-2.276.858-3.45 4.327-6.823 3.468-3.374 6.2-5.684 9.938-8.298 3.738-2.614 13.285-8.83 13.91-6.974.623 1.856-2.143 7.844-2.143 7.844s1.638.8-.155 2.124c-1.795 1.324-2.923 2.007-2.923 2.007s2.178.111 1.128 1.629c-1.05 1.517-3.505 2.807-3.505 2.807s1.789.49.348 1.704c-1.44 1.213-1.128 1.366-1.128 1.366s2.022.11 1.206 1.325c-.816 1.214-1.362 1.669-1.362 1.669s2.142-.193 1.909 1.097c-.234 1.29-2.299 2.083-2.299 2.083s2.299.303 2.22 1.518c-.078 1.214-2.063 1.627-2.063 1.627s2.1 1.139 1.44 1.822c-.661.682-2.845 1.324-2.845 1.324s2.262.91 1.405 1.669c-.86.759-2.222 1.476-2.222 1.476s.468 2.614-.31 2.766c-.782.153-1.64 0-1.64 0s1.014 1.862.703 2.58c-.312.718-2.61.414-2.61.414s1.092 1.972.078 2.2c-1.015.228-1.831-.076-1.831-.076s.39 2.16-.39 2.69c-.779.53-1.56-.53-1.56-.53s.66 2.462-.468 2.462c-1.128 0-2.61-.454-2.61-.454s.348 1.861-.546 2.124c-.893.263-2.532-.607-2.532-.607s.191 2.235-.858 2.083c-1.05-.152-2.611-.91-2.611-.91s-.503 2.806-1.518 2.2c-1.014-.607-2.687-2.766-2.687-2.766z"
        style="fill:#73391d;fill-rule:evenodd;stroke:#000;stroke-width:.37944448;stroke-miterlimit:3.86369991;fill-opacity:1"
        transform="matrix(1.04772 0 0 1.09634 -3.82 -6.812)" />
    <path
        d="M121.502 111.594s3.848.494 7.253-2.975c2.606-3.475 4.2-8.282 4.2-10.558 0-2.275-.403-4.67 1.275-9.264 3.956-2.886 3.432-3.014 6.032-4 4.186-2.655 6.104-3.106 9.773-6.388 3.024-1.989 1.302 2.308 1.302 2.308s1.638.8-.157 2.125c-1.794 1.324-2.922 2.007-2.922 2.007s2.177.11 1.128 1.628c-1.05 1.517-3.504 2.808-3.504 2.808s1.788.49.347 1.703c-1.44 1.214-1.128 1.366-1.128 1.366s2.023.11 1.207 1.325c-.816 1.215-1.363 1.67-1.363 1.67s2.142-.193 1.908 1.096c-.233 1.29-2.298 2.083-2.298 2.083s2.298.304 2.22 1.518c-.078 1.214-2.065 1.628-2.065 1.628s2.1 1.138 1.44 1.821c-.66.683-2.844 1.324-2.844 1.324s2.263.91 1.404 1.67c-.858.758-2.22 1.476-2.22 1.476s.468 2.614-.312 2.766c-.78.152-1.638 0-1.638 0s1.014 1.861.702 2.579c-.312.718-2.61.414-2.61.414s1.092 1.973.078 2.2c-1.014.228-1.83-.075-1.83-.075s.39 2.159-.39 2.69c-.781.53-1.561-.531-1.561-.531s.66 2.463-.469 2.463c-1.128 0-2.61-.455-2.61-.455s.347 1.862-.546 2.125c-.894.262-2.532-.607-2.532-.607s.192 2.234-.86 2.082c-1.049-.151-2.61-.91-2.61-.91s-.504 2.806-1.518 2.2c-1.014-.606-2.689-2.765-2.689-2.765z"
        style="fill:#f2f2f2;fill-rule:evenodd;stroke:#000;stroke-width:.37944448;stroke-miterlimit:3.86369991"
        transform="matrix(1.04772 0 0 1.09634 -3.82 -6.812)" />
    <path
        d="M136.158 82.13c.531-.28 2.756-1.292 1.91.437-.29.591-.86 1.284-1.388 2.066-1.871 2.768-4.037 5.28-4.207 8.716-.14 2.816-.027 6.04-.695 8.811-.718 2.977-2.126 5.473-5.674 7.636a8.41 8.41 0 0 1-6.765.886c-.39-.115-.614.216-.614.216l-.161.34s.24.108.664.233c2.383.7 4.943.374 7.08-.928 4.98-3.035 6.34-7.54 6.594-12.788.069-1.434.062-2.783.122-3.958.167-3.347 2.153-6.258 3.978-8.96.539-.799 1.173-1.507 1.47-2.11.65-1.33-.15-1.659-.973-1.5-.521.1-.946.487-1.413.734zM149.767 78.292c-.008.007-5.71 4.633-9.954 6.246 0 0-.949.929.14.671 3.167-1.204 7.526-4.547 10.077-6.859zM149.31 81.505s-5.425 3.933-11.006 6.08c0 0-1.246.93-.024.619 3.686-1.42 8.152-4.158 11.272-6.624zM146.645 85.784c-.026.015-7.146 4.07-9.547 4.293 0 0-1.199.497.036.427 2.663-.095 7.64-3.489 9.705-4.667z"
        style="stroke-width:.95242083" transform="matrix(1.04772 0 0 1.09634 -3.82 -6.812)" />
    <path
        d="M144.332 89.332c-.005.002-4.857 3.255-9.47 3.48-.658-.011-.489.591-.035.59 3.14-.154 6.55-1.674 9.728-4.036zM143.377 92.562s-.636.432-1.969.881c-1.348.455-3.466 1.037-6.53 1.32 0 0-.504.453.06.537 2.087-.192 5.763-.686 8.599-2.59zM144.678 94.893s-.022.029-.076.08c-.466.458-1.296.728-1.88.951-1.565.595-4.279 1.317-8.84 1.354 0 0-.609.438.003.482 2.948.338 8.846-.643 10.991-2.739.08-.079.113.091.113.091zM143.624 101.104c-.034-.025-3.322-2.722-10.553-1.728-.646.127-.057.586-.057.586 3.073-.423 7.116-.24 10.046 1.087 1.047.476.564.055.564.055zM142.5 104.397c-.01-.007-4.383-2.874-10.128-3.103l-.182.643c3.093.124 7.33.84 9.923 2.604zM141.35 107.87c-.009-.007-1.005-1.042-2.75-2.095-1.742-1.052-3.963-2.129-6.97-2.206l-.287.644a15.355 15.355 0 0 1 9.033 3.178c.964.735.973.48.973.48zM139.524 110.152c-2.1-2.336-5.312-4.542-8.43-5.125l-.405.529c2.978.557 6.884 2.673 8.932 4.95zM137.75 113.023c-1.594-2.64-4.72-5.532-7.88-6.152l-.299.528c2.892.568 5.499 2.834 7.298 5.007.753.911.882.617.882.617zM136.397 115.577c-.004-.008-.675-1.426-2.015-3.015-1.339-1.588-3.193-3.365-5.895-4.06l-.487.468c3.177.82 5.789 3.3 7.56 5.883.677.991.837.724.837.724zM134.058 117.135s-.177-.405-.512-1.029c-1.366-2.545-3.463-5.674-6.472-6.36l-.587.365c3.046.694 5.205 3.757 7.218 6.793zM131.455 119.694s-.461-1.53-1.428-3.445c-.965-1.91-2.274-4.223-4.315-5.782l-.681.402c2.68 1.49 6.424 8.825 6.424 8.825zM128.772 121.534s-.323-1.719-1.112-3.854c-.787-2.125-1.88-4.797-3.767-6.478l-.593.33c2.52 2.244 4.241 6.921 5.261 10.07z"
        style="stroke-width:.95242083" transform="matrix(1.04772 0 0 1.09634 -3.82 -6.812)" />
    <path
        d="M137.796 99.638s.286.671.253 1.518c-.196 5.053-2.97 9.411-7.35 12.22-8.372 5.368-9.13 5.12-9.13 5.12v.483s.861-.207 9.558-5.44c4.885-2.94 6.993-7.194 7.195-12.369.034-.883-.256-1.577-.256-1.577z"
        style="stroke-width:.95242083" transform="matrix(1.04772 0 0 1.09634 -3.82 -6.812)" />
    <path
        d="M113.84 98.934c.295-.166.657-.412.965-.685l.149.15c.673 2.246 2.252 7.646 2.252 7.646s-18.086 3.367-17.027-.187c1.058-3.555 4.274-6.75 4.851-7.312l.15.008c.101.58.488 1.132 1.348.661 1.54-.842 1.54-1.31 1.54-1.31s.768 1.31 2.02 1.122c1.25-.188 1.442-.935 1.442-.935s1.156 1.497 2.31.842z"
        style="fill:#73391d;fill-rule:evenodd;stroke:#000;stroke-width:.37944448;stroke-miterlimit:3.86369991;fill-opacity:1"
        transform="matrix(1.04772 0 0 1.09634 -3.82 -6.812)" />
    <path
        d="M117.206 106.045s-18.086 3.367-17.027-.187c1.058-3.555 4.274-6.696 4.851-7.257.065-.063.185-.081.246-.16.067.616.336 1.276 1.252.775 1.54-.842 1.54-1.31 1.54-1.31s.768 1.31 2.02 1.122c1.25-.188 1.442-.935 1.442-.935s1.155 1.497 2.31.841c.308-.175.637-.436.952-.725l.106.243c.673 2.246 2.308 7.593 2.308 7.593z"
        style="fill:none;fill-rule:evenodd;stroke:#000;stroke-width:.37944448;stroke-miterlimit:3.86369991"
        transform="matrix(1.04772 0 0 1.09634 -3.82 -6.812)" />
    <path
        d="M107.541 101.776c-.42.159-.939.486-1.374.446-.804-.07-1.015-.9-1.011-1.604h.218c0 1.12 1 1.295 1.88 1.07.19-.048.345-.224.507-.328 0 0 .262 1.62 1.243 1.654.646.023 1.53-1.547 1.542-1.564l.1.208s-.189.463-.506.866c-.309.393-.52.8-.865.964-1.035.492-1.514-1.298-1.734-1.712z"
        style="stroke-width:.95242089" transform="matrix(1.04772 0 0 1.09634 -3.82 -6.812)" />
    <path
        d="M110.114 99.121c0 .07.188 2.245.758 2.64.307.213.866-.22 1.036-.395.454-.463 1.12-1.125 1.403-1.674l.013.22c-.866 1.684-2.882 4.159-3.343.506-.087-.678-.087-1.297-.087-1.297z"
        style="stroke-width:.95242089" transform="matrix(1.04772 0 0 1.09634 -3.82 -6.812)" />
    <path
        d="M111.764 104.19c-.353.767-1.026 2.251-2.133 1.63-.65-.364-.897-1.043-1.33-1.59l-.154.103c-.341.397-1.67 1.864-2.087.747a3.927 3.927 0 0 1-.244-1.637c-.845.307-2.094.454-2.173-.85-.006-.095-.289-1.557.242-1.526.098.006-.338.481.01 1.466.427 1.208 1.7.894 2.204.27 0 0-.045.704-.045 1.019 0 .264.204 1.384.612 1.272.5-.138 1.258-1.073 1.573-1.487 0 0 .07.228.2.392.32.404 1.259 1.871 2.09 1.282.844-.597 1.007-1.066 1.158-1.912 0 0 .094.428.19.559.9 1.216 1.997 1.063 2.513-.402.15-.424.411-.734.411-.734s-.05.391-.213.855c-.597 1.696-1.718 2.005-2.824.543z"
        style="stroke-width:.95242089" transform="matrix(1.04772 0 0 1.09634 -3.82 -6.812)" />
    <path
        d="M102.936 103.55c-.013.075-.125 1.754.265 2.133.31.302 2.101-.876 2.236-.993l.092.115s-.46.615-1.034 1.007c-1.637 1.118-1.958.585-1.851-1.17.036-.608.135-1.155.135-1.155z"
        style="stroke-width:.95242089" transform="matrix(1.04772 0 0 1.09634 -3.82 -6.812)" />
    <path
        d="M113.047 136.998s6.42 6.75 6.71 8.013c.288 1.263-.097 1.544-.673 1.122-.579-.42.383.515-.626.328-1.01-.187-1.106.094-1.106.094s-.53.42-.723 1.216c-.192.795-.384 1.684-.865 1.122-.482-.561-.865 1.404-1.396 1.544-.528.14-1.586-.373-1.634.047-.047.421.097 1.17-.962 1.264-1.058.094-1.154.327-1.154.327s-.77 1.123-2.02.983-1.444-1.356-2.166-1.17c-.721.187-.624.75-1.539.328-.915-.42-1.202-1.31-1.828-1.122-.626.188-1.395-.42-1.491-.935-.097-.515-.385.047-1.01-.468-.627-.515-.53-1.45-.53-1.45s-1.751.701-1.751-.281c0-.983-.126-.983-.126-.983s-2.404.889-1.347-1.356c1.058-2.245 6.013-8.42 6.013-8.42z"
        style="fill:#f2f2f2;fill-rule:evenodd;stroke:#000;stroke-width:.37944448;stroke-miterlimit:3.86369991"
        transform="matrix(1.04772 0 0 1.09634 -3.82 -6.812)" />
    <path d="m110.102 160.974-.285-.025-1.6-16.148.749-.033z" />
    <path
        d="m113.616 159.058-.016.722-4.484-12.257.614-.506zM116.088 158.13l-.892-1.168-5.237-10.156.91.049zM117.64 155.27l-.342-.135-5.063-7.78.748-.218zM118.797 152.825l.128.582-4.694-6.304.684-.226zM120.705 152.407l-.324-.051-3.935-4.577.732-.244zM106.162 160.049l-.282-.065 1.841-13.129.688.065zM103.397 158.853l-.207-.194 3.416-11.224.671.136zM102.164 156.148l-.08-.16 3.178-8.514.72.16zM100.176 154.683l-.118-.205 3.575-7.027.756.206zM98.247 153.511l-.049-.221 3.881-6.154.746.221z" />
    <path
        d="m122.507 132.467 2.74 6.47-.887.483c-2.832-4.32-4.746-5.687-4.746-5.687zM95.204 132.467l-2.85 6.578 1.109.374c2.83-4.32 4.634-5.687 4.634-5.687z"
        style="fill:#ffb81c;fill-rule:evenodd;stroke:#715c37;stroke-width:.37944448;stroke-miterlimit:3.86369991;fill-opacity:1"
        transform="matrix(1.04772 0 0 1.09634 -3.82 -6.812)" />
    <path
        d="M97.084 134.138c.03-.275.017-.494.017-.494s-.045.231-.017.494zM104.777 138.176c.243-.508.405-.976.405-.976s-.282.479-.405.976zM112.851 137.39c-.297-.46-.601-.693-.358-.379.108.14.229.266.358.379z"
        style="fill:#6c3a00;stroke:#000;stroke-width:.37944448;stroke-miterlimit:3.86369991"
        transform="matrix(1.04772 0 0 1.09634 -3.82 -6.812)" />
    <path
        d="M96.331 135.234c-.865.094-.48-.094-.674-1.028-.193-.936-1.443-.656-1.924-1.124-.48-.467-.192-.654 0-1.216.192-.56-.289-1.216-.289-1.216s-.384-.469.097-1.122c.48-.655 1.73-1.03 1.73-1.03l26.553 1.03s1.442 1.498 1.442 2.9-1.058 1.028-1.058 1.028l-.48-.56s.576.936.192 1.31c-.384.374-1.25-.282-1.25-.282s.223.872-.193 1.123c-.77.468-1.54-1.03-1.54-1.03s.48 1.217.097 1.498c-.384.28-1.113-.161-1.113-.161s.151.723-.233.816c-.384.093-.865.094-.865.094l-.482-.842s.673 1.31-.193 1.779c-.791.428-1.346-1.123-1.346-1.123s.22 1.87-.358 1.965c-.47.076-1.307-.644-1.872-1.137.407.63 1.074 2.172.018 2.82-.928.569-1.733-.935-1.733-.935l-.578-1.216s.385 1.684-1.058 1.497c-.162-.02-.34-.127-.511-.267-.1.26-.293.454-.642.454-1.058 0-1.059-1.497-1.059-1.497s-.289 1.59-1.635 1.497c-.68-.048-.668-.518-.708-1.297a18.95 18.95 0 0 0-1.12 1.344c-.481.654-1.154-1.637-1.154-1.637l.096-1.684s-.48 1.121-1.155 1.217c-.49.068-.266-.508-.109-.828-.119.15-.362.346-.853.451-.865.187-.384-1.964-.384-1.964s-.769.842-1.251.936c-.482.094-.384-1.685-.384-1.685s-.097.936-.77.75c-.354-.098-.468-.43-.497-.723-.052.444-.22 1.038-.754 1.095z"
        style="fill:#73391d;stroke:#000;stroke-width:.37944448;stroke-miterlimit:3.86369991;fill-opacity:1"
        transform="matrix(1.04772 0 0 1.09634 -3.82 -6.812)" />
    <path
        d="M137.725 151.793c-.09.02-.195.044-.315.064-2.16.38-3.45-.675-4.244-2.752-1.07-2.803-2.376-6.565-2.828-7.878a.823.823 0 0 1-.221-.56c0-.464.387-.84.865-.84s.866.375.866.84a.84.84 0 0 1-.02.176c.475 1.378 1.74 5.015 2.78 7.74.523 1.369 1.789 1.938 2.481 1.8.164-.068.544-.17.744-.17.453 0 .68.343.71.781.026.358-.469.695-.818.799z"
        style="fill:#f4b21b;fill-opacity:1;stroke:#000;stroke-width:.37944448;stroke-miterlimit:3.86369991"
        transform="matrix(1.04772 0 0 1.09634 -3.82 -6.812)" />
    <path
        d="M142.6 139.164h.77c.667 0 1.04.417 1.04 1.065 0 .628-.341 1.142-.98 1.172h-.95c.412 1.117 1.509 1.916 2.8 1.916 1.643 0 2.975-1.296 2.975-2.894 0-1.597-1.332-2.892-2.975-2.892a2.981 2.981 0 0 0-2.68 1.633zm-71.382 1.172-.118-.014s.906-.09 1.893-1.05c.688-.67 1.836-3.635 3.575-5.535 2.295-2.508 3.752-3.274 3.752-3.274l-.799-2.519s1.08-.36 3.448-.36 6.572.907 6.572.907l-7.164 6.06-1-1.842s-1.347 1.778-2.212 3.462c-1.145 2.225-.87 2.2-.879 3.005l48.367-.009c.462-1.663 2.028-2.888 3.885-2.888 1.857 0 3.422 1.224 3.884 2.887h1.896c.107-1.215 1.154-2.168 2.431-2.168h2.684c.298 0 .582.052.845.146a4.57 4.57 0 0 1 3.001-1.111c2.493 0 4.514 1.966 4.514 4.39 0 2.425-2.021 4.39-4.514 4.39-1.33 0-2.526-.559-3.352-1.448-.16.031-.326.048-.495.048h-2.684c-1.22 0-2.233-.871-2.41-2.01h-1.972c-.524 1.57-2.04 2.704-3.829 2.704-1.789 0-3.304-1.133-3.83-2.7l-48.425.014c.028.884-.297.79.881 3.082.865 1.684 2.213 3.46 2.213 3.46l1-1.84 7.163 6.059s-4.204.906-6.572.906c-2.368 0-3.448-.36-3.448-.36l.8-2.518s-1.458-.768-3.753-3.276c-1.74-1.899-2.886-4.865-3.574-5.533-.988-.96-1.894-1.051-1.894-1.051z"
        style="fill:#ffb81c;fill-opacity:1;stroke:#000;stroke-width:.37944448;stroke-miterlimit:3.86369991"
        transform="matrix(1.04772 0 0 1.09634 -3.82 -6.812)" />
    <path stroke-miterlimit="3.864" d="M136.181 139.128h6.453M136.201 141.436h6.433"
        style="clip-rule:evenodd;fill:none;fill-rule:evenodd;stroke:#000;stroke-width:.37944448;stroke-miterlimit:3.86369991"
        transform="matrix(1.04772 0 0 1.09634 -3.82 -6.812)" />
    <path
        d="M123.471 128.545c.09-.022.196-.044.315-.066 2.162-.38 3.45.676 4.245 2.753 1.07 2.803 2.377 6.565 2.829 7.877.137.149.22.344.22.56a.854.854 0 0 1-.866.842.854.854 0 0 1-.865-.842c0-.059.007-.118.02-.174-.476-1.38-1.741-5.017-2.781-7.741-.523-1.37-1.789-1.938-2.48-1.8-.166.068-.544.17-.744.17-.452 0-.68-.343-.71-.781-.025-.357.47-.694.817-.798z"
        style="fill:#f4b21b;fill-opacity:1;stroke:#000;stroke-width:.37944448;stroke-miterlimit:3.86369991"
        transform="matrix(1.04772 0 0 1.09634 -3.82 -6.812)" />
    <path
        d="M96.708 107.099h25.75a.9.9 0 0 1 .187.02h2.086l-1.376 1.376v26.744a.896.896 0 0 1-.896.896l-12.721 5.628-13.029-5.628a.896.896 0 0 1-.896-.896v-26.893l-1.228-1.228h1.937a.954.954 0 0 1 .186-.019z"
        style="fill:#fff;stroke:#000;stroke-width:.39840001;stroke-miterlimit:3.86369991"
        transform="matrix(1.0119 0 0 1.02971 -1.003 -.986)" />
    <g transform="matrix(1.0119 0 0 1.02971 -1.003 -.986)">
        <defs>
            <path id="a"
                d="M96.708 107.099h25.75a.9.9 0 0 1 .187.02h2.086l-1.376 1.376v26.744a.896.896 0 0 1-.896.896l-12.721 5.628-13.029-5.628a.896.896 0 0 1-.896-.896v-26.893l-1.228-1.228h1.937a.954.954 0 0 1 .186-.019z" />
        </defs>
        <clipPath id="b">
            <use xlink:href="#a" width="217.254" height="217.356" style="overflow:visible" />
        </clipPath>
        <g clip-path="url(#b)">
            <path d="M119.104 116.313h1.868v21.715h-1.868z" style="fill:#af272f;fill-opacity:1" />
            <path
                d="M114.985 116.313h1.868v25.301h-1.868zM110.866 116.313h1.867v25.301h-1.867zM106.746 116.313h1.868v25.301h-1.868zM102.627 116.313h1.868v23.558h-1.868z"
                style="fill:#af272f;fill-rule:evenodd;fill-opacity:1" />
            <path d="M98.507 116.313h1.868v21.715h-1.868z" style="fill:#af272f;fill-opacity:1" />
        </g>
    </g>
    <path
        d="M96.708 107.099h25.75a.9.9 0 0 1 .187.02h2.086l-1.376 1.376v26.744a.896.896 0 0 1-.896.896l-12.721 5.628-13.029-5.628a.896.896 0 0 1-.896-.896v-26.893l-1.228-1.228h1.937a.954.954 0 0 1 .186-.019z"
        style="fill:none;stroke:#000;stroke-width:.39840001;stroke-miterlimit:3.86369991"
        transform="matrix(1.0119 0 0 1.02971 -1.003 -.986)" />
    <path d="M123.153 105.923s-1.329 1.098-1.329 2.222v7.008h-26.6v-7.147c0-.984-1.186-2.082-1.186-2.082h29.115z"
        style="fill:#002f6c;stroke:#000;stroke-width:.37944448;stroke-miterlimit:3.86369991;fill-opacity:1"
        transform="matrix(1.04772 0 0 1.09634 -3.82 -6.812)" />
    <path
        d="m109.309 43.953-.609 39.041-.31.006c-.123-6.246-.768-39.046-.768-39.171a.84.84 0 1 1 1.673.124zM91.109 47.8l11.106 36.139-.308.089c-2.211-6.366-12.403-35.707-12.441-35.824a.84.84 0 1 1 1.629-.4zM74.896 56.217l21.592 30.178-.297.179C91.318 80.26 73.538 57.217 73.466 57.12a.841.841 0 1 1 1.418-.895zM104.076 73.318l1.299 9.927-.369.074-1.773-9.93a.42.42 0 1 1 .83-.131zM94.681 75.28l4.439 9.718-.311.188-4.914-9.592a.42.42 0 0 1 .756-.369zM86.479 81.415l7.368 6.711-.274.313-7.694-6.428a.42.42 0 0 1 .552-.635zM125.869 47.8l-11.106 36.139.308.089c2.211-6.366 12.403-35.707 12.441-35.824a.842.842 0 0 0-1.599-.52c-.014.04-.022.08-.03.12zM142.082 56.217 120.49 86.396l.297.179c4.872-6.314 22.652-29.357 22.725-29.454a.841.841 0 1 0-1.418-.895zM112.902 73.318l-1.299 9.927.369.074 1.772-9.93a.421.421 0 0 0-.83-.131zM122.297 75.28l-4.438 9.718.311.188 4.913-9.592a.42.42 0 1 0-.756-.369zM130.499 81.415l-7.368 6.711.273.313 7.694-6.428a.42.42 0 0 0-.552-.635z"
        style="fill-rule:evenodd" transform="matrix(1.0119 0 0 1.02971 -1.003 -.986)" />
    <g style="fill:#ccc;fill-opacity:1;stroke:#000;stroke-opacity:1">
        <path
            d="M134.189 139.88c1.773-4.352 4.173-8.476 7.411-11.317 5.845-5.129 13.22-3.854 12.911 3.016-.225 5.008-1.087 6.514-5.637 10.803-.281.324-.502.574-.873.574-.445 0-.712-.346-.712-.791 0-.218-.02-.426.122-.571l.039-.062c4.662-4.364 5.264-5.456 5.469-10.025.196-4.368-4.574-6.742-10.268-1.745-2.969 2.604-5.332 6.636-7.147 11.157a4.15 4.15 0 0 0-1.315-1.039zm-4.952 21.654s.423-5.883 2.162-12.921l.227-.896a4.282 4.282 0 0 0 1.635-.049c-1.355 4.971-2.146 9.984-2.435 13.981z"
            style="fill:#ccc;fill-opacity:1;stroke:#000;stroke-width:.39840001;stroke-miterlimit:3.86369991;stroke-opacity:1"
            transform="matrix(1.0119 0 0 1.02971 -1.003 -.986)" />
        <path stroke-miterlimit="3.864"
            d="m151.033 137.816.252 2.12M152.193 135.789l.706 2.077M152.749 133.561l1.37 1.32M152.899 131.643l1.472.858M152.698 129.817l1.825.657M151.537 127.95l1.968-.202M150.268 127.185l1.421-1.161M148.148 126.934l1.312-1.515M147.13 125.57l-.808 1.868M144.506 126.529l-.051 1.926M142.782 127.64l.201 1.774M141.42 128.707l.353 1.918M140.1 129.969l.302 2.178M138.586 131.895l.807 1.615M137.417 133.51l1.017 1.32M136.205 135.486l1.01 1.363M135.045 137.715l1.16 1.363M131.192 148.792l1.321 1.421M130.738 151.172l1.27 1.716M130.335 153.35l1.269 1.413M129.932 155.368l1.26 1.875M129.578 157.748l1.313 1.464M129.325 159.977l1.464 1.009"
            style="clip-rule:evenodd;fill:#ccc;fill-opacity:1;fill-rule:evenodd;stroke:#000;stroke-width:.39840001;stroke-miterlimit:3.86369991;stroke-opacity:1"
            transform="matrix(1.0119 0 0 1.02971 -1.003 -.986)" />
    </g>
    <path
        d="M120.524 139.118c-.29-1.085 1.053-1.507 1.301-.663.249.843.468 3.69.061 3.776-1.115.242-1.362-3.113-1.362-3.113zM95.39 138.955c.29-1.083-1.054-1.56-1.302-.716-.248.843-.468 3.905-.062 3.992 1.116.242 1.363-3.276 1.363-3.276zM93.353 138.684c.11-1.116-1.283-1.166-1.392-.295-.11.872.009 4.025.732 3.904.889-.149.66-3.609.66-3.609zM89.964 138.957c-.25-1.094.996-1.47 1.214-.619.217.851.605 4.135.037 3.939-.824-.284-1.251-3.32-1.251-3.32zM122.56 138.954c-.11-1.116 1.283-1.328 1.392-.457.11.872-.132 3.715-.546 3.74-1.14.068-.846-3.283-.846-3.283zM124.476 139.016c-.012-1.12 1.397-1.215 1.428-.338.03.879-.191 3.78-.879 3.68-.866-.127-.55-3.342-.55-3.342z"
        style="fill:#ffb81c;fill-rule:evenodd;stroke:#715c37;stroke-width:.37944448;stroke-miterlimit:3.86369991;fill-opacity:1"
        transform="matrix(1.04772 0 0 1.09634 -3.82 -6.812)" />
    <path stroke-miterlimit="3.864" d="m146.773 136.582.243 1.99"
        style="clip-rule:evenodd;fill:none;fill-rule:evenodd;stroke:#715c37;stroke-width:.37944448;stroke-miterlimit:3.86369991"
        transform="matrix(1.04772 0 0 1.09634 -3.82 -6.812)" />
    <path d="M91.63 122.558s1.287-7.328 2.46-11.088l.645.108c-1.168 3.744-2.893 11.042-2.893 11.042z"
        style="stroke:#6c3a00;stroke-width:0;stroke-miterlimit:4;stroke-dasharray:none;stroke-opacity:1"
        transform="matrix(1.04772 0 0 1.09634 -3.82 -6.812)" />
    <path
        d="M114.849 98.21c-.316.288-.7.55-1.009.724-1.154.655-2.31-.841-2.31-.841s-.192.748-1.443.935c-1.25.187-2.02-1.122-2.02-1.122s0 .467-1.539 1.31c-.917.501-1.296-.159-1.363-.775.485-.62.946-1.68.69-2.593-.289-1.03-.77-1.871-1.443-2.994-.673-1.124-.673-3.088 1.154-3.836 1.827-.749 4.266-.904 6.734.374 1.403.726 1.728 1.132 3.367 1.403-.325.315-.961.841-1.54 2.058-.547 1.153.086 3.23.721 5.356z"
        style="fill:#fff;stroke:#000;stroke-width:.37944448;stroke-miterlimit:3.86369991"
        transform="matrix(1.04772 0 0 1.09634 -3.82 -6.812)" />
    <path
        d="M106.72 92.666s-.678-.793-1.443-1.59c-1.347-1.404.209-2.083-.192-1.763-.523.416-1.347.267-2.309.36-.962.092-2.501 1.216-2.597 2.057-.096.842 0 1.965.48 2.714.482.748.097-.842.77-.749.674.093 3.464.936 4.137.842.673-.094 1.154-1.871 1.154-1.871z"
        style="fill:#ffb81c;fill-rule:evenodd;stroke:#000;stroke-width:.37944448;stroke-miterlimit:3.86369991;fill-opacity:1"
        transform="matrix(1.04772 0 0 1.09634 -3.82 -6.812)" />
    <path
        d="M100.887 93.845s.027-.077.083-.187c.846-1.652 2.198-.199 3.611-.542l-.302.17c-.837.204-1.18.126-1.981-.063-.512-.121-.897.332-1.048.745z"
        style="stroke-width:.95242089" transform="matrix(1.04772 0 0 1.09634 -3.82 -6.812)" />
    <path
        d="M107.046 92.112c0-.246.15-.462.38-.592h-.135c-.583 0-1.094.475-.852.167.473-.603 2.17-.773 2.828-.48.657.295 2.36.936 2.36.936s-1.354.163-1.751-.086c-.22-.138-.81-.219-1.392-.264.187.132.13-.05.13.167 0 .059.395.26-.09.458.679-.083 1.183-.038 1.183-.038s-.674.225-1.29.321a1.002 1.002 0 0 1-.497.13c-.093 0-.184-.013-.268-.035-.37.01-.08-.129-.456-.281a.634.634 0 0 1-.15-.403z" />
    <path d="M125.515 122.644s-1.288-7.328-2.46-11.088l-.645.108c1.167 3.744 2.892 11.042 2.892 11.042z"
        style="stroke-width:.95242089" transform="matrix(1.04772 0 0 1.09634 -3.82 -6.812)" />
    <g style="fill:#f4b21b;fill-opacity:1">
        <path
            d="M56.54 417.509c-.076-.447-.643-4.863-1.26-9.813-.616-4.95-1.175-9.31-1.24-9.687-.103-.588-.036-.688.463-.688.516 0 .602.149.735 1.275.188 1.582.833 2.913 1.728 3.568.975.712 2.42.635 15.566-.835 17.808-1.991 18.136-2.057 20.11-4.03 2.483-2.484 2.903-7.028.995-10.768-1.702-3.335-5.471-5.212-10.463-5.209-2.615.002-24.087 2.411-25.721 2.886-.764.223-1.72.745-2.247 1.228-.891.817-.921.901-1.01 2.863-.08 1.778-.149 2.022-.56 2.022-.284 0-.518-.222-.591-.562-.133-.614-1.638-12.706-1.638-13.159 0-.153.215-.279.478-.279.358 0 .518.237.637.943.245 1.451 1.16 2.86 2.265 3.486 1.41.798 2.981.748 13.527-.433 18.006-2.016 20.149-1.896 24.293 1.36 3.7 2.907 5.463 6.993 5.727 13.27.161 3.837-.104 5.41-1.321 7.844-1.626 3.25-4.248 5.237-8.272 6.267-1.085.278-6.98 1.058-13.21 1.75-13.2 1.463-15.66 1.816-16.497 2.364-1.13.74-1.478 1.566-1.45 3.43.024 1.52-.027 1.72-.439 1.72-.33 0-.506-.237-.604-.813zM94.016 336.384c-.025-2.52-.822-3.732-2.988-4.543-.844-.316-6.818-1.25-17.115-2.676l-15.818-2.19-1.33.696c-1.868.979-3.06 2.215-3.416 3.543-.244.915-.399 1.107-.889 1.107-.515 0-.574-.09-.449-.687.08-.378.6-3.61 1.156-7.18.585-3.752 1.14-6.573 1.313-6.683.166-.105 6.827-3.755 14.802-8.11 15.63-8.538 14.756-8.048 14.604-8.181-.28-.246-19.349-2.749-20.98-2.754-2.888-.008-4.362 1.063-5.14 3.737-.217.747-.47 1.357-.564 1.354-.765-.017-.75-.502.215-6.627.54-3.434.984-6.392.986-6.574.003-.198.228-.298.566-.25.505.072.576.254.688 1.75.15 2.014.672 2.84 2.312 3.663 1.205.605 4.171 1.06 29.938 4.605 8.937 1.229 9.625 1.358 9.625 1.813 0 .388-4.14 2.808-20.06 11.726-11.033 6.18-20.02 11.277-19.97 11.326.048.049 6.544.992 14.434 2.095 14.766 2.064 15.924 2.152 17.515 1.33 1.003-.519 2.104-2.136 2.457-3.607.237-.987.404-1.246.807-1.246.432 0 .489.121.382.813-.07.447-.562 3.653-1.096 7.125-.894 5.822-1.008 6.312-1.47 6.312-.448 0-.5-.172-.515-1.687zM111.303 263.356c-.073-.118.1-.876.384-1.684.838-2.385.315-3.774-1.836-4.877-1.196-.613-29.055-11.015-31.45-11.743l-1.809-.55-1.097.534c-1.087.528-2.433 2.219-2.743 3.444-.096.379-.275.497-.615.408-.264-.069-.48-.209-.48-.312 0-.286 8.014-19.353 8.228-19.575.104-.108.37-.126.593-.041.366.14.359.271-.083 1.392-.65 1.65-.637 3.213.037 4.069.688.874 2.06 1.545 6.6 3.225 2.062.763 8.899 3.31 15.192 5.662 6.294 2.35 11.919 4.332 12.5 4.404 1.63.2 2.858-.63 3.805-2.575.584-1.2.865-1.534 1.253-1.488.275.032.467.213.426.4-.041.189-1.885 4.658-4.098 9.932-3.697 8.813-4.358 10.1-4.807 9.375zM140.606 206.97c-.37-.271-.339-.405.323-1.39 1.517-2.26 1.548-3.787.104-5.15-.722-.68-29.52-19.497-30.24-19.759-.292-.106-2.513 2.92-3.412 4.65-.448.862-.585 1.534-.588 2.875-.005 2.155.69 3.79 2.57 6.049.838 1.007 1.235 1.688 1.136 1.948-.085.22-.236.366-.337.326-.822-.327-9.483-6.126-9.424-6.31.042-.13 4.963-6.958 10.935-15.174 7.728-10.63 10.967-14.901 11.234-14.81.582.197 9.25 5.88 9.246 6.06-.016.695-.47.718-2.498.127-2.767-.806-5.098-.833-7.1-.08-1.683.632-2.93 1.765-4.752 4.32-1.026 1.439-1.162 1.757-.869 2.029.591.55 28.615 18.608 29.954 19.303 1.181.613 1.334.634 2.401.335.88-.246 1.453-.665 2.51-1.832 1.181-1.306 1.416-1.463 1.714-1.152.297.31-.311 1.259-4.318 6.737-2.565 3.507-5.455 7.461-6.422 8.786-1.515 2.076-1.815 2.369-2.167 2.111zM182.18 157.725c-.228-.276-.036-.556.953-1.384.802-.67 1.386-1.422 1.655-2.127.396-1.036.393-1.141-.07-2.178-.267-.6-.986-1.652-1.598-2.34-.612-.687-5.64-6.394-11.175-12.68-8.823-10.024-10.184-11.468-11.05-11.728-1.262-.378-2.645 0-4.282 1.17-1.035.74-1.205.791-1.49.447-.266-.32-.255-.438.06-.673.21-.157 6.469-5.05 13.908-10.874 7.44-5.823 13.62-10.558 13.733-10.52.114.036 1.992 2.093 4.173 4.57 3.53 4.01 3.919 4.538 3.541 4.815-.36.262-.713.122-2.31-.92-1.952-1.275-4.508-2.232-5.96-2.232-1.345 0-3.385.509-4.809 1.2-1.28.621-8.106 5.598-8.247 6.014-.039.113 2.472 3.092 5.58 6.62l5.648 6.413.992-.797c2.039-1.639 2.99-3.89 2.606-6.165-.184-1.088-1.568-4.143-2.419-5.337-.484-.681-.494-.773-.123-1.144.37-.37.471-.324 1.254.584.468.543 3.725 4.247 7.238 8.23 4.83 5.48 6.322 7.322 6.122 7.563-.39.47-.532.417-1.863-.694-.668-.558-2.059-1.43-3.09-1.937-1.661-.817-2.09-.922-3.75-.918-1.963.005-2.883.336-4.69 1.69l-.813.609 4.945 5.591c2.72 3.075 5.336 5.857 5.814 6.181.658.447 1.095.56 1.803.468 2.154-.282 7.984-5.504 9.401-8.42 1.7-3.501 1.604-6.954-.323-11.544-.117-.277-.022-.499.281-.657.399-.208.911.46 4.039 5.267 3.456 5.31 3.566 5.52 3.125 5.948-.538.52-28.305 22.235-28.434 22.235-.048 0-.216-.156-.374-.346zM244.309 115.176a3.17 3.17 0 0 1-.152-.46c0-.036.432-.195.96-.353 2.554-.766 3.888-2.644 3.291-4.636-.415-1.388-11.813-27.596-12.91-29.684-1.23-2.346-2.584-2.854-5.323-1.999-1.633.51-2.018.497-2.018-.069 0-.296 15.508-6.432 20.558-8.134 3.571-1.203 6.001-1.624 9.317-1.616 5.962.015 10.259 1.905 14.501 6.378 5.948 6.27 7.826 15.721 4.485 22.572-1.832 3.756-5.886 7.536-10.486 9.775-1.954.951-21.438 8.621-21.9 8.621-.095 0-.24-.178-.323-.395zm17.668-8.624c5.532-1.848 7.914-6.267 6.856-12.714-.542-3.301-1.59-6.423-3.411-10.152-4.038-8.27-9.634-12.478-15.39-11.57-1.37.215-4.781 1.238-5.531 1.658-.224.125 1.61 4.585 6.526 15.872 3.76 8.634 7.023 15.98 7.248 16.325.395.602 1.151 1.05 1.827 1.084.177.01 1.02-.218 1.875-.503zM469.912 114.304c-3.671-.96-6.04-2.35-9.4-5.515-2.854-2.69-3.598-2.935-5.687-1.877-.927.469-1.249.53-1.566.298-.351-.257.014-1.12 3.042-7.18 2.944-5.893 3.511-6.871 3.92-6.764.385.1.45.277.336.902-1.008 5.483-.516 9.104 1.717 12.64 2.813 4.455 8.599 6.672 12.414 4.756 2.298-1.154 3.329-2.746 3.314-5.118-.016-2.495-1.094-4.387-5.654-9.928-4.197-5.1-5.892-8.06-6.45-11.273-1.181-6.777 4.682-12.924 12.326-12.924 2.56 0 3.806.315 6.683 1.687 2.096 1 2.683 1.44 5 3.748 3.455 3.44 3.773 3.551 5.5 1.914.591-.56.987-.762 1.215-.62.265.163-.27 1.513-2.446 6.173-1.532 3.28-2.875 6.054-2.985 6.164-.11.11-.398.125-.64.032-.326-.125-.4-.336-.285-.82.365-1.548.445-5.013.144-6.307-.725-3.127-3.007-6.47-5.357-7.847-4.182-2.45-8.831-1.61-10.31 1.867-.944 2.22.174 4.898 4.025 9.638 3.87 4.763 5.32 6.699 6.419 8.572 2.576 4.391 2.617 8.748.119 12.653-2.886 4.511-9.428 6.691-15.394 5.13zM527.146 149.303c-4.6-3.724-8.466-6.87-8.591-6.991-.135-.13-.098-.375.092-.603.28-.339.425-.3 1.226.33 2.08 1.634 3.792 1.992 5.309 1.11.74-.429 24.475-26.206 24.475-26.58 0-.39-3.724-3.121-5.203-3.817-1.44-.678-1.755-.733-3.624-.634-2.202.116-3.911.733-5.985 2.16-.906.623-1.147.692-1.506.43-.381-.28-.022-.76 3.354-4.47 2.14-2.351 3.898-4.083 4.05-3.989.322.2 26.223 21.172 28.102 22.756l1.313 1.106-3.777 4.105c-2.077 2.258-3.881 4.105-4.009 4.105-.564 0-.469-.902.261-2.486 1.559-3.382 1.597-5.69.134-8.186-.821-1.402-4.796-4.746-5.267-4.43-.513.343-22.808 24.83-23.63 25.952-1.25 1.709-.907 3.217 1.168 5.13 1 .921 1.119 1.127.82 1.426-.297.298-1.558-.632-8.712-6.424zM586.47 216.009l-5.764-7.975c-1.952-2.701-3.549-5.024-3.549-5.16 0-.738.798-.387 1.826.804.625.725 1.471 1.456 1.88 1.625 1.438.595 2.218-.14 5.761-5.425l1.554-2.32-4.28-5.93c-2.355-3.263-4.415-5.963-4.58-6.002-.588-.138-6.434 1.158-7.336 1.626-2.08 1.08-2.389 2.566-1.055 5.069.68 1.277.76 1.578.463 1.766-.197.125-.414.226-.483.226s-1.911-2.482-4.094-5.515c-3.013-4.186-3.9-5.584-3.679-5.804.22-.22.454-.187.97.14 3.393 2.152 3.09 2.174 27.891-1.955 11.255-1.873 20.551-3.31 20.658-3.194.107.116-4.74 7.636-10.77 16.711-6.03 9.075-11.417 17.404-11.97 18.51-1.087 2.17-1.218 3.124-.625 4.542.368.882.23 1.305-.43 1.32-.095.001-1.17-1.375-2.388-3.06zm7.51-27.142c2.338-3.468 4.206-6.344 4.151-6.391-.131-.113-15.766 2.554-15.929 2.717-.07.07.145.502.477.962.332.46 1.952 2.71 3.6 5.002 1.649 2.291 3.1 4.132 3.224 4.09.124-.04 2.139-2.912 4.477-6.38zM612.569 273.38c-.19-.306-7.412-19.62-7.412-19.819 0-.1.212-.237.47-.304.37-.097.541.09.801.878.813 2.462 2.454 3.66 4.567 3.33.57-.088 8.655-2.695 17.966-5.794l16.93-5.632-.628-1.672c-2.201-5.869-4.226-7.352-10.102-7.4-2.124-.017-2.636-.092-2.694-.397-.055-.285 1.253-.818 5.356-2.182 2.986-.993 5.474-1.76 5.53-1.705.076.077 7.973 21.032 12.504 33.183l.53 1.42-5.303 1.768c-2.916.972-5.443 1.767-5.615 1.767-.775 0-.23-.984 1-1.804 3.637-2.423 5.329-5.458 4.674-8.383-.287-1.287-1.38-4.487-1.719-5.035-.166-.268-3.676.816-16.926 5.227-9.194 3.06-17.259 5.837-17.922 6.169-1.895.948-2.327 2.427-1.444 4.94.41 1.169.425 1.371.105 1.494-.478.183-.527.18-.668-.048zM631.282 349.508c-2.613-.13-4.784-.267-4.825-.307-.104-.1-3.296-33.555-3.298-34.567-.002-.627.105-.813.464-.813.378 0 .496.26.63 1.397.272 2.323 1.26 3.63 2.99 3.954.714.134 31.828-2.324 34.826-2.752 2.356-.336 3.338-1.65 3.338-4.466 0-1.466.051-1.633.5-1.633.275 0 .5.1.5.22 0 .345 2.963 31.517 3.117 32.792l.137 1.137-5.565.443c-3.06.243-5.93.503-6.377.578-.735.123-.812.077-.812-.486 0-.494.158-.653.771-.776 1.443-.288 4.848-2.08 5.816-3.06 2.32-2.345 2.874-4.763 2.418-10.532-.174-2.206-.401-4.148-.505-4.315-.145-.236-2.105-.146-8.73.402-4.697.388-8.667.783-8.82.878-.204.126-.202.555.01 1.61.769 3.828 3.408 5.68 8.597 6.034 1.862.127 2.205.22 2.336.63.084.266.114.513.067.55-.079.061-22.102 1.923-22.523 1.904-.103-.005-.187-.217-.187-.472 0-.36.373-.561 1.687-.91 5.163-1.368 7.563-3.724 7.563-7.426v-1.7h-.86c-1.079 0-9.131.652-12.687 1.028-4.357.46-4.852 1.015-4.597 5.146.305 4.921 1.553 8.227 4.054 10.739 1.766 1.772 4.197 3.069 7.031 3.749 1.418.34 1.809.532 1.809.886 0 .524-.802.537-8.875.138zM657.538 419.388c-3.846-.465-7.034-.887-7.085-.937-.05-.05-.023-.31.062-.575.124-.393.466-.51 1.835-.628 5.103-.44 9.98-3.773 11.6-7.927.704-1.807.768-4.74.13-6.027-1.067-2.154-2.847-3.327-5.048-3.326-2.878.002-4.758 1.536-9.452 7.716-6.391 8.414-9.86 10.881-15.298 10.881-3.632 0-6.547-1.172-8.998-3.619-2.661-2.657-3.88-5.679-3.873-9.608.005-3.116.496-5.104 1.913-7.742a433.947 433.947 0 0 0 1.903-3.585l.75-1.435-.43-1.125c-.236-.618-.763-1.385-1.17-1.704-.73-.571-.806-1.426-.127-1.426.391 0 14.103 1.966 14.97 2.147.431.09.687.305.687.578 0 .36-.394.488-2.253.735-6.174.822-10.79 3.657-12.886 7.915-1.863 3.784-1.669 6.923.582 9.42 1.202 1.332 2.56 1.943 4.338 1.95 3.571.014 5.11-1.222 10.889-8.739 4.308-5.605 7.418-8.134 11.218-9.124 5.513-1.436 11.468 1.348 14.047 6.565.87 1.762.941 2.075 1.024 4.535.137 4.037-.427 5.832-3.098 9.874-.734 1.11-1.403 2.305-1.487 2.655-.198.828.595 1.855 1.759 2.276.797.288 1.133.797.68 1.03-.104.053-3.335-.285-7.182-.75z"
            style="opacity:1;fill:#ffb81c;fill-opacity:1;fill-rule:evenodd;stroke:none;stroke-width:1.88976383;stroke-linecap:butt;stroke-linejoin:miter;stroke-miterlimit:4;stroke-dasharray:none;stroke-dashoffset:0;stroke-opacity:1;paint-order:normal"
            transform="matrix(.30188 0 0 .30188 -.051 0)" />
        <path
            d="M270.042 653.73c-.23-.142-3.403-9.997-7.053-21.901s-6.72-21.64-6.82-21.634c-.102.005-2.557 6.011-5.457 13.347-3.763 9.52-5.272 13.752-5.274 14.79-.003 1.831 1.094 3.436 3.016 4.417 1.003.511 1.316.839 1.053 1.101-.537.538-13.87-4.92-13.62-5.576.134-.348.41-.384 1.058-.138.482.184 1.607.334 2.5.334 2.975 0 3.363-.672 9.976-17.28l5.811-14.595-.44-1.652c-.558-2.097-1.252-3.158-2.548-3.896-1.038-.59-1.408-1.493-.591-1.44.243.017 3.378 1.25 6.967 2.74l6.524 2.712 4.348 14.672c2.391 8.07 4.518 15.29 4.727 16.044.214.775.51 1.236.683 1.06.168-.17 1.94-4.447 3.939-9.502 4.102-10.378 4.433-12.02 2.776-13.794-.487-.52-1.395-1.21-2.02-1.532-.683-.353-1.035-.745-.884-.987.173-.275 2.22.392 6.52 2.123 6.662 2.68 7.901 3.624 4.21 3.207-2.511-.284-3.6.283-4.726 2.463-.411.797-3.788 9.037-7.503 18.311-4.69 11.709-6.882 16.785-7.172 16.606zM339.776 667.798c-5.056-.742-9.312-1.36-9.457-1.374-.146-.013-.266-.243-.266-.51 0-.363.383-.446 1.503-.323 1.943.212 3.37-.35 3.642-1.434.123-.493-.266-2.67-.92-5.144-.954-3.603-1.256-4.316-1.885-4.453-.989-.216-13.258-1.948-13.8-1.948-.754 0-3.812 5.507-4.005 7.214-.155 1.374-.056 1.69.758 2.445.515.477 1.648 1.047 2.519 1.266.97.244 1.582.598 1.582.915 0 .372-.272.465-.972.334-.535-.1-3.598-.544-6.806-.985-4.4-.605-5.834-.925-5.834-1.3 0-.306.6-.616 1.556-.805 1.178-.233 1.952-.717 3.182-1.988.973-1.005 5.946-8.627 12.38-18.972 12.247-19.693 10.928-17.649 11.205-17.372.118.118 2.657 8.935 5.643 19.593 2.986 10.657 5.853 20.38 6.373 21.603.745 1.758 1.23 2.39 2.308 3.006 1.307.746 1.857 1.708.928 1.622-.243-.022-4.578-.648-9.634-1.39zm-7.601-15.94c0-.313-2.823-10.968-3.759-14.189-.1-.343-.312-.543-.471-.445-.555.343-8.21 12.966-7.993 13.182.209.209 9.795 1.729 11.427 1.812.438.022.796-.14.796-.36zM399.23 666.686c-.484-.838-5.12-9.08-10.303-18.317-5.183-9.236-9.861-17.35-10.398-18.031-.638-.81-1.544-1.42-2.626-1.768-.908-.292-1.653-.703-1.654-.914 0-.241 3.435-.742 9.28-1.352 5.104-.533 9.559-1.048 9.899-1.143.394-.111.619.021.619.364 0 .344-.48.625-1.326.778-.73.132-1.783.472-2.34.754-.902.457-.996.659-.84 1.81.197 1.462 13.348 25.317 13.722 24.891.363-.413 7.008-21.604 7.467-23.814.703-3.382-.368-4.849-3.712-5.08-.998-.069-1.869-.286-1.934-.483-.13-.387.557-.505 7.524-1.294 5.778-.655 6.187-.655 6.187.003 0 .292-.233.53-.518.53-.879 0-3.018 2.147-3.928 3.942-.829 1.636-2.897 7.794-10.128 30.151-1.82 5.626-3.488 10.289-3.709 10.362-.22.074-.798-.551-1.282-1.39zM462.115 653.334c-.115-.187.595-.685 1.578-1.108 2.027-.872 3.54-2.449 3.54-3.69 0-.462-.894-3.31-1.986-6.328l-1.986-5.488-9.24-8.006c-11.524-9.986-11.86-10.226-14.278-10.201-1.076.01-1.856-.138-1.855-.354 0-.31 17.698-7.267 18.485-7.267.139 0 .253.24.253.53 0 .292-.227.531-.504.531-.753 0-2.678 1.744-2.678 2.427 0 .328 1.153 1.72 2.563 3.096 3.471 3.386 13.71 12.263 13.911 12.061.358-.357 3.325-17.801 3.325-19.547 0-2.557-.57-3.087-3.15-2.93-1.088.066-2.057-.022-2.154-.195-.097-.173 2.449-1.315 5.657-2.537 3.209-1.223 5.889-2.07 5.956-1.883.067.187-.503 1.018-1.266 1.846-1.691 1.835-1.713 1.914-4.332 16.131l-2.048 11.12 2.39 6.302c1.315 3.466 2.666 6.607 3.003 6.98.939 1.036 2.441 1.205 4.623.519 1.842-.58 2.803-.506 2.08.16-.297.273-21.078 8.17-21.501 8.17-.097 0-.271-.153-.386-.34z"
            style="opacity:1;fill:#ffb81c;fill-opacity:1;fill-rule:evenodd;stroke:none;stroke-width:2.6725297;stroke-linecap:butt;stroke-linejoin:miter;stroke-miterlimit:4;stroke-dasharray:none;stroke-dashoffset:0;stroke-opacity:1;paint-order:normal"
            transform="matrix(.30188 0 0 .30188 -.051 0)" />
    </g>
</svg>