<?xml version="1.0" encoding="UTF-8"?>
<svg width="16px" height="16px" viewBox="0 0 16 16" version="1.1" xmlns="http://www.w3.org/2000/svg" xmlns:xlink="http://www.w3.org/1999/xlink">
    <title>Universal Mode / Icons / Font Awesome / close circle</title>
    <g id="Universal-Mode-/-Icons-/-Font-Awesome-/-close-circle" stroke="none" stroke-width="1" fill="none" fill-rule="evenodd">
        <circle id="Background" fill="#000" cx="8" cy="8" r="8"></circle>
        <path d="M12,10.4377104 C12,10.6060606 11.9326599,10.7744108 11.8114478,10.8956229 L10.8956229,11.8114478 C10.7744108,11.9326599 10.6060606,12 10.4377104,12 C10.2693603,12 10.1010101,11.9326599 9.97979798,11.8114478 L8,9.83164983 L6.02020202,11.8114478 C5.8989899,11.9326599 5.73063973,12 5.56228956,12 C5.39393939,12 5.22558923,11.9326599 5.1043771,11.8114478 L4.18855219,10.8956229 C4.06734007,10.7744108 4,10.6060606 4,10.4377104 C4,10.2693603 4.06734007,10.1010101 4.18855219,9.97979798 L6.16835017,8 L4.18855219,6.02020202 C4.06734007,5.8989899 4,5.73063973 4,5.56228956 C4,5.39393939 4.06734007,5.22558923 4.18855219,5.1043771 L5.1043771,4.18855219 C5.22558923,4.06734007 5.39393939,4 5.56228956,4 C5.73063973,4 5.8989899,4.06734007 6.02020202,4.18855219 L8,6.16835017 L9.97979798,4.18855219 C10.1010101,4.06734007 10.2693603,4 10.4377104,4 C10.6060606,4 10.7744108,4.06734007 10.8956229,4.18855219 L11.8114478,5.1043771 C11.9326599,5.22558923 12,5.39393939 12,5.56228956 C12,5.73063973 11.9326599,5.8989899 11.8114478,6.02020202 L9.83164983,8 L11.8114478,9.97979798 C11.9326599,10.1010101 12,10.2693603 12,10.4377104 Z" id="Close" fill="#FFFFFF"></path>
    </g>
</svg>
