<?xml version="1.0" encoding="UTF-8"?>
<svg width="16px" height="16px" viewBox="0 0 16 16" version="1.1" xmlns="http://www.w3.org/2000/svg" xmlns:xlink="http://www.w3.org/1999/xlink">
    <title>Universal Mode / Icons / Font Awesome / check-circle</title>
    <g id="Universal-Mode-/-Icons-/-Font-Awesome-/-check-circle" stroke="none" stroke-width="1" fill="none" fill-rule="evenodd">
        <circle id="Background" fill="#000" cx="8" cy="8" r="8"></circle>
        <path d="M13,5.71464646 C13,5.87247475 12.9354839,6.03030303 12.8193548,6.14393939 L7.27096774,11.5732323 C7.15483871,11.6868687 6.99354839,11.75 6.83225806,11.75 C6.67096774,11.75 6.50967742,11.6868687 6.39354839,11.5732323 L3.18064516,8.42929293 C3.06451613,8.31565657 3,8.15782828 3,8 C3,7.84217172 3.06451613,7.68434343 3.18064516,7.57070707 L4.05806452,6.71212121 C4.17419355,6.59848485 4.33548387,6.53535354 4.49677419,6.53535354 C4.65806452,6.53535354 4.81935484,6.59848485 4.93548387,6.71212121 L6.83225806,8.57449495 L11.0645161,4.42676768 C11.1806452,4.31313131 11.3419355,4.25 11.5032258,4.25 C11.6645161,4.25 11.8258065,4.31313131 11.9419355,4.42676768 L12.8193548,5.28535354 C12.9354839,5.3989899 13,5.55681818 13,5.71464646 Z" id="Checkmark" fill="#FFFFFF"></path>
    </g>
</svg>
