<svg width="24" height="24" viewBox="0 0 24 24" fill="none" color="#fff" xmlns="http://www.w3.org/2000/svg">
    <path fill-rule="evenodd" clip-rule="evenodd"
        d="M12 24C18.6274 24 24 18.6274 24 12C24 5.37258 18.6274 0 12 0C5.37258 0 0 5.37258 0 12C0 18.6274 5.37258 24 12 24ZM17.2188 10.5H7.28125C7.12656 10.5 7 10.6266 7 10.7812V16.875C7 17.4961 7.50391 18 8.125 18H16.375C16.9961 18 17.5 17.4961 17.5 16.875V10.7812C17.5 10.6266 17.3734 10.5 17.2188 10.5ZM17.5 8.625V9.46875C17.5 9.62344 17.3734 9.75 17.2188 9.75H7.28125C7.12656 9.75 7 9.62344 7 9.46875V8.625C7 8.00391 7.50391 7.5 8.125 7.5H9.25V6.28125C9.25 6.12656 9.37656 6 9.53125 6H10.4688C10.6234 6 10.75 6.12656 10.75 6.28125V7.5H13.75V6.28125C13.75 6.12656 13.8766 6 14.0312 6H14.9688C15.1234 6 15.25 6.12656 15.25 6.28125V7.5H16.375C16.9961 7.5 17.5 8.00391 17.5 8.625Z"
        fill="#000" />
    <path
        d="M7.28125 10.5H17.2188C17.3734 10.5 17.5 10.6266 17.5 10.7812V16.875C17.5 17.4961 16.9961 18 16.375 18H8.125C7.50391 18 7 17.4961 7 16.875V10.7812C7 10.6266 7.12656 10.5 7.28125 10.5ZM17.5 9.46875V8.625C17.5 8.00391 16.9961 7.5 16.375 7.5H15.25V6.28125C15.25 6.12656 15.1234 6 14.9688 6H14.0312C13.8766 6 13.75 6.12656 13.75 6.28125V7.5H10.75V6.28125C10.75 6.12656 10.6234 6 10.4688 6H9.53125C9.37656 6 9.25 6.12656 9.25 6.28125V7.5H8.125C7.50391 7.5 7 8.00391 7 8.625V9.46875C7 9.62344 7.12656 9.75 7.28125 9.75H17.2188C17.3734 9.75 17.5 9.62344 17.5 9.46875Z"
        fill="currentColor" />
</svg>