<svg width="24" height="24" viewBox="0 0 24 24" fill="none" color="#fff" xmlns="http://www.w3.org/2000/svg">
    <path fill-rule="evenodd" clip-rule="evenodd"
        d="M12 24C18.6274 24 24 18.6274 24 12C24 5.37258 18.6274 0 12 0C5.37258 0 0 5.37258 0 12C0 18.6274 5.37258 24 12 24ZM10.0556 7C12.8483 7 15.1111 8.74028 15.1111 10.8889C15.1111 13.0375 12.8483 14.7778 10.0556 14.7778C9.05903 14.7778 8.13299 14.5517 7.35035 14.1701C6.82049 14.4788 6.08403 14.7778 5.19444 14.7778C5.11667 14.7778 5.04861 14.734 5.01701 14.6611C4.98542 14.5882 5 14.5056 5.05347 14.4497C5.06076 14.4424 5.59792 13.859 5.92361 13.125C5.34271 12.4906 5 11.7226 5 10.8889C5 8.74028 7.26285 7 10.0556 7ZM19 14C19 14.8337 18.6573 15.6042 18.0764 16.2361C18.4021 16.9726 18.9392 17.5535 18.9465 17.5608C19 17.6191 19.0146 17.7017 18.983 17.7722C18.9538 17.8427 18.8833 17.8889 18.8056 17.8889C17.916 17.8889 17.1795 17.5899 16.6497 17.2812C15.867 17.6653 14.941 17.8889 13.9444 17.8889C11.8493 17.8889 10.0507 16.9069 9.28507 15.5094C9.53785 15.5361 9.79306 15.5556 10.0556 15.5556C13.2712 15.5556 15.8889 13.4628 15.8889 10.8889C15.8889 10.7236 15.8792 10.5608 15.8573 10.4003C17.6997 10.9812 19 12.374 19 14Z"
        fill="#000" />
    <path
        d="M15.1111 10.8889C15.1111 8.74028 12.8483 7 10.0556 7C7.26285 7 5 8.74028 5 10.8889C5 11.7226 5.34271 12.4906 5.92361 13.125C5.59792 13.859 5.06076 14.4424 5.05347 14.4497C5 14.5056 4.98542 14.5882 5.01701 14.6611C5.04861 14.734 5.11667 14.7778 5.19444 14.7778C6.08403 14.7778 6.82049 14.4788 7.35035 14.1701C8.13299 14.5517 9.05903 14.7778 10.0556 14.7778C12.8483 14.7778 15.1111 13.0375 15.1111 10.8889ZM18.0764 16.2361C18.6573 15.6042 19 14.8337 19 14C19 12.374 17.6997 10.9812 15.8573 10.4003C15.8792 10.5608 15.8889 10.7236 15.8889 10.8889C15.8889 13.4628 13.2712 15.5556 10.0556 15.5556C9.79306 15.5556 9.53785 15.5361 9.28507 15.5094C10.0507 16.9069 11.8493 17.8889 13.9444 17.8889C14.941 17.8889 15.867 17.6653 16.6497 17.2812C17.1795 17.5899 17.916 17.8889 18.8056 17.8889C18.8833 17.8889 18.9538 17.8427 18.983 17.7722C19.0146 17.7017 19 17.6191 18.9465 17.5608C18.9392 17.5535 18.4021 16.9726 18.0764 16.2361Z"
        fill="currentColor" />
</svg>