<?xml version="1.0" encoding="UTF-8"?>
<svg width="25px" height="25px" viewBox="0 0 25 25" version="1.1" xmlns="http://www.w3.org/2000/svg" xmlns:xlink="http://www.w3.org/1999/xlink">
    <!-- Generator: Sketch 64 (93537) - https://sketch.com -->
    <title>Group 4</title>
    <desc>Created with Sketch.</desc>
    <g id="Homescreen" stroke="#00F" stroke-width="1" fill="#000" fill-rule="evenodd">
        <g id="Veterans-Crisis-Line" transform="translate(-20.000000, -414.000000)">
            <g id="Buttons/chat" transform="translate(20.000000, 414.000000)">
                <g id="Group-4">
                    <g id="Group-2" fill="#000">
                        <g id="Group">
                            <g id="Group-3">
                                <circle id="Oval" cx="12.5" cy="12.5" r="12.5"></circle>
                            </g>
                        </g>
                    </g>
                    <g id="comments-solid-(1)" transform="translate(6.000000, 7.000000)" fill="#FFFFFF" fill-rule="nonzero">
                        <path d="M9.38888889,3.61111111 C9.38888889,1.61597222 7.28767361,-6.41462192e-16 4.69444444,-6.41462192e-16 C2.10121528,-6.41462192e-16 0,1.61597222 0,3.61111111 C0,4.38524306 0.318229167,5.0984375 0.857638889,5.6875 C0.555208333,6.36909722 0.0564236111,6.91076389 0.0496527778,6.91753472 C0,6.96944444 -0.0135416667,7.04618056 0.0157986111,7.11388889 C0.0451388889,7.18159722 0.108333333,7.22222222 0.180555556,7.22222222 C1.00659722,7.22222222 1.69045139,6.94461806 2.18246528,6.65798611 C2.90920139,7.01232639 3.76909722,7.22222222 4.69444444,7.22222222 C7.28767361,7.22222222 9.38888889,5.60625 9.38888889,3.61111111 Z M12.1423611,8.57638889 C12.6817708,7.98958333 13,7.27413194 13,6.5 C13,4.99010417 11.7925347,3.696875 10.0817708,3.15746528 C10.1020833,3.30642361 10.1111111,3.45763889 10.1111111,3.61111111 C10.1111111,6.00121528 7.68038194,7.94444444 4.69444444,7.94444444 C4.45069444,7.94444444 4.21371528,7.92638889 3.97899306,7.9015625 C4.68993056,9.19930556 6.36006944,10.1111111 8.30555556,10.1111111 C9.23090278,10.1111111 10.0907986,9.90347222 10.8175347,9.546875 C11.3095486,9.83350694 11.9934028,10.1111111 12.8194444,10.1111111 C12.8916667,10.1111111 12.9571181,10.0682292 12.9842014,10.0027778 C13.0135417,9.93732639 13,9.86059028 12.9503472,9.80642361 C12.9435764,9.79965278 12.4447917,9.26024306 12.1423611,8.57638889 Z" id="Shape"></path>
                    </g>
                </g>
            </g>
        </g>
    </g>
</svg>
