<svg width="24" height="24" viewBox="0 0 24 24" fill="none" color="#fff" xmlns="http://www.w3.org/2000/svg">
    <path fill-rule="evenodd" clip-rule="evenodd"
        d="M12 24C18.6274 24 24 18.6274 24 12C24 5.37258 18.6274 0 12 0C5.37258 0 0 5.37258 0 12C0 18.6274 5.37258 24 12 24ZM15.0327 13.3546L17.6578 14.4796C17.7792 14.5324 17.8784 14.6259 17.9383 14.744C17.9983 14.8621 18.0152 14.9973 17.9861 15.1265L17.4236 17.564C17.395 17.688 17.3252 17.7987 17.2256 17.8778C17.126 17.957 17.0024 18.0001 16.8752 18C10.8727 18 6 13.1366 6 7.12481C5.99997 6.9976 6.04306 6.87414 6.12224 6.77457C6.20141 6.675 6.312 6.60522 6.43595 6.57659L8.87349 6.01408C9.00205 5.98486 9.13677 6.00142 9.25444 6.06089C9.3721 6.12036 9.46532 6.21903 9.51803 6.33987L10.643 8.96492C10.6911 9.07702 10.7013 9.20172 10.6721 9.32013C10.6429 9.43854 10.5759 9.54423 10.4813 9.62118L9.06099 10.7837C9.92121 12.6082 11.3895 14.0764 13.214 14.9367L14.3765 13.5163C14.4536 13.4219 14.5592 13.3551 14.6776 13.3259C14.796 13.2967 14.9206 13.3068 15.0327 13.3546Z"
        fill="#000" />
    <path
        d="M17.6578 14.4796L15.0327 13.3546C14.9206 13.3068 14.796 13.2967 14.6776 13.3259C14.5592 13.3551 14.4536 13.4219 14.3765 13.5163L13.214 14.9367C11.3895 14.0764 9.92121 12.6082 9.06099 10.7837L10.4813 9.62118C10.5759 9.54423 10.6429 9.43854 10.6721 9.32013C10.7013 9.20172 10.6911 9.07702 10.643 8.96492L9.51803 6.33987C9.46532 6.21903 9.3721 6.12036 9.25444 6.06089C9.13677 6.00142 9.00205 5.98486 8.87349 6.01408L6.43595 6.57659C6.312 6.60522 6.20141 6.67501 6.12224 6.77457C6.04306 6.87414 5.99997 6.9976 6 7.12481C6 13.1366 10.8727 18 16.8752 18C17.0024 18.0001 17.126 17.957 17.2256 17.8778C17.3252 17.7987 17.395 17.688 17.4236 17.564L17.9861 15.1265C18.0152 14.9973 17.9983 14.8621 17.9383 14.744C17.8784 14.6259 17.7792 14.5324 17.6578 14.4796Z"
        fill="currentColor" />
</svg>