<svg width="24" height="24" viewBox="0 0 24 24" fill="none" color="#fff" xmlns="http://www.w3.org/2000/svg">
    <path fill-rule="evenodd" clip-rule="evenodd"
        d="M12 24C18.6274 24 24 18.6274 24 12C24 5.37258 18.6274 0 12 0C5.37258 0 0 5.37258 0 12C0 18.6274 5.37258 24 12 24ZM15.375 13.5H16.125C16.2245 13.5 16.3198 13.5395 16.3902 13.6098C16.4605 13.6802 16.5 13.7755 16.5 13.875V16.875C16.5 17.1734 16.3815 17.4595 16.1705 17.6705C15.9595 17.8815 15.6734 18 15.375 18H7.125C6.82663 18 6.54048 17.8815 6.3295 17.6705C6.11853 17.4595 6 17.1734 6 16.875V8.625C6 8.32663 6.11853 8.04048 6.3295 7.8295C6.54048 7.61853 6.82663 7.5 7.125 7.5H10.875C10.9745 7.5 11.0698 7.53951 11.1402 7.60984C11.2105 7.68016 11.25 7.77554 11.25 7.875V8.625C11.25 8.72446 11.2105 8.81984 11.1402 8.89017C11.0698 8.96049 10.9745 9 10.875 9H7.5V16.5H15V13.875C15 13.7755 15.0395 13.6802 15.1098 13.6098C15.1802 13.5395 15.2755 13.5 15.375 13.5ZM14.4375 6H17.4375C17.5867 6 17.7298 6.05926 17.8352 6.16475C17.9407 6.27024 18 6.41332 18 6.5625V9.5625C18 10.0664 17.3906 10.3125 17.0391 9.96094L16.2019 9.12469L10.4923 14.8359C10.44 14.8884 10.3779 14.93 10.3095 14.9584C10.2412 14.9868 10.1679 15.0014 10.0938 15.0014C10.0198 15.0014 9.94649 14.9868 9.87812 14.9584C9.80974 14.93 9.74765 14.8884 9.69539 14.8359L9.16406 14.3055C9.11162 14.2533 9.07001 14.1912 9.04162 14.1228C9.01323 14.0544 8.99862 13.9811 8.99862 13.9071C8.99862 13.8331 9.01323 13.7598 9.04162 13.6914C9.07001 13.623 9.11162 13.5609 9.16406 13.5087L14.8765 7.79836L14.0391 6.96094C13.6863 6.60727 13.9366 6 14.4375 6Z"
        fill="#000" />
    <path
        d="M16.125 13.5H15.375C15.2755 13.5 15.1802 13.5395 15.1098 13.6098C15.0395 13.6802 15 13.7755 15 13.875V16.5H7.5V9H10.875C10.9745 9 11.0698 8.96049 11.1402 8.89016C11.2105 8.81984 11.25 8.72446 11.25 8.625V7.875C11.25 7.77554 11.2105 7.68016 11.1402 7.60984C11.0698 7.53951 10.9745 7.5 10.875 7.5H7.125C6.82663 7.5 6.54048 7.61853 6.3295 7.8295C6.11853 8.04048 6 8.32663 6 8.625V16.875C6 17.1734 6.11853 17.4595 6.3295 17.6705C6.54048 17.8815 6.82663 18 7.125 18H15.375C15.6734 18 15.9595 17.8815 16.1705 17.6705C16.3815 17.4595 16.5 17.1734 16.5 16.875V13.875C16.5 13.7755 16.4605 13.6802 16.3902 13.6098C16.3198 13.5395 16.2245 13.5 16.125 13.5ZM17.4375 6H14.4375C13.9366 6 13.6863 6.60727 14.0391 6.96094L14.8765 7.79836L9.16406 13.5087C9.11162 13.5609 9.07001 13.623 9.04162 13.6914C9.01323 13.7598 8.99862 13.8331 8.99862 13.9071C8.99862 13.9811 9.01323 14.0544 9.04162 14.1228C9.07001 14.1912 9.11162 14.2533 9.16406 14.3055L9.69539 14.8359C9.74765 14.8884 9.80974 14.93 9.87812 14.9584C9.94649 14.9868 10.0198 15.0014 10.0938 15.0014C10.1679 15.0014 10.2412 14.9868 10.3095 14.9584C10.3779 14.93 10.44 14.8884 10.4923 14.8359L16.2019 9.12469L17.0391 9.96094C17.3906 10.3125 18 10.0664 18 9.5625V6.5625C18 6.41332 17.9407 6.27024 17.8352 6.16475C17.7298 6.05926 17.5867 6 17.4375 6Z"
        fill="currentColor" />
</svg>