<svg width="32" height="32" viewBox="0 0 32 32" fill="none" xmlns="http://www.w3.org/2000/svg">
<rect width="32" height="32" rx="16" fill="#000"/>
<path fill-rule="evenodd" clip-rule="evenodd" d="M21.041 17.8333H20.1243C19.8712 17.8333 19.666 18.0385 19.666 18.2916V21.5H10.4993V12.3333H14.6243C14.8775 12.3333 15.0827 12.1281 15.0827 11.875V10.9583C15.0827 10.7052 14.8775 10.5 14.6243 10.5H10.041C9.28162 10.5 8.66602 11.1156 8.66602 11.875V21.9583C8.66602 22.7177 9.28162 23.3333 10.041 23.3333H20.1243C20.8837 23.3333 21.4993 22.7177 21.4993 21.9583V18.2916C21.4993 18.0385 21.2941 17.8333 21.041 17.8333ZM22.6452 8.66663H18.9785C18.3664 8.66663 18.0604 9.40884 18.4915 9.84111L19.5151 10.8646L12.5332 17.8439C12.4038 17.9729 12.331 18.1481 12.331 18.3309C12.331 18.5136 12.4038 18.6889 12.5332 18.8179L13.1826 19.4661C13.3116 19.5956 13.4868 19.6683 13.6696 19.6683C13.8523 19.6683 14.0276 19.5956 14.1566 19.4661L21.135 12.4857L22.1582 13.5078C22.5879 13.9375 23.3327 13.6367 23.3327 13.0208V9.35413C23.3327 8.97443 23.0249 8.66663 22.6452 8.66663Z" fill="white"/>
</svg>
