<svg width="24" height="24" viewBox="0 0 24 24" fill="none" color="#fff" xmlns="http://www.w3.org/2000/svg">
    <path fill-rule="evenodd" clip-rule="evenodd"
        d="M12 24C18.6274 24 24 18.6274 24 12C24 5.37258 18.6274 0 12 0C5.37258 0 0 5.37258 0 12C0 18.6274 5.37258 24 12 24ZM12.62 5.25675L18.743 11.3798C19.0854 11.7224 19.0854 12.2774 18.743 12.62L12.62 18.743C12.2774 19.0857 11.7221 19.0857 11.3798 18.743L5.25675 12.62C4.91442 12.2774 4.91442 11.7224 5.25675 11.3798L11.3798 5.25675C11.7224 4.91442 12.2777 4.91442 12.62 5.25675ZM13.6793 13.8486L15.9819 11.7232C16.0757 11.6365 16.0757 11.4883 15.9819 11.4016L13.6793 9.27623C13.5391 9.14689 13.3121 9.24642 13.3121 9.43701V10.9062H10.2497C9.76649 10.9062 9.37466 11.298 9.37466 11.7812V13.9686C9.37466 14.0895 9.47255 14.1874 9.59341 14.1874H10.4684C10.5893 14.1874 10.6871 14.0895 10.6871 13.9686V12.2186H13.3121V13.6878C13.3121 13.8787 13.5393 13.9779 13.6793 13.8486Z"
        fill="#000" />
    <path
        d="M18.743 11.3798L12.62 5.25675C12.2777 4.91442 11.7224 4.91442 11.3798 5.25675L5.25675 11.3798C4.91442 11.7224 4.91442 12.2774 5.25675 12.62L11.3798 18.743C11.7221 19.0857 12.2774 19.0857 12.62 18.743L18.743 12.62C19.0854 12.2774 19.0854 11.7224 18.743 11.3798ZM15.9819 11.7232L13.6793 13.8486C13.5393 13.9779 13.3121 13.8787 13.3121 13.6878V12.2186H10.6871V13.9686C10.6871 14.0895 10.5893 14.1874 10.4684 14.1874H9.59341C9.47255 14.1874 9.37466 14.0895 9.37466 13.9686V11.7812C9.37466 11.298 9.76649 10.9062 10.2497 10.9062H13.3121V9.43701C13.3121 9.24642 13.5391 9.14689 13.6793 9.27623L15.9819 11.4016C16.0757 11.4883 16.0757 11.6365 15.9819 11.7232Z"
        fill="currentColor" />
</svg>