<?xml version="1.0" encoding="UTF-8"?>
<svg width="25px" height="25px" viewBox="0 0 25 25" version="1.1" xmlns="http://www.w3.org/2000/svg" xmlns:xlink="http://www.w3.org/1999/xlink">
    <!-- Generator: Sketch 64 (93537) - https://sketch.com -->
    <title>Group 4</title>
    <desc>Created with Sketch.</desc>
    <g id="Symbols" stroke="none" stroke-width="1" fill="none" fill-rule="evenodd">
        <g id="Buttons/directions" transform="translate(0.000000, -10.000000)">
            <g id="Group-4" transform="translate(0.000000, 10.000000)">
                <g id="Group-2" fill="#000">
                    <g id="Group">
                        <g id="Group-3">
                            <circle id="Oval" cx="12.5" cy="12.5" r="12.5"/>
                        </g>
                    </g>
                </g>
                <g id="road-solid" transform="translate(6.000000, 8.000000)" fill="#fff">
                    <g id="Shape">
                        <path d="M13.2649802,7.83762344 L10.0299328,0.432067882 C9.91491604,0.168707813 9.66428607,0 9.3884311,0 L7.12998429,0 L7.18668266,0.535977083 C7.19825376,0.645209028 7.11239622,0.740555556 7.00247079,0.740555556 L6.32764438,0.740555556 C6.21771896,0.740555556 6.13186141,0.645209028 6.14343251,0.535977083 L6.20013089,0 L3.94168407,0 C3.66559768,0 3.41496771,0.168707813 3.299951,0.432067882 L0.0649035511,7.83762344 C-0.149161753,8.32801007 0.192417046,8.88666667 0.706868043,8.88666667 L5.26217772,8.88666667 L5.50077375,6.62612083 C5.52067604,6.43774201 5.6794315,6.29472222 5.86896608,6.29472222 L7.4611491,6.29472222 C7.65068368,6.29472222 7.80943913,6.43774201 7.82934142,6.62612083 L8.06793745,8.88666667 L12.6232471,8.88666667 C13.1376981,8.88666667 13.4792769,8.32801007 13.2649802,7.83762344 Z M6.026333,1.64681042 C6.03628286,1.55257288 6.11578421,1.4810611 6.21054488,1.48111108 L7.11980172,1.48111108 C7.2144533,1.48111108 7.29406245,1.55262101 7.30401359,1.64681042 L7.41046769,2.65535451 C7.42782434,2.81943385 7.29915373,2.96222222 7.1343813,2.96222222 L6.19619672,2.96222222 C6.03119286,2.96222222 5.90275368,2.81943385 5.92011033,2.65535451 L6.026333,1.64681042 L6.026333,1.64681042 Z M7.30470786,5.55416667 L6.02517589,5.55416667 C5.80532504,5.55416667 5.63384137,5.36370503 5.65698357,5.14500972 L5.7743145,4.03417639 C5.79421679,3.84579757 5.95297224,3.70277778 6.14250682,3.70277778 L7.18737693,3.70277778 C7.37691151,3.70277778 7.53566697,3.84579757 7.55556925,4.03417639 L7.67290018,5.14500972 C7.69604238,5.36370503 7.52455871,5.55416667 7.30470786,5.55416667 L7.30470786,5.55416667 Z" fill-rule="nonzero"/>
                    </g>
                </g>
            </g>
        </g>
    </g>
</svg>
