<svg width="24" height="24" viewBox="0 0 24 24" fill="none" xmlns="http://www.w3.org/2000/svg">
    <path fill-rule="evenodd" clip-rule="evenodd"
        d="M12 24C18.6274 24 24 18.6274 24 12C24 5.37258 18.6274 0 12 0C5.37258 0 0 5.37258 0 12C0 18.6274 5.37258 24 12 24ZM18.8532 7.83888C15.0709 4.05652 8.93481 4.05089 5.14683 7.83888C5.06667 7.91903 5.01605 8.02399 5.00322 8.13662C4.99039 8.24925 5.01612 8.36291 5.0762 8.45903L6.25775 10.3496C6.32006 10.4492 6.41541 10.5239 6.52715 10.5604C6.63889 10.5969 6.7599 10.593 6.86905 10.5493L9.23218 9.60408C9.33313 9.56372 9.41822 9.49162 9.47461 9.39867C9.53101 9.30571 9.55565 9.19694 9.54483 9.08876L9.38205 7.46093C11.0458 6.85975 12.9186 6.84696 14.6179 7.46093L14.4552 9.08873C14.4444 9.19691 14.469 9.30568 14.5254 9.39863C14.5818 9.49157 14.6669 9.56367 14.7678 9.60405L17.1309 10.5493C17.2401 10.593 17.3611 10.5969 17.4728 10.5604C17.5846 10.5239 17.6799 10.4492 17.7422 10.3496L18.9238 8.45906C19.0466 8.2626 19.0194 8.00507 18.8532 7.83888ZM7.62499 12.3281V13.4219C7.62499 13.6031 7.47808 13.75 7.29687 13.75H6.20312C6.02191 13.75 5.87499 13.6031 5.87499 13.4219V12.3281C5.87499 12.1469 6.02191 12 6.20312 12H7.29687C7.47808 12 7.62499 12.1469 7.62499 12.3281ZM10.25 12.3281V13.4219C10.25 13.6031 10.1031 13.75 9.92187 13.75H8.82812C8.64691 13.75 8.49999 13.6031 8.49999 13.4219V12.3281C8.49999 12.1469 8.64691 12 8.82812 12H9.92187C10.1031 12 10.25 12.1469 10.25 12.3281ZM12.875 12.3281V13.4219C12.875 13.6031 12.7281 13.75 12.5469 13.75H11.4531C11.2719 13.75 11.125 13.6031 11.125 13.4219V12.3281C11.125 12.1469 11.2719 12 11.4531 12H12.5469C12.7281 12 12.875 12.1469 12.875 12.3281ZM15.5 12.3281V13.4219C15.5 13.6031 15.3531 13.75 15.1719 13.75H14.0781C13.8969 13.75 13.75 13.6031 13.75 13.4219V12.3281C13.75 12.1469 13.8969 12 14.0781 12H15.1719C15.3531 12 15.5 12.1469 15.5 12.3281ZM18.125 12.3281V13.4219C18.125 13.6031 17.9781 13.75 17.7969 13.75H16.7031C16.5219 13.75 16.375 13.6031 16.375 13.4219V12.3281C16.375 12.1469 16.5219 12 16.7031 12H17.7969C17.9781 12 18.125 12.1469 18.125 12.3281ZM8.93749 14.9531V16.0469C8.93749 16.2281 8.79058 16.375 8.60937 16.375H7.51562C7.33441 16.375 7.18749 16.2281 7.18749 16.0469V14.9531C7.18749 14.7719 7.33441 14.625 7.51562 14.625H8.60937C8.79058 14.625 8.93749 14.7719 8.93749 14.9531ZM11.5625 14.9531V16.0469C11.5625 16.2281 11.4156 16.375 11.2344 16.375H10.1406C9.95941 16.375 9.81249 16.2281 9.81249 16.0469V14.9531C9.81249 14.7719 9.95941 14.625 10.1406 14.625H11.2344C11.4156 14.625 11.5625 14.7719 11.5625 14.9531ZM14.1875 14.9531V16.0469C14.1875 16.2281 14.0406 16.375 13.8594 16.375H12.7656C12.5844 16.375 12.4375 16.2281 12.4375 16.0469V14.9531C12.4375 14.7719 12.5844 14.625 12.7656 14.625H13.8594C14.0406 14.625 14.1875 14.7719 14.1875 14.9531ZM16.8125 14.9531V16.0469C16.8125 16.2281 16.6656 16.375 16.4844 16.375H15.3906C15.2094 16.375 15.0625 16.2281 15.0625 16.0469V14.9531C15.0625 14.7719 15.2094 14.625 15.3906 14.625H16.4844C16.6656 14.625 16.8125 14.7719 16.8125 14.9531ZM7.62499 17.5781V18.6719C7.62499 18.8531 7.47808 19 7.29687 19H6.20312C6.02191 19 5.87499 18.8531 5.87499 18.6719V17.5781C5.87499 17.3969 6.02191 17.25 6.20312 17.25H7.29687C7.47808 17.25 7.62499 17.3969 7.62499 17.5781ZM15.5 17.5781V18.6719C15.5 18.8531 15.3531 19 15.1719 19H8.82812C8.64691 19 8.49999 18.8531 8.49999 18.6719V17.5781C8.49999 17.3969 8.64691 17.25 8.82812 17.25H15.1719C15.3531 17.25 15.5 17.3969 15.5 17.5781ZM18.125 17.5781V18.6719C18.125 18.8531 17.9781 19 17.7969 19H16.7031C16.5219 19 16.375 18.8531 16.375 18.6719V17.5781C16.375 17.3969 16.5219 17.25 16.7031 17.25H17.7969C17.9781 17.25 18.125 17.3969 18.125 17.5781Z"
        fill="#000" />
    <path
        d="M5.14683 7.83888C8.93481 4.05089 15.0709 4.05652 18.8532 7.83888C19.0194 8.00507 19.0466 8.2626 18.9238 8.45906L17.7422 10.3496C17.6799 10.4492 17.5846 10.5239 17.4728 10.5604C17.3611 10.5969 17.2401 10.593 17.1309 10.5493L14.7678 9.60405C14.6669 9.56367 14.5818 9.49157 14.5254 9.39862C14.469 9.30568 14.4444 9.19691 14.4552 9.08873L14.6179 7.46093C12.9186 6.84696 11.0458 6.85975 9.38205 7.46093L9.54483 9.08876C9.55565 9.19694 9.53101 9.30571 9.47461 9.39867C9.41822 9.49162 9.33313 9.56372 9.23218 9.60408L6.86905 10.5493C6.7599 10.593 6.63889 10.5969 6.52715 10.5604C6.41541 10.5239 6.32006 10.4492 6.25775 10.3496L5.0762 8.45903C5.01612 8.36291 4.99039 8.24925 5.00322 8.13662C5.01605 8.02399 5.06667 7.91903 5.14683 7.83888ZM7.62499 13.4219V12.3281C7.62499 12.1469 7.47808 12 7.29687 12H6.20312C6.02191 12 5.87499 12.1469 5.87499 12.3281V13.4219C5.87499 13.6031 6.02191 13.75 6.20312 13.75H7.29687C7.47808 13.75 7.62499 13.6031 7.62499 13.4219ZM10.25 13.4219V12.3281C10.25 12.1469 10.1031 12 9.92187 12H8.82812C8.64691 12 8.49999 12.1469 8.49999 12.3281V13.4219C8.49999 13.6031 8.64691 13.75 8.82812 13.75H9.92187C10.1031 13.75 10.25 13.6031 10.25 13.4219ZM12.875 13.4219V12.3281C12.875 12.1469 12.7281 12 12.5469 12H11.4531C11.2719 12 11.125 12.1469 11.125 12.3281V13.4219C11.125 13.6031 11.2719 13.75 11.4531 13.75H12.5469C12.7281 13.75 12.875 13.6031 12.875 13.4219ZM15.5 13.4219V12.3281C15.5 12.1469 15.3531 12 15.1719 12H14.0781C13.8969 12 13.75 12.1469 13.75 12.3281V13.4219C13.75 13.6031 13.8969 13.75 14.0781 13.75H15.1719C15.3531 13.75 15.5 13.6031 15.5 13.4219ZM18.125 13.4219V12.3281C18.125 12.1469 17.9781 12 17.7969 12H16.7031C16.5219 12 16.375 12.1469 16.375 12.3281V13.4219C16.375 13.6031 16.5219 13.75 16.7031 13.75H17.7969C17.9781 13.75 18.125 13.6031 18.125 13.4219ZM8.93749 16.0469V14.9531C8.93749 14.7719 8.79058 14.625 8.60937 14.625H7.51562C7.33441 14.625 7.18749 14.7719 7.18749 14.9531V16.0469C7.18749 16.2281 7.33441 16.375 7.51562 16.375H8.60937C8.79058 16.375 8.93749 16.2281 8.93749 16.0469ZM11.5625 16.0469V14.9531C11.5625 14.7719 11.4156 14.625 11.2344 14.625H10.1406C9.95941 14.625 9.81249 14.7719 9.81249 14.9531V16.0469C9.81249 16.2281 9.95941 16.375 10.1406 16.375H11.2344C11.4156 16.375 11.5625 16.2281 11.5625 16.0469ZM14.1875 16.0469V14.9531C14.1875 14.7719 14.0406 14.625 13.8594 14.625H12.7656C12.5844 14.625 12.4375 14.7719 12.4375 14.9531V16.0469C12.4375 16.2281 12.5844 16.375 12.7656 16.375H13.8594C14.0406 16.375 14.1875 16.2281 14.1875 16.0469ZM16.8125 16.0469V14.9531C16.8125 14.7719 16.6656 14.625 16.4844 14.625H15.3906C15.2094 14.625 15.0625 14.7719 15.0625 14.9531V16.0469C15.0625 16.2281 15.2094 16.375 15.3906 16.375H16.4844C16.6656 16.375 16.8125 16.2281 16.8125 16.0469ZM7.62499 18.6719V17.5781C7.62499 17.3969 7.47808 17.25 7.29687 17.25H6.20312C6.02191 17.25 5.87499 17.3969 5.87499 17.5781V18.6719C5.87499 18.8531 6.02191 19 6.20312 19H7.29687C7.47808 19 7.62499 18.8531 7.62499 18.6719ZM15.5 18.6719V17.5781C15.5 17.3969 15.3531 17.25 15.1719 17.25H8.82812C8.64691 17.25 8.49999 17.3969 8.49999 17.5781V18.6719C8.49999 18.8531 8.64691 19 8.82812 19H15.1719C15.3531 19 15.5 18.8531 15.5 18.6719ZM18.125 18.6719V17.5781C18.125 17.3969 17.9781 17.25 17.7969 17.25H16.7031C16.5219 17.25 16.375 17.3969 16.375 17.5781V18.6719C16.375 18.8531 16.5219 19 16.7031 19H17.7969C17.9781 19 18.125 18.8531 18.125 18.6719Z"
        fill="white" />
</svg>