<svg width="24" height="24" viewBox="0 0 24 24" fill="none" color="#fff" xmlns="http://www.w3.org/2000/svg">
    <path fill-rule="evenodd" clip-rule="evenodd"
        d="M12 24C18.6274 24 24 18.6274 24 12C24 5.37258 18.6274 0 12 0C5.37258 0 0 5.37258 0 12C0 18.6274 5.37258 24 12 24ZM4.19954 9.94537L4.95139 11.2644V11.2611C5.19444 11.6889 5.70648 11.8866 6.17639 11.7343L8.80787 10.8722C9.23241 10.7329 9.52083 10.3343 9.52083 9.88704V8.11111C11.1282 7.52454 12.8912 7.52454 14.4986 8.11111V9.89028C14.4986 10.3375 14.787 10.7361 15.2116 10.8755L17.8398 11.7375C18.3097 11.8898 18.8218 11.6921 19.0648 11.2644L19.8134 9.94537C20.1116 9.42037 20.0856 8.7625 19.6676 8.325C18.313 6.90556 15.6134 5 12.0065 5C8.39954 5 5.7 6.90556 4.34537 8.325C3.92731 8.7625 3.90139 9.42037 4.19954 9.94537ZM5.26574 13.8148C4.98055 13.8148 4.74722 14.0481 4.74722 14.3333V15.3704C4.74722 15.6556 4.98055 15.8889 5.26574 15.8889H6.30278C6.58796 15.8889 6.8213 15.6556 6.8213 15.3704V14.3333C6.8213 14.0481 6.58796 13.8148 6.30278 13.8148H5.26574ZM5.26574 16.9259C4.98055 16.9259 4.74722 17.1593 4.74722 17.4444V18.4815C4.74722 18.7667 4.98055 19 5.26574 19H6.30278C6.58796 19 6.8213 18.7667 6.8213 18.4815V17.4444C6.8213 17.1593 6.58796 16.9259 6.30278 16.9259H5.26574ZM9.41389 13.8148H8.37685C8.09167 13.8148 7.85833 14.0481 7.85833 14.3333V15.3704C7.85833 15.6556 8.09167 15.8889 8.37685 15.8889H9.41389C9.69907 15.8889 9.93241 15.6556 9.93241 15.3704V14.3333C9.93241 14.0481 9.69907 13.8148 9.41389 13.8148ZM11.488 13.8148C11.2028 13.8148 10.9694 14.0481 10.9694 14.3333V15.3704C10.9694 15.6556 11.2028 15.8889 11.488 15.8889H12.525C12.8102 15.8889 13.0435 15.6556 13.0435 15.3704V14.3333C13.0435 14.0481 12.8102 13.8148 12.525 13.8148H11.488ZM15.6361 13.8148H14.5991C14.3139 13.8148 14.0806 14.0481 14.0806 14.3333V15.3704C14.0806 15.6556 14.3139 15.8889 14.5991 15.8889H15.6361C15.9213 15.8889 16.1546 15.6556 16.1546 15.3704V14.3333C16.1546 14.0481 15.9213 13.8148 15.6361 13.8148ZM17.7102 13.8148C17.425 13.8148 17.1917 14.0481 17.1917 14.3333V15.3704C17.1917 15.6556 17.425 15.8889 17.7102 15.8889H18.7472C19.0324 15.8889 19.2657 15.6556 19.2657 15.3704V14.3333C19.2657 14.0481 19.0324 13.8148 18.7472 13.8148H17.7102ZM18.7472 16.9259H17.7102C17.425 16.9259 17.1917 17.1593 17.1917 17.4444V18.4815C17.1917 18.7667 17.425 19 17.7102 19H18.7472C19.0324 19 19.2657 18.7667 19.2657 18.4815V17.4444C19.2657 17.1593 19.0324 16.9259 18.7472 16.9259ZM8.37685 16.9259C8.09167 16.9259 7.85833 17.1593 7.85833 17.4444V18.4815C7.85833 18.7667 8.09167 19 8.37685 19H15.6361C15.9213 19 16.1546 18.7667 16.1546 18.4815V17.4444C16.1546 17.1593 15.9213 16.9259 15.6361 16.9259H8.37685Z"
        fill="#000" />
    <path
        d="M4.95139 11.2644L4.19954 9.94537C3.90139 9.42037 3.92731 8.7625 4.34537 8.325C5.7 6.90556 8.39954 5 12.0065 5C15.6134 5 18.313 6.90556 19.6676 8.325C20.0856 8.7625 20.1116 9.42037 19.8134 9.94537L19.0648 11.2644C18.8218 11.6921 18.3097 11.8898 17.8398 11.7375L15.2116 10.8755C14.787 10.7361 14.4986 10.3375 14.4986 9.89028V8.11111C12.8912 7.52454 11.1282 7.52454 9.52083 8.11111V9.88704C9.52083 10.3343 9.23241 10.7329 8.80787 10.8722L6.17639 11.7343C5.70648 11.8866 5.19444 11.6889 4.95139 11.2611V11.2644ZM4.74722 14.3333C4.74722 14.0481 4.98055 13.8148 5.26574 13.8148H6.30278C6.58796 13.8148 6.8213 14.0481 6.8213 14.3333V15.3704C6.8213 15.6556 6.58796 15.8889 6.30278 15.8889H5.26574C4.98055 15.8889 4.74722 15.6556 4.74722 15.3704V14.3333ZM4.74722 17.4444C4.74722 17.1593 4.98055 16.9259 5.26574 16.9259H6.30278C6.58796 16.9259 6.8213 17.1593 6.8213 17.4444V18.4815C6.8213 18.7667 6.58796 19 6.30278 19H5.26574C4.98055 19 4.74722 18.7667 4.74722 18.4815V17.4444ZM8.37685 13.8148H9.41389C9.69907 13.8148 9.93241 14.0481 9.93241 14.3333V15.3704C9.93241 15.6556 9.69907 15.8889 9.41389 15.8889H8.37685C8.09167 15.8889 7.85833 15.6556 7.85833 15.3704V14.3333C7.85833 14.0481 8.09167 13.8148 8.37685 13.8148ZM10.9694 14.3333C10.9694 14.0481 11.2028 13.8148 11.488 13.8148H12.525C12.8102 13.8148 13.0435 14.0481 13.0435 14.3333V15.3704C13.0435 15.6556 12.8102 15.8889 12.525 15.8889H11.488C11.2028 15.8889 10.9694 15.6556 10.9694 15.3704V14.3333ZM14.5991 13.8148H15.6361C15.9213 13.8148 16.1546 14.0481 16.1546 14.3333V15.3704C16.1546 15.6556 15.9213 15.8889 15.6361 15.8889H14.5991C14.3139 15.8889 14.0806 15.6556 14.0806 15.3704V14.3333C14.0806 14.0481 14.3139 13.8148 14.5991 13.8148ZM17.1917 14.3333C17.1917 14.0481 17.425 13.8148 17.7102 13.8148H18.7472C19.0324 13.8148 19.2657 14.0481 19.2657 14.3333V15.3704C19.2657 15.6556 19.0324 15.8889 18.7472 15.8889H17.7102C17.425 15.8889 17.1917 15.6556 17.1917 15.3704V14.3333ZM17.7102 16.9259H18.7472C19.0324 16.9259 19.2657 17.1593 19.2657 17.4444V18.4815C19.2657 18.7667 19.0324 19 18.7472 19H17.7102C17.425 19 17.1917 18.7667 17.1917 18.4815V17.4444C17.1917 17.1593 17.425 16.9259 17.7102 16.9259ZM7.85833 17.4444C7.85833 17.1593 8.09167 16.9259 8.37685 16.9259H15.6361C15.9213 16.9259 16.1546 17.1593 16.1546 17.4444V18.4815C16.1546 18.7667 15.9213 19 15.6361 19H8.37685C8.09167 19 7.85833 18.7667 7.85833 18.4815V17.4444Z"
        fill="currentColor" />
</svg>