<?xml version="1.0" encoding="UTF-8"?>
<svg width="25px" height="25px" viewBox="0 0 25 25" version="1.1" xmlns="http://www.w3.org/2000/svg" xmlns:xlink="http://www.w3.org/1999/xlink">
    <!-- Generator: Sketch 64 (93537) - https://sketch.com -->
    <title>Group 2</title>
    <desc>Created with Sketch.</desc>
    <g id="Symbols" stroke="#00F" stroke-width="1" fill="#000" fill-rule="evenodd">
        <g id="Buttons/phone-call" transform="translate(0.000000, -10.000000)">
            <g id="Group-2" transform="translate(0.000000, 10.000000)">
                <g id="Group">
                    <g id="Group-3">
                        <circle id="Oval" fill="#000" cx="12.5" cy="12.5" r="12.5"></circle>
                        <g id="phone-solid" transform="translate(6.428571, 6.428571) rotate(90, 6.428571, 6.428571)" fill="#FFFFFF" fill-rule="nonzero">
                            <path d="M12.3909774,0.64160401 L9.78446115,0.0401002506 C9.50125313,-0.0250626566 9.21052632,0.122807018 9.0952381,0.388471178 L7.89223058,3.19548872 C7.78696742,3.44110276 7.85714286,3.72932331 8.06516291,3.89724311 L9.5839599,5.14035088 C8.68170426,7.06265664 7.10526316,8.66165414 5.14285714,9.58145363 L3.89974937,8.06265664 C3.72932331,7.85463659 3.44360902,7.78446115 3.19799499,7.88972431 L0.390977444,9.09273183 C0.122807018,9.21052632 -0.0250626566,9.50125313 0.0401002506,9.78446115 L0.64160401,12.3909774 C0.704260652,12.6616541 0.944862155,12.8571429 1.22807018,12.8571429 C7.64661654,12.8571429 12.8571429,7.6566416 12.8571429,1.22807018 C12.8571429,0.947368421 12.6641604,0.704260652 12.3909774,0.64160401 Z" id="Path"></path>
                        </g>
                    </g>
                </g>
            </g>
        </g>
    </g>
</svg>
