<svg width="24" height="24" viewBox="0 0 24 24" fill="none" color="#fff" xmlns="http://www.w3.org/2000/svg">
    <path fill-rule="evenodd" clip-rule="evenodd"
        d="M12 24C18.6274 24 24 18.6274 24 12C24 5.37258 18.6274 0 12 0C5.37258 0 0 5.37258 0 12C0 18.6274 5.37258 24 12 24ZM11.816 6.19277L11.209 6.7998C10.9465 7.05957 10.952 7.4834 11.2199 7.7377L14.5148 10.8768H6.65625C6.29258 10.8768 6 11.1693 6 11.533V12.408C6 12.7717 6.29258 13.0643 6.65625 13.0643H14.5148L11.2199 16.2033C10.9547 16.4576 10.9492 16.8814 11.209 17.1412L11.816 17.7482C12.0703 18.0053 12.4859 18.0053 12.743 17.7482L18.0586 12.4326C18.3156 12.1783 18.3156 11.7627 18.0586 11.5057L12.743 6.19277C12.4887 5.93574 12.073 5.93574 11.816 6.19277Z"
        fill="#000" />
    <path
        d="M11.209 6.7998L11.816 6.19277C12.073 5.93574 12.4887 5.93574 12.743 6.19277L18.0586 11.5057C18.3156 11.7627 18.3156 12.1783 18.0586 12.4326L12.743 17.7482C12.4859 18.0053 12.0703 18.0053 11.816 17.7482L11.209 17.1412C10.9492 16.8814 10.9547 16.4576 11.2199 16.2033L14.5148 13.0643H6.65625C6.29258 13.0643 6 12.7717 6 12.408V11.533C6 11.1693 6.29258 10.8768 6.65625 10.8768H14.5148L11.2199 7.7377C10.952 7.4834 10.9465 7.05957 11.209 6.7998Z"
        fill="currentColor" />
</svg>