<svg width="24" height="24" viewBox="0 0 24 24" fill="none" color="#fff" xmlns="http://www.w3.org/2000/svg">
    <path fill-rule="evenodd" clip-rule="evenodd"
        d="M12 24C18.6274 24 24 18.6274 24 12C24 5.37258 18.6274 0 12 0C5.37258 0 0 5.37258 0 12C0 18.6274 5.37258 24 12 24ZM9.3125 5H15.4375C16.1621 5 16.75 5.58789 16.75 6.3125V17.6875C16.75 18.4121 16.1621 19 15.4375 19H9.3125C8.58789 19 8 18.4121 8 17.6875V6.3125C8 5.58789 8.58789 5 9.3125 5ZM11.5 17.25C11.5 17.734 11.891 18.125 12.375 18.125C12.859 18.125 13.25 17.734 13.25 17.25C13.25 16.766 12.859 16.375 12.375 16.375C11.891 16.375 11.5 16.766 11.5 17.25ZM15.1094 15.5C15.2898 15.5 15.4375 15.3523 15.4375 15.1719V6.64062C15.4375 6.46016 15.2898 6.3125 15.1094 6.3125H9.64062C9.46016 6.3125 9.3125 6.46016 9.3125 6.64062V15.1719C9.3125 15.3523 9.46016 15.5 9.64062 15.5H15.1094Z"
        fill="#000" />
    <path
        d="M15.4375 5H9.3125C8.58789 5 8 5.58789 8 6.3125V17.6875C8 18.4121 8.58789 19 9.3125 19H15.4375C16.1621 19 16.75 18.4121 16.75 17.6875V6.3125C16.75 5.58789 16.1621 5 15.4375 5ZM12.375 18.125C11.891 18.125 11.5 17.734 11.5 17.25C11.5 16.766 11.891 16.375 12.375 16.375C12.859 16.375 13.25 16.766 13.25 17.25C13.25 17.734 12.859 18.125 12.375 18.125ZM15.4375 15.1719C15.4375 15.3523 15.2898 15.5 15.1094 15.5H9.64062C9.46016 15.5 9.3125 15.3523 9.3125 15.1719V6.64062C9.3125 6.46016 9.46016 6.3125 9.64062 6.3125H15.1094C15.2898 6.3125 15.4375 6.46016 15.4375 6.64062V15.1719Z"
        fill="currentColor" />
</svg>