<?xml version="1.0" encoding="UTF-8"?>
<svg width="593px" height="1201px" viewBox="0 0 593 1201" version="1.1" xmlns="http://www.w3.org/2000/svg" xmlns:xlink="http://www.w3.org/1999/xlink">
    <title>va-mobile-iphone-ss</title>
    <defs>
        <path d="M468.51159,-2.51725539e-14 C510.378819,-2.51725539e-14 525.560887,4.35778698 540.866921,12.5407999 C556.172954,20.7238129 568.185218,32.7320518 576.370974,48.0329557 C584.55673,63.3338596 588.915978,78.5108405 588.915978,120.364039 L588.914511,308.634414 C589.064463,308.62394 589.236022,308.618627 589.435744,308.618627 L590.438223,308.618627 C591.281529,308.618627 591.622715,308.713362 591.955455,308.891253 C592.288195,309.069145 592.549331,309.330193 592.727282,309.662821 C592.905233,309.99545 593,310.336522 593,311.179545 L593,448.936702 C593,449.779725 592.905233,450.120797 592.727282,450.453426 C592.549331,450.786054 592.288195,451.047103 591.955455,451.224994 C591.622715,451.402886 591.281529,451.497621 590.438223,451.497621 L589.435744,451.497621 C589.236022,451.497621 589.064463,451.492307 588.914511,451.481833 L588.915978,1080.63596 C588.915978,1122.48916 584.55673,1137.66614 576.370974,1152.96704 C568.185218,1168.26795 556.172954,1180.27619 540.866921,1188.4592 C525.560887,1196.64221 510.378819,1201 468.51159,1201 L124.48841,1201 C82.6211812,1201 67.4391123,1196.64221 52.1330793,1188.4592 C36.8270462,1180.27619 24.8147819,1168.26795 16.6290259,1152.96704 C8.44326982,1137.66614 4.08402204,1122.48916 4.08402204,1080.63596 L4.08378867,481.705983 L3.37858151,481.706322 C2.53527587,481.706322 2.19408898,481.611588 1.86134913,481.433696 C1.52860928,481.255805 1.2674731,480.994756 1.08952188,480.662127 C0.911570662,480.329499 0.81680441,479.988427 0.81680441,479.145404 L0.81680441,394.865813 C0.81680441,394.02279 0.911570662,393.681718 1.08952188,393.349089 C1.2674731,393.016461 1.52860928,392.755412 1.86134913,392.577521 C2.19408898,392.399629 2.53527587,392.304895 3.37858151,392.304895 L4.08378867,392.30427 L4.08378867,367.403117 L3.37858151,367.403127 C2.53527587,367.403127 2.19408898,367.308393 1.86134913,367.130501 C1.52860928,366.952609 1.2674731,366.691561 1.08952188,366.358932 C0.911570662,366.026304 0.81680441,365.685232 0.81680441,364.842209 L0.81680441,280.562618 C0.81680441,279.719595 0.911570662,279.378522 1.08952188,279.045894 C1.2674731,278.713266 1.52860928,278.452217 1.86134913,278.274325 C2.19408898,278.096434 2.53527587,278.0017 3.37858151,278.0017 L4.08378867,278.001405 L4.08548922,236.755117 C3.93553654,236.765591 3.76397806,236.770904 3.56425595,236.770904 L2.5617771,236.770904 C1.71847146,236.770904 1.37728457,236.676169 1.04454472,236.498278 C0.711804876,236.320386 0.450668693,236.059338 0.272717475,235.72671 C0.094766256,235.394081 -1.07486747e-15,235.053009 -1.07486747e-15,234.209985 L-1.07486747e-15,194.018771 C-1.07486747e-15,193.175747 0.094766256,192.834675 0.272717475,192.502046 C0.450668693,192.169418 0.711804876,191.90837 1.04454472,191.730478 C1.37728457,191.552587 1.71847146,191.457852 2.5617771,191.457852 L3.56425595,191.457852 C3.76397806,191.457852 3.93553654,191.463165 4.08548922,191.473639 L4.08402204,120.364039 C4.08402204,78.5108405 8.44326982,63.3338596 16.6290259,48.0329557 C24.8147819,32.7320518 36.8270462,20.7238129 52.1330793,12.5407999 C67.4391123,4.35778698 82.6211812,-2.51725539e-14 124.48841,-2.51725539e-14 L468.51159,-2.51725539e-14 Z" id="path-1"></path>
        <path d="M-1.98985522e-14,571.115558 C-1.98985522e-14,411.865549 -1.98985522e-14,252.615542 -1.98985522e-14,93.3638349 C-1.98985522e-14,81.4091285 -0.116017603,69.4425319 1.36069904,57.5472761 C3.21466667,42.6098381 8.30415619,29.1297938 19.3243028,18.3708977 C28.8048577,9.11186025 40.3959788,4.22330595 53.2598972,2.02192777 C59.8312013,0.895759761 66.4636813,0.386181476 73.1369453,0.274074253 C86.4562832,0.0498598087 99.7722236,9.94594202e-15 113.094961,0.190843134 C118.320396,0.265581282 121.547422,3.88528569 121.766635,8.43412118 C121.946763,12.2083976 122.045325,15.9962629 122.84231,19.7620464 C125.413394,31.9120913 135.804789,41.5974758 148.616028,42.8748188 C152.414028,43.2536053 156.203531,43.4183689 160.008328,43.4183689 C229.74538,43.4200675 299.480732,43.4183689 369.217784,43.4115746 C374.516291,43.4115746 379.804602,43.3436308 384.979057,41.9473863 C397.690036,38.519623 406.106811,27.2783261 406.737262,14.1040289 C406.852817,11.6631489 406.956475,9.20698155 407.321831,6.79497769 C407.875812,3.14299999 410.46389,0.768365191 414.115748,0.35220959 C415.599261,0.182350163 417.098069,0.0804345057 418.59178,0.0753387229 C433.000387,0.0362710544 447.417492,-0.215120899 461.812505,0.489795727 C473.26768,1.05033184 484.539328,2.86273193 494.922226,8.09779947 C511.808456,16.6094554 521.72234,30.5090524 525.902688,48.7536536 C528.009856,57.9515416 528.443185,67.3073989 528.653901,76.6819407 C528.784749,82.521708 528.793246,88.3665705 528.793246,94.2097351 C528.805142,413.392586 528.811991,732.573739 528.811991,1051.75659 C528.811991,1062.89767 528.83573,1074.04554 527.454175,1085.12717 C525.588312,1100.06291 520.495424,1113.54975 509.480376,1124.30015 C500.643866,1132.92222 489.905808,1137.81587 477.934037,1140.18541 C467.625909,1142.22881 457.161443,1142.6076 446.691879,1142.62289 C414.474306,1142.66028 382.256733,1142.66028 350.03916,1142.66028 C262.630789,1142.66028 175.222418,1142.66028 87.8123475,1142.66028 C77.0708912,1142.66028 66.3294343,1142.55665 55.6746433,1141.01941 C39.0891951,1138.6244 24.7196715,1132.05763 14.1804349,1118.50455 C7.70089449,1110.17295 4.04223975,1100.62175 2.17977548,1090.32827 C0.0403206379,1078.49926 0.0454186241,1066.53096 0.0403206379,1054.57626 C-1.98985522e-14,989.217746 0.0199286934,923.860935 0.0199286934,858.500724 C0.0182293647,762.706801 0.0199286934,666.90948 0.0199286934,571.115558 L-1.98985522e-14,571.115558 Z" id="path-3"></path>
        <path d="M-2.13198773e-14,571.115558 C-2.13198773e-14,411.865549 -2.13198773e-14,252.615542 -2.13198773e-14,93.3638349 C-2.13198773e-14,81.4091285 -0.116017603,69.4425319 1.36069904,57.5472761 C3.21466667,42.6098381 8.30415619,29.1297938 19.3243028,18.3708977 C28.8048577,9.11186025 40.3959788,4.22330595 53.2598972,2.02192777 C59.8312013,0.895759761 66.4636813,0.386181476 73.1369453,0.274074253 C86.4562832,0.0498598087 99.7722236,7.1042443e-15 113.094961,0.190843134 C118.320396,0.265581282 121.547422,3.88528569 121.766635,8.43412118 C121.946763,12.2083976 122.045325,15.9962629 122.84231,19.7620464 C125.413394,31.9120913 135.804789,41.5974758 148.616028,42.8748188 C152.414028,43.2536053 156.203531,43.4183689 160.008328,43.4183689 C229.74538,43.4200675 299.480732,43.4183689 369.217784,43.4115746 C374.516291,43.4115746 379.804602,43.3436308 384.979057,41.9473863 C397.690036,38.519623 406.106811,27.2783261 406.737262,14.1040289 C406.852817,11.6631489 406.956475,9.20698155 407.321831,6.79497769 C407.875812,3.14299999 410.46389,0.768365191 414.115748,0.35220959 C415.599261,0.182350163 417.098069,0.0804345057 418.59178,0.0753387229 C433.000387,0.0362710544 447.417492,-0.215120899 461.812505,0.489795727 C473.26768,1.05033184 484.539328,2.86273193 494.922226,8.09779947 C511.808456,16.6094554 521.72234,30.5090524 525.902688,48.7536536 C528.009856,57.9515416 528.443185,67.3073989 528.653901,76.6819407 C528.784749,82.521708 528.793246,88.3665705 528.793246,94.2097351 C528.805142,413.392586 528.811991,732.573739 528.811991,1051.75659 C528.811991,1062.89767 528.83573,1074.04554 527.454175,1085.12717 C525.588312,1100.06291 520.495424,1113.54975 509.480376,1124.30015 C500.643866,1132.92222 489.905808,1137.81587 477.934037,1140.18541 C467.625909,1142.22881 457.161443,1142.6076 446.691879,1142.62289 C414.474306,1142.66028 382.256733,1142.66028 350.03916,1142.66028 C262.630789,1142.66028 175.222418,1142.66028 87.8123475,1142.66028 C77.0708912,1142.66028 66.3294343,1142.55665 55.6746433,1141.01941 C39.0891951,1138.6244 24.7196715,1132.05763 14.1804349,1118.50455 C7.70089449,1110.17295 4.04223975,1100.62175 2.17977548,1090.32827 C0.0403206379,1078.49926 0.0454186241,1066.53096 0.0403206379,1054.57626 C-2.13198773e-14,989.217746 0.0199286934,923.860935 0.0199286934,858.500724 C0.0182293647,762.706801 0.0199286934,666.90948 0.0199286934,571.115558 L-2.13198773e-14,571.115558 Z" id="path-5"></path>
        <path d="M-1.98985522e-14,571.115558 C-1.98985522e-14,411.865549 -1.98985522e-14,252.615542 -1.98985522e-14,93.3638349 C-1.98985522e-14,81.4091285 -0.116017603,69.4425319 1.36069904,57.5472761 C3.21466667,42.6098381 8.30415619,29.1297938 19.3243028,18.3708977 C28.8048577,9.11186025 40.3959788,4.22330595 53.2598972,2.02192777 C59.8312013,0.895759761 66.4636813,0.386181476 73.1369453,0.274074253 C86.4562832,0.0498598087 99.7722236,9.94594202e-15 113.094961,0.190843134 C118.320396,0.265581282 121.547422,3.88528569 121.766635,8.43412118 C121.946763,12.2083976 122.045325,15.9962629 122.84231,19.7620464 C125.413394,31.9120913 135.804789,41.5974758 148.616028,42.8748188 C152.414028,43.2536053 156.203531,43.4183689 160.008328,43.4183689 C229.74538,43.4200675 299.480732,43.4183689 369.217784,43.4115746 C374.516291,43.4115746 379.804602,43.3436308 384.979057,41.9473863 C397.690036,38.519623 406.106811,27.2783261 406.737262,14.1040289 C406.852817,11.6631489 406.956475,9.20698155 407.321831,6.79497769 C407.875812,3.14299999 410.46389,0.768365191 414.115748,0.35220959 C415.599261,0.182350163 417.098069,0.0804345057 418.59178,0.0753387229 C433.000387,0.0362710544 447.417492,-0.215120899 461.812505,0.489795727 C473.26768,1.05033184 484.539328,2.86273193 494.922226,8.09779947 C511.808456,16.6094554 521.72234,30.5090524 525.902688,48.7536536 C528.009856,57.9515416 528.443185,67.3073989 528.653901,76.6819407 C528.784749,82.521708 528.793246,88.3665705 528.793246,94.2097351 C528.805142,413.392586 528.811991,732.573739 528.811991,1051.75659 C528.811991,1062.89767 528.83573,1074.04554 527.454175,1085.12717 C525.588312,1100.06291 520.495424,1113.54975 509.480376,1124.30015 C500.643866,1132.92222 489.905808,1137.81587 477.934037,1140.18541 C467.625909,1142.22881 457.161443,1142.6076 446.691879,1142.62289 C414.474306,1142.66028 382.256733,1142.66028 350.03916,1142.66028 C262.630789,1142.66028 175.222418,1142.66028 87.8123475,1142.66028 C77.0708912,1142.66028 66.3294343,1142.55665 55.6746433,1141.01941 C39.0891951,1138.6244 24.7196715,1132.05763 14.1804349,1118.50455 C7.70089449,1110.17295 4.04223975,1100.62175 2.17977548,1090.32827 C0.0403206379,1078.49926 0.0454186241,1066.53096 0.0403206379,1054.57626 C-1.98985522e-14,989.217746 0.0199286934,923.860935 0.0199286934,858.500724 C0.0182293647,762.706801 0.0199286934,666.90948 0.0199286934,571.115558 L-1.98985522e-14,571.115558 Z" id="path-7"></path>
    </defs>
    <g id="Page-1" stroke="none" stroke-width="1" fill="none" fill-rule="evenodd">
        <g id="va-mobile-iphone-ss">
            <g id="Device">
                <g id="Shape-Enhancement">
                    <g id="Mask" fill="#FEFEFE" fill-rule="nonzero">
                        <path d="M468.51159,-2.51725539e-14 C510.378819,-2.51725539e-14 525.560887,4.35778698 540.866921,12.5407999 C556.172954,20.7238129 568.185218,32.7320518 576.370974,48.0329557 C584.55673,63.3338596 588.915978,78.5108405 588.915978,120.364039 L588.914511,308.634414 C589.064463,308.62394 589.236022,308.618627 589.435744,308.618627 L590.438223,308.618627 C591.281529,308.618627 591.622715,308.713362 591.955455,308.891253 C592.288195,309.069145 592.549331,309.330193 592.727282,309.662821 C592.905233,309.99545 593,310.336522 593,311.179545 L593,448.936702 C593,449.779725 592.905233,450.120797 592.727282,450.453426 C592.549331,450.786054 592.288195,451.047103 591.955455,451.224994 C591.622715,451.402886 591.281529,451.497621 590.438223,451.497621 L589.435744,451.497621 C589.236022,451.497621 589.064463,451.492307 588.914511,451.481833 L588.915978,1080.63596 C588.915978,1122.48916 584.55673,1137.66614 576.370974,1152.96704 C568.185218,1168.26795 556.172954,1180.27619 540.866921,1188.4592 C525.560887,1196.64221 510.378819,1201 468.51159,1201 L124.48841,1201 C82.6211812,1201 67.4391123,1196.64221 52.1330793,1188.4592 C36.8270462,1180.27619 24.8147819,1168.26795 16.6290259,1152.96704 C8.44326982,1137.66614 4.08402204,1122.48916 4.08402204,1080.63596 L4.08378867,481.705983 L3.37858151,481.706322 C2.53527587,481.706322 2.19408898,481.611588 1.86134913,481.433696 C1.52860928,481.255805 1.2674731,480.994756 1.08952188,480.662127 C0.911570662,480.329499 0.81680441,479.988427 0.81680441,479.145404 L0.81680441,394.865813 C0.81680441,394.02279 0.911570662,393.681718 1.08952188,393.349089 C1.2674731,393.016461 1.52860928,392.755412 1.86134913,392.577521 C2.19408898,392.399629 2.53527587,392.304895 3.37858151,392.304895 L4.08378867,392.30427 L4.08378867,367.403117 L3.37858151,367.403127 C2.53527587,367.403127 2.19408898,367.308393 1.86134913,367.130501 C1.52860928,366.952609 1.2674731,366.691561 1.08952188,366.358932 C0.911570662,366.026304 0.81680441,365.685232 0.81680441,364.842209 L0.81680441,280.562618 C0.81680441,279.719595 0.911570662,279.378522 1.08952188,279.045894 C1.2674731,278.713266 1.52860928,278.452217 1.86134913,278.274325 C2.19408898,278.096434 2.53527587,278.0017 3.37858151,278.0017 L4.08378867,278.001405 L4.08548922,236.755117 C3.93553654,236.765591 3.76397806,236.770904 3.56425595,236.770904 L2.5617771,236.770904 C1.71847146,236.770904 1.37728457,236.676169 1.04454472,236.498278 C0.711804876,236.320386 0.450668693,236.059338 0.272717475,235.72671 C0.094766256,235.394081 -1.07486747e-15,235.053009 -1.07486747e-15,234.209985 L-1.07486747e-15,194.018771 C-1.07486747e-15,193.175747 0.094766256,192.834675 0.272717475,192.502046 C0.450668693,192.169418 0.711804876,191.90837 1.04454472,191.730478 C1.37728457,191.552587 1.71847146,191.457852 2.5617771,191.457852 L3.56425595,191.457852 C3.76397806,191.457852 3.93553654,191.463165 4.08548922,191.473639 L4.08402204,120.364039 C4.08402204,78.5108405 8.44326982,63.3338596 16.6290259,48.0329557 C24.8147819,32.7320518 36.8270462,20.7238129 52.1330793,12.5407999 C67.4391123,4.35778698 82.6211812,-2.51725539e-14 124.48841,-2.51725539e-14 L468.51159,-2.51725539e-14 Z" id="path-1"></path>
                    </g>
                    <g id="Details-Clipped">
                        <mask id="mask-2" fill="white">
                            <use xlink:href="#path-1"></use>
                        </mask>
                        <g id="path-1"></g>
                        <path d="M129.463499,1192.01903 L129.463499,1201 L120.887053,1201 L120.887053,1192.01903 L129.463499,1192.01903 Z M588.915978,1069.95955 L588.915978,1078.12407 L579.931129,1078.12407 L579.931129,1069.95955 L588.915978,1069.95955 Z M13.0688705,1069.55133 L13.0688705,1078.12407 L4.08402204,1078.12407 L4.08402204,1069.55133 L13.0688705,1069.55133 Z M13.4772727,120.834806 L13.4772727,129.407546 L4.08402204,129.407546 L4.08402204,120.834806 L13.4772727,120.834806 Z M588.915978,120.834806 L588.915978,128.99932 L579.931129,128.99932 L579.931129,120.834806 L588.915978,120.834806 Z M471.704545,0.408225697 L471.704545,9.38919103 L462.719697,9.38919103 L462.719697,0.408225697 L471.704545,0.408225697 Z" id="Details" fill="#D5D6D8" fill-rule="nonzero" mask="url(#mask-2)"></path>
                    </g>
                </g>
                <path d="M120.909322,8.98096532 L472.090678,8.98096532 C509.589152,8.98096532 523.187005,12.8840267 536.895887,20.2131601 C550.604769,27.5422934 561.36358,38.2974987 568.69517,52.0017865 C576.02676,65.7060744 579.931129,79.2993704 579.931129,116.785279 L579.931129,1084.21472 C579.931129,1121.70063 576.02676,1135.29393 568.69517,1148.99821 C561.36358,1162.7025 550.604769,1173.4577 536.895887,1180.78684 C523.187005,1188.11597 509.589152,1192.01903 472.090678,1192.01903 L120.909322,1192.01903 C83.4108479,1192.01903 69.8129948,1188.11597 56.1041131,1180.78684 C42.3952313,1173.4577 31.6364207,1162.7025 24.3048305,1148.99821 C16.9732403,1135.29393 13.0688705,1121.70063 13.0688705,1084.21472 L13.0688705,116.785279 C13.0688705,79.2993704 16.9732403,65.7060744 24.3048305,52.0017865 C31.6364207,38.2974987 42.3952313,27.5422934 56.1041131,20.2131601 C69.8129948,12.8840267 83.4108479,8.98096532 120.909322,8.98096532 Z" id="Combined-Shape" fill="#F6F6F7" fill-rule="nonzero"></path>
            </g>
            <g id="Screen" transform="translate(32.916082, 28.203523)">
                <g id="Mask" opacity="0.435917394" fill="#383C47" fill-rule="nonzero">
                    <path d="M-2.13198773e-14,571.115558 C-2.13198773e-14,411.865549 -2.13198773e-14,252.615542 -2.13198773e-14,93.3638349 C-2.13198773e-14,81.4091285 -0.116017603,69.4425319 1.36069904,57.5472761 C3.21466667,42.6098381 8.30415619,29.1297938 19.3243028,18.3708977 C28.8048577,9.11186025 40.3959788,4.22330595 53.2598972,2.02192777 C59.8312013,0.895759761 66.4636813,0.386181476 73.1369453,0.274074253 C86.4562832,0.0498598087 99.7722236,7.1042443e-15 113.094961,0.190843134 C118.320396,0.265581282 121.547422,3.88528569 121.766635,8.43412118 C121.946763,12.2083976 122.045325,15.9962629 122.84231,19.7620464 C125.413394,31.9120913 135.804789,41.5974758 148.616028,42.8748188 C152.414028,43.2536053 156.203531,43.4183689 160.008328,43.4183689 C229.74538,43.4200675 299.480732,43.4183689 369.217784,43.4115746 C374.516291,43.4115746 379.804602,43.3436308 384.979057,41.9473863 C397.690036,38.519623 406.106811,27.2783261 406.737262,14.1040289 C406.852817,11.6631489 406.956475,9.20698155 407.321831,6.79497769 C407.875812,3.14299999 410.46389,0.768365191 414.115748,0.35220959 C415.599261,0.182350163 417.098069,0.0804345057 418.59178,0.0753387229 C433.000387,0.0362710544 447.417492,-0.215120899 461.812505,0.489795727 C473.26768,1.05033184 484.539328,2.86273193 494.922226,8.09779947 C511.808456,16.6094554 521.72234,30.5090524 525.902688,48.7536536 C528.009856,57.9515416 528.443185,67.3073989 528.653901,76.6819407 C528.784749,82.521708 528.793246,88.3665705 528.793246,94.2097351 C528.805142,413.392586 528.811991,732.573739 528.811991,1051.75659 C528.811991,1062.89767 528.83573,1074.04554 527.454175,1085.12717 C525.588312,1100.06291 520.495424,1113.54975 509.480376,1124.30015 C500.643866,1132.92222 489.905808,1137.81587 477.934037,1140.18541 C467.625909,1142.22881 457.161443,1142.6076 446.691879,1142.62289 C414.474306,1142.66028 382.256733,1142.66028 350.03916,1142.66028 C262.630789,1142.66028 175.222418,1142.66028 87.8123475,1142.66028 C77.0708912,1142.66028 66.3294343,1142.55665 55.6746433,1141.01941 C39.0891951,1138.6244 24.7196715,1132.05763 14.1804349,1118.50455 C7.70089449,1110.17295 4.04223975,1100.62175 2.17977548,1090.32827 C0.0403206379,1078.49926 0.0454186241,1066.53096 0.0403206379,1054.57626 C-2.13198773e-14,989.217746 0.0199286934,923.860935 0.0199286934,858.500724 C0.0182293647,762.706801 0.0199286934,666.90948 0.0199286934,571.115558 L-2.13198773e-14,571.115558 Z" id="path-3"></path>
                </g>
                <g id="Templates-/-Home-Screen-Clipped">
                    <mask id="mask-4" fill="white">
                        <use xlink:href="#path-3"></use>
                    </mask>
                    <g id="path-3"></g>
                    <g id="Templates-/-Home-Screen" mask="url(#mask-4)">
                        <g transform="translate(0.002254, -18.755096)" id="Rectangle">
                            <g transform="translate(-0.000000, 0.000000)">
                                <rect fill="#F1F1F1" fill-rule="nonzero" x="-2.85167239e-15" y="75.162141" width="529.044694" height="1088.18591"></rect>
                                <rect stroke="#979797" stroke-width="0.7" fill="#003E73" fill-rule="nonzero" x="0.337271487" y="0" width="527.88902" height="165.872378"></rect>
                            </g>
                        </g>
                    </g>
                </g>
                <g id="Group-10-Clipped">
                    <mask id="mask-6" fill="white">
                        <use xlink:href="#path-5"></use>
                    </mask>
                    <g id="path-3"></g>
                    <g id="Group-10" mask="url(#mask-6)">
                        <g transform="translate(-12.612658, 1042.618156)" id="Group">
                            <g transform="translate(-0.000000, 0.000000)">
                                <g>
                                    <g id="Background" transform="translate(0.000000, 0.699883)">
                                        <g id="path-5-link" fill="#000000" fill-rule="nonzero">
                                            <polygon id="path-5" points="0 0 558.694215 0 558.694215 124.579254 0 124.579254"></polygon>
                                        </g>
                                        <g id="path-5-link" fill="#F9F9F9" fill-opacity="0.94">
                                            <polygon id="path-5" points="0 0 558.694215 0 558.694215 124.579254 0 124.579254"></polygon>
                                        </g>
                                    </g>
                                    <line x1="10.85183" y1="0.349941725" x2="548.542503" y2="0.349941725" id="Line-4" stroke="#979797" stroke-width="1.4" stroke-linecap="square"></line>
                                </g>
                                <g transform="translate(61.357708, 20.996503)" fill-rule="nonzero">
                                    <g transform="translate(392.040217, 0.000000)">
                                        <g id="Tab-4-Copy" transform="translate(0.000000, 35.076675)" fill="#000000" font-family="SFProText-Regular, SF Pro Text" font-size="15.491649" font-weight="normal">
                                            <g id="Label">
                                                <text id="Profile">
                                                    <tspan x="0" y="15">Profile</tspan>
                                                </text>
                                            </g>
                                        </g>
                                        <g id="user-circle-(1)" transform="translate(10.080232, 0.000000)" fill="#0071BC">
                                            <path d="M13.3022432,0 C5.9538266,0 0,5.79520429 0,12.9478438 C0,20.1004834 5.9538266,25.8956876 13.3022432,25.8956876 C20.6506598,25.8956876 26.6044864,20.1004834 26.6044864,12.9478438 C26.6044864,5.79520429 20.6506598,0 13.3022432,0 Z M20.1679171,22.0113345 C18.2423102,23.3948743 15.8715071,24.2249981 13.3022432,24.2249981 C10.7329793,24.2249981 8.36217627,23.3948743 6.4365693,22.0113345 L6.4365693,21.3012915 C6.4365693,19.458312 7.97598211,17.9599124 9.86940626,17.9599124 C10.4647889,17.9599124 11.3444534,18.5550955 13.3022432,18.5550955 C15.2653969,18.5550955 16.1343337,17.9599124 16.7350802,17.9599124 C18.6285043,17.9599124 20.1679171,19.458312 20.1679171,21.3012915 L20.1679171,22.0113345 Z M21.8092423,20.5755857 C21.4445034,18.1530859 19.3257993,16.2892228 16.7350802,16.2892228 C15.6354996,16.2892228 15.1044826,16.884406 13.3022432,16.884406 C11.5000038,16.884406 10.9743506,16.2892228 9.86940626,16.2892228 C7.27868713,16.2892228 5.15998305,18.1530859 4.79524413,20.5755857 C2.89109237,18.5655374 1.71641848,15.8924341 1.71641848,12.9478438 C1.71641848,6.72974624 6.91394819,1.67068952 13.3022432,1.67068952 C19.6905383,1.67068952 24.8880679,6.72974624 24.8880679,12.9478438 C24.8880679,15.8924341 23.713394,18.5655374 21.8092423,20.5755857 Z M13.3022432,5.84741334 C10.6954326,5.84741334 8.58209238,7.90444981 8.58209238,10.4418095 C8.58209238,12.9791693 10.6954326,15.0362058 13.3022432,15.0362058 C15.9090538,15.0362058 18.022394,12.9791693 18.022394,10.4418095 C18.022394,7.90444981 15.9090538,5.84741334 13.3022432,5.84741334 Z M13.3022432,13.3655162 C11.6448266,13.3655162 10.2985109,12.0550691 10.2985109,10.4418095 C10.2985109,8.82854995 11.6448266,7.51810288 13.3022432,7.51810288 C14.9596598,7.51810288 16.3059756,8.82854995 16.3059756,10.4418095 C16.3059756,12.0550691 14.9596598,13.3655162 13.3022432,13.3655162 Z" id="Shape"></path>
                                        </g>
                                    </g>
                                    <g transform="translate(126.549180, 0.000000)">
                                        <g id="Tab-2" transform="translate(0.000000, 35.076675)" fill="#000000" font-family="SFProText-Regular, SF Pro Text" font-size="15.491649" font-weight="normal">
                                            <g id="Label">
                                                <text id="Claims">
                                                    <tspan x="0" y="15">Claims</tspan>
                                                </text>
                                            </g>
                                        </g>
                                        <g id="file-alt-(1)" transform="translate(15.127350, 0.000000)" fill="#0071BC">
                                            <path d="M18.2090863,4.95562857 L14.0789367,0.713003703 C13.6358932,0.257894956 13.0353232,0 12.4101397,0 L2.36289847,0 C1.0583816,0.00505676385 0,1.09226099 0,2.43230341 L0,23.468441 C0,24.8084834 1.0583816,25.8956876 2.36289847,25.8956876 L16.5402893,25.8956876 C17.8448061,25.8956876 18.9031877,24.8084834 18.9031877,23.468441 L18.9031877,6.67492828 C18.9031877,6.03271927 18.6521297,5.41073731 18.2090863,4.95562857 Z M17.0965549,6.10351396 C17.1999317,6.209706 17.2688496,6.3361251 17.3033085,6.47771448 L12.6021251,6.47771448 L12.6021251,1.64850502 C12.7399609,1.68390236 12.8630285,1.75469705 12.9664053,1.86088909 L17.0965549,6.10351396 Z M16.5402893,24.2775232 L2.36289847,24.2775232 C1.92970041,24.2775232 1.57526564,23.9134362 1.57526564,23.468441 L1.57526564,2.43230341 C1.57526564,1.98730819 1.92970041,1.62322119 2.36289847,1.62322119 L11.0268595,1.62322119 L11.0268595,6.88225559 C11.0268595,7.55480518 11.5535889,8.09587892 12.2083087,8.09587892 L17.3279221,8.09587892 L17.3279221,23.468441 C17.3279221,23.9134362 16.9734873,24.2775232 16.5402893,24.2775232 Z M14.1773908,11.9390194 L14.1773908,12.3435605 C14.1773908,12.677307 13.9115647,12.9503722 13.5866662,12.9503722 L5.31652155,12.9503722 C4.99162301,12.9503722 4.72579693,12.677307 4.72579693,12.3435605 L4.72579693,11.9390194 C4.72579693,11.605273 4.99162301,11.3322077 5.31652155,11.3322077 L13.5866662,11.3322077 C13.9115647,11.3322077 14.1773908,11.605273 14.1773908,11.9390194 Z M14.1773908,15.1753483 L14.1773908,15.5798894 C14.1773908,15.9136358 13.9115647,16.186701 13.5866662,16.186701 L5.31652155,16.186701 C4.99162301,16.186701 4.72579693,15.9136358 4.72579693,15.5798894 L4.72579693,15.1753483 C4.72579693,14.8416019 4.99162301,14.5685366 5.31652155,14.5685366 L13.5866662,14.5685366 C13.9115647,14.5685366 14.1773908,14.8416019 14.1773908,15.1753483 Z M14.1773908,18.4116771 L14.1773908,18.8162182 C14.1773908,19.1499647 13.9115647,19.4230299 13.5866662,19.4230299 L5.31652155,19.4230299 C4.99162301,19.4230299 4.72579693,19.1499647 4.72579693,18.8162182 L4.72579693,18.4116771 C4.72579693,18.0779307 4.99162301,17.8048655 5.31652155,17.8048655 L13.5866662,17.8048655 C13.9115647,17.8048655 14.1773908,18.0779307 14.1773908,18.4116771 Z" id="Shape"></path>
                                        </g>
                                    </g>
                                    <g transform="translate(259.914021, 0.112877)">
                                        <g id="Tab-3" transform="translate(0.000000, 34.963798)" fill="#000000" font-family="SFProText-Regular, SF Pro Text" font-size="15.491649" font-weight="normal">
                                            <g id="Label">
                                                <text id="Health">
                                                    <tspan x="0" y="15">Health</tspan>
                                                </text>
                                            </g>
                                        </g>
                                        <g id="medkit-(1)" transform="translate(8.970401, 0.000000)" fill="#0071BC">
                                            <path d="M26.6482438,3.69938395 L20.2159091,3.69938395 L20.2159091,1.38726898 C20.2159091,0.621091883 19.598807,0 18.8375517,0 L10.567407,0 C9.80615171,0 9.18904959,0.621091883 9.18904959,1.38726898 L9.18904959,3.69938395 L2.75671488,3.69938395 C1.23420422,3.69938395 0,4.94156772 0,6.47392191 L0,23.1211497 C0,24.6535038 1.23420422,25.8956876 2.75671488,25.8956876 L26.6482438,25.8956876 C28.1707544,25.8956876 29.4049587,24.6535038 29.4049587,23.1211497 L29.4049587,6.47392191 C29.4049587,4.94156772 28.1707544,3.69938395 26.6482438,3.69938395 Z M11.0268595,1.84969197 L18.3780992,1.84969197 L18.3780992,3.69938395 L11.0268595,3.69938395 L11.0268595,1.84969197 Z M22.053719,5.54907593 L22.053719,24.0459957 L7.35123967,24.0459957 L7.35123967,5.54907593 L22.053719,5.54907593 Z M1.83780992,23.1211497 L1.83780992,6.47392191 C1.83780992,5.96398495 2.25005365,5.54907593 2.75671488,5.54907593 L5.51342975,5.54907593 L5.51342975,24.0459957 L2.75671488,24.0459957 C2.25005365,24.0459957 1.83780992,23.6310867 1.83780992,23.1211497 Z M27.5671488,23.1211497 C27.5671488,23.6310867 27.154905,24.0459957 26.6482438,24.0459957 L23.8915289,24.0459957 L23.8915289,5.54907593 L26.6482438,5.54907593 C27.154905,5.54907593 27.5671488,5.96398495 27.5671488,6.47392191 L27.5671488,23.1211497 Z M20.2159091,13.8726898 L20.2159091,15.7223818 C20.2159091,16.1054414 19.9073293,16.4160162 19.5267304,16.4160162 L16.310563,16.4160162 L16.310563,19.6529772 C16.310563,20.0360369 16.0019832,20.3466117 15.6213843,20.3466117 L13.7835744,20.3466117 C13.4029754,20.3466117 13.0943957,20.0360369 13.0943957,19.6529772 L13.0943957,16.4160162 L9.87822831,16.4160162 C9.49762935,16.4160162 9.18904959,16.1054414 9.18904959,15.7223818 L9.18904959,13.8726898 C9.18904959,13.4896302 9.49762935,13.1790553 9.87822831,13.1790553 L13.0943957,13.1790553 L13.0943957,9.94209433 C13.0943957,9.55903468 13.4029754,9.24845986 13.7835744,9.24845986 L15.6213843,9.24845986 C16.0019832,9.24845986 16.310563,9.55903468 16.310563,9.94209433 L16.310563,13.1790553 L19.5267304,13.1790553 C19.9073293,13.1790553 20.2159091,13.4896302 20.2159091,13.8726898 Z" id="Shape"></path>
                                        </g>
                                    </g>
                                    <g transform="translate(-0.000000, 0.155168)">
                                        <g id="Label" transform="translate(0.000000, 34.294289)" fill="#000000" font-family="SFProText-Regular, SF Pro Text" font-size="15.4693495" font-weight="normal">
                                            <text id="Home">
                                                <tspan x="0" y="15">Home</tspan>
                                            </text>
                                        </g>
                                        <g id="home-alt" transform="translate(7.498606, 0.000000)" fill="#003E73">
                                            <path d="M14.9941813,7.08052028 L5.1346061,16.3336636 L5.1346061,26.3204773 C5.1346061,26.8589423 5.51768639,27.2954545 5.99023989,27.2954545 L11.9828851,27.277783 C12.453767,27.2751003 12.8342466,26.8393729 12.8342408,26.3028059 L12.8342408,20.4706139 C12.8342408,19.9321488 13.2173211,19.4956367 13.6898745,19.4956367 L17.1124097,19.4956367 C17.5849632,19.4956367 17.9680435,19.9321488 17.9680435,20.4706139 L17.9680435,26.2985403 C17.9673329,26.5576478 18.057166,26.8064206 18.2177056,26.9899238 C18.3782451,27.173427 18.5962851,27.2765656 18.8236773,27.2765643 L24.8141834,27.2954545 C25.2867369,27.2954545 25.6698173,26.8589423 25.6698173,26.3204773 L25.6698173,16.3269606 L15.8123811,7.08052028 C15.5736036,6.8612082 15.2329588,6.8612082 14.9941813,7.08052028 Z M30.5683207,13.3697328 L17.0316593,0.6663888 C16.0840836,-0.2221296 14.7171311,-0.2221296 13.7695554,0.6663888 L0.23289398,13.3697328 C0.101657226,13.4933335 0.018906372,13.6712956 0.00285867344,13.8644418 C-0.0131890252,14.0575879 0.0387820201,14.2500839 0.1473306,14.3995525 L1.51099696,16.2885709 C1.6192519,16.4385637 1.77542268,16.5333265 1.94506611,16.5519597 C2.11470953,16.5705929 2.28388996,16.5115658 2.41529494,16.3878967 L14.9941813,4.58214112 C15.2329588,4.36282903 15.5736036,4.36282903 15.8123811,4.58214112 L28.3918022,16.3878967 C28.5229749,16.5115856 28.6919082,16.5708055 28.861412,16.5525196 C29.0309158,16.5342335 29.1870943,16.4399406 29.2955654,16.290399 L30.6592318,14.4013806 C30.7676701,14.2510414 30.8190448,14.0576502 30.8019818,13.8640224 C30.7849189,13.6703946 30.700826,13.4925036 30.5683207,13.3697328 Z" id="Shape"></path>
                                        </g>
                                    </g>
                                </g>
                            </g>
                        </g>
                    </g>
                </g>
                <g id="Templates-/-Home-Screen-Clipped">
                    <mask id="mask-8" fill="white">
                        <use xlink:href="#path-7"></use>
                    </mask>
                    <g id="path-3"></g>
                    <g id="Templates-/-Home-Screen" mask="url(#mask-8)">
                        <g transform="translate(-1.410769, 50.883307)" id="Group">
                            <rect id="Rectangle" fill="#F1F1F1" fill-rule="nonzero" x="0" y="0.69988345" width="530.689492" height="988.935315"></rect>
                            <g fill-rule="nonzero" id="Navigation-/-Top-Bar-/-Nav-Bar">
                                <g>
                                    <polygon id="Background" fill="#003E73" points="0 0 530.689492 0 530.689492 95.1841492 0 95.1841492"></polygon>
                                    <text id="Home" fill="#FFFFFF" font-family="SourceSansPro-Regular, Source Sans Pro" font-size="29.5202708" font-weight="normal">
                                        <tspan x="215.636364" y="74.4924242">Home</tspan>
                                    </text>
                                </g>
                            </g>
                            <g id="Veterans-Crisis-Line-Button" transform="translate(0.000000, 92.059264)">
                                <g id="Background---full">
                                    <g id="path-7-link" fill="#000000" fill-rule="nonzero">
                                        <rect id="path-7" x="0" y="0" width="530.689492" height="64.8356895"></rect>
                                    </g>
                                    <g id="path-7-link" fill="#B51C08">
                                        <rect id="path-7" x="0" y="0" width="530.689492" height="64.8356895"></rect>
                                    </g>
                                </g>
                                <g id="Group" transform="translate(26.534475, 19.182955)" fill="#FFFFFF" fill-rule="nonzero">
                                    <g id="Talk-to-the-Veterans" font-size="29.5202708">
                                        <text id="Talk-to-the" font-family="SourceSansPro-Regular, Source Sans Pro" font-weight="normal">
                                            <tspan x="0" y="30.2070494">Talk to the</tspan>
                                        </text>
                                        <text id="Veterans-Crisis-Line" font-family="SourceSansPro-Bold, Source Sans Pro" font-weight="bold">
                                            <tspan x="134.576089" y="28.9969197">Veterans Crisis Line</tspan>
                                        </text>
                                        <text id="now" font-family="SourceSansPro-Regular, Source Sans Pro" font-weight="normal">
                                            <tspan x="386.869349" y="30.2070494">now</tspan>
                                        </text>
                                    </g>
                                    <g id="Icons-/-Font-Awesome-/-white-/-fa-chevron-right" transform="translate(459.117635, 6.495605)">
                                        <path d="M14.9027851,12.4654986 L4.02708651,23.3375527 C3.66065461,23.7038619 3.07436359,23.7038619 2.70793169,23.3375527 L0.27482392,20.9052603 C-0.0916079732,20.5389513 -0.0916079732,19.9528567 0.27482392,19.5865476 L8.05783733,11.8061423 L0.27482392,4.02573701 C-0.0916079732,3.65942791 -0.0916079732,3.07333335 0.27482392,2.70702425 L2.70793169,0.274731824 C3.07436359,-0.0915772748 3.66065461,-0.0915772748 4.02708651,0.274731824 L14.9027851,11.1467859 C15.269217,11.513095 15.269217,12.0991896 14.9027851,12.4654986 Z" id="fa-chevron-right"></path>
                                    </g>
                                </g>
                            </g>
                            <g transform="translate(35.159720, 260.241634)" fill-rule="nonzero" id="Card/Homescreen-Card-Copy">
                                <g transform="translate(0.000000, 0.000000)">
                                    <rect id="Rectangle" stroke="#0071BC" stroke-width="2.95202709" fill="#FFFFFF" x="-1.42132516e-14" y="0" width="468.771468" height="184.470973" rx="8.85608129"></rect>
                                    <text id="Claims-and-appeals" fill="#323A45" font-family="Bitter-Bold, Bitter" font-size="38.3763521" font-weight="bold">
                                        <tspan x="19.1914124" y="52.2296161">Claims and appeals</tspan>
                                    </text>
                                    <text id="Review-your-claim-or-appeal" fill="#323A45" font-family="SourceSansPro-Regular, Source Sans Pro" font-size="29.5202708" font-weight="normal">
                                        <tspan x="19.1914124" y="105.736845">Review your claim or appeal</tspan>
                                    </text>
                                    <text id="status" fill="#323A45" font-family="SourceSansPro-Regular, Source Sans Pro" font-size="29.5202708" font-weight="normal">
                                        <tspan x="19.1914124" y="150.009878">status</tspan>
                                    </text>
                                    <g id="Icons-/-Font-Awesome-/-almost-black-/-fa-chevron-right" transform="translate(433.341168, 81.167228)" fill="#0071BC">
                                        <path d="M14.9027851,12.4654986 L4.02708651,23.3375527 C3.66065461,23.7038619 3.07436359,23.7038619 2.70793169,23.3375527 L0.27482392,20.9052603 C-0.0916079732,20.5389513 -0.0916079732,19.9528567 0.27482392,19.5865476 L8.05783733,11.8061423 L0.27482392,4.02573701 C-0.0916079732,3.65942791 -0.0916079732,3.07333335 0.27482392,2.70702425 L2.70793169,0.274731824 C3.07436359,-0.0915772748 3.66065461,-0.0915772748 4.02708651,0.274731824 L14.9027851,11.1467859 C15.269217,11.513095 15.269217,12.0991896 14.9027851,12.4654986 Z" id="fa-chevron-right"></path>
                                    </g>
                                </g>
                            </g>
                            <g transform="translate(35.159720, 461.416512)" fill-rule="nonzero" id="Card/Homescreen-Card">
                                <g transform="translate(0.000000, 0.000000)">
                                    <rect id="Rectangle" stroke="#0071BC" stroke-width="2.95202709" fill="#FFFFFF" x="-1.42132516e-14" y="0" width="468.771468" height="228.744007" rx="8.85608129"></rect>
                                    <text id="Health-care" fill="#323A45" font-family="Bitter-Bold, Bitter" font-size="38.3763521" font-weight="bold">
                                        <tspan x="19.1914124" y="55.1811517">Health care</tspan>
                                    </text>
                                    <text id="Review-your-appointments,-send" fill="#323A45" font-family="SourceSansPro-Regular, Source Sans Pro" font-size="29.5202708" font-weight="normal">
                                        <tspan x="19.1914124" y="105.736845">Review your appointments, send</tspan>
                                    </text>
                                    <text id="messages,-and-get-your-vaccine" fill="#323A45" font-family="SourceSansPro-Regular, Source Sans Pro" font-size="29.5202708" font-weight="normal">
                                        <tspan x="19.1914124" y="150.009878">messages, and get your vaccine</tspan>
                                    </text>
                                    <text id="records" fill="#323A45" font-family="SourceSansPro-Regular, Source Sans Pro" font-size="29.5202708" font-weight="normal">
                                        <tspan x="19.1914124" y="194.282912">records</tspan>
                                    </text>
                                    <g id="Icons-/-Font-Awesome-/-fa-chevron-right" transform="translate(433.366668, 102.565861)" fill="#0071BB">
                                        <path d="M14.4953152,12.4654986 L3.91697845,23.3375527 C3.56056549,23.7038619 2.99030477,23.7038619 2.63389181,23.3375527 L0.26730972,20.9052603 C-0.0891032401,20.5389513 -0.0891032401,19.9528567 0.26730972,19.5865476 L7.83752107,11.8061423 L0.26730972,4.02573701 C-0.0891032401,3.65942791 -0.0891032401,3.07333335 0.26730972,2.70702425 L2.63389181,0.274731824 C2.99030477,-0.0915772748 3.56056549,-0.0915772748 3.91697845,0.274731824 L14.4953152,11.1467859 C14.8517282,11.513095 14.8517282,12.0991896 14.4953152,12.4654986 Z" id="fa-chevron-right"></path>
                                    </g>
                                </g>
                            </g>
                            <g transform="translate(35.159720, 708.083813)" fill-rule="nonzero" id="Card/Homescreen-Card-Copy">
                                <g transform="translate(0.000000, 0.000000)">
                                    <rect id="Rectangle" stroke="#0071BC" stroke-width="2.95202709" fill="#FFFFFF" x="-1.42132516e-14" y="0" width="468.771468" height="184.187841" rx="8.85608129"></rect>
                                    <text id="Letters" fill="#323A45" font-family="Bitter-Bold, Bitter" font-size="38.3763521" font-weight="bold">
                                        <tspan x="19.1914124" y="52.1671933">Letters</tspan>
                                    </text>
                                    <text id="Download-common-VA-letters" fill="#323A45" font-family="SourceSansPro-Regular, Source Sans Pro" font-size="29.5202708" font-weight="normal">
                                        <tspan x="19.1914124" y="105.551805">Download common VA letters</tspan>
                                    </text>
                                    <text id="and-documents" fill="#323A45" font-family="SourceSansPro-Regular, Source Sans Pro" font-size="29.5202708" font-weight="normal">
                                        <tspan x="19.1914124" y="149.824839">and documents</tspan>
                                    </text>
                                    <g id="Icons-/-Font-Awesome-/-almost-black-/-fa-chevron-right" transform="translate(433.341168, 81.167228)" fill="#0071BC">
                                        <path d="M14.9027851,12.3160263 L4.02708651,23.0577148 C3.66065461,23.4196315 3.07436359,23.4196315 2.70793169,23.0577148 L0.27482392,20.6545878 C-0.0916079732,20.292671 -0.0916079732,19.7136043 0.27482392,19.3516875 L8.05783733,11.6645762 L0.27482392,3.97746485 C-0.0916079732,3.61554812 -0.0916079732,3.03648136 0.27482392,2.67456463 L2.70793169,0.271437547 C3.07436359,-0.0904791822 3.66065461,-0.0904791822 4.02708651,0.271437547 L14.9027851,11.013126 C15.269217,11.3750428 15.269217,11.9541095 14.9027851,12.3160263 Z" id="fa-chevron-right"></path>
                                    </g>
                                </g>
                            </g>
                        </g>
                    </g>
                </g>
            </g>
            <text id="Good-morning,-Jerry-M-Brooks" fill="#323A45" fill-rule="nonzero" font-family="SourceSansPro-Bold, Source Sans Pro" font-size="29.9194811" font-weight="bold">
                <tspan x="65.1109799" y="293.552864">Good morning, Jerry M Brooks</tspan>
            </text>
            <g id="Bars/Home-Indicators/iPhone/Light---Portrait" transform="translate(210.611987, 1170.410976)" fill="#000000" fill-rule="nonzero">
                <rect id="Home-Indicator" x="0" y="0" width="171.075908" height="6.38129028" rx="3.19064514"></rect>
            </g>
            <g id="Bars/Status-Bars/iPhone/Dark" transform="translate(78.654564, 48.173264)">
                <g id="Battery" transform="translate(428.392228, 4.928047)">
                    <path d="M25.4630266,-1.55431223e-16 C26.9375824,-1.55431223e-16 27.4821879,0.128621808 28.0239185,0.418293631 C28.5113726,0.678943006 28.8939295,1.06143537 29.1546228,1.54880732 C29.4443435,2.09044654 29.572987,2.63496024 29.572987,4.10926729 L29.572987,4.10926729 L29.572987,10.440066 C29.572987,11.9143731 29.4443435,12.4588868 29.1546228,13.000526 C28.8939295,13.487898 28.5113726,13.8703903 28.0239185,14.1310397 C27.4821879,14.4207115 26.9375824,14.5493333 25.4630266,14.5493333 L25.4630266,14.5493333 L4.10996037,14.5493333 C2.63540466,14.5493333 2.09079912,14.4207115 1.54906854,14.1310397 C1.06161439,13.8703903 0.679057518,13.487898 0.418364181,13.000526 C0.128643502,12.4588868 -1.55457439e-16,11.9143731 -1.55457439e-16,10.440066 L-1.55457439e-16,10.440066 L-1.55457439e-16,4.10926729 C-1.55457439e-16,2.63496024 0.128643502,2.09044654 0.418364181,1.54880732 C0.679057518,1.06143537 1.06161439,0.678943006 1.54906854,0.418293631 C2.09079912,0.128621808 2.63540466,-1.55431223e-16 4.10996037,-1.55431223e-16 L4.10996037,-1.55431223e-16 L25.4630266,-1.55431223e-16 Z" id="Border" stroke="#FFFFFF" stroke-width="1.408" opacity="0.35"></path>
                    <path d="M31.6853432,4.45866667 L31.6853432,10.0906667 C32.8185957,9.61366932 33.5555361,8.50403835 33.5555361,7.27466664 C33.5555361,6.045295 32.8185957,4.935664 31.6853432,4.45866667" id="Cap" fill="#FFFFFF" fill-rule="nonzero" opacity="0.4"></path>
                    <path d="M4.51939577,2.112 L25.0535913,2.112 C25.8905713,2.112 26.1940805,2.19913231 26.500068,2.36274857 C26.8060554,2.52636483 27.0461961,2.76646504 27.2098399,3.07240086 C27.3734838,3.37833667 27.4606308,3.6817947 27.4606308,4.51863364 L27.4606308,10.0306997 C27.4606308,10.8675386 27.3734838,11.1709966 27.2098399,11.4769325 C27.0461961,11.7828683 26.8060554,12.0229685 26.500068,12.1865848 C26.1940805,12.350201 25.8905713,12.4373333 25.0535913,12.4373333 L4.51939577,12.4373333 C3.68241568,12.4373333 3.37890647,12.350201 3.07291905,12.1865848 C2.76693164,12.0229685 2.52679094,11.7828683 2.36314708,11.4769325 C2.19950322,11.1709966 2.11235621,10.8675386 2.11235621,10.0306997 L2.11235621,4.51863364 C2.11235621,3.6817947 2.19950322,3.37833667 2.36314708,3.07240086 C2.52679094,2.76646504 2.76693164,2.52636483 3.07291905,2.36274857 C3.37890647,2.19913231 3.68241568,2.112 4.51939577,2.112 Z" id="Capacity" fill="#FFFFFF" fill-rule="nonzero"></path>
                </g>
                <path d="M409.851049,7.43684501 C412.984,7.43698214 415.997151,8.63957017 418.267728,10.7960522 C418.438709,10.9625407 418.712002,10.9604405 418.880399,10.7913441 L420.514815,9.14351998 C420.600082,9.05775472 420.647622,8.94158076 420.646929,8.82070532 C420.646206,8.69982988 420.59731,8.58421928 420.511045,8.49945614 C414.551507,2.79391574 405.149647,2.79391574 399.190109,8.49945614 C399.103781,8.58415642 399.0548,8.69973188 399.053984,8.82060746 C399.053208,8.94148311 399.100663,9.05769242 399.185868,9.14351998 L400.820756,10.7913441 C400.989045,10.9606957 401.262549,10.9627974 401.433426,10.7960522 C403.704293,8.63942863 406.717789,7.4368371 409.851049,7.43684501 L409.851049,7.43684501 Z M409.851049,12.797923 C411.572402,12.7978177 413.232327,13.4369839 414.508287,14.5912265 C414.680867,14.7550399 414.952725,14.7514884 415.120958,14.5832228 L416.75349,12.9353987 C416.839462,12.8489656 416.887165,12.7317117 416.885971,12.6098695 C416.884685,12.4880274 416.834606,12.3717665 416.746891,12.2870976 C412.861337,8.67641033 406.84406,8.67641033 402.958505,12.2870976 C402.870736,12.3717656 402.82066,12.4880846 402.819468,12.6099661 C402.818356,12.7318477 402.866225,12.8490905 402.952378,12.9353987 L404.584438,14.5832228 C404.752671,14.7514884 405.024529,14.7550399 405.197108,14.5912265 C406.472225,13.4377466 408.130833,12.7986351 409.851049,12.797923 L409.851049,12.797923 Z M412.988393,16.730573 C413.075703,16.6449718 413.123786,16.527173 413.121288,16.404989 C413.11879,16.2828049 413.065933,16.1670654 412.975197,16.0850968 C411.171723,14.561259 408.530373,14.561259 406.7269,16.0850968 C406.636101,16.1669995 406.583158,16.2827025 406.58057,16.4048872 C406.577983,16.5270719 406.625982,16.6449079 406.713233,16.730573 L409.537644,19.5775423 C409.620426,19.6612127 409.733287,19.7083009 409.851049,19.7083009 C409.96881,19.7083009 410.081672,19.6612127 410.164453,19.5775423 L412.988393,16.730573 Z" id="Wifi" fill="#FFFFFF" fill-rule="nonzero"></path>
                <path d="M369.481007,14.0800475 L370.889245,14.0800475 C371.666993,14.0800475 372.297482,14.7104306 372.297482,15.4880475 L372.297482,18.3040475 C372.297482,19.0816644 371.666993,19.7120475 370.889245,19.7120475 L369.481007,19.7120475 C368.703259,19.7120475 368.07277,19.0816644 368.07277,18.3040475 L368.07277,15.4880475 C368.07277,14.7104306 368.703259,14.0800475 369.481007,14.0800475 L369.481007,14.0800475 Z M376.052782,11.2640475 L377.46102,11.2640475 C378.238768,11.2640475 378.869257,11.8944306 378.869257,12.6720475 L378.869257,18.3040475 C378.869257,19.0816644 378.238768,19.7120475 377.46102,19.7120475 L376.052782,19.7120475 C375.275034,19.7120475 374.644544,19.0816644 374.644544,18.3040475 L374.644544,12.6720475 C374.644544,11.8944306 375.275034,11.2640475 376.052782,11.2640475 Z M382.624557,7.97871417 L384.032794,7.97871417 C384.810543,7.97871417 385.441032,8.60909721 385.441032,9.38671419 L385.441032,18.3040475 C385.441032,19.0816644 384.810543,19.7120475 384.032794,19.7120475 L382.624557,19.7120475 C381.846809,19.7120475 381.216319,19.0816644 381.216319,18.3040475 L381.216319,9.38671419 C381.216319,8.60909721 381.846809,7.97871417 382.624557,7.97871417 Z M389.196332,4.69338086 L390.604569,4.69338086 C391.382317,4.69338086 392.012806,5.3237639 392.012806,6.10138081 L392.012806,18.3040475 C392.012806,19.0816644 391.382317,19.7120475 390.604569,19.7120475 L389.196332,19.7120475 C388.418584,19.7120475 387.788094,19.0816644 387.788094,18.3040475 L387.788094,6.10138081 C387.788094,5.3237639 388.418584,4.69338086 389.196332,4.69338086 L389.196332,4.69338086 Z" id="Cellular-Connection" fill="#FFFFFF" fill-rule="nonzero"></path>
                <g id="Group" transform="translate(-0.000000, 0.000000)" fill="#FFFFFF" fill-rule="nonzero" font-family="SFProText-Medium, SF Pro Text" font-size="21.12" font-weight="400">
                    <g id="Time-Style">
                        <text id="9:41">
                            <tspan x="0" y="20">9:41</tspan>
                        </text>
                    </g>
                </g>
            </g>
            <g id="Speaker-+-Camera" transform="translate(266.686639, 29.800476)" fill-rule="nonzero">
                <ellipse id="Oval" fill="#2D2E35" cx="89.8484846" cy="11.0220938" rx="11.0268595" ry="11.0220938"></ellipse>
                <ellipse id="Oval" fill-opacity="0.230391923" fill="#212227" cx="89.8484846" cy="11.0220938" rx="5.71763086" ry="5.71515976"></ellipse>
                <rect id="Rectangle" fill="#2D2E35" x="0" y="6.53161115" width="61.6687328" height="9.79741674" rx="4.89870837"></rect>
            </g>
        </g>
    </g>
</svg>