<?xml version="1.0" encoding="UTF-8"?>
<svg width="24px" height="24px" viewBox="0 0 16 17" version="1.1" xmlns="http://www.w3.org/2000/svg" xmlns:xlink="http://www.w3.org/1999/xlink">
    <!-- Generator: Sketch 64 (93537) - https://sketch.com -->
    <title>icons8-calendar</title>
    <desc>Created with Sketch.</desc>
    <g id="Symbols" stroke="none" stroke-width="1" fill="none" fill-rule="evenodd" stroke-linejoin="round">
        <g id="nav-icons/calendar" transform="translate(0.000000, -3.000000)" stroke="#0071BC">
            <g id="icons8-calendar" transform="translate(1.000000, 4.000000)">
                <path d="M2.54545455,1.27272727 L0.318181818,1.27272727 C0.127272727,1.27272727 0,1.4 0,1.59090909 L0,14.3181818 C0,14.5090909 0.127272727,14.6363636 0.318181818,14.6363636 L13.6818182,14.6363636 C13.8727273,14.6363636 14,14.5090909 14,14.3181818 L14,1.59090909 C14,1.4 13.8727273,1.27272727 13.6818182,1.27272727 L11.4545455,1.27272727 M10.1818182,1.27272727 L3.81818182,1.27272727 M0,4.13636364 L14,4.13636364" id="Shape" stroke-width="1.5"></path>
                <path d="M11.1363636,2.5 L10.5,2.5 C10.3243636,2.5 10.1818182,2.36 10.1818182,2.1875 L10.1818182,0.3125 C10.1818182,0.14 10.3243636,0 10.5,0 L11.1363636,0 C11.312,0 11.4545455,0.14 11.4545455,0.3125 L11.4545455,2.1875 C11.4545455,2.36 11.312,2.5 11.1363636,2.5 Z M3.5,2.5 L2.86363636,2.5 C2.688,2.5 2.54545455,2.36 2.54545455,2.1875 L2.54545455,0.3125 C2.54545455,0.14 2.688,0 2.86363636,0 L3.5,0 C3.67563636,0 3.81818182,0.14 3.81818182,0.3125 L3.81818182,2.1875 C3.81818182,2.36 3.67563636,2.5 3.5,2.5 Z" id="Shape" fill="#0071BC"></path>
            </g>
        </g>
    </g>
</svg>
