<?xml version="1.0" encoding="UTF-8"?>
<svg width="24px" height="24px" viewBox="0 0 16 16" version="1.1" xmlns="http://www.w3.org/2000/svg" xmlns:xlink="http://www.w3.org/1999/xlink">
    <!-- Generator: Sketch 64 (93537) - https://sketch.com -->
    <title>icons8-calendar (1)</title>
    <desc>Created with Sketch.</desc>
    <g id="Symbols" stroke="none" stroke-width="1" fill="none" fill-rule="evenodd">
        <g id="nav-icons/calendar-active" transform="translate(0.000000, -5.000000)" fill="#003E73" fill-rule="nonzero">
            <g id="icons8-calendar-(1)" transform="translate(0.000000, 5.000000)">
                <path d="M0,3.86956522 L0,14.6521739 C0,15.0553043 0.292521739,15.3478261 0.695652174,15.3478261 L15.3043478,15.3478261 C15.7074783,15.3478261 16,15.0553043 16,14.6521739 L16,3.86956522 L0,3.86956522 Z" id="Shape"></path>
                <path d="M15.3043478,0.0434782609 L12.8695652,0.0434782609 L12.8695652,1.7826087 L11.4782609,1.7826087 L11.4782609,0.0434782609 L4.52173913,0.0434782609 L4.52173913,1.7826087 L3.13043478,1.7826087 L3.13043478,0.0434782609 L0.695652174,0.0434782609 C0.292521739,0.0434782609 0,0.336 0,0.739130435 L0,3.17391304 L16,3.17391304 L16,0.739130435 C16,0.336 15.7074783,0.0434782609 15.3043478,0.0434782609 Z" id="Path"></path>
            </g>
        </g>
    </g>
</svg>
