<?xml version="1.0" encoding="UTF-8"?>
<svg width="16px" height="16px" viewBox="0 0 16 16" version="1.1" xmlns="http://www.w3.org/2000/svg" xmlns:xlink="http://www.w3.org/1999/xlink">
    <!-- Generator: Sketch 64 (93537) - https://sketch.com -->
    <title>user-circle-regular</title>
    <desc>Created with Sketch.</desc>
    <g id="Symbols" stroke="none" stroke-width="1" fill="none" fill-rule="evenodd">
        <g id="nav-icons/profile-active" transform="translate(0.000000, -4.000000)" fill="#003E73" fill-rule="nonzero">
            <g id="user-circle-regular" transform="translate(0.000000, 4.000000)">
                <path d="M8,3.09677419 C6.29032258,3.09677419 4.90322581,4.48387097 4.90322581,6.19354839 C4.90322581,7.90322581 6.29032258,9.29032258 8,9.29032258 C9.70967742,9.29032258 11.0967742,7.90322581 11.0967742,6.19354839 C11.0967742,4.48387097 9.70967742,3.09677419 8,3.09677419 Z M8,7.74193548 C7.14516129,7.74193548 6.4516129,7.0483871 6.4516129,6.19354839 C6.4516129,5.33870968 7.14516129,4.64516129 8,4.64516129 C8.85483871,4.64516129 9.5483871,5.33870968 9.5483871,6.19354839 C9.5483871,7.0483871 8.85483871,7.74193548 8,7.74193548 Z M8,0 C3.58064516,0 0,3.58064516 0,8 C0,12.4193548 3.58064516,16 8,16 C12.4193548,16 16,12.4193548 16,8 C16,3.58064516 12.4193548,0 8,0 Z M13.2483871,11.7387097 C12.4612903,10.7258065 11.2451613,10.0645161 9.85806452,10.0645161 C9.52903226,10.0645161 9.01935484,10.3741935 8,10.3741935 C6.98387097,10.3741935 6.47096774,10.0645161 6.14193548,10.0645161 C4.75806452,10.0645161 3.54193548,10.7258065 2.7516129,11.7387097 C1.99677419,10.683871 1.5483871,9.39354839 1.5483871,8 C1.5483871,4.44193548 4.44193548,1.5483871 8,1.5483871 C11.5580645,1.5483871 14.4516129,4.44193548 14.4516129,8 C14.4516129,9.39354839 14.0032258,10.683871 13.2483871,11.7387097 Z" id="Shape"></path>
            </g>
        </g>
    </g>
</svg>